<?xml version="1.0" encoding="UTF-8" standalone="no"?>
<!DOCTYPE svg PUBLIC "-//W3C//DTD SVG 1.1//EN" "http://www.w3.org/Graphics/SVG/1.1/DTD/svg11.dtd">
<svg version="1.1" xmlns="http://www.w3.org/2000/svg" xmlns:xlink="http://www.w3.org/1999/xlink" preserveAspectRatio="xMidYMid meet" viewBox="0 0 270 270" width="270" height="270"><defs><path d="M64.06 71.84C57.03 74.28 51.32 77.03 43.38 75.71C41.3 75.36 29.34 70.23 28.51 70.59C28.29 70.68 28.47 71.3 28.51 71.46C29.2 74.24 25.76 85.21 34.38 88.54C40.92 91.06 68.51 74.32 67.76 69.06" id="c8AAlTMkis"></path><path d="M64.06 71.84C57.03 74.28 51.32 77.03 43.38 75.71C41.3 75.36 29.34 70.23 28.51 70.59C28.29 70.68 28.47 71.3 28.51 71.46C29.2 74.24 25.76 85.21 34.38 88.54C40.92 91.06 68.51 74.32 67.76 69.06" id="h3GeUiPmEK"></path><path d="M63.03 70.6C59.35 77.06 56.86 82.89 50.01 87.13C48.22 88.24 35.83 92.24 35.44 93.06C35.34 93.26 35.89 93.62 36.02 93.71C38.37 95.35 43 105.87 51.68 102.7C58.26 100.3 68.02 69.53 63.99 66.07" id="c7Hjbl92OF"></path><path d="M63.03 70.6C59.35 77.06 56.86 82.89 50.01 87.13C48.22 88.24 35.83 92.24 35.44 93.06C35.34 93.26 35.89 93.62 36.02 93.71C38.37 95.35 43 105.87 51.68 102.7C58.26 100.3 68.02 69.53 63.99 66.07" id="c1PpFf27q2"></path><path d="M162.72 122.49C176.55 119.2 180.51 73.6 173.03 72.77C140 69.1 104.66 68.82 69.73 72.77C57.3 74.18 62.7 118.17 72.87 119.06C72.87 119.06 100.93 139.55 119.11 138.97C140.14 138.29 162.72 122.49 162.72 122.49" id="a4SXPt6IH"></path><path d="M162.72 122.49C176.55 119.2 180.51 73.6 173.03 72.77C140 69.1 104.66 68.82 69.73 72.77C57.3 74.18 62.7 118.17 72.87 119.06C72.87 119.06 100.93 139.55 119.11 138.97C140.14 138.29 162.72 122.49 162.72 122.49" id="bbV8Az2DN"></path><path d="M113.59 83.56C117.63 86.73 117.24 99.37 110.12 107.83C102.99 116.28 99.85 126.35 86.66 114.94C80.18 109.33 77.32 97.39 84.44 88.93C91.57 80.48 109.66 80.47 113.59 83.56" id="a1Qc4Kko52"></path><path d="M113.59 83.56C117.63 86.73 117.24 99.37 110.12 107.83C102.99 116.28 99.85 126.35 86.66 114.94C80.18 109.33 77.32 97.39 84.44 88.93C91.57 80.48 109.66 80.47 113.59 83.56" id="avg5iRXlg"></path><path d="M141.62 83.56C137.58 86.73 137.96 99.37 145.09 107.83C152.21 116.28 155.36 126.35 168.55 114.94C175.03 109.33 177.89 97.39 170.76 88.93C163.64 80.48 145.54 80.47 141.62 83.56" id="a226LfU4cv"></path><path d="M141.62 83.56C137.58 86.73 137.96 99.37 145.09 107.83C152.21 116.28 155.36 126.35 168.55 114.94C175.03 109.33 177.89 97.39 170.76 88.93C163.64 80.48 145.54 80.47 141.62 83.56" id="d1mFADHwmg"></path><path d="M128.4 120.05C125.89 120.05 119.63 109.92 120.88 107.89C122.13 105.86 134.67 105.86 135.92 107.89C137.17 109.92 130.91 120.05 128.4 120.05" id="a8oUg7ADUj"></path><path d="M128.4 120.05C125.89 120.05 119.63 109.92 120.88 107.89C122.13 105.86 134.67 105.86 135.92 107.89C137.17 109.92 130.91 120.05 128.4 120.05" id="btDPAe8yP"></path><path d="M99.02 91.96C102.35 91.96 105.06 94.66 105.06 97.99C105.06 101.32 102.35 104.03 99.02 104.03C95.69 104.03 92.99 101.32 92.99 97.99C92.99 94.66 95.69 91.96 99.02 91.96" id="e135vVxT42"></path><path d="M99.02 91.96C102.35 91.96 105.06 94.66 105.06 97.99C105.06 101.32 102.35 104.03 99.02 104.03C95.69 104.03 92.99 101.32 92.99 97.99C92.99 94.66 95.69 91.96 99.02 91.96" id="b2Robskhs"></path><path d="M156.19 91.96C152.85 91.96 150.15 94.66 150.15 97.99C150.15 101.32 152.85 104.03 156.19 104.03C159.52 104.03 162.22 101.32 162.22 97.99C162.22 94.66 159.52 91.96 156.19 91.96" id="bVGXWJXRo"></path><path d="M156.19 91.96C152.85 91.96 150.15 94.66 150.15 97.99C150.15 101.32 152.85 104.03 156.19 104.03C159.52 104.03 162.22 101.32 162.22 97.99C162.22 94.66 159.52 91.96 156.19 91.96" id="a92eUaAx8f"></path><path d="M101.56 92.52C102.94 92.52 104.06 93.64 104.06 95.02C104.06 96.4 102.94 97.52 101.56 97.52C100.18 97.52 99.06 96.4 99.06 95.02C99.06 93.64 100.18 92.52 101.56 92.52" id="ga735QHb"></path><path d="M101.56 92.52C102.94 92.52 104.06 93.64 104.06 95.02C104.06 96.4 102.94 97.52 101.56 97.52C100.18 97.52 99.06 96.4 99.06 95.02C99.06 93.64 100.18 92.52 101.56 92.52" id="g5sydnejrs"></path><path d="M153.65 92.52C152.26 92.52 151.14 93.64 151.14 95.02C151.14 96.4 152.26 97.52 153.65 97.52C155.03 97.52 156.15 96.4 156.15 95.02C156.15 93.64 155.03 92.52 153.65 92.52" id="a17vdCVwp5"></path><path d="M153.65 92.52C152.26 92.52 151.14 93.64 151.14 95.02C151.14 96.4 152.26 97.52 153.65 97.52C155.03 97.52 156.15 96.4 156.15 95.02C156.15 93.64 155.03 92.52 153.65 92.52" id="f8ybLuK9E"></path><path d="M124.32 22.91L126.17 23.04L128.01 23.21L129.85 23.45L131.67 23.73L133.48 24.06L135.28 24.45L137.07 24.89L138.84 25.38L140.59 25.93L142.32 26.52L144.03 27.17L145.72 27.86L147.38 28.61L149.02 29.41L150.63 30.26L152.21 31.16L153.76 32.11L155.27 33.12L156.76 34.17L158.2 35.27L158.84 34.75L159.49 34.25L160.15 33.78L160.83 33.33L161.51 32.91L162.21 32.52L162.91 32.16L163.62 31.82L164.33 31.51L165.06 31.22L165.79 30.96L166.52 30.73L167.26 30.53L167.99 30.35L168.74 30.2L169.48 30.08L170.22 29.98L170.97 29.91L171.71 29.87L172.45 29.85L173.19 29.87L173.92 29.9L174.65 29.97L175.37 30.06L176.09 30.18L176.8 30.33L177.51 30.5L178.2 30.71L178.89 30.94L179.56 31.19L180.23 31.48L180.88 31.79L181.52 32.13L182.15 32.49L182.76 32.89L183.36 33.31L183.94 33.75L184.51 34.23L185.06 34.73L185.59 35.27L186.12 35.84L186.61 36.44L187.08 37.05L187.51 37.68L187.92 38.32L188.29 38.98L188.64 39.66L188.95 40.34L189.23 41.04L189.49 41.75L189.71 42.47L189.9 43.2L190.06 43.93L190.2 44.68L190.3 45.43L190.37 46.18L190.42 46.94L190.43 47.71L190.42 48.47L190.37 49.24L190.3 50.01L190.19 50.78L190.06 51.55L189.9 52.32L189.71 53.08L189.49 53.84L189.24 54.6L188.96 55.35L188.65 56.09L188.32 56.83L187.95 57.56L187.56 58.28L187.14 58.99L186.69 59.69L186.21 60.38L185.71 61.05L185.17 61.71L184.61 62.36L184.02 62.99L183.4 63.6L183.25 63.74L183.11 63.87L182.96 64.01L182.81 64.14L182.67 64.27L182.22 64.66L181.92 64.9L181.76 65.03L181.61 65.15L181.46 65.27L181.3 65.38L181.15 65.5L180.99 65.62L180.84 65.73L180.52 65.95L180.36 66.06L180.2 66.17L180.04 66.27L179.88 66.38L179.08 66.88L178.91 66.97L178.75 67.06L178.58 67.16L178.42 67.25L178.25 67.34L178.09 67.42L177.92 67.51L177.75 67.6L177.59 67.68L177.42 67.76L177.25 67.84L177.08 67.92L177.12 68.15L177.16 68.39L177.19 68.62L177.23 68.86L177.26 69.09L177.29 69.33L177.33 69.56L177.39 70.04L177.42 70.28L177.48 70.76L177.5 71L177.53 71.24L177.55 71.48L177.58 71.72L177.6 71.96L177.62 72.21L177.65 72.45L177.67 72.69L177.69 72.94L177.71 73.18L177.72 73.43L177.74 73.68L177.76 73.92L177.77 74.17L177.79 74.42L177.8 74.67L177.82 74.92L177.83 75.17L177.85 75.67L177.86 75.92L177.87 76.17L177.87 76.43L177.88 76.68L177.88 76.93L177.89 77.19L177.89 95L178.03 96.2L178.15 97.39L178.25 98.55L178.33 99.71L178.39 100.84L178.43 101.95L178.44 103.05L178.44 104.13L178.42 105.2L178.38 106.25L178.31 107.28L178.23 108.3L178.14 109.29L178.02 110.28L177.88 111.24L177.73 112.19L177.56 113.13L177.37 114.05L177.16 114.95L176.94 115.84L176.7 116.71L176.44 117.57L176.16 118.41L175.87 119.24L175.56 120.05L175.24 120.85L174.9 121.63L174.55 122.4L174.18 123.15L173.79 123.89L173.39 124.61L172.97 125.32L172.54 126.02L172.1 126.7L171.64 127.37L171.17 128.03L170.68 128.67L170.18 129.3L169.67 129.91L169.14 130.51L169.7 130.36L170.25 130.2L170.8 130.03L171.35 129.87L171.9 129.71L172.45 129.54L174.1 129.03L174.64 128.86L175.19 128.68L175.73 128.51L176.28 128.33L176.82 128.15L177.36 127.97L177.9 127.79L178.44 127.6L178.98 127.41L179.52 127.23L180.6 126.85L181.13 126.65L181.67 126.46L182.2 126.26L182.74 126.07L183.27 125.87L183.8 125.66L184.33 125.46L184.86 125.26L185.38 125.05L186.44 124.63L186.96 124.42L187.48 124.21L188 123.99L188.53 123.78L189.04 123.56L189.56 123.34L190.08 123.12L190.6 122.89L193.44 122.25L195.12 122.49L195.4 122.53L195.61 122.57L195.81 122.6L195.95 122.62L196.23 122.66L198.65 124.01L198.69 124.07L198.74 124.12L198.78 124.17L198.83 124.23L198.87 124.28L198.92 124.33L198.96 124.39L199.01 124.44L199.06 124.49L199.1 124.54L199.15 124.6L199.2 124.65L199.24 124.7L199.29 124.75L199.34 124.8L199.39 124.86L199.43 124.91L199.48 124.96L199.53 125.01L199.57 125.07L199.62 125.12L199.66 125.17L199.71 125.23L199.75 125.28L199.8 125.33L199.84 125.39L199.89 125.44L199.93 125.5L199.97 125.55L200.01 125.61L200.05 125.67L200.09 125.72L200.13 125.78L200.17 125.84L200.2 125.9L200.28 126.02L200.31 126.08L200.34 126.14L200.37 126.2L201.06 128.91L201.05 128.98L201.04 129.04L201.04 129.11L201.03 129.18L201.01 129.32L201.01 129.39L201 129.46L200.99 129.53L200.99 129.6L200.98 129.67L200.98 129.74L200.96 129.88L200.96 129.95L200.95 130.02L200.95 130.08L200.94 130.15L200.93 130.22L200.93 130.29L200.92 130.36L200.91 130.43L200.9 130.5L200.9 130.57L200.89 130.64L200.88 130.71L200.87 130.78L200.86 130.84L200.85 130.91L200.84 130.98L200.82 131.05L200.81 131.12L200.79 131.18L200.78 131.25L200.76 131.32L200.75 131.39L200.73 131.45L200.71 131.52L200.69 131.58L200.67 131.65L200.6 131.83L200.54 132.01L200.48 132.17L200.41 132.33L200.35 132.48L200.28 132.63L200.22 132.76L200.15 132.9L200.08 133.02L200.02 133.14L199.95 133.26L199.88 133.37L199.81 133.48L199.73 133.58L199.66 133.68L199.58 133.78L199.51 133.87L199.43 133.96L199.35 134.05L199.26 134.14L199.18 134.22L199.09 134.31L199 134.39L198.91 134.47L198.82 134.55L198.72 134.63L198.62 134.72L198.52 134.8L198.42 134.88L198.31 134.97L198.2 135.06L198.08 135.14L197.97 135.23L197.85 135.33L197.46 135.63L197.33 135.74L197.19 135.85L197.05 135.97L196.22 136.42L195.4 136.86L194.57 137.3L192.91 138.16L192.08 138.58L191.25 138.99L190.42 139.4L189.59 139.81L188.76 140.21L187.92 140.6L187.09 140.99L186.25 141.38L185.41 141.76L182.89 142.87L182.05 143.23L181.2 143.59L180.36 143.94L179.51 144.29L178.67 144.63L177.82 144.97L176.97 145.31L176.12 145.64L175.26 145.97L174.41 146.3L173.56 146.62L172.7 146.94L171.84 147.25L170.98 147.56L170.12 147.87L169.26 148.17L168.4 148.47L167.53 148.77L166.67 149.07L165.8 149.36L164.06 149.94L163.19 150.22L162.83 150.34L162.65 150.4L162.47 150.45L162.29 150.51L162.11 150.57L161.93 150.63L161.75 150.68L161.58 150.74L161.4 150.8L161.22 150.85L160.86 150.97L160.68 151.02L160.5 151.08L160.32 151.13L160.13 151.19L159.95 151.25L159.77 151.3L159.59 151.36L159.41 151.41L159.23 151.47L159.05 151.52L158.87 151.58L158.69 151.63L158.51 151.69L158.33 151.74L158.15 151.79L157.96 151.85L157.78 151.9L157.6 151.96L157.42 152.01L157.24 152.06L157.06 152.12L156.87 152.17L156.51 152.27L156.33 152.33L156.15 152.38L155.96 152.43L155.98 152.45L156 152.47L156.01 152.48L156.02 152.5L156.03 152.51L156.07 152.57L156.08 152.58L156.84 153.58L157.21 154.1L157.58 154.63L157.95 155.16L158.69 156.26L159.05 156.82L159.42 157.39L159.78 157.97L160.14 158.55L160.49 159.14L160.85 159.73L161.2 160.33L162.25 162.16L162.93 163.4L163.26 164.02L163.6 164.65L163.93 165.28L164.26 165.91L165.54 168.43L165.85 169.07L166.16 169.69L166.46 170.32L166.76 170.95L167.06 171.57L167.35 172.19L167.64 172.81L167.93 173.42L168.49 174.64L168.76 175.24L169.03 175.83L169.29 176.42L169.94 176.56L171.24 176.86L171.89 177.01L172.53 177.16L173.18 177.31L173.83 177.47L174.48 177.63L175.12 177.79L175.77 177.95L176.41 178.11L177.06 178.28L177.7 178.44L178.35 178.61L179.63 178.95L180.28 179.12L180.92 179.3L181.56 179.47L182.2 179.65L182.85 179.83L184.13 180.19L184.77 180.38L185.41 180.56L186.05 180.75L186.68 180.94L187.32 181.13L187.96 181.32L188.6 181.51L189.23 181.71L189.87 181.9L190.51 182.1L191.14 182.3L191.78 182.5L192.41 182.7L193.04 182.91L193.68 183.11L194.31 183.32L194.94 183.52L195.6 183.74L195.93 183.85L196.25 183.95L196.58 184.06L196.91 184.17L197.23 184.28L197.56 184.39L197.89 184.5L198.21 184.61L198.87 184.83L199.19 184.95L199.52 185.06L199.84 185.18L200.17 185.29L200.81 185.53L201.14 185.65L202.1 186.01L202.42 186.14L202.74 186.26L203.38 186.52L203.69 186.65L204.01 186.79L204.33 186.92L204.95 187.2L205.27 187.34L205.58 187.48L206.2 187.78L206.5 187.93L206.81 188.08L207.12 188.24L207.42 188.4L207.72 188.56L207.75 188.57L207.79 188.59L207.82 188.61L207.84 188.62L207.86 188.63L207.89 188.65L207.93 188.67L207.96 188.69L207.98 188.7L208 188.71L208.03 188.72L208.05 188.74L208.07 188.75L208.1 188.76L208.12 188.78L208.14 188.79L208.17 188.81L208.19 188.82L208.21 188.83L208.23 188.85L208.26 188.86L208.28 188.87L208.3 188.89L208.33 188.9L208.35 188.92L208.37 188.93L208.39 188.94L208.42 188.96L208.44 188.97L208.46 188.99L208.49 189L208.51 189.01L208.53 189.03L208.55 189.04L208.58 189.06L208.6 189.07L208.62 189.09L208.64 189.1L208.85 189.16L209.05 189.21L209.25 189.27L209.45 189.32L209.64 189.38L210.02 189.48L210.2 189.53L210.37 189.58L210.55 189.63L210.71 189.67L210.88 189.72L211.04 189.76L211.49 189.88L211.77 189.96L211.9 189.99L212.02 190.02L212.15 190.05L212.26 190.08L212.37 190.11L212.48 190.14L212.58 190.16L212.67 190.19L212.76 190.21L212.84 190.23L212.92 190.25L212.99 190.26L213.06 190.28L213.12 190.29L213.17 190.3L213.22 190.31L213.26 190.31L213.29 190.32L213.35 190.32L213.36 190.31L213.44 190.21L213.53 190.12L213.62 190.02L213.82 189.82L213.93 189.73L214.15 189.55L214.27 189.46L214.39 189.37L214.78 189.13L215.04 188.99L215.18 188.92L215.31 188.85L215.45 188.79L215.59 188.74L215.72 188.69L215.86 188.64L215.99 188.6L216.13 188.56L216.26 188.53L216.39 188.5L216.52 188.48L216.64 188.47L216.76 188.46L217 188.46L217.11 188.47L217.22 188.49L217.32 188.52L217.42 188.55L217.6 188.63L217.68 188.69L217.75 188.75L217.82 188.82L217.88 188.9L218.01 189.14L218.11 189.44L218.19 189.79L218.24 190.19L218.27 190.63L218.27 191.11L218.26 191.64L218.23 192.2L218.17 192.8L218.1 193.42L218.02 194.07L217.92 194.75L217.8 195.45L217.67 196.17L217.53 196.9L217.38 197.64L217.22 198.39L216.88 199.91L216.69 200.67L216.51 201.43L216.32 202.18L216.13 202.92L215.93 203.65L215.74 204.36L215.55 205.05L215.35 205.73L215.17 206.37L214.98 206.99L214.81 207.58L214.64 208.13L214.47 208.64L214.32 209.12L214.18 209.55L214.05 209.93L213.93 210.27L213.82 210.55L213.73 210.78L213.65 210.94L213.6 211.05L213.45 211.19L213.2 211.31L212.86 211.4L212.44 211.48L211.93 211.54L211.33 211.58L210.65 211.6L209.89 211.6L209.06 211.58L208.16 211.55L207.19 211.5L206.15 211.44L205.05 211.36L203.88 211.26L202.66 211.15L201.38 211.03L200.05 210.9L198.67 210.75L197.25 210.59L195.78 210.42L194.27 210.25L192.72 210.06L191.14 209.86L189.52 209.65L187.88 209.44L186.21 209.21L184.51 208.98L182.79 208.75L181.06 208.51L179.31 208.26L177.55 208.01L175.78 207.75L172.22 207.23L170.43 206.97L168.65 206.7L165.11 206.16L163.35 205.9L161.6 205.63L161.37 205.84L161.13 206.04L160.9 206.25L160.42 206.65L160.18 206.84L159.95 207.04L159.71 207.23L159.23 207.61L158.99 207.8L158.75 207.99L158.5 208.17L158.26 208.35L158.02 208.53L157.78 208.71L157.54 208.88L157.3 209.06L157.06 209.23L156.82 209.39L156.58 209.56L156.34 209.72L156.11 209.89L155.87 210.05L155.63 210.2L155.39 210.36L155.16 210.51L154.92 210.66L154.69 210.81L154.45 210.95L154.22 211.1L153.99 211.24L153.76 211.37L153.53 211.51L153.3 211.64L153.08 211.77L152.85 211.9L152.63 212.03L151.97 212.39L151.51 212.63L151.28 212.74L151.05 212.86L150.81 212.98L150.56 213.09L150.32 213.21L150.07 213.32L149.81 213.43L149.56 213.55L149.3 213.66L149.03 213.77L148.77 213.88L148.5 213.99L148.23 214.1L147.95 214.21L147.67 214.31L147.39 214.42L147.11 214.52L146.82 214.62L146.53 214.73L146.24 214.83L145.95 214.92L145.65 215.02L145.35 215.12L145.05 215.21L144.75 215.31L143.51 215.67L143.2 215.75L142.88 215.84L142.56 215.92L142.25 216L141.92 216.08L141.6 216.16L141.28 216.23L140.95 216.31L140.88 217.89L140.81 219.46L140.74 221.04L140.67 222.61L140.59 224.17L140.51 225.73L140.43 227.27L140.35 228.81L140.27 230.32L140.19 231.83L140.1 233.31L140.01 234.77L139.92 236.21L139.83 237.63L139.74 239.02L139.64 240.39L139.55 241.72L139.45 243.02L139.35 244.29L139.25 245.52L139.14 246.71L139.03 247.86L138.93 248.97L138.82 250.04L138.7 251.06L138.59 252.04L138.47 252.96L138.35 253.83L138.23 254.65L138.11 255.42L137.98 256.12L137.86 256.77L137.73 257.36L137.6 257.88L137.46 258.33L137.32 258.72L137.19 259.04L137.05 259.29L136.9 259.47L136.76 259.57L136.64 259.6L136.47 259.65L135.93 259.74L135.58 259.8L135.18 259.85L134.73 259.91L134.23 259.97L133.69 260.03L133.12 260.1L132.51 260.16L131.87 260.22L131.2 260.28L130.5 260.34L129.79 260.4L129.05 260.46L128.3 260.51L127.53 260.56L126.76 260.6L125.98 260.64L124.42 260.7L123.65 260.72L122.88 260.74L121.37 260.74L120.64 260.73L119.94 260.71L119.25 260.68L118.59 260.65L117.97 260.6L117.37 260.53L116.81 260.46L116.3 260.37L115.82 260.28L115.39 260.16L115.01 260.04L114.69 259.9L114.41 259.74L114.2 259.57L114.14 259.49L114.08 259.41L114.03 259.33L113.99 259.24L113.96 259.14L113.94 259.05L113.93 258.94L113.92 258.84L113.93 258.73L113.94 258.62L113.95 258.5L113.98 258.39L114.01 258.27L114.09 258.03L114.14 257.9L114.2 257.78L114.26 257.66L114.33 257.53L114.4 257.41L114.48 257.28L114.56 257.16L114.64 257.04L114.73 256.92L114.82 256.8L114.92 256.68L115.02 256.56L115.12 256.45L115.22 256.34L115.33 256.23L115.43 256.13L115.54 256.03L115.65 255.93L115.77 255.84L115.88 255.75L115.99 255.67L116.11 255.6L116.22 255.52L116.33 255.46L116.45 255.4L116.45 255.39L116.46 255.38L116.46 255.33L116.47 255.3L116.47 255.09L116.46 255.03L116.46 254.79L116.45 254.7L116.45 254.6L116.44 254.5L116.44 254.39L116.43 254.28L116.42 254.16L116.41 254.03L116.41 253.9L116.4 253.76L116.39 253.62L116.38 253.48L116.37 253.33L116.35 253.17L116.34 253.01L116.33 252.85L116.32 252.68L116.3 252.5L116.28 252.14L116.26 251.95L116.25 251.76L116.23 251.57L116.22 251.37L116.2 251.16L116.18 250.96L116.17 250.75L116.15 250.53L116.14 250.51L116.13 250.48L116.12 250.46L116.11 250.43L116.1 250.41L116.09 250.39L116.08 250.36L116.07 250.34L116.06 250.31L116.05 250.29L116.04 250.26L116.03 250.24L116.03 250.21L116.02 250.19L116.01 250.16L116 250.14L115.99 250.11L115.98 250.09L115.96 250.03L115.95 250.01L115.94 249.98L115.93 249.96L115.93 249.93L115.92 249.91L115.91 249.88L115.9 249.86L115.89 249.83L115.88 249.81L115.87 249.78L115.87 249.76L115.86 249.73L115.85 249.71L115.84 249.68L115.83 249.66L115.82 249.63L115.82 249.61L115.81 249.58L115.8 249.56L115.79 249.53L115.69 249.2L115.6 248.87L115.5 248.54L115.32 247.88L115.23 247.55L115.15 247.22L115.07 246.88L114.91 246.22L114.83 245.88L114.76 245.55L114.69 245.21L114.62 244.88L114.55 244.54L114.49 244.2L114.42 243.86L114.36 243.53L114.24 242.85L114.19 242.51L114.13 242.17L114.08 241.83L114.02 241.49L113.97 241.15L113.77 239.79L113.72 239.45L113.68 239.1L113.63 238.76L113.59 238.42L113.54 238.08L113.5 237.74L113.45 237.39L113.41 237.05L113.36 236.71L113.32 236.37L113.28 236.03L113.01 233.9L112.93 233.18L112.69 231.05L112.61 230.34L112.53 229.63L112.46 228.91L112.39 228.2L112.32 227.49L112.25 226.78L112.18 226.06L112.12 225.35L112.05 224.64L111.99 223.92L111.93 223.21L111.87 222.49L111.82 221.78L111.76 221.07L111.71 220.35L111.66 219.64L111.61 218.92L111.57 218.21L111.52 217.49L111.48 216.78L111.44 216.06L111.41 215.35L111.37 214.63L111.34 213.92L111.3 213.2L111.27 212.49L111.25 211.77L111.22 211.06L111.2 210.34L111.18 209.63L111.16 208.91L111.14 208.2L111.13 207.48L110.77 206.89L110.42 206.28L110.06 205.64L109.7 204.98L109.34 204.3L108.98 203.6L108.62 202.88L108.27 202.14L107.91 201.38L107.56 200.6L107.21 199.8L106.87 198.98L106.52 198.15L106.19 197.29L105.86 196.42L105.54 195.53L105.22 194.62L104.92 193.69L104.62 192.75L104.33 191.79L104.05 190.82L103.78 189.83L103.53 188.82L103.28 187.8L103.05 186.76L102.83 185.71L102.63 184.65L102.44 183.57L102.27 182.48L102.11 181.37L101.97 180.25L101.84 179.12L101.74 177.98L101.65 176.83L101.58 175.66L101.53 174.48L101.51 173.29L101.5 172.09L101.52 170.88L101.55 169.66L101.43 169.81L101.3 169.96L101.17 170.11L101.05 170.26L100.93 170.42L100.8 170.57L100.68 170.72L100.56 170.88L100.44 171.03L100.32 171.19L100.21 171.34L100.09 171.5L99.97 171.65L99.53 172.29L99.42 172.44L99.31 172.6L99.2 172.76L99.09 172.93L98.99 173.09L98.89 173.25L98.79 173.41L98.68 173.57L98.59 173.74L98.49 173.9L98.39 174.07L98.29 174.23L98.2 174.4L98.11 174.57L98.02 174.73L97.84 175.07L97.75 175.24L97.67 175.41L97.58 175.58L97.5 175.75L97.26 176.26L97.05 176.77L96.93 177.11L96.87 177.29L96.81 177.46L96.71 177.82L96.66 177.99L96.62 178.17L96.58 178.35L96.54 178.53L96.5 178.71L96.47 178.89L96.44 179.07L96.42 179.25L96.38 179.61L96.36 179.79L96.35 179.97L96.35 180.15L96.34 180.33L96.34 180.51L96.35 180.69L96.37 181.05L96.38 181.23L96.4 181.41L96.43 181.59L96.46 181.76L96.49 181.94L96.53 182.11L96.57 182.29L96.72 182.8L96.78 182.97L96.85 183.14L96.88 183.24L96.92 183.33L96.96 183.42L97 183.51L97.04 183.61L97.09 183.7L97.13 183.79L97.17 183.88L97.22 183.97L97.26 184.06L97.36 184.24L97.41 184.33L97.45 184.41L97.5 184.5L97.56 184.59L97.61 184.68L97.66 184.76L97.71 184.85L97.76 184.93L97.82 185.02L97.87 185.1L97.93 185.19L97.98 185.27L98.04 185.35L98.1 185.44L98.16 185.52L98.22 185.6L98.27 185.68L98.45 185.92L98.52 186L98.7 186.24L98.77 186.32L98.83 186.4L98.89 186.47L98.96 186.55L99.06 186.71L99.15 186.87L99.23 187.02L99.32 187.16L99.4 187.3L99.49 187.44L99.57 187.57L99.64 187.69L99.72 187.82L99.79 187.94L99.86 188.06L99.93 188.17L100 188.28L100.06 188.4L100.13 188.51L100.19 188.62L100.24 188.73L100.3 188.84L100.35 188.94L100.45 189.16L100.49 189.28L100.54 189.39L100.58 189.5L100.62 189.62L100.65 189.74L100.69 189.86L100.72 189.99L100.74 190.12L100.77 190.25L100.81 190.53L100.83 190.68L100.85 190.83L100.86 190.99L100.87 191.16L100.88 191.33L100.88 191.5L100.89 191.69L100.89 191.88L100.88 192.02L100.88 192.16L100.87 192.3L100.85 192.58L100.83 192.71L100.81 192.85L100.77 193.13L100.75 193.26L100.69 193.54L100.65 193.67L100.62 193.8L100.58 193.94L100.54 194.07L100.5 194.2L100.45 194.33L100.41 194.46L100.36 194.59L100.3 194.72L100.25 194.85L100.19 194.97L100.13 195.1L100.01 195.34L99.94 195.46L99.87 195.58L99.8 195.7L99.73 195.81L99.65 195.93L99.41 196.26L99.33 196.36L99.24 196.47L99.15 196.57L99.06 196.67L98.97 196.77L98.87 196.87L96.54 198.35L96.47 198.36L96.4 198.38L96.33 198.39L96.27 198.4L96.2 198.42L96.13 198.43L96.06 198.45L96 198.46L95.93 198.48L95.86 198.49L95.79 198.51L95.72 198.53L95.66 198.54L95.59 198.56L95.52 198.57L95.45 198.59L95.39 198.61L95.32 198.62L95.25 198.64L95.18 198.65L95.12 198.67L95.05 198.68L94.98 198.69L94.91 198.71L94.84 198.72L94.78 198.73L94.71 198.75L94.64 198.76L94.57 198.77L94.5 198.78L94.43 198.79L94.37 198.8L94.3 198.8L94.23 198.81L94.16 198.82L94.02 198.82L93.96 198.83L93.82 198.83L93.63 198.82L93.44 198.82L93.26 198.81L93.09 198.8L92.93 198.79L92.77 198.77L92.62 198.75L92.47 198.73L92.33 198.71L92.19 198.68L92.06 198.65L91.93 198.62L91.81 198.59L91.57 198.51L91.45 198.47L91.34 198.43L90.9 198.23L90.79 198.17L90.69 198.12L90.58 198.05L90.47 197.99L90.36 197.93L90.03 197.72L89.91 197.64L89.8 197.57L89.68 197.49L89.55 197.4L89.42 197.32L89.29 197.23L89.16 197.15L89.01 197.06L88.87 196.96L88.72 196.87L88.56 196.77L88.03 196.28L87.51 195.77L87.02 195.27L86.54 194.75L86.08 194.23L85.63 193.71L85.2 193.18L84.79 192.64L84.4 192.1L84.02 191.55L83.66 191L83.32 190.44L83 189.88L82.69 189.31L82.4 188.74L82.12 188.16L81.86 187.58L81.62 186.99L81.4 186.4L81.19 185.81L81 185.21L80.83 184.61L80.67 184L80.53 183.39L80.41 182.78L80.3 182.17L80.21 181.55L80.14 180.92L80.08 180.3L80.04 179.67L80.01 179.04L80 178.41L80.01 177.77L80.03 177.13L80.07 176.49L80.13 175.85L80.2 175.2L80.29 174.56L80.4 173.91L80.52 173.26L80.63 172.75L80.74 172.23L80.87 171.73L81 171.22L81.14 170.72L81.29 170.22L81.61 169.22L81.78 168.73L81.96 168.24L82.15 167.75L82.35 167.27L82.55 166.78L82.76 166.3L82.97 165.83L83.2 165.35L83.66 164.41L83.9 163.94L84.15 163.48L84.41 163.01L84.66 162.55L84.93 162.09L85.2 161.64L85.48 161.19L85.76 160.74L86.04 160.29L86.33 159.84L87.23 158.52L87.54 158.08L87.85 157.65L88.17 157.22L88.49 156.79L88.81 156.36L89.14 155.94L89.46 155.52L89.8 155.1L90.13 154.68L90.34 154.42L90.55 154.17L90.97 153.67L91.18 153.42L91.4 153.17L91.61 152.92L91.83 152.67L92.05 152.42L92.26 152.18L92.48 151.93L92.92 151.45L93.15 151.21L93.59 150.73L93.82 150.49L94.04 150.25L94.27 150.01L94.5 149.78L94.73 149.54L94.96 149.31L95.19 149.07L95.42 148.84L95.65 148.61L96.11 148.15L96.35 147.92L96.58 147.69L96.82 147.46L97.05 147.23L97.53 146.77L97.77 146.55L98 146.32L98.24 146.1L98.48 145.87L98.72 145.65L98.96 145.42L99.2 145.2L97.43 144.86L95.68 144.49L93.96 144.08L92.25 143.63L90.57 143.15L88.91 142.62L87.29 142.06L85.69 141.46L84.12 140.81L82.59 140.12L81.09 139.39L79.63 138.62L78.21 137.8L76.82 136.93L75.48 136.02L74.18 135.05L72.93 134.04L71.72 132.98L70.57 131.87L69.46 130.7L68.4 129.48L67.4 128.21L66.46 126.89L65.57 125.5L64.74 124.06L63.97 122.57L63.26 121.01L62.62 119.39L62.04 117.72L61.53 115.98L61.09 114.18L60.73 112.31L60.43 110.39L60.21 108.39L60.06 106.33L60 104.2L60.01 102.01L60.1 99.74L60.28 97.41L60.54 95L60.54 77.7L60.56 77.48L60.59 77.25L60.61 77.03L60.64 76.81L60.66 76.59L60.81 75.49L60.83 75.27L60.87 75.05L60.9 74.83L60.93 74.62L60.99 74.18L61.03 73.97L61.06 73.75L61.09 73.54L61.13 73.32L61.16 73.11L61.2 72.9L61.24 72.68L61.27 72.47L61.31 72.26L61.35 72.05L61.39 71.83L61.47 71.41L61.51 71.2L61.55 70.99L61.59 70.79L61.63 70.58L61.68 70.37L61.72 70.16L61.76 69.96L61.81 69.75L61.85 69.54L61.9 69.34L61.95 69.13L61.86 69.07L61.38 68.71L61.29 68.65L61.05 68.47L60.97 68.4L60.73 68.22L60.65 68.15L60.57 68.09L60.49 68.02L60.41 67.96L60.34 67.89L60.26 67.83L60.18 67.76L60.1 67.7L59.94 67.56L59.87 67.49L59.79 67.43L59.63 67.29L59.56 67.22L59.48 67.15L59.4 67.08L59.32 67.02L59.25 66.95L59.17 66.88L59.1 66.8L58.94 66.66L58.87 66.59L58.79 66.52L58.04 65.77L57.32 65.01L56.64 64.23L55.99 63.42L55.38 62.61L54.8 61.77L54.25 60.93L53.74 60.06L53.27 59.19L52.82 58.31L52.42 57.41L52.04 56.51L51.71 55.6L51.41 54.68L51.14 53.76L50.91 52.83L50.71 51.9L50.55 50.97L50.42 50.04L50.33 49.1L50.28 48.17L50.26 47.24L50.28 46.31L50.33 45.39L50.42 44.47L50.55 43.56L50.71 42.66L50.9 41.77L51.14 40.89L51.41 40.01L51.72 39.15L52.06 38.31L52.44 37.48L52.86 36.66L53.31 35.86L53.8 35.08L54.33 34.32L54.89 33.57L55.5 32.85L56.14 32.15L56.76 31.52L57.41 30.93L58.08 30.36L58.76 29.83L59.47 29.33L60.19 28.86L60.93 28.42L61.68 28.01L62.45 27.64L63.24 27.3L64.03 26.98L64.84 26.7L65.66 26.45L66.48 26.24L67.32 26.05L68.17 25.9L69.02 25.77L69.88 25.68L70.74 25.62L71.61 25.59L72.49 25.59L73.36 25.62L74.24 25.69L75.12 25.78L76 25.91L76.87 26.06L77.75 26.25L78.62 26.47L79.49 26.72L80.36 27L81.22 27.31L82.07 27.66L82.91 28.03L83.75 28.43L84.58 28.87L85.4 29.33L86.21 29.83L87 30.36L87.79 30.92L88.55 31.5L90.19 30.56L91.84 29.68L93.52 28.85L95.23 28.07L96.96 27.35L98.7 26.68L100.47 26.06L102.25 25.5L104.04 24.99L105.85 24.54L107.67 24.14L109.51 23.79L111.35 23.49L113.19 23.25L115.04 23.06L116.9 22.93L118.76 22.84L120.61 22.81L122.47 22.83L124.32 22.91ZM116.81 81.13L115.63 81.14L114.46 81.15L113.31 81.16L112.18 81.18L111.05 81.19L108.83 81.23L107.74 81.25L106.66 81.27L105.58 81.3L103.44 81.36L102.38 81.39L101.33 81.43L100.27 81.46L99.22 81.51L98.17 81.55L96.07 81.65L95.02 81.71L93.96 81.76L92.9 81.83L91.84 81.89L90.77 81.96L89.7 82.04L87.52 82.2L86.42 82.29L85.31 82.38L84.19 82.47L83.05 82.58L81.9 82.68L80.74 82.79L79.56 82.91L78.37 83.03L77.16 83.16L75.93 83.29L74.69 83.43L73.8 83.59L72.98 83.84L72.25 84.19L71.59 84.63L71 85.15L70.48 85.74L70.04 86.41L69.66 87.14L69.34 87.94L69.09 88.79L68.9 89.69L68.77 90.63L68.7 91.62L68.69 92.64L68.73 93.69L68.82 94.76L68.96 95.86L69.15 96.96L69.38 98.07L69.66 99.19L69.98 100.3L70.34 101.4L70.74 102.5L71.18 103.57L71.65 104.61L72.15 105.63L72.68 106.62L73.24 107.56L73.83 108.46L74.45 109.3L75.08 110.09L75.74 110.82L76.41 111.48L77.11 112.07L77.81 112.59L78.53 113.02L79.27 113.36L80.01 113.61L80.76 113.75L81.51 113.8L168.17 115.13L168.66 114.99L169.14 114.76L169.6 114.44L170.06 114.04L170.51 113.56L170.94 113L171.35 112.38L171.75 111.69L172.13 110.94L172.5 110.14L172.85 109.29L173.17 108.39L173.48 107.46L173.76 106.49L174.03 105.49L174.27 104.46L174.48 103.42L174.67 102.36L174.83 101.29L174.96 100.22L175.07 99.15L175.14 98.08L175.19 97.02L175.2 95.98L175.18 94.96L175.13 93.96L175.04 92.99L174.92 92.05L174.76 91.16L174.56 90.31L174.32 89.51L174.05 88.76L173.73 88.07L173.37 87.45L172.97 86.9L172.53 86.42L172.04 86.02L171.5 85.7L170.92 85.47L170.29 85.34L169.03 85.19L167.77 85.05L166.5 84.9L165.23 84.76L163.96 84.61L162.68 84.47L161.4 84.32L160.12 84.18L158.83 84.03L157.54 83.89L156.25 83.75L154.96 83.61L153.66 83.47L152.37 83.33L151.07 83.19L149.77 83.06L148.48 82.93L147.18 82.8L145.88 82.67L144.59 82.55L143.29 82.43L142 82.31L140.71 82.2L139.41 82.1L138.12 81.99L136.84 81.89L135.55 81.8L134.27 81.71L132.99 81.63L131.72 81.55L130.45 81.47L129.18 81.41L126.66 81.29L125.41 81.25L124.16 81.2L122.91 81.17L121.68 81.14L120.44 81.13L119.22 81.12L118.01 81.12L116.81 81.13Z" id="b2QthV8hNE"></path><path d="M124.32 22.91L126.17 23.04L128.01 23.21L129.85 23.45L131.67 23.73L133.48 24.06L135.28 24.45L137.07 24.89L138.84 25.38L140.59 25.93L142.32 26.52L144.03 27.17L145.72 27.86L147.38 28.61L149.02 29.41L150.63 30.26L152.21 31.16L153.76 32.11L155.27 33.12L156.76 34.17L158.2 35.27L158.84 34.75L159.49 34.25L160.15 33.78L160.83 33.33L161.51 32.91L162.21 32.52L162.91 32.16L163.62 31.82L164.33 31.51L165.06 31.22L165.79 30.96L166.52 30.73L167.26 30.53L167.99 30.35L168.74 30.2L169.48 30.08L170.22 29.98L170.97 29.91L171.71 29.87L172.45 29.85L173.19 29.87L173.92 29.9L174.65 29.97L175.37 30.06L176.09 30.18L176.8 30.33L177.51 30.5L178.2 30.71L178.89 30.94L179.56 31.19L180.23 31.48L180.88 31.79L181.52 32.13L182.15 32.49L182.76 32.89L183.36 33.31L183.94 33.75L184.51 34.23L185.06 34.73L185.59 35.27L186.12 35.84L186.61 36.44L187.08 37.05L187.51 37.68L187.92 38.32L188.29 38.98L188.64 39.66L188.95 40.34L189.23 41.04L189.49 41.75L189.71 42.47L189.9 43.2L190.06 43.93L190.2 44.68L190.3 45.43L190.37 46.18L190.42 46.94L190.43 47.71L190.42 48.47L190.37 49.24L190.3 50.01L190.19 50.78L190.06 51.55L189.9 52.32L189.71 53.08L189.49 53.84L189.24 54.6L188.96 55.35L188.65 56.09L188.32 56.83L187.95 57.56L187.56 58.28L187.14 58.99L186.69 59.69L186.21 60.38L185.71 61.05L185.17 61.71L184.61 62.36L184.02 62.99L183.4 63.6L183.25 63.74L183.11 63.87L182.96 64.01L182.81 64.14L182.67 64.27L182.22 64.66L181.92 64.9L181.76 65.03L181.61 65.15L181.46 65.27L181.3 65.38L181.15 65.5L180.99 65.62L180.84 65.73L180.52 65.95L180.36 66.06L180.2 66.17L180.04 66.27L179.88 66.38L179.08 66.88L178.91 66.97L178.75 67.06L178.58 67.16L178.42 67.25L178.25 67.34L178.09 67.42L177.92 67.51L177.75 67.6L177.59 67.68L177.42 67.76L177.25 67.84L177.08 67.92L177.12 68.15L177.16 68.39L177.19 68.62L177.23 68.86L177.26 69.09L177.29 69.33L177.33 69.56L177.39 70.04L177.42 70.28L177.48 70.76L177.5 71L177.53 71.24L177.55 71.48L177.58 71.72L177.6 71.96L177.62 72.21L177.65 72.45L177.67 72.69L177.69 72.94L177.71 73.18L177.72 73.43L177.74 73.68L177.76 73.92L177.77 74.17L177.79 74.42L177.8 74.67L177.82 74.92L177.83 75.17L177.85 75.67L177.86 75.92L177.87 76.17L177.87 76.43L177.88 76.68L177.88 76.93L177.89 77.19L177.89 95L178.03 96.2L178.15 97.39L178.25 98.55L178.33 99.71L178.39 100.84L178.43 101.95L178.44 103.05L178.44 104.13L178.42 105.2L178.38 106.25L178.31 107.28L178.23 108.3L178.14 109.29L178.02 110.28L177.88 111.24L177.73 112.19L177.56 113.13L177.37 114.05L177.16 114.95L176.94 115.84L176.7 116.71L176.44 117.57L176.16 118.41L175.87 119.24L175.56 120.05L175.24 120.85L174.9 121.63L174.55 122.4L174.18 123.15L173.79 123.89L173.39 124.61L172.97 125.32L172.54 126.02L172.1 126.7L171.64 127.37L171.17 128.03L170.68 128.67L170.18 129.3L169.67 129.91L169.14 130.51L169.7 130.36L170.25 130.2L170.8 130.03L171.35 129.87L171.9 129.71L172.45 129.54L174.1 129.03L174.64 128.86L175.19 128.68L175.73 128.51L176.28 128.33L176.82 128.15L177.36 127.97L177.9 127.79L178.44 127.6L178.98 127.41L179.52 127.23L180.6 126.85L181.13 126.65L181.67 126.46L182.2 126.26L182.74 126.07L183.27 125.87L183.8 125.66L184.33 125.46L184.86 125.26L185.38 125.05L186.44 124.63L186.96 124.42L187.48 124.21L188 123.99L188.53 123.78L189.04 123.56L189.56 123.34L190.08 123.12L190.6 122.89L193.44 122.25L195.12 122.49L195.4 122.53L195.61 122.57L195.81 122.6L195.95 122.62L196.23 122.66L198.65 124.01L198.69 124.07L198.74 124.12L198.78 124.17L198.83 124.23L198.87 124.28L198.92 124.33L198.96 124.39L199.01 124.44L199.06 124.49L199.1 124.54L199.15 124.6L199.2 124.65L199.24 124.7L199.29 124.75L199.34 124.8L199.39 124.86L199.43 124.91L199.48 124.96L199.53 125.01L199.57 125.07L199.62 125.12L199.66 125.17L199.71 125.23L199.75 125.28L199.8 125.33L199.84 125.39L199.89 125.44L199.93 125.5L199.97 125.55L200.01 125.61L200.05 125.67L200.09 125.72L200.13 125.78L200.17 125.84L200.2 125.9L200.28 126.02L200.31 126.08L200.34 126.14L200.37 126.2L201.06 128.91L201.05 128.98L201.04 129.04L201.04 129.11L201.03 129.18L201.01 129.32L201.01 129.39L201 129.46L200.99 129.53L200.99 129.6L200.98 129.67L200.98 129.74L200.96 129.88L200.96 129.95L200.95 130.02L200.95 130.08L200.94 130.15L200.93 130.22L200.93 130.29L200.92 130.36L200.91 130.43L200.9 130.5L200.9 130.57L200.89 130.64L200.88 130.71L200.87 130.78L200.86 130.84L200.85 130.91L200.84 130.98L200.82 131.05L200.81 131.12L200.79 131.18L200.78 131.25L200.76 131.32L200.75 131.39L200.73 131.45L200.71 131.52L200.69 131.58L200.67 131.65L200.6 131.83L200.54 132.01L200.48 132.17L200.41 132.33L200.35 132.48L200.28 132.63L200.22 132.76L200.15 132.9L200.08 133.02L200.02 133.14L199.95 133.26L199.88 133.37L199.81 133.48L199.73 133.58L199.66 133.68L199.58 133.78L199.51 133.87L199.43 133.96L199.35 134.05L199.26 134.14L199.18 134.22L199.09 134.31L199 134.39L198.91 134.47L198.82 134.55L198.72 134.63L198.62 134.72L198.52 134.8L198.42 134.88L198.31 134.97L198.2 135.06L198.08 135.14L197.97 135.23L197.85 135.33L197.46 135.63L197.33 135.74L197.19 135.85L197.05 135.97L196.22 136.42L195.4 136.86L194.57 137.3L192.91 138.16L192.08 138.58L191.25 138.99L190.42 139.4L189.59 139.81L188.76 140.21L187.92 140.6L187.09 140.99L186.25 141.38L185.41 141.76L182.89 142.87L182.05 143.23L181.2 143.59L180.36 143.94L179.51 144.29L178.67 144.63L177.82 144.97L176.97 145.31L176.12 145.64L175.26 145.97L174.41 146.3L173.56 146.62L172.7 146.94L171.84 147.25L170.98 147.56L170.12 147.87L169.26 148.17L168.4 148.47L167.53 148.77L166.67 149.07L165.8 149.36L164.06 149.94L163.19 150.22L162.83 150.34L162.65 150.4L162.47 150.45L162.29 150.51L162.11 150.57L161.93 150.63L161.75 150.68L161.58 150.74L161.4 150.8L161.22 150.85L160.86 150.97L160.68 151.02L160.5 151.08L160.32 151.13L160.13 151.19L159.95 151.25L159.77 151.3L159.59 151.36L159.41 151.41L159.23 151.47L159.05 151.52L158.87 151.58L158.69 151.63L158.51 151.69L158.33 151.74L158.15 151.79L157.96 151.85L157.78 151.9L157.6 151.96L157.42 152.01L157.24 152.06L157.06 152.12L156.87 152.17L156.51 152.27L156.33 152.33L156.15 152.38L155.96 152.43L155.98 152.45L156 152.47L156.01 152.48L156.02 152.5L156.03 152.51L156.07 152.57L156.08 152.58L156.84 153.58L157.21 154.1L157.58 154.63L157.95 155.16L158.69 156.26L159.05 156.82L159.42 157.39L159.78 157.97L160.14 158.55L160.49 159.14L160.85 159.73L161.2 160.33L162.25 162.16L162.93 163.4L163.26 164.02L163.6 164.65L163.93 165.28L164.26 165.91L165.54 168.43L165.85 169.07L166.16 169.69L166.46 170.32L166.76 170.95L167.06 171.57L167.35 172.19L167.64 172.81L167.93 173.42L168.49 174.64L168.76 175.24L169.03 175.83L169.29 176.42L169.94 176.56L171.24 176.86L171.89 177.01L172.53 177.16L173.18 177.31L173.83 177.47L174.48 177.63L175.12 177.79L175.77 177.95L176.41 178.11L177.06 178.28L177.7 178.44L178.35 178.61L179.63 178.95L180.28 179.12L180.92 179.3L181.56 179.47L182.2 179.65L182.85 179.83L184.13 180.19L184.77 180.38L185.41 180.56L186.05 180.75L186.68 180.94L187.32 181.13L187.96 181.32L188.6 181.51L189.23 181.71L189.87 181.9L190.51 182.1L191.14 182.3L191.78 182.5L192.41 182.7L193.04 182.91L193.68 183.11L194.31 183.32L194.94 183.52L195.6 183.74L195.93 183.85L196.25 183.95L196.58 184.06L196.91 184.17L197.23 184.28L197.56 184.39L197.89 184.5L198.21 184.61L198.87 184.83L199.19 184.95L199.52 185.06L199.84 185.18L200.17 185.29L200.81 185.53L201.14 185.65L202.1 186.01L202.42 186.14L202.74 186.26L203.38 186.52L203.69 186.65L204.01 186.79L204.33 186.92L204.95 187.2L205.27 187.34L205.58 187.48L206.2 187.78L206.5 187.93L206.81 188.08L207.12 188.24L207.42 188.4L207.72 188.56L207.75 188.57L207.79 188.59L207.82 188.61L207.84 188.62L207.86 188.63L207.89 188.65L207.93 188.67L207.96 188.69L207.98 188.7L208 188.71L208.03 188.72L208.05 188.74L208.07 188.75L208.1 188.76L208.12 188.78L208.14 188.79L208.17 188.81L208.19 188.82L208.21 188.83L208.23 188.85L208.26 188.86L208.28 188.87L208.3 188.89L208.33 188.9L208.35 188.92L208.37 188.93L208.39 188.94L208.42 188.96L208.44 188.97L208.46 188.99L208.49 189L208.51 189.01L208.53 189.03L208.55 189.04L208.58 189.06L208.6 189.07L208.62 189.09L208.64 189.1L208.85 189.16L209.05 189.21L209.25 189.27L209.45 189.32L209.64 189.38L210.02 189.48L210.2 189.53L210.37 189.58L210.55 189.63L210.71 189.67L210.88 189.72L211.04 189.76L211.49 189.88L211.77 189.96L211.9 189.99L212.02 190.02L212.15 190.05L212.26 190.08L212.37 190.11L212.48 190.14L212.58 190.16L212.67 190.19L212.76 190.21L212.84 190.23L212.92 190.25L212.99 190.26L213.06 190.28L213.12 190.29L213.17 190.3L213.22 190.31L213.26 190.31L213.29 190.32L213.35 190.32L213.36 190.31L213.44 190.21L213.53 190.12L213.62 190.02L213.82 189.82L213.93 189.73L214.15 189.55L214.27 189.46L214.39 189.37L214.78 189.13L215.04 188.99L215.18 188.92L215.31 188.85L215.45 188.79L215.59 188.74L215.72 188.69L215.86 188.64L215.99 188.6L216.13 188.56L216.26 188.53L216.39 188.5L216.52 188.48L216.64 188.47L216.76 188.46L217 188.46L217.11 188.47L217.22 188.49L217.32 188.52L217.42 188.55L217.6 188.63L217.68 188.69L217.75 188.75L217.82 188.82L217.88 188.9L218.01 189.14L218.11 189.44L218.19 189.79L218.24 190.19L218.27 190.63L218.27 191.11L218.26 191.64L218.23 192.2L218.17 192.8L218.1 193.42L218.02 194.07L217.92 194.75L217.8 195.45L217.67 196.17L217.53 196.9L217.38 197.64L217.22 198.39L216.88 199.91L216.69 200.67L216.51 201.43L216.32 202.18L216.13 202.92L215.93 203.65L215.74 204.36L215.55 205.05L215.35 205.73L215.17 206.37L214.98 206.99L214.81 207.58L214.64 208.13L214.47 208.64L214.32 209.12L214.18 209.55L214.05 209.93L213.93 210.27L213.82 210.55L213.73 210.78L213.65 210.94L213.6 211.05L213.45 211.19L213.2 211.31L212.86 211.4L212.44 211.48L211.93 211.54L211.33 211.58L210.65 211.6L209.89 211.6L209.06 211.58L208.16 211.55L207.19 211.5L206.15 211.44L205.05 211.36L203.88 211.26L202.66 211.15L201.38 211.03L200.05 210.9L198.67 210.75L197.25 210.59L195.78 210.42L194.27 210.25L192.72 210.06L191.14 209.86L189.52 209.65L187.88 209.44L186.21 209.21L184.51 208.98L182.79 208.75L181.06 208.51L179.31 208.26L177.55 208.01L175.78 207.75L172.22 207.23L170.43 206.97L168.65 206.7L165.11 206.16L163.35 205.9L161.6 205.63L161.37 205.84L161.13 206.04L160.9 206.25L160.42 206.65L160.18 206.84L159.95 207.04L159.71 207.23L159.23 207.61L158.99 207.8L158.75 207.99L158.5 208.17L158.26 208.35L158.02 208.53L157.78 208.71L157.54 208.88L157.3 209.06L157.06 209.23L156.82 209.39L156.58 209.56L156.34 209.72L156.11 209.89L155.87 210.05L155.63 210.2L155.39 210.36L155.16 210.51L154.92 210.66L154.69 210.81L154.45 210.95L154.22 211.1L153.99 211.24L153.76 211.37L153.53 211.51L153.3 211.64L153.08 211.77L152.85 211.9L152.63 212.03L151.97 212.39L151.51 212.63L151.28 212.74L151.05 212.86L150.81 212.98L150.56 213.09L150.32 213.21L150.07 213.32L149.81 213.43L149.56 213.55L149.3 213.66L149.03 213.77L148.77 213.88L148.5 213.99L148.23 214.1L147.95 214.21L147.67 214.31L147.39 214.42L147.11 214.52L146.82 214.62L146.53 214.73L146.24 214.83L145.95 214.92L145.65 215.02L145.35 215.12L145.05 215.21L144.75 215.31L143.51 215.67L143.2 215.75L142.88 215.84L142.56 215.92L142.25 216L141.92 216.08L141.6 216.16L141.28 216.23L140.95 216.31L140.88 217.89L140.81 219.46L140.74 221.04L140.67 222.61L140.59 224.17L140.51 225.73L140.43 227.27L140.35 228.81L140.27 230.32L140.19 231.83L140.1 233.31L140.01 234.77L139.92 236.21L139.83 237.63L139.74 239.02L139.64 240.39L139.55 241.72L139.45 243.02L139.35 244.29L139.25 245.52L139.14 246.71L139.03 247.86L138.93 248.97L138.82 250.04L138.7 251.06L138.59 252.04L138.47 252.96L138.35 253.83L138.23 254.65L138.11 255.42L137.98 256.12L137.86 256.77L137.73 257.36L137.6 257.88L137.46 258.33L137.32 258.72L137.19 259.04L137.05 259.29L136.9 259.47L136.76 259.57L136.64 259.6L136.47 259.65L135.93 259.74L135.58 259.8L135.18 259.85L134.73 259.91L134.23 259.97L133.69 260.03L133.12 260.1L132.51 260.16L131.87 260.22L131.2 260.28L130.5 260.34L129.79 260.4L129.05 260.46L128.3 260.51L127.53 260.56L126.76 260.6L125.98 260.64L124.42 260.7L123.65 260.72L122.88 260.74L121.37 260.74L120.64 260.73L119.94 260.71L119.25 260.68L118.59 260.65L117.97 260.6L117.37 260.53L116.81 260.46L116.3 260.37L115.82 260.28L115.39 260.16L115.01 260.04L114.69 259.9L114.41 259.74L114.2 259.57L114.14 259.49L114.08 259.41L114.03 259.33L113.99 259.24L113.96 259.14L113.94 259.05L113.93 258.94L113.92 258.84L113.93 258.73L113.94 258.62L113.95 258.5L113.98 258.39L114.01 258.27L114.09 258.03L114.14 257.9L114.2 257.78L114.26 257.66L114.33 257.53L114.4 257.41L114.48 257.28L114.56 257.16L114.64 257.04L114.73 256.92L114.82 256.8L114.92 256.68L115.02 256.56L115.12 256.45L115.22 256.34L115.33 256.23L115.43 256.13L115.54 256.03L115.65 255.93L115.77 255.84L115.88 255.75L115.99 255.67L116.11 255.6L116.22 255.52L116.33 255.46L116.45 255.4L116.45 255.39L116.46 255.38L116.46 255.33L116.47 255.3L116.47 255.09L116.46 255.03L116.46 254.79L116.45 254.7L116.45 254.6L116.44 254.5L116.44 254.39L116.43 254.28L116.42 254.16L116.41 254.03L116.41 253.9L116.4 253.76L116.39 253.62L116.38 253.48L116.37 253.33L116.35 253.17L116.34 253.01L116.33 252.85L116.32 252.68L116.3 252.5L116.28 252.14L116.26 251.95L116.25 251.76L116.23 251.57L116.22 251.37L116.2 251.16L116.18 250.96L116.17 250.75L116.15 250.53L116.14 250.51L116.13 250.48L116.12 250.46L116.11 250.43L116.1 250.41L116.09 250.39L116.08 250.36L116.07 250.34L116.06 250.31L116.05 250.29L116.04 250.26L116.03 250.24L116.03 250.21L116.02 250.19L116.01 250.16L116 250.14L115.99 250.11L115.98 250.09L115.96 250.03L115.95 250.01L115.94 249.98L115.93 249.96L115.93 249.93L115.92 249.91L115.91 249.88L115.9 249.86L115.89 249.83L115.88 249.81L115.87 249.78L115.87 249.76L115.86 249.73L115.85 249.71L115.84 249.68L115.83 249.66L115.82 249.63L115.82 249.61L115.81 249.58L115.8 249.56L115.79 249.53L115.69 249.2L115.6 248.87L115.5 248.54L115.32 247.88L115.23 247.55L115.15 247.22L115.07 246.88L114.91 246.22L114.83 245.88L114.76 245.55L114.69 245.21L114.62 244.88L114.55 244.54L114.49 244.2L114.42 243.86L114.36 243.53L114.24 242.85L114.19 242.51L114.13 242.17L114.08 241.83L114.02 241.49L113.97 241.15L113.77 239.79L113.72 239.45L113.68 239.1L113.63 238.76L113.59 238.42L113.54 238.08L113.5 237.74L113.45 237.39L113.41 237.05L113.36 236.71L113.32 236.37L113.28 236.03L113.01 233.9L112.93 233.18L112.69 231.05L112.61 230.34L112.53 229.63L112.46 228.91L112.39 228.2L112.32 227.49L112.25 226.78L112.18 226.06L112.12 225.35L112.05 224.64L111.99 223.92L111.93 223.21L111.87 222.49L111.82 221.78L111.76 221.07L111.71 220.35L111.66 219.64L111.61 218.92L111.57 218.21L111.52 217.49L111.48 216.78L111.44 216.06L111.41 215.35L111.37 214.63L111.34 213.92L111.3 213.2L111.27 212.49L111.25 211.77L111.22 211.06L111.2 210.34L111.18 209.63L111.16 208.91L111.14 208.2L111.13 207.48L110.77 206.89L110.42 206.28L110.06 205.64L109.7 204.98L109.34 204.3L108.98 203.6L108.62 202.88L108.27 202.14L107.91 201.38L107.56 200.6L107.21 199.8L106.87 198.98L106.52 198.15L106.19 197.29L105.86 196.42L105.54 195.53L105.22 194.62L104.92 193.69L104.62 192.75L104.33 191.79L104.05 190.82L103.78 189.83L103.53 188.82L103.28 187.8L103.05 186.76L102.83 185.71L102.63 184.65L102.44 183.57L102.27 182.48L102.11 181.37L101.97 180.25L101.84 179.12L101.74 177.98L101.65 176.83L101.58 175.66L101.53 174.48L101.51 173.29L101.5 172.09L101.52 170.88L101.55 169.66L101.43 169.81L101.3 169.96L101.17 170.11L101.05 170.26L100.93 170.42L100.8 170.57L100.68 170.72L100.56 170.88L100.44 171.03L100.32 171.19L100.21 171.34L100.09 171.5L99.97 171.65L99.53 172.29L99.42 172.44L99.31 172.6L99.2 172.76L99.09 172.93L98.99 173.09L98.89 173.25L98.79 173.41L98.68 173.57L98.59 173.74L98.49 173.9L98.39 174.07L98.29 174.23L98.2 174.4L98.11 174.57L98.02 174.73L97.84 175.07L97.75 175.24L97.67 175.41L97.58 175.58L97.5 175.75L97.26 176.26L97.05 176.77L96.93 177.11L96.87 177.29L96.81 177.46L96.71 177.82L96.66 177.99L96.62 178.17L96.58 178.35L96.54 178.53L96.5 178.71L96.47 178.89L96.44 179.07L96.42 179.25L96.38 179.61L96.36 179.79L96.35 179.97L96.35 180.15L96.34 180.33L96.34 180.51L96.35 180.69L96.37 181.05L96.38 181.23L96.4 181.41L96.43 181.59L96.46 181.76L96.49 181.94L96.53 182.11L96.57 182.29L96.72 182.8L96.78 182.97L96.85 183.14L96.88 183.24L96.92 183.33L96.96 183.42L97 183.51L97.04 183.61L97.09 183.7L97.13 183.79L97.17 183.88L97.22 183.97L97.26 184.06L97.36 184.24L97.41 184.33L97.45 184.41L97.5 184.5L97.56 184.59L97.61 184.68L97.66 184.76L97.71 184.85L97.76 184.93L97.82 185.02L97.87 185.1L97.93 185.19L97.98 185.27L98.04 185.35L98.1 185.44L98.16 185.52L98.22 185.6L98.27 185.68L98.45 185.92L98.52 186L98.7 186.24L98.77 186.32L98.83 186.4L98.89 186.47L98.96 186.55L99.06 186.71L99.15 186.87L99.23 187.02L99.32 187.16L99.4 187.3L99.49 187.44L99.57 187.57L99.64 187.69L99.72 187.82L99.79 187.94L99.86 188.06L99.93 188.17L100 188.28L100.06 188.4L100.13 188.51L100.19 188.62L100.24 188.73L100.3 188.84L100.35 188.94L100.45 189.16L100.49 189.28L100.54 189.39L100.58 189.5L100.62 189.62L100.65 189.74L100.69 189.86L100.72 189.99L100.74 190.12L100.77 190.25L100.81 190.53L100.83 190.68L100.85 190.83L100.86 190.99L100.87 191.16L100.88 191.33L100.88 191.5L100.89 191.69L100.89 191.88L100.88 192.02L100.88 192.16L100.87 192.3L100.85 192.58L100.83 192.71L100.81 192.85L100.77 193.13L100.75 193.26L100.69 193.54L100.65 193.67L100.62 193.8L100.58 193.94L100.54 194.07L100.5 194.2L100.45 194.33L100.41 194.46L100.36 194.59L100.3 194.72L100.25 194.85L100.19 194.97L100.13 195.1L100.01 195.34L99.94 195.46L99.87 195.58L99.8 195.7L99.73 195.81L99.65 195.93L99.41 196.26L99.33 196.36L99.24 196.47L99.15 196.57L99.06 196.67L98.97 196.77L98.87 196.87L96.54 198.35L96.47 198.36L96.4 198.38L96.33 198.39L96.27 198.4L96.2 198.42L96.13 198.43L96.06 198.45L96 198.46L95.93 198.48L95.86 198.49L95.79 198.51L95.72 198.53L95.66 198.54L95.59 198.56L95.52 198.57L95.45 198.59L95.39 198.61L95.32 198.62L95.25 198.64L95.18 198.65L95.12 198.67L95.05 198.68L94.98 198.69L94.91 198.71L94.84 198.72L94.78 198.73L94.71 198.75L94.64 198.76L94.57 198.77L94.5 198.78L94.43 198.79L94.37 198.8L94.3 198.8L94.23 198.81L94.16 198.82L94.02 198.82L93.96 198.83L93.82 198.83L93.63 198.82L93.44 198.82L93.26 198.81L93.09 198.8L92.93 198.79L92.77 198.77L92.62 198.75L92.47 198.73L92.33 198.71L92.19 198.68L92.06 198.65L91.93 198.62L91.81 198.59L91.57 198.51L91.45 198.47L91.34 198.43L90.9 198.23L90.79 198.17L90.69 198.12L90.58 198.05L90.47 197.99L90.36 197.93L90.03 197.72L89.91 197.64L89.8 197.57L89.68 197.49L89.55 197.4L89.42 197.32L89.29 197.23L89.16 197.15L89.01 197.06L88.87 196.96L88.72 196.87L88.56 196.77L88.03 196.28L87.51 195.77L87.02 195.27L86.54 194.75L86.08 194.23L85.63 193.71L85.2 193.18L84.79 192.64L84.4 192.1L84.02 191.55L83.66 191L83.32 190.44L83 189.88L82.69 189.31L82.4 188.74L82.12 188.16L81.86 187.58L81.62 186.99L81.4 186.4L81.19 185.81L81 185.21L80.83 184.61L80.67 184L80.53 183.39L80.41 182.78L80.3 182.17L80.21 181.55L80.14 180.92L80.08 180.3L80.04 179.67L80.01 179.04L80 178.41L80.01 177.77L80.03 177.13L80.07 176.49L80.13 175.85L80.2 175.2L80.29 174.56L80.4 173.91L80.52 173.26L80.63 172.75L80.74 172.23L80.87 171.73L81 171.22L81.14 170.72L81.29 170.22L81.61 169.22L81.78 168.73L81.96 168.24L82.15 167.75L82.35 167.27L82.55 166.78L82.76 166.3L82.97 165.83L83.2 165.35L83.66 164.41L83.9 163.94L84.15 163.48L84.41 163.01L84.66 162.55L84.93 162.09L85.2 161.64L85.48 161.19L85.76 160.74L86.04 160.29L86.33 159.84L87.23 158.52L87.54 158.08L87.85 157.65L88.17 157.22L88.49 156.79L88.81 156.36L89.14 155.94L89.46 155.52L89.8 155.1L90.13 154.68L90.34 154.42L90.55 154.17L90.97 153.67L91.18 153.42L91.4 153.17L91.61 152.92L91.83 152.67L92.05 152.42L92.26 152.18L92.48 151.93L92.92 151.45L93.15 151.21L93.59 150.73L93.82 150.49L94.04 150.25L94.27 150.01L94.5 149.78L94.73 149.54L94.96 149.31L95.19 149.07L95.42 148.84L95.65 148.61L96.11 148.15L96.35 147.92L96.58 147.69L96.82 147.46L97.05 147.23L97.53 146.77L97.77 146.55L98 146.32L98.24 146.1L98.48 145.87L98.72 145.65L98.96 145.42L99.2 145.2L97.43 144.86L95.68 144.49L93.96 144.08L92.25 143.63L90.57 143.15L88.91 142.62L87.29 142.06L85.69 141.46L84.12 140.81L82.59 140.12L81.09 139.39L79.63 138.62L78.21 137.8L76.82 136.93L75.48 136.02L74.18 135.05L72.93 134.04L71.72 132.98L70.57 131.87L69.46 130.7L68.4 129.48L67.4 128.21L66.46 126.89L65.57 125.5L64.74 124.06L63.97 122.57L63.26 121.01L62.62 119.39L62.04 117.72L61.53 115.98L61.09 114.18L60.73 112.31L60.43 110.39L60.21 108.39L60.06 106.33L60 104.2L60.01 102.01L60.1 99.74L60.28 97.41L60.54 95L60.54 77.7L60.56 77.48L60.59 77.25L60.61 77.03L60.64 76.81L60.66 76.59L60.81 75.49L60.83 75.27L60.87 75.05L60.9 74.83L60.93 74.62L60.99 74.18L61.03 73.97L61.06 73.75L61.09 73.54L61.13 73.32L61.16 73.11L61.2 72.9L61.24 72.68L61.27 72.47L61.31 72.26L61.35 72.05L61.39 71.83L61.47 71.41L61.51 71.2L61.55 70.99L61.59 70.79L61.63 70.58L61.68 70.37L61.72 70.16L61.76 69.96L61.81 69.75L61.85 69.54L61.9 69.34L61.95 69.13L61.86 69.07L61.38 68.71L61.29 68.65L61.05 68.47L60.97 68.4L60.73 68.22L60.65 68.15L60.57 68.09L60.49 68.02L60.41 67.96L60.34 67.89L60.26 67.83L60.18 67.76L60.1 67.7L59.94 67.56L59.87 67.49L59.79 67.43L59.63 67.29L59.56 67.22L59.48 67.15L59.4 67.08L59.32 67.02L59.25 66.95L59.17 66.88L59.1 66.8L58.94 66.66L58.87 66.59L58.79 66.52L58.04 65.77L57.32 65.01L56.64 64.23L55.99 63.42L55.38 62.61L54.8 61.77L54.25 60.93L53.74 60.06L53.27 59.19L52.82 58.31L52.42 57.41L52.04 56.51L51.71 55.6L51.41 54.68L51.14 53.76L50.91 52.83L50.71 51.9L50.55 50.97L50.42 50.04L50.33 49.1L50.28 48.17L50.26 47.24L50.28 46.31L50.33 45.39L50.42 44.47L50.55 43.56L50.71 42.66L50.9 41.77L51.14 40.89L51.41 40.01L51.72 39.15L52.06 38.31L52.44 37.48L52.86 36.66L53.31 35.86L53.8 35.08L54.33 34.32L54.89 33.57L55.5 32.85L56.14 32.15L56.76 31.52L57.41 30.93L58.08 30.36L58.76 29.83L59.47 29.33L60.19 28.86L60.93 28.42L61.68 28.01L62.45 27.64L63.24 27.3L64.03 26.98L64.84 26.7L65.66 26.45L66.48 26.24L67.32 26.05L68.17 25.9L69.02 25.77L69.88 25.68L70.74 25.62L71.61 25.59L72.49 25.59L73.36 25.62L74.24 25.69L75.12 25.78L76 25.91L76.87 26.06L77.75 26.25L78.62 26.47L79.49 26.72L80.36 27L81.22 27.31L82.07 27.66L82.91 28.03L83.75 28.43L84.58 28.87L85.4 29.33L86.21 29.83L87 30.36L87.79 30.92L88.55 31.5L90.19 30.56L91.84 29.68L93.52 28.85L95.23 28.07L96.96 27.35L98.7 26.68L100.47 26.06L102.25 25.5L104.04 24.99L105.85 24.54L107.67 24.14L109.51 23.79L111.35 23.49L113.19 23.25L115.04 23.06L116.9 22.93L118.76 22.84L120.61 22.81L122.47 22.83L124.32 22.91ZM116.81 81.13L115.63 81.14L114.46 81.15L113.31 81.16L112.18 81.18L111.05 81.19L108.83 81.23L107.74 81.25L106.66 81.27L105.58 81.3L103.44 81.36L102.38 81.39L101.33 81.43L100.27 81.46L99.22 81.51L98.17 81.55L96.07 81.65L95.02 81.71L93.96 81.76L92.9 81.83L91.84 81.89L90.77 81.96L89.7 82.04L87.52 82.2L86.42 82.29L85.31 82.38L84.19 82.47L83.05 82.58L81.9 82.68L80.74 82.79L79.56 82.91L78.37 83.03L77.16 83.16L75.93 83.29L74.69 83.43L73.8 83.59L72.98 83.84L72.25 84.19L71.59 84.63L71 85.15L70.48 85.74L70.04 86.41L69.66 87.14L69.34 87.94L69.09 88.79L68.9 89.69L68.77 90.63L68.7 91.62L68.69 92.64L68.73 93.69L68.82 94.76L68.96 95.86L69.15 96.96L69.38 98.07L69.66 99.19L69.98 100.3L70.34 101.4L70.74 102.5L71.18 103.57L71.65 104.61L72.15 105.63L72.68 106.62L73.24 107.56L73.83 108.46L74.45 109.3L75.08 110.09L75.74 110.82L76.41 111.48L77.11 112.07L77.81 112.59L78.53 113.02L79.27 113.36L80.01 113.61L80.76 113.75L81.51 113.8L168.17 115.13L168.66 114.99L169.14 114.76L169.6 114.44L170.06 114.04L170.51 113.56L170.94 113L171.35 112.38L171.75 111.69L172.13 110.94L172.5 110.14L172.85 109.29L173.17 108.39L173.48 107.46L173.76 106.49L174.03 105.49L174.27 104.46L174.48 103.42L174.67 102.36L174.83 101.29L174.96 100.22L175.07 99.15L175.14 98.08L175.19 97.02L175.2 95.98L175.18 94.96L175.13 93.96L175.04 92.99L174.92 92.05L174.76 91.16L174.56 90.31L174.32 89.51L174.05 88.76L173.73 88.07L173.37 87.45L172.97 86.9L172.53 86.42L172.04 86.02L171.5 85.7L170.92 85.47L170.29 85.34L169.03 85.19L167.77 85.05L166.5 84.9L165.23 84.76L163.96 84.61L162.68 84.47L161.4 84.32L160.12 84.18L158.83 84.03L157.54 83.89L156.25 83.75L154.96 83.61L153.66 83.47L152.37 83.33L151.07 83.19L149.77 83.06L148.48 82.93L147.18 82.8L145.88 82.67L144.59 82.55L143.29 82.43L142 82.31L140.71 82.2L139.41 82.1L138.12 81.99L136.84 81.89L135.55 81.8L134.27 81.71L132.99 81.63L131.72 81.55L130.45 81.47L129.18 81.41L126.66 81.29L125.41 81.25L124.16 81.2L122.91 81.17L121.68 81.14L120.44 81.13L119.22 81.12L118.01 81.12L116.81 81.13Z" id="bPLhjtmM"></path><path d="M151.15 140.74C150.99 156.48 144.31 171.88 135.61 185.22C130.25 193.44 123.93 201.31 116.21 206.99C115 207.88 111.51 204.79 112.09 204.39C118.27 200.17 123.46 194.35 128.03 188.23C137.42 175.65 144.6 161 146.33 145.59C146.45 144.49 146.54 143.39 146.59 142.28C148.15 141.8 149.67 141.29 151.15 140.74" id="a45k6gAEp"></path><path d="M151.15 140.74C150.99 156.48 144.31 171.88 135.61 185.22C130.25 193.44 123.93 201.31 116.21 206.99C115 207.88 111.51 204.79 112.09 204.39C118.27 200.17 123.46 194.35 128.03 188.23C137.42 175.65 144.6 161 146.33 145.59C146.45 144.49 146.54 143.39 146.59 142.28C148.15 141.8 149.67 141.29 151.15 140.74" id="a2tZb88Qm1"></path><path d="M177.02 67.81C177.35 69.86 177.61 71.94 177.78 74.07C177.78 75.13 177.78 83.62 177.78 84.68C140.63 78.46 101.49 78.74 60.63 84.68C60.63 83.62 60.63 75.13 60.63 74.07C60.89 71.95 61.22 69.87 61.61 67.84C100.97 59.94 139.45 60.1 177.02 67.81" id="bJs91TqO3"></path><path d="M177.02 67.81C177.35 69.86 177.61 71.94 177.78 74.07C177.78 75.13 177.78 83.62 177.78 84.68C140.63 78.46 101.49 78.74 60.63 84.68C60.63 83.62 60.63 75.13 60.63 74.07C60.89 71.95 61.22 69.87 61.61 67.84C100.97 59.94 139.45 60.1 177.02 67.81" id="cyDlQpyrE"></path><path d="M167.27 172.12C167.27 172.12 173.88 175.38 173.08 177.22C172.85 177.73 172.51 178.22 172.06 178.65C161.03 189.18 148.22 197.27 134.85 203.93C128.35 207.17 121.67 210.45 114.6 211.63C113.09 211.89 112.45 212.18 110.97 211.79C110.97 211.79 108.98 210.08 109.54 204.64C129.36 197.77 154.91 183.95 167.27 172.12" id="a1BN8qI3nH"></path><path d="M167.27 172.12C167.27 172.12 173.88 175.38 173.08 177.22C172.85 177.73 172.51 178.22 172.06 178.65C161.03 189.18 148.22 197.27 134.85 203.93C128.35 207.17 121.67 210.45 114.6 211.63C113.09 211.89 112.45 212.18 110.97 211.79C110.97 211.79 108.98 210.08 109.54 204.64C129.36 197.77 154.91 183.95 167.27 172.12" id="bK9OwZaYa"></path><path d="M121.4 203.28C122.34 202.04 130.73 201.55 128.84 204.06C126.39 207.33 125.78 217.86 126.27 219.01C126.27 219.01 117.84 219.53 117.62 218.63C116.12 212.38 117.2 208.82 121.4 203.28" id="c9uO3OR6c"></path><path d="M121.4 203.28C122.34 202.04 130.73 201.55 128.84 204.06C126.39 207.33 125.78 217.86 126.27 219.01C126.27 219.01 117.84 219.53 117.62 218.63C116.12 212.38 117.2 208.82 121.4 203.28" id="a21AGehiQ"></path><path d="M121.54 201.69C121.68 199.67 129.7 200.74 129.58 202.88C129.18 210.44 130.08 218.02 130.23 225.61C130.24 226.09 122.29 227.26 122.2 226.73C121.99 225.49 121.05 208.8 121.54 201.69" id="d1c3cToFPe"></path><path d="M121.54 201.69C121.68 199.67 129.7 200.74 129.58 202.88C129.18 210.44 130.08 218.02 130.23 225.61C130.24 226.09 122.29 227.26 122.2 226.73C121.99 225.49 121.05 208.8 121.54 201.69" id="c4Utm60INj"></path></defs><g><g><g><use xlink:href="#c8AAlTMkis" opacity="1" fill="#797979" fill-opacity="1"></use><g><use xlink:href="#c8AAlTMkis" opacity="1" fill-opacity="0" stroke="#000000" stroke-width="1" stroke-opacity="0"></use></g></g><g><use xlink:href="#h3GeUiPmEK" opacity="1" fill="#000000" fill-opacity="0"></use><g><use xlink:href="#h3GeUiPmEK" opacity="1" fill-opacity="0" stroke="#000000" stroke-width="1" stroke-opacity="0"></use></g></g><g><use xlink:href="#c7Hjbl92OF" opacity="1" fill="#797979" fill-opacity="1"></use><g><use xlink:href="#c7Hjbl92OF" opacity="1" fill-opacity="0" stroke="#000000" stroke-width="1" stroke-opacity="0"></use></g></g><g><use xlink:href="#c1PpFf27q2" opacity="1" fill="#000000" fill-opacity="0"></use><g><use xlink:href="#c1PpFf27q2" opacity="1" fill-opacity="0" stroke="#000000" stroke-width="1" stroke-opacity="0"></use></g></g><g><use xlink:href="#a4SXPt6IH" opacity="1" fill="#d7d5d3" fill-opacity="1"></use><g><use xlink:href="#a4SXPt6IH" opacity="1" fill-opacity="0" stroke="#000000" stroke-width="1" stroke-opacity="0"></use></g></g><g><use xlink:href="#bbV8Az2DN" opacity="1" fill="#000000" fill-opacity="0"></use><g><use xlink:href="#bbV8Az2DN" opacity="1" fill-opacity="0" stroke="#000000" stroke-width="1" stroke-opacity="0"></use></g></g><g><use xlink:href="#a1Qc4Kko52" opacity="1" fill="#1f2633" fill-opacity="1"></use><g><use xlink:href="#a1Qc4Kko52" opacity="1" fill-opacity="0" stroke="#000000" stroke-width="1" stroke-opacity="0"></use></g></g><g><use xlink:href="#avg5iRXlg" opacity="1" fill="#000000" fill-opacity="0"></use><g><use xlink:href="#avg5iRXlg" opacity="1" fill-opacity="0" stroke="#000000" stroke-width="1" stroke-opacity="0"></use></g></g><g><use xlink:href="#a226LfU4cv" opacity="1" fill="#1f2633" fill-opacity="1"></use><g><use xlink:href="#a226LfU4cv" opacity="1" fill-opacity="0" stroke="#000000" stroke-width="1" stroke-opacity="0"></use></g></g><g><use xlink:href="#d1mFADHwmg" opacity="1" fill="#000000" fill-opacity="0"></use><g><use xlink:href="#d1mFADHwmg" opacity="1" fill-opacity="0" stroke="#000000" stroke-width="1" stroke-opacity="0"></use></g></g><g><use xlink:href="#a8oUg7ADUj" opacity="1" fill="#1f2633" fill-opacity="1"></use><g><use xlink:href="#a8oUg7ADUj" opacity="1" fill-opacity="0" stroke="#000000" stroke-width="1" stroke-opacity="0"></use></g></g><g><use xlink:href="#btDPAe8yP" opacity="1" fill="#000000" fill-opacity="0"></use><g><use xlink:href="#btDPAe8yP" opacity="1" fill-opacity="0" stroke="#000000" stroke-width="1" stroke-opacity="0"></use></g></g><g><use xlink:href="#e135vVxT42" opacity="1" fill="#636363" fill-opacity="1"></use><g><use xlink:href="#e135vVxT42" opacity="1" fill-opacity="0" stroke="#000000" stroke-width="1" stroke-opacity="0"></use></g></g><g><use xlink:href="#b2Robskhs" opacity="1" fill="#000000" fill-opacity="0"></use><g><use xlink:href="#b2Robskhs" opacity="1" fill-opacity="0" stroke="#000000" stroke-width="1" stroke-opacity="0"></use></g></g><g><use xlink:href="#bVGXWJXRo" opacity="1" fill="#636363" fill-opacity="1"></use><g><use xlink:href="#bVGXWJXRo" opacity="1" fill-opacity="0" stroke="#000000" stroke-width="1" stroke-opacity="0"></use></g></g><g><use xlink:href="#a92eUaAx8f" opacity="1" fill="#000000" fill-opacity="0"></use><g><use xlink:href="#a92eUaAx8f" opacity="1" fill-opacity="0" stroke="#000000" stroke-width="1" stroke-opacity="0"></use></g></g><g><use xlink:href="#ga735QHb" opacity="1" fill="#ffffff" fill-opacity="1"></use><g><use xlink:href="#ga735QHb" opacity="1" fill-opacity="0" stroke="#000000" stroke-width="1" stroke-opacity="0"></use></g></g><g><use xlink:href="#g5sydnejrs" opacity="1" fill="#000000" fill-opacity="0"></use><g><use xlink:href="#g5sydnejrs" opacity="1" fill-opacity="0" stroke="#000000" stroke-width="1" stroke-opacity="0"></use></g></g><g><use xlink:href="#a17vdCVwp5" opacity="1" fill="#ffffff" fill-opacity="1"></use><g><use xlink:href="#a17vdCVwp5" opacity="1" fill-opacity="0" stroke="#000000" stroke-width="1" stroke-opacity="0"></use></g></g><g><use xlink:href="#f8ybLuK9E" opacity="1" fill="#000000" fill-opacity="0"></use><g><use xlink:href="#f8ybLuK9E" opacity="1" fill-opacity="0" stroke="#000000" stroke-width="1" stroke-opacity="0"></use></g></g><g><use xlink:href="#b2QthV8hNE" opacity="1" fill="#323940" fill-opacity="1"></use><g><use xlink:href="#b2QthV8hNE" opacity="1" fill-opacity="0" stroke="#000000" stroke-width="1" stroke-opacity="0"></use></g></g><g><use xlink:href="#bPLhjtmM" opacity="1" fill="#000000" fill-opacity="0"></use><g><use xlink:href="#bPLhjtmM" opacity="1" fill-opacity="0" stroke="#000000" stroke-width="1" stroke-opacity="0"></use></g></g><g><use xlink:href="#a45k6gAEp" opacity="1" fill="#dba425" fill-opacity="1"></use><g><use xlink:href="#a45k6gAEp" opacity="1" fill-opacity="0" stroke="#000000" stroke-width="1" stroke-opacity="0"></use></g></g><g><use xlink:href="#a2tZb88Qm1" opacity="1" fill="#000000" fill-opacity="0"></use><g><use xlink:href="#a2tZb88Qm1" opacity="1" fill-opacity="0" stroke="#000000" stroke-width="1" stroke-opacity="0"></use></g></g><g><use xlink:href="#bJs91TqO3" opacity="1" fill="#797979" fill-opacity="1"></use><g><use xlink:href="#bJs91TqO3" opacity="1" fill-opacity="0" stroke="#000000" stroke-width="1" stroke-opacity="0"></use></g></g><g><use xlink:href="#cyDlQpyrE" opacity="1" fill="#000000" fill-opacity="0"></use><g><use xlink:href="#cyDlQpyrE" opacity="1" fill-opacity="0" stroke="#000000" stroke-width="1" stroke-opacity="0"></use></g></g><g><use xlink:href="#a1BN8qI3nH" opacity="1" fill="#a9a9a9" fill-opacity="1"></use><g><use xlink:href="#a1BN8qI3nH" opacity="1" fill-opacity="0" stroke="#000000" stroke-width="1" stroke-opacity="0"></use></g></g><g><use xlink:href="#bK9OwZaYa" opacity="1" fill="#000000" fill-opacity="0"></use><g><use xlink:href="#bK9OwZaYa" opacity="1" fill-opacity="0" stroke="#000000" stroke-width="1" stroke-opacity="0"></use></g></g><g><use xlink:href="#c9uO3OR6c" opacity="1" fill="#a9a9a9" fill-opacity="1"></use><g><use xlink:href="#c9uO3OR6c" opacity="1" fill-opacity="0" stroke="#000000" stroke-width="1" stroke-opacity="0"></use></g></g><g><use xlink:href="#a21AGehiQ" opacity="1" fill="#000000" fill-opacity="0"></use><g><use xlink:href="#a21AGehiQ" opacity="1" fill-opacity="0" stroke="#000000" stroke-width="1" stroke-opacity="0"></use></g></g><g><use xlink:href="#d1c3cToFPe" opacity="1" fill="#a9a9a9" fill-opacity="1"></use><g><use xlink:href="#d1c3cToFPe" opacity="1" fill-opacity="0" stroke="#000000" stroke-width="1" stroke-opacity="0"></use></g></g><g><use xlink:href="#c4Utm60INj" opacity="1" fill="#000000" fill-opacity="0"></use><g><use xlink:href="#c4Utm60INj" opacity="1" fill-opacity="0" stroke="#000000" stroke-width="1" stroke-opacity="0"></use></g></g></g></g></svg>