<?xml version="1.0" encoding="UTF-8" standalone="no"?>
<!DOCTYPE svg PUBLIC "-//W3C//DTD SVG 1.1//EN" "http://www.w3.org/Graphics/SVG/1.1/DTD/svg11.dtd">
<svg version="1.1" xmlns="http://www.w3.org/2000/svg" xmlns:xlink="http://www.w3.org/1999/xlink" preserveAspectRatio="xMidYMid meet" viewBox="0 0 280 270" width="280" height="270"><defs><path d="M245.46 89.37C251.69 93.11 256.61 96.89 264.47 97.22C266.53 97.31 279 94.8 279.73 95.31C279.91 95.44 279.62 96.01 279.55 96.14C278.33 98.67 279.41 109.86 270.5 111.3C263.73 112.4 240.7 90.84 242.48 85.96" id="c1dwTMhJ8n"></path><path d="M245.46 89.37C251.69 93.11 256.61 96.89 264.47 97.22C266.53 97.31 279 94.8 279.73 95.31C279.91 95.44 279.62 96.01 279.55 96.14C278.33 98.67 279.41 109.86 270.5 111.3C263.73 112.4 240.7 90.84 242.48 85.96" id="a7egRqKW2e"></path><path d="M246.69 88.39C248.91 95.31 250.13 101.39 255.83 106.81C257.32 108.24 268.37 114.56 268.57 115.41C268.63 115.64 268.03 115.87 267.89 115.93C265.31 117.02 258.77 126.16 251.1 121.38C245.28 117.75 242.14 86.36 246.69 83.86" id="b2PIMiDZsf"></path><path d="M246.69 88.39C248.91 95.31 250.13 101.39 255.83 106.81C257.32 108.24 268.37 114.56 268.57 115.41C268.63 115.64 268.03 115.87 267.89 115.93C265.31 117.02 258.77 126.16 251.1 121.38C245.28 117.75 242.14 86.36 246.69 83.86" id="a1p9vGZY4F"></path><path d="M140.88 117.99C128.31 112.06 133.69 67.64 141.01 68.35C173.35 71.48 207.22 78.32 239.85 89.12C251.46 92.96 237.44 133.97 227.53 132.77C227.53 132.77 196.58 146.74 179.3 142.52C159.32 137.65 140.88 117.99 140.88 117.99" id="c37JmS4fMq"></path><path d="M140.88 117.99C128.31 112.06 133.69 67.64 141.01 68.35C173.35 71.48 207.22 78.32 239.85 89.12C251.46 92.96 237.44 133.97 227.53 132.77C227.53 132.77 196.58 146.74 179.3 142.52C159.32 137.65 140.88 117.99 140.88 117.99" id="h5sJvOQhso"></path><path d="M195.72 90.62C191.21 92.85 189.04 105.02 194.16 114.54C199.27 124.06 200.26 134.32 215.18 126.05C222.5 122 227.64 111.14 222.52 101.62C217.41 92.1 200.09 88.46 195.72 90.62" id="c9MKQ0Mvl"></path><path d="M195.72 90.62C191.21 92.85 189.04 105.02 194.16 114.54C199.27 124.06 200.26 134.32 215.18 126.05C222.5 122 227.64 111.14 222.52 101.62C217.41 92.1 200.09 88.46 195.72 90.62" id="a1snyP4xQq"></path><path d="M168.9 84.99C172.12 88.84 169.22 100.85 160.7 107.51C152.19 114.16 147.15 123.16 136.83 109.59C131.75 102.93 131.42 90.93 139.93 84.27C148.45 77.61 165.76 81.25 168.9 84.99" id="a7ZFU9OBBo"></path><path d="M168.9 84.99C172.12 88.84 169.22 100.85 160.7 107.51C152.19 114.16 147.15 123.16 136.83 109.59C131.75 102.93 131.42 90.93 139.93 84.27C148.45 77.61 165.76 81.25 168.9 84.99" id="f2v7rewHRu"></path><path d="M174.21 122.56C176.61 123.06 184.64 114.62 183.85 112.43C183.06 110.24 171.07 107.72 169.46 109.41C167.85 111.1 171.81 122.05 174.21 122.56" id="a163t2pLxW"></path><path d="M174.21 122.56C176.61 123.06 184.64 114.62 183.85 112.43C183.06 110.24 171.07 107.72 169.46 109.41C167.85 111.1 171.81 122.05 174.21 122.56" id="c4tNI6y8km"></path><path d="M207.97 101.58C204.78 100.92 201.65 102.96 200.98 106.15C200.31 109.33 202.35 112.46 205.54 113.13C208.73 113.8 211.86 111.76 212.53 108.57C213.2 105.38 211.15 102.25 207.97 101.58" id="evLKjknd5"></path><path d="M207.97 101.58C204.78 100.92 201.65 102.96 200.98 106.15C200.31 109.33 202.35 112.46 205.54 113.13C208.73 113.8 211.86 111.76 212.53 108.57C213.2 105.38 211.15 102.25 207.97 101.58" id="c63ojZIJt"></path><path d="M153.27 90.09C156.46 90.76 158.5 93.89 157.83 97.08C157.17 100.27 154.03 102.31 150.85 101.64C147.66 100.97 145.62 97.84 146.28 94.66C146.96 91.47 150.08 89.42 153.27 90.09" id="c1InBFO7ob"></path><path d="M153.27 90.09C156.46 90.76 158.5 93.89 157.83 97.08C157.17 100.27 154.03 102.31 150.85 101.64C147.66 100.97 145.62 97.84 146.28 94.66C146.96 91.47 150.08 89.42 153.27 90.09" id="cQhAUMrHu"></path><path d="M205.42 101.61C204.1 101.33 202.8 102.18 202.52 103.5C202.25 104.82 203.09 106.12 204.42 106.4C205.74 106.68 207.04 105.83 207.32 104.51C207.6 103.19 206.75 101.89 205.42 101.61" id="b2pdGHMQO8"></path><path d="M205.42 101.61C204.1 101.33 202.8 102.18 202.52 103.5C202.25 104.82 203.09 106.12 204.42 106.4C205.74 106.68 207.04 105.83 207.32 104.51C207.6 103.19 206.75 101.89 205.42 101.61" id="c1Mt8sLOmC"></path><path d="M155.59 91.14C156.91 91.42 157.76 92.72 157.48 94.04C157.2 95.36 155.91 96.21 154.58 95.93C153.26 95.65 152.41 94.35 152.69 93.03C152.97 91.71 154.27 90.86 155.59 91.14" id="dL9oGrchB"></path><path d="M155.59 91.14C156.91 91.42 157.76 92.72 157.48 94.04C157.2 95.36 155.91 96.21 154.58 95.93C153.26 95.65 152.41 94.35 152.69 93.03C152.97 91.71 154.27 90.86 155.59 91.14" id="d5M4pAB2BT"></path><path d="M148.07 27.08L148.78 27.16L149.49 27.27L150.2 27.41L150.9 27.57L151.6 27.76L152.3 27.98L152.99 28.22L153.68 28.49L154.36 28.78L155.03 29.1L155.69 29.44L156.35 29.81L156.99 30.2L157.63 30.62L158.25 31.06L158.86 31.53L159.46 32.02L160.05 32.54L160.62 33.07L161.17 33.63L161.71 34.22L162.23 34.83L162.74 35.46L164.34 34.69L165.97 33.98L167.63 33.33L169.3 32.73L170.99 32.18L172.7 31.69L174.43 31.26L176.17 30.88L177.93 30.55L179.69 30.28L181.47 30.05L183.25 29.89L185.04 29.77L186.84 29.71L188.64 29.7L190.44 29.75L192.25 29.84L194.05 29.99L195.84 30.19L197.64 30.44L199.43 30.74L201.21 31.09L202.98 31.49L204.74 31.95L206.48 32.45L208.22 33L209.94 33.6L211.64 34.26L213.32 34.96L214.98 35.71L216.62 36.51L218.24 37.36L219.83 38.25L221.39 39.19L222.93 40.19L224.44 41.23L225.91 42.31L227.35 43.45L228.76 44.63L230.13 45.85L230.99 45.44L231.85 45.07L232.71 44.72L233.59 44.41L234.46 44.13L235.34 43.88L236.23 43.66L237.11 43.48L237.99 43.32L238.88 43.19L239.76 43.1L240.64 43.03L241.52 43L242.4 43L243.27 43.02L244.14 43.08L245 43.17L245.85 43.28L246.69 43.43L247.53 43.6L248.35 43.8L249.17 44.04L249.97 44.3L250.76 44.59L251.54 44.9L252.3 45.25L253.05 45.62L253.79 46.03L254.5 46.46L255.2 46.92L255.88 47.4L256.54 47.91L257.18 48.45L257.8 49.02L258.4 49.62L258.97 50.24L259.52 50.88L260.04 51.56L260.54 52.26L261.02 52.99L261.49 53.78L261.92 54.6L262.31 55.42L262.66 56.26L262.97 57.1L263.25 57.96L263.48 58.82L263.68 59.7L263.84 60.58L263.96 61.46L264.04 62.35L264.09 63.24L264.1 64.13L264.07 65.03L264.01 65.93L263.91 66.82L263.78 67.71L263.61 68.6L263.4 69.49L263.16 70.37L262.89 71.25L262.58 72.11L262.24 72.97L261.86 73.82L261.46 74.66L261.01 75.49L260.54 76.31L260.04 77.11L259.5 77.9L258.93 78.68L258.33 79.43L257.7 80.17L257.03 80.89L256.34 81.59L255.62 82.28L254.87 82.93L254.09 83.57L253.27 84.18L252.43 84.77L251.57 85.33L251.48 85.39L251.39 85.44L251.31 85.49L251.22 85.54L251.13 85.6L251.05 85.65L250.96 85.7L250.78 85.8L250.7 85.85L250.52 85.95L250.43 86L250.34 86.05L250.26 86.1L250.17 86.15L250.08 86.2L249.99 86.24L249.9 86.29L249.81 86.34L249.73 86.38L249.55 86.48L249.46 86.52L249.37 86.57L249.28 86.61L249.19 86.66L249.1 86.7L249.01 86.74L248.92 86.79L248.83 86.83L248.74 86.87L248.65 86.91L248.56 86.96L248.47 87L248.02 87.2L248.03 87.41L248.03 89.27L248.02 89.48L248.02 89.69L248.01 89.9L248.01 90.11L248 90.32L248 90.53L247.99 90.74L247.98 90.95L247.96 91.37L247.95 91.58L247.94 91.8L247.93 92.01L247.92 92.22L247.91 92.44L247.9 92.65L247.88 92.86L247.87 93.08L247.85 93.29L247.84 93.51L247.82 93.72L247.81 93.94L247.79 94.16L247.77 94.37L247.73 94.81L247.71 95.02L247.67 95.46L247.65 95.68L244.17 112.23L243.96 114.39L243.69 116.47L243.37 118.49L243 120.43L242.57 122.31L242.09 124.12L241.56 125.87L240.98 127.55L240.35 129.16L239.67 130.71L238.95 132.2L238.19 133.62L237.38 134.99L236.53 136.29L235.63 137.54L234.7 138.73L233.73 139.86L232.71 140.94L231.67 141.96L230.58 142.93L229.46 143.84L228.31 144.7L227.12 145.52L225.91 146.28L224.66 146.99L223.38 147.65L222.08 148.27L220.74 148.84L219.39 149.37L218 149.85L216.6 150.29L215.17 150.68L213.72 151.04L212.25 151.35L210.76 151.62L209.25 151.86L207.72 152.06L206.18 152.22L204.63 152.34L203.06 152.43L203.18 152.49L203.31 152.55L203.43 152.61L203.55 152.67L203.68 152.73L203.8 152.79L203.93 152.85L204.17 152.97L204.3 153.03L204.42 153.09L204.55 153.15L204.67 153.21L204.79 153.27L204.92 153.34L205.04 153.4L205.16 153.46L205.29 153.52L205.53 153.64L205.66 153.7L205.78 153.77L206.02 153.89L206.15 153.95L206.27 154.01L206.39 154.08L206.51 154.14L206.64 154.2L206.76 154.26L206.88 154.33L207 154.39L207.13 154.45L207.25 154.52L207.37 154.58L207.49 154.65L207.61 154.71L207.74 154.77L207.86 154.84L207.98 154.9L208.18 155.01L208.37 155.11L208.57 155.22L208.77 155.32L208.96 155.43L209.16 155.53L209.36 155.64L209.55 155.75L209.75 155.86L209.94 155.96L210.14 156.07L210.33 156.18L210.53 156.29L210.72 156.4L210.91 156.51L211.11 156.62L211.3 156.73L211.49 156.84L211.69 156.95L211.88 157.06L212.07 157.18L212.27 157.29L212.46 157.4L212.65 157.52L213.03 157.74L213.22 157.86L213.42 157.98L213.61 158.09L213.8 158.21L213.99 158.32L214.56 158.68L214.75 158.79L214.93 158.91L215.69 159.39L216.47 159.93L217.18 160.51L217.82 161.11L218.4 161.73L218.91 162.38L219.35 163.05L219.73 163.73L220.06 164.43L220.32 165.13L220.53 165.85L220.69 166.57L220.79 167.3L220.85 168.02L220.85 168.74L220.82 169.46L220.73 170.17L220.61 170.87L220.45 171.56L220.25 172.23L220.01 172.88L219.75 173.51L219.45 174.12L219.12 174.7L218.76 175.25L218.38 175.77L217.98 176.25L217.55 176.69L217.11 177.1L216.65 177.46L216.18 177.78L215.69 178.05L215.19 178.27L214.68 178.43L214.17 178.54L213.65 178.59L213.13 178.57L212.6 178.5L212.08 178.35L211.56 178.13L211.05 177.85L210.97 177.79L210.88 177.74L210.8 177.69L210.71 177.63L210.63 177.58L210.54 177.52L210.46 177.47L210.37 177.42L210.29 177.37L210.2 177.31L210.12 177.26L210.03 177.21L209.95 177.15L209.86 177.1L209.78 177.05L209.6 176.95L209.52 176.89L209.43 176.84L209.35 176.79L209.26 176.74L209.17 176.69L209.09 176.63L209 176.58L208.92 176.53L208.83 176.48L208.74 176.43L208.66 176.38L208.48 176.28L208.4 176.23L208.22 176.13L208.14 176.08L208.05 176.03L207.96 175.98L207.88 175.93L207.61 175.78L207.73 176.46L207.84 177.16L207.96 177.88L208.09 178.62L208.22 179.38L208.35 180.15L208.49 180.93L208.63 181.73L208.77 182.54L208.91 183.37L209.05 184.2L209.19 185.04L209.34 185.89L209.62 187.61L209.76 188.48L209.9 189.35L210.04 190.23L210.17 191.1L210.3 191.98L210.43 192.86L210.55 193.73L210.67 194.61L210.78 195.48L210.89 196.34L210.99 197.2L211.09 198.06L211.17 198.9L211.25 199.74L211.33 200.57L211.39 201.38L211.45 202.19L211.49 202.98L211.53 203.75L211.55 204.51L211.57 205.26L211.57 205.99L211.56 206.7L211.54 207.39L211.51 208.06L212.74 209.91L213.85 211.76L214.85 213.61L215.74 215.45L216.53 217.29L217.21 219.11L217.8 220.92L218.29 222.71L218.69 224.49L219 226.25L219.22 227.99L219.37 229.71L219.43 231.4L219.42 233.06L219.34 234.69L219.19 236.3L218.97 237.87L218.69 239.4L218.36 240.9L217.96 242.35L217.52 243.77L217.03 245.14L216.49 246.46L215.92 247.74L215.3 248.97L214.65 250.14L213.97 251.26L213.26 252.33L212.52 253.34L211.77 254.28L210.99 255.17L210.2 255.98L209.4 256.74L208.59 257.42L207.78 258.03L206.97 258.57L206.16 259.04L205.35 259.43L204.55 259.74L203.77 259.97L203.66 260L203.58 260.04L203.51 260.09L203.47 260.15L203.44 260.21L203.44 260.29L203.45 260.36L203.47 260.45L203.51 260.54L203.57 260.63L203.64 260.74L203.72 260.84L203.8 260.95L203.9 261.06L204.12 261.3L204.24 261.42L204.36 261.55L204.49 261.67L205.14 262.32L205.26 262.44L205.38 262.57L205.49 262.7L205.6 262.82L205.7 262.95L205.79 263.07L205.87 263.18L205.94 263.3L206 263.41L206.04 263.51L206.07 263.62L206.09 263.71L206.09 263.8L206.06 263.89L206.02 263.97L205.96 264.04L205.76 264.21L205.49 264.36L205.17 264.5L204.8 264.63L204.38 264.74L203.92 264.83L203.41 264.92L202.86 264.99L202.28 265.05L201.67 265.1L201.03 265.13L200.36 265.16L199.67 265.18L198.95 265.19L197.48 265.19L196.73 265.17L195.97 265.15L195.21 265.12L194.45 265.09L193.69 265.05L192.93 265.01L192.18 264.96L191.45 264.91L190.73 264.86L190.03 264.8L189.35 264.74L188.69 264.68L188.07 264.62L187.47 264.56L186.91 264.5L186.38 264.44L185.9 264.38L185.46 264.32L185.07 264.27L184.72 264.21L184.43 264.17L184.2 264.12L184.03 264.08L183.91 264.04L183.87 264.03L183.82 264.02L183.76 264.01L183.62 263.99L183.53 263.98L183.45 263.97L183.36 263.96L183.27 263.95L183.17 263.94L182.97 263.9L182.87 263.88L182.77 263.85L182.66 263.82L182.57 263.77L182.47 263.73L182.37 263.67L182.28 263.61L182.2 263.54L182.11 263.46L182.04 263.36L181.97 263.26L181.91 263.15L181.85 263.03L181.81 262.89L181.77 262.74L181.74 262.57L181.73 262.39L181.72 262.2L181.73 261.99L181.75 261.77L181.79 261.52L181.84 261.26L181.9 260.98L181.98 260.69L182.08 260.37L182.2 260.03L182.33 259.68L182.48 259.3L182.64 258.93L182.81 258.55L182.99 258.16L183.19 257.76L183.4 257.35L183.62 256.92L183.84 256.49L184.32 255.59L184.57 255.12L184.83 254.65L185.08 254.16L185.34 253.66L185.61 253.15L185.87 252.64L186.14 252.11L186.4 251.57L186.66 251.03L186.92 250.47L187.18 249.9L187.43 249.33L187.67 248.74L187.91 248.15L188.14 247.54L188.37 246.93L188.58 246.31L188.78 245.68L188.97 245.04L189.15 244.39L189.31 243.73L189.46 243.06L189.59 242.39L189.71 241.71L189.8 241.01L189.88 240.31L189.94 239.61L189.98 238.89L190 238.16L189.99 237.43L189.97 236.69L189.95 236.44L189.94 236.2L189.92 235.95L189.91 235.71L189.89 235.48L189.87 235.24L189.83 234.78L189.81 234.55L189.79 234.33L189.77 234.1L189.75 233.88L189.73 233.67L189.7 233.45L189.68 233.24L189.66 233.03L189.63 232.82L189.6 232.62L189.58 232.41L189.55 232.21L189.52 232.02L189.49 231.82L189.47 231.63L189.38 231.06L189.34 230.88L189.31 230.69L189.28 230.51L189.25 230.34L189.21 230.16L189.18 229.99L189.15 229.82L189.11 229.65L189.07 229.48L189.04 229.32L189 229.16L188.96 229L188.93 228.84L188.89 228.68L188.61 228.75L188.32 228.83L188.04 228.89L187.48 229.03L187.2 229.09L186.92 229.15L186.65 229.21L186.37 229.27L186.09 229.32L185.82 229.38L185.55 229.43L185.27 229.48L185 229.52L184.46 229.62L184.2 229.66L183.66 229.74L183.4 229.77L183.14 229.81L182.88 229.84L182.62 229.88L182.37 229.9L182.11 229.93L181.86 229.96L181.61 229.98L181.36 230.01L181.11 230.03L180.87 230.05L180.62 230.06L180.38 230.08L180.14 230.09L179.91 230.1L179.67 230.11L179.21 230.13L177.8 230.13L177.55 230.12L177.3 230.12L176.78 230.1L176.52 230.09L176.26 230.08L175.99 230.06L175.73 230.05L175.19 230.01L174.92 229.99L174.65 229.97L174.37 229.94L174.09 229.92L173.82 229.89L173.54 229.86L173.26 229.83L172.97 229.8L172.69 229.76L172.4 229.73L172.12 229.69L171.83 229.65L171.54 229.61L171.25 229.57L170.96 229.52L170.67 229.48L170.09 229.38L169.79 229.33L169.5 229.27L169.21 229.22L168.91 229.16L168.62 229.1L168.32 229.04L168.02 228.97L167.73 228.91L167.43 228.84L165.99 229.9L164.53 230.98L163.06 232.07L161.57 233.17L160.07 234.27L158.55 235.38L157.04 236.49L155.52 237.6L154 238.7L152.48 239.81L150.97 240.9L149.46 241.99L146.48 244.13L145.01 245.17L143.56 246.2L142.14 247.21L140.73 248.2L139.35 249.16L138 250.1L136.68 251L135.4 251.88L134.15 252.72L132.94 253.53L131.78 254.3L130.65 255.03L129.58 255.72L128.56 256.37L127.59 256.97L126.67 257.52L125.82 258.02L125.02 258.46L124.29 258.85L123.63 259.19L123.03 259.46L122.51 259.68L122.06 259.83L121.69 259.91L121.4 259.93L121.19 259.87L121.09 259.81L120.95 259.7L120.77 259.55L120.55 259.35L120.3 259.11L120.01 258.84L119.69 258.53L119.34 258.19L118.96 257.82L118.57 257.42L118.15 256.99L117.71 256.54L117.25 256.07L116.78 255.57L116.3 255.06L115.81 254.53L115.31 253.99L114.81 253.43L114.3 252.87L113.8 252.3L113.29 251.72L112.79 251.15L112.3 250.57L111.82 249.99L111.36 249.41L110.9 248.84L110.47 248.28L110.05 247.73L109.65 247.19L109.28 246.66L108.94 246.15L108.62 245.66L108.34 245.19L108.08 244.74L107.87 244.32L107.69 243.92L107.56 243.55L107.47 243.22L107.42 242.92L107.42 242.65L107.44 242.55L107.47 242.46L107.5 242.37L107.6 242.21L107.66 242.13L107.73 242.06L107.81 241.99L107.89 241.93L107.99 241.87L108.08 241.81L108.3 241.71L108.41 241.67L108.53 241.63L108.66 241.59L108.79 241.56L108.92 241.53L109.05 241.5L109.19 241.48L109.33 241.47L109.48 241.45L109.62 241.44L109.77 241.43L110.06 241.43L110.36 241.45L110.51 241.46L110.65 241.47L110.8 241.49L110.94 241.51L111.08 241.54L111.36 241.6L111.62 241.68L111.74 241.72L111.86 241.77L111.98 241.82L112 241.81L112.02 241.8L112.04 241.79L112.07 241.77L112.1 241.75L112.13 241.72L112.18 241.69L112.22 241.65L112.27 241.61L112.33 241.56L112.38 241.51L112.45 241.45L112.51 241.4L112.59 241.33L112.66 241.27L112.74 241.19L112.82 241.12L113 240.96L113.1 240.87L113.19 240.78L113.3 240.69L113.4 240.59L113.51 240.49L113.62 240.39L113.74 240.28L113.85 240.17L113.98 240.06L114.1 239.94L114.23 239.82L114.49 239.58L114.63 239.45L114.77 239.32L114.91 239.18L115.06 239.05L115.36 238.77L115.51 238.62L115.52 238.6L115.54 238.58L115.55 238.56L115.56 238.53L115.57 238.51L115.59 238.49L115.6 238.46L115.61 238.44L115.63 238.42L115.64 238.4L115.65 238.37L115.67 238.35L115.69 238.31L115.71 238.29L115.72 238.26L115.73 238.24L115.75 238.22L115.76 238.2L115.78 238.17L115.79 238.15L115.8 238.13L115.82 238.11L115.83 238.08L115.85 238.06L115.86 238.04L115.87 238.02L115.89 238L115.9 237.98L115.92 237.95L115.93 237.93L115.94 237.91L115.96 237.89L115.97 237.87L115.99 237.84L116 237.82L116.02 237.8L116.03 237.78L116.05 237.76L116.06 237.74L116.25 237.46L116.44 237.19L116.63 236.91L117.03 236.37L117.23 236.1L117.43 235.83L117.64 235.57L117.84 235.3L118.05 235.04L118.26 234.78L118.68 234.26L118.9 234L119.11 233.74L119.33 233.49L119.55 233.23L119.99 232.73L120.22 232.48L120.44 232.23L120.67 231.98L120.89 231.73L121.12 231.48L121.58 230.98L121.81 230.74L122.04 230.49L122.27 230.25L122.5 230L122.73 229.76L122.96 229.51L123.2 229.27L123.43 229.03L123.66 228.78L123.9 228.54L124.13 228.3L124.37 228.06L124.6 227.82L124.84 227.57L125.37 227.03L125.9 226.49L126.43 225.94L126.96 225.4L127.5 224.86L128.03 224.33L128.57 223.79L129.11 223.26L129.65 222.72L130.19 222.19L130.74 221.66L131.28 221.13L131.83 220.6L132.38 220.08L132.93 219.55L134.03 218.51L134.58 217.99L135.7 216.95L136.25 216.44L136.81 215.93L137.38 215.41L137.94 214.9L138.5 214.4L139.07 213.89L139.64 213.39L140.21 212.88L141.35 211.88L141.92 211.39L142.5 210.89L143.07 210.4L143.65 209.91L144.23 209.42L144.81 208.93L145.4 208.45L145.98 207.96L146.57 207.48L147.15 207L147.12 206.27L147.09 205.51L147.07 204.73L147.05 203.92L147.04 203.11L147.03 202.27L147.03 201.42L147.04 200.55L147.05 199.67L147.07 198.78L147.1 197.87L147.14 196.96L147.18 196.04L147.23 195.11L147.29 194.18L147.35 193.24L147.51 191.36L147.6 190.42L147.82 188.54L147.94 187.61L148.07 186.68L148.21 185.76L148.36 184.84L148.53 183.94L148.7 183.04L148.88 182.16L149.08 181.29L149.29 180.43L149.51 179.59L149.74 178.77L149.98 177.97L150.24 177.18L150.51 176.42L150.79 175.67L151.09 174.95L151.4 174.26L151.72 173.59L152.06 172.95L151.13 173.06L150.18 173.15L149.22 173.24L148.24 173.32L147.26 173.39L146.26 173.46L145.25 173.51L144.23 173.55L143.2 173.59L142.17 173.62L141.13 173.63L140.08 173.64L139.03 173.64L137.97 173.63L136.91 173.61L135.84 173.58L134.78 173.54L133.71 173.49L132.65 173.43L131.58 173.36L130.52 173.28L129.46 173.19L128.4 173.09L127.35 172.97L126.3 172.85L125.25 172.72L124.22 172.57L123.19 172.42L122.17 172.25L121.16 172.08L120.17 171.89L119.18 171.69L118.2 171.48L117.24 171.25L116.29 171.02L115.36 170.77L114.44 170.51L113.54 170.24L112.65 169.96L111.79 169.66L111.78 169.66L111.63 169.57L111.47 169.48L111.33 169.4L111.18 169.32L111.04 169.25L110.91 169.17L110.78 169.1L110.65 169.03L110.53 168.96L110.4 168.9L110.29 168.83L110.17 168.77L110.06 168.71L109.95 168.64L109.85 168.58L109.74 168.52L109.64 168.45L109.54 168.39L109.44 168.32L109.35 168.25L109.25 168.18L109.16 168.11L109.07 168.04L108.98 167.96L108.89 167.88L108.72 167.71L108.63 167.61L108.54 167.52L108.46 167.42L108.37 167.31L108.29 167.2L108.2 167.08L108.12 166.96L107.94 166.7L107.85 166.56L107.76 166.41L107.68 166.25L107.58 166.09L107.52 165.96L107.46 165.84L107.34 165.6L107.29 165.47L107.23 165.34L107.18 165.22L107.13 165.09L107.05 164.83L107 164.7L106.97 164.57L106.93 164.43L106.87 164.17L106.84 164.03L106.81 163.9L106.79 163.76L106.77 163.63L106.75 163.49L106.73 163.36L106.72 163.22L106.71 163.08L106.7 162.95L106.7 162.4L106.71 162.27L106.71 162.13L106.72 162L106.74 161.86L106.76 161.73L106.77 161.6L106.8 161.46L106.82 161.33L106.85 161.2L106.88 161.07L106.91 160.94L106.95 160.81L108.24 158.43L108.39 158.31L108.54 158.19L108.68 158.08L108.81 157.97L108.94 157.87L109.06 157.77L109.18 157.68L109.29 157.59L109.4 157.51L109.5 157.43L109.6 157.36L109.7 157.28L109.79 157.22L109.89 157.15L109.98 157.09L110.07 157.04L110.16 156.98L110.24 156.93L110.42 156.83L110.51 156.78L110.6 156.73L110.69 156.69L110.79 156.64L110.89 156.6L110.99 156.56L111.09 156.52L111.2 156.47L111.31 156.43L111.43 156.39L111.55 156.34L111.68 156.29L111.81 156.25L111.95 156.2L112.1 156.15L112.26 156.1L112.42 156.04L112.59 155.99L112.77 155.93L112.96 155.86L113.03 155.87L113.96 155.87L114.03 155.86L114.75 155.86L114.82 155.87L114.97 155.87L115.04 155.88L115.11 155.88L115.18 155.89L115.25 155.89L115.6 155.94L115.67 155.96L115.74 155.97L115.81 155.99L115.84 155.99L115.88 156L115.92 156.01L115.93 156.01L115.97 156.02L116 156.03L116.04 156.04L116.12 156.06L116.22 156.08L116.29 156.1L116.34 156.11L117.18 156.29L118.03 156.47L118.88 156.63L119.73 156.78L120.58 156.92L121.43 157.05L122.28 157.17L123.14 157.27L123.99 157.37L124.85 157.45L125.7 157.53L127.42 157.65L128.28 157.69L129.14 157.72L130 157.74L130.86 157.75L131.71 157.75L133.43 157.71L134.29 157.68L135.15 157.63L136 157.58L136.86 157.51L137.72 157.43L138.57 157.34L139.42 157.24L140.27 157.13L141.12 157.01L141.97 156.88L143.67 156.58L144.51 156.41L145.35 156.24L146.19 156.05L147.03 155.85L147.86 155.64L148.69 155.42L149.52 155.19L150.35 154.95L150.83 154.81L151.79 154.51L152.26 154.35L152.74 154.19L153.21 154.03L153.68 153.87L154.16 153.7L154.63 153.53L155.1 153.36L156.04 153.02L156.51 152.84L156.98 152.66L157.45 152.48L157.92 152.3L158.38 152.12L159.32 151.76L159.79 151.57L160.25 151.39L160.72 151.2L161.18 151.02L161.65 150.83L162.12 150.65L162.58 150.46L163.05 150.28L163.51 150.09L163.98 149.91L164.45 149.73L164.91 149.54L165.38 149.36L165.84 149.18L166.31 149.01L167.25 148.65L167.71 148.48L168.18 148.31L168.65 148.14L169.12 147.98L167.12 147.38L165.13 146.75L163.17 146.09L161.24 145.39L159.33 144.65L157.45 143.88L155.6 143.07L153.8 142.21L152.03 141.32L150.3 140.38L148.61 139.4L146.98 138.38L145.39 137.31L143.86 136.2L142.39 135.05L140.97 133.84L139.61 132.59L138.32 131.29L137.1 129.94L135.94 128.54L134.86 127.09L133.85 125.58L132.93 124.03L132.08 122.42L131.32 120.75L130.64 119.03L130.06 117.26L129.56 115.42L129.17 113.53L128.87 111.58L128.67 109.57L128.57 107.5L128.58 105.37L128.71 103.17L128.94 100.91L129.29 98.59L129.76 96.2L130.34 93.75L131.05 91.23L131.89 88.64L135.37 72.09L135.42 71.85L135.48 71.6L135.53 71.36L135.59 71.12L135.65 70.88L135.7 70.64L135.76 70.4L135.88 69.92L135.94 69.68L136 69.45L136.07 69.21L136.13 68.97L136.19 68.74L136.26 68.51L136.32 68.27L136.39 68.04L136.46 67.81L136.52 67.58L136.59 67.35L136.73 66.89L136.8 66.66L136.87 66.43L136.95 66.21L137.02 65.98L137.09 65.76L137.17 65.53L137.24 65.31L137.32 65.09L137.39 64.86L137.47 64.64L137.79 63.76L137.87 63.54L137.95 63.33L138.03 63.11L138.11 62.9L137.97 62.79L137.82 62.68L137.68 62.56L137.53 62.45L137.39 62.34L137.11 62.1L136.97 61.98L136.83 61.86L136.55 61.62L136.42 61.5L136.28 61.37L136.14 61.24L136.01 61.12L135.87 60.99L135.74 60.86L135.61 60.72L135.48 60.59L135.35 60.46L135.09 60.18L134.96 60.05L134.83 59.91L134.71 59.76L134.58 59.62L134.46 59.48L134.34 59.33L134.21 59.19L134.09 59.04L133.85 58.74L133.74 58.59L133.62 58.44L133.5 58.28L133.39 58.13L133.27 57.97L133.16 57.81L133.05 57.66L132.94 57.5L132.47 56.78L132.03 56.06L131.62 55.33L131.24 54.59L130.89 53.84L130.57 53.09L130.28 52.33L130.02 51.57L129.79 50.8L129.59 50.03L129.42 49.26L129.27 48.48L129.16 47.71L129.07 46.93L129.01 46.16L128.98 45.39L128.98 44.63L129.01 43.86L129.07 43.11L129.15 42.36L129.26 41.61L129.4 40.87L129.57 40.15L129.76 39.43L129.99 38.72L130.24 38.02L130.51 37.34L130.82 36.67L131.15 36.01L131.51 35.37L131.89 34.74L132.3 34.13L132.74 33.53L133.2 32.96L133.69 32.4L134.21 31.87L134.75 31.36L135.32 30.86L135.92 30.39L136.54 29.95L137.15 29.55L137.78 29.17L138.41 28.83L139.06 28.52L139.72 28.24L140.39 27.98L141.06 27.76L141.74 27.57L142.43 27.4L143.12 27.26L143.82 27.15L144.52 27.07L145.23 27.02L145.94 26.99L146.65 26.99L147.36 27.02L148.07 27.08ZM139.88 81.03L139.3 81.22L138.75 81.51L138.23 81.88L137.74 82.33L137.27 82.85L136.83 83.45L136.41 84.1L136.03 84.82L135.67 85.6L135.33 86.42L135.03 87.29L134.75 88.2L134.5 89.14L134.27 90.12L134.07 91.12L133.9 92.14L133.76 93.18L133.65 94.23L133.56 95.28L133.5 96.33L133.47 97.38L133.46 98.42L133.48 99.45L133.53 100.46L133.61 101.45L133.72 102.4L133.85 103.32L134.01 104.21L134.2 105.05L134.41 105.84L134.66 106.58L134.93 107.26L135.23 107.88L135.56 108.43L135.91 108.91L136.3 109.31L136.71 109.63L137.15 109.85L220.33 126L221.06 126.11L221.8 126.12L222.56 126.03L223.33 125.85L224.11 125.58L224.89 125.24L225.67 124.81L226.45 124.31L227.22 123.75L227.99 123.12L228.75 122.43L229.49 121.69L230.22 120.9L230.93 120.07L231.61 119.2L232.27 118.29L232.9 117.35L233.51 116.39L234.07 115.4L234.6 114.4L235.09 113.39L235.54 112.38L235.94 111.36L236.3 110.34L236.6 109.33L236.85 108.34L237.04 107.36L237.17 106.4L237.24 105.47L237.24 104.57L237.17 103.7L237.03 102.88L236.81 102.1L236.52 101.37L236.14 100.7L235.69 100.09L235.14 99.54L234.51 99.06L233.78 98.65L232.96 98.32L231.79 97.94L230.65 97.56L229.51 97.2L228.4 96.84L227.3 96.49L226.21 96.15L225.13 95.82L224.06 95.49L223.01 95.18L221.97 94.86L220.93 94.56L219.9 94.26L218.88 93.97L217.87 93.68L215.85 93.12L214.85 92.85L213.86 92.58L211.86 92.06L210.87 91.8L209.87 91.54L208.88 91.29L207.88 91.04L206.87 90.8L205.87 90.55L204.85 90.31L203.83 90.07L202.81 89.83L201.78 89.59L199.68 89.11L198.62 88.87L197.55 88.63L196.46 88.38L195.36 88.14L194.25 87.9L193.12 87.65L191.98 87.4L190.82 87.15L189.65 86.91L188.47 86.69L187.28 86.46L186.08 86.24L184.88 86.03L183.67 85.83L182.45 85.62L180.01 85.24L178.77 85.05L177.54 84.87L176.3 84.69L175.05 84.52L173.81 84.35L172.56 84.19L170.04 83.87L168.79 83.72L167.52 83.57L166.26 83.42L165 83.28L163.73 83.14L162.46 83L161.2 82.87L158.66 82.61L157.39 82.48L156.13 82.35L154.86 82.23L153.6 82.1L151.08 81.86L149.82 81.74L148.56 81.62L147.31 81.51L146.06 81.39L144.82 81.27L143.58 81.16L142.34 81.04L141.11 80.92L140.48 80.92L139.88 81.03Z" id="dUmUROyx4"></path><path d="M148.07 27.08L148.78 27.16L149.49 27.27L150.2 27.41L150.9 27.57L151.6 27.76L152.3 27.98L152.99 28.22L153.68 28.49L154.36 28.78L155.03 29.1L155.69 29.44L156.35 29.81L156.99 30.2L157.63 30.62L158.25 31.06L158.86 31.53L159.46 32.02L160.05 32.54L160.62 33.07L161.17 33.63L161.71 34.22L162.23 34.83L162.74 35.46L164.34 34.69L165.97 33.98L167.63 33.33L169.3 32.73L170.99 32.18L172.7 31.69L174.43 31.26L176.17 30.88L177.93 30.55L179.69 30.28L181.47 30.05L183.25 29.89L185.04 29.77L186.84 29.71L188.64 29.7L190.44 29.75L192.25 29.84L194.05 29.99L195.84 30.19L197.64 30.44L199.43 30.74L201.21 31.09L202.98 31.49L204.74 31.95L206.48 32.45L208.22 33L209.94 33.6L211.64 34.26L213.32 34.96L214.98 35.71L216.62 36.51L218.24 37.36L219.83 38.25L221.39 39.19L222.93 40.19L224.44 41.23L225.91 42.31L227.35 43.45L228.76 44.63L230.13 45.85L230.99 45.44L231.85 45.07L232.71 44.72L233.59 44.41L234.46 44.13L235.34 43.88L236.23 43.66L237.11 43.48L237.99 43.32L238.88 43.19L239.76 43.1L240.64 43.03L241.52 43L242.4 43L243.27 43.02L244.14 43.08L245 43.17L245.85 43.28L246.69 43.43L247.53 43.6L248.35 43.8L249.17 44.04L249.97 44.3L250.76 44.59L251.54 44.9L252.3 45.25L253.05 45.62L253.79 46.03L254.5 46.46L255.2 46.92L255.88 47.4L256.54 47.91L257.18 48.45L257.8 49.02L258.4 49.62L258.97 50.24L259.52 50.88L260.04 51.56L260.54 52.26L261.02 52.99L261.49 53.78L261.92 54.6L262.31 55.42L262.66 56.26L262.97 57.1L263.25 57.96L263.48 58.82L263.68 59.7L263.84 60.58L263.96 61.46L264.04 62.35L264.09 63.24L264.1 64.13L264.07 65.03L264.01 65.93L263.91 66.82L263.78 67.71L263.61 68.6L263.4 69.49L263.16 70.37L262.89 71.25L262.58 72.11L262.24 72.97L261.86 73.82L261.46 74.66L261.01 75.49L260.54 76.31L260.04 77.11L259.5 77.9L258.93 78.68L258.33 79.43L257.7 80.17L257.03 80.89L256.34 81.59L255.62 82.28L254.87 82.93L254.09 83.57L253.27 84.18L252.43 84.77L251.57 85.33L251.48 85.39L251.39 85.44L251.31 85.49L251.22 85.54L251.13 85.6L251.05 85.65L250.96 85.7L250.78 85.8L250.7 85.85L250.52 85.95L250.43 86L250.34 86.05L250.26 86.1L250.17 86.15L250.08 86.2L249.99 86.24L249.9 86.29L249.81 86.34L249.73 86.38L249.55 86.48L249.46 86.52L249.37 86.57L249.28 86.61L249.19 86.66L249.1 86.7L249.01 86.74L248.92 86.79L248.83 86.83L248.74 86.87L248.65 86.91L248.56 86.96L248.47 87L248.02 87.2L248.03 87.41L248.03 89.27L248.02 89.48L248.02 89.69L248.01 89.9L248.01 90.11L248 90.32L248 90.53L247.99 90.74L247.98 90.95L247.96 91.37L247.95 91.58L247.94 91.8L247.93 92.01L247.92 92.22L247.91 92.44L247.9 92.65L247.88 92.86L247.87 93.08L247.85 93.29L247.84 93.51L247.82 93.72L247.81 93.94L247.79 94.16L247.77 94.37L247.73 94.81L247.71 95.02L247.67 95.46L247.65 95.68L244.17 112.23L243.96 114.39L243.69 116.47L243.37 118.49L243 120.43L242.57 122.31L242.09 124.12L241.56 125.87L240.98 127.55L240.35 129.16L239.67 130.71L238.95 132.2L238.19 133.62L237.38 134.99L236.53 136.29L235.63 137.54L234.7 138.73L233.73 139.86L232.71 140.94L231.67 141.96L230.58 142.93L229.46 143.84L228.31 144.7L227.12 145.52L225.91 146.28L224.66 146.99L223.38 147.65L222.08 148.27L220.74 148.84L219.39 149.37L218 149.85L216.6 150.29L215.17 150.68L213.72 151.04L212.25 151.35L210.76 151.62L209.25 151.86L207.72 152.06L206.18 152.22L204.63 152.34L203.06 152.43L203.18 152.49L203.31 152.55L203.43 152.61L203.55 152.67L203.68 152.73L203.8 152.79L203.93 152.85L204.17 152.97L204.3 153.03L204.42 153.09L204.55 153.15L204.67 153.21L204.79 153.27L204.92 153.34L205.04 153.4L205.16 153.46L205.29 153.52L205.53 153.64L205.66 153.7L205.78 153.77L206.02 153.89L206.15 153.95L206.27 154.01L206.39 154.08L206.51 154.14L206.64 154.2L206.76 154.26L206.88 154.33L207 154.39L207.13 154.45L207.25 154.52L207.37 154.58L207.49 154.65L207.61 154.71L207.74 154.77L207.86 154.84L207.98 154.9L208.18 155.01L208.37 155.11L208.57 155.22L208.77 155.32L208.96 155.43L209.16 155.53L209.36 155.64L209.55 155.75L209.75 155.86L209.94 155.96L210.14 156.07L210.33 156.18L210.53 156.29L210.72 156.4L210.91 156.51L211.11 156.62L211.3 156.73L211.49 156.84L211.69 156.95L211.88 157.06L212.07 157.18L212.27 157.29L212.46 157.4L212.65 157.52L213.03 157.74L213.22 157.86L213.42 157.98L213.61 158.09L213.8 158.21L213.99 158.32L214.56 158.68L214.75 158.79L214.93 158.91L215.69 159.39L216.47 159.93L217.18 160.51L217.82 161.11L218.4 161.73L218.91 162.38L219.35 163.05L219.73 163.73L220.06 164.43L220.32 165.13L220.53 165.85L220.69 166.57L220.79 167.3L220.85 168.02L220.85 168.74L220.82 169.46L220.73 170.17L220.61 170.87L220.45 171.56L220.25 172.23L220.01 172.88L219.75 173.51L219.45 174.12L219.12 174.7L218.76 175.25L218.38 175.77L217.98 176.25L217.55 176.69L217.11 177.1L216.65 177.46L216.18 177.78L215.69 178.05L215.19 178.27L214.68 178.43L214.17 178.54L213.65 178.59L213.13 178.57L212.6 178.5L212.08 178.35L211.56 178.13L211.05 177.85L210.97 177.79L210.88 177.74L210.8 177.69L210.71 177.63L210.63 177.58L210.54 177.52L210.46 177.47L210.37 177.42L210.29 177.37L210.2 177.31L210.12 177.26L210.03 177.21L209.95 177.15L209.86 177.1L209.78 177.05L209.6 176.95L209.52 176.89L209.43 176.84L209.35 176.79L209.26 176.74L209.17 176.69L209.09 176.63L209 176.58L208.92 176.53L208.83 176.48L208.74 176.43L208.66 176.38L208.48 176.28L208.4 176.23L208.22 176.13L208.14 176.08L208.05 176.03L207.96 175.98L207.88 175.93L207.61 175.78L207.73 176.46L207.84 177.16L207.96 177.88L208.09 178.62L208.22 179.38L208.35 180.15L208.49 180.93L208.63 181.73L208.77 182.54L208.91 183.37L209.05 184.2L209.19 185.04L209.34 185.89L209.62 187.61L209.76 188.48L209.9 189.35L210.04 190.23L210.17 191.1L210.3 191.98L210.43 192.86L210.55 193.73L210.67 194.61L210.78 195.48L210.89 196.34L210.99 197.2L211.09 198.06L211.17 198.9L211.25 199.74L211.33 200.57L211.39 201.38L211.45 202.19L211.49 202.98L211.53 203.75L211.55 204.51L211.57 205.26L211.57 205.99L211.56 206.7L211.54 207.39L211.51 208.06L212.74 209.91L213.85 211.76L214.85 213.61L215.74 215.45L216.53 217.29L217.21 219.11L217.8 220.92L218.29 222.71L218.69 224.49L219 226.25L219.22 227.99L219.37 229.71L219.43 231.4L219.42 233.06L219.34 234.69L219.19 236.3L218.97 237.87L218.69 239.4L218.36 240.9L217.96 242.35L217.52 243.77L217.03 245.14L216.49 246.46L215.92 247.74L215.3 248.97L214.65 250.14L213.97 251.26L213.26 252.33L212.52 253.34L211.77 254.28L210.99 255.17L210.2 255.98L209.4 256.74L208.59 257.42L207.78 258.03L206.97 258.57L206.16 259.04L205.35 259.43L204.55 259.74L203.77 259.97L203.66 260L203.58 260.04L203.51 260.09L203.47 260.15L203.44 260.21L203.44 260.29L203.45 260.36L203.47 260.45L203.51 260.54L203.57 260.63L203.64 260.74L203.72 260.84L203.8 260.95L203.9 261.06L204.12 261.3L204.24 261.42L204.36 261.55L204.49 261.67L205.14 262.32L205.26 262.44L205.38 262.57L205.49 262.7L205.6 262.82L205.7 262.95L205.79 263.07L205.87 263.18L205.94 263.3L206 263.41L206.04 263.51L206.07 263.62L206.09 263.71L206.09 263.8L206.06 263.89L206.02 263.97L205.96 264.04L205.76 264.21L205.49 264.36L205.17 264.5L204.8 264.63L204.38 264.74L203.92 264.83L203.41 264.92L202.86 264.99L202.28 265.05L201.67 265.1L201.03 265.13L200.36 265.16L199.67 265.18L198.95 265.19L197.48 265.19L196.73 265.17L195.97 265.15L195.21 265.12L194.45 265.09L193.69 265.05L192.93 265.01L192.18 264.96L191.45 264.91L190.73 264.86L190.03 264.8L189.35 264.74L188.69 264.68L188.07 264.62L187.47 264.56L186.91 264.5L186.38 264.44L185.9 264.38L185.46 264.32L185.07 264.27L184.72 264.21L184.43 264.17L184.2 264.12L184.03 264.08L183.91 264.04L183.87 264.03L183.82 264.02L183.76 264.01L183.62 263.99L183.53 263.98L183.45 263.97L183.36 263.96L183.27 263.95L183.17 263.94L182.97 263.9L182.87 263.88L182.77 263.85L182.66 263.82L182.57 263.77L182.47 263.73L182.37 263.67L182.28 263.61L182.2 263.54L182.11 263.46L182.04 263.36L181.97 263.26L181.91 263.15L181.85 263.03L181.81 262.89L181.77 262.74L181.74 262.57L181.73 262.39L181.72 262.2L181.73 261.99L181.75 261.77L181.79 261.52L181.84 261.26L181.9 260.98L181.98 260.69L182.08 260.37L182.2 260.03L182.33 259.68L182.48 259.3L182.64 258.93L182.81 258.55L182.99 258.16L183.19 257.76L183.4 257.35L183.62 256.92L183.84 256.49L184.32 255.59L184.57 255.12L184.83 254.65L185.08 254.16L185.34 253.66L185.61 253.15L185.87 252.64L186.14 252.11L186.4 251.57L186.66 251.03L186.92 250.47L187.18 249.9L187.43 249.33L187.67 248.74L187.91 248.15L188.14 247.54L188.37 246.93L188.58 246.31L188.78 245.68L188.97 245.04L189.15 244.39L189.31 243.73L189.46 243.06L189.59 242.39L189.71 241.71L189.8 241.01L189.88 240.31L189.94 239.61L189.98 238.89L190 238.16L189.99 237.43L189.97 236.69L189.95 236.44L189.94 236.2L189.92 235.95L189.91 235.71L189.89 235.48L189.87 235.24L189.83 234.78L189.81 234.55L189.79 234.33L189.77 234.1L189.75 233.88L189.73 233.67L189.7 233.45L189.68 233.24L189.66 233.03L189.63 232.82L189.6 232.62L189.58 232.41L189.55 232.21L189.52 232.02L189.49 231.82L189.47 231.63L189.38 231.06L189.34 230.88L189.31 230.69L189.28 230.51L189.25 230.34L189.21 230.16L189.18 229.99L189.15 229.82L189.11 229.65L189.07 229.48L189.04 229.32L189 229.16L188.96 229L188.93 228.84L188.89 228.68L188.61 228.75L188.32 228.83L188.04 228.89L187.48 229.03L187.2 229.09L186.92 229.15L186.65 229.21L186.37 229.27L186.09 229.32L185.82 229.38L185.55 229.43L185.27 229.48L185 229.52L184.46 229.62L184.2 229.66L183.66 229.74L183.4 229.77L183.14 229.81L182.88 229.84L182.62 229.88L182.37 229.9L182.11 229.93L181.86 229.96L181.61 229.98L181.36 230.01L181.11 230.03L180.87 230.05L180.62 230.06L180.38 230.08L180.14 230.09L179.91 230.1L179.67 230.11L179.21 230.13L177.8 230.13L177.55 230.12L177.3 230.12L176.78 230.1L176.52 230.09L176.26 230.08L175.99 230.06L175.73 230.05L175.19 230.01L174.92 229.99L174.65 229.97L174.37 229.94L174.09 229.92L173.82 229.89L173.54 229.86L173.26 229.83L172.97 229.8L172.69 229.76L172.4 229.73L172.12 229.69L171.83 229.65L171.54 229.61L171.25 229.57L170.96 229.52L170.67 229.48L170.09 229.38L169.79 229.33L169.5 229.27L169.21 229.22L168.91 229.16L168.62 229.1L168.32 229.04L168.02 228.97L167.73 228.91L167.43 228.84L165.99 229.9L164.53 230.98L163.06 232.07L161.57 233.17L160.07 234.27L158.55 235.38L157.04 236.49L155.52 237.6L154 238.7L152.48 239.81L150.97 240.9L149.46 241.99L146.48 244.13L145.01 245.17L143.56 246.2L142.14 247.21L140.73 248.2L139.35 249.16L138 250.1L136.68 251L135.4 251.88L134.15 252.72L132.94 253.53L131.78 254.3L130.65 255.03L129.58 255.72L128.56 256.37L127.59 256.97L126.67 257.52L125.82 258.02L125.02 258.46L124.29 258.85L123.63 259.19L123.03 259.46L122.51 259.68L122.06 259.83L121.69 259.91L121.4 259.93L121.19 259.87L121.09 259.81L120.95 259.7L120.77 259.55L120.55 259.35L120.3 259.11L120.01 258.84L119.69 258.53L119.34 258.19L118.96 257.82L118.57 257.42L118.15 256.99L117.71 256.54L117.25 256.07L116.78 255.57L116.3 255.06L115.81 254.53L115.31 253.99L114.81 253.43L114.3 252.87L113.8 252.3L113.29 251.72L112.79 251.15L112.3 250.57L111.82 249.99L111.36 249.41L110.9 248.84L110.47 248.28L110.05 247.73L109.65 247.19L109.28 246.66L108.94 246.15L108.62 245.66L108.34 245.19L108.08 244.74L107.87 244.32L107.69 243.92L107.56 243.55L107.47 243.22L107.42 242.92L107.42 242.65L107.44 242.55L107.47 242.46L107.5 242.37L107.6 242.21L107.66 242.13L107.73 242.06L107.81 241.99L107.89 241.93L107.99 241.87L108.08 241.81L108.3 241.71L108.41 241.67L108.53 241.63L108.66 241.59L108.79 241.56L108.92 241.53L109.05 241.5L109.19 241.48L109.33 241.47L109.48 241.45L109.62 241.44L109.77 241.43L110.06 241.43L110.36 241.45L110.51 241.46L110.65 241.47L110.8 241.49L110.94 241.51L111.08 241.54L111.36 241.6L111.62 241.68L111.74 241.72L111.86 241.77L111.98 241.82L112 241.81L112.02 241.8L112.04 241.79L112.07 241.77L112.1 241.75L112.13 241.72L112.18 241.69L112.22 241.65L112.27 241.61L112.33 241.56L112.38 241.51L112.45 241.45L112.51 241.4L112.59 241.33L112.66 241.27L112.74 241.19L112.82 241.12L113 240.96L113.1 240.87L113.19 240.78L113.3 240.69L113.4 240.59L113.51 240.49L113.62 240.39L113.74 240.28L113.85 240.17L113.98 240.06L114.1 239.94L114.23 239.82L114.49 239.58L114.63 239.45L114.77 239.32L114.91 239.18L115.06 239.05L115.36 238.77L115.51 238.62L115.52 238.6L115.54 238.58L115.55 238.56L115.56 238.53L115.57 238.51L115.59 238.49L115.6 238.46L115.61 238.44L115.63 238.42L115.64 238.4L115.65 238.37L115.67 238.35L115.69 238.31L115.71 238.29L115.72 238.26L115.73 238.24L115.75 238.22L115.76 238.2L115.78 238.17L115.79 238.15L115.8 238.13L115.82 238.11L115.83 238.08L115.85 238.06L115.86 238.04L115.87 238.02L115.89 238L115.9 237.98L115.92 237.95L115.93 237.93L115.94 237.91L115.96 237.89L115.97 237.87L115.99 237.84L116 237.82L116.02 237.8L116.03 237.78L116.05 237.76L116.06 237.74L116.25 237.46L116.44 237.19L116.63 236.91L117.03 236.37L117.23 236.1L117.43 235.83L117.64 235.57L117.84 235.3L118.05 235.04L118.26 234.78L118.68 234.26L118.9 234L119.11 233.74L119.33 233.49L119.55 233.23L119.99 232.73L120.22 232.48L120.44 232.23L120.67 231.98L120.89 231.73L121.12 231.48L121.58 230.98L121.81 230.74L122.04 230.49L122.27 230.25L122.5 230L122.73 229.76L122.96 229.51L123.2 229.27L123.43 229.03L123.66 228.78L123.9 228.54L124.13 228.3L124.37 228.06L124.6 227.82L124.84 227.57L125.37 227.03L125.9 226.49L126.43 225.94L126.96 225.4L127.5 224.86L128.03 224.33L128.57 223.79L129.11 223.26L129.65 222.72L130.19 222.19L130.74 221.66L131.28 221.13L131.83 220.6L132.38 220.08L132.93 219.55L134.03 218.51L134.58 217.99L135.7 216.95L136.25 216.44L136.81 215.93L137.38 215.41L137.94 214.9L138.5 214.4L139.07 213.89L139.64 213.39L140.21 212.88L141.35 211.88L141.92 211.39L142.5 210.89L143.07 210.4L143.65 209.91L144.23 209.42L144.81 208.93L145.4 208.45L145.98 207.96L146.57 207.48L147.15 207L147.12 206.27L147.09 205.51L147.07 204.73L147.05 203.92L147.04 203.11L147.03 202.27L147.03 201.42L147.04 200.55L147.05 199.67L147.07 198.78L147.1 197.87L147.14 196.96L147.18 196.04L147.23 195.11L147.29 194.18L147.35 193.24L147.51 191.36L147.6 190.42L147.82 188.54L147.94 187.61L148.07 186.68L148.21 185.76L148.36 184.84L148.53 183.94L148.7 183.04L148.88 182.16L149.08 181.29L149.29 180.43L149.51 179.59L149.74 178.77L149.98 177.97L150.24 177.18L150.51 176.42L150.79 175.67L151.09 174.95L151.4 174.26L151.72 173.59L152.06 172.95L151.13 173.06L150.18 173.15L149.22 173.24L148.24 173.32L147.26 173.39L146.26 173.46L145.25 173.51L144.23 173.55L143.2 173.59L142.17 173.62L141.13 173.63L140.08 173.64L139.03 173.64L137.97 173.63L136.91 173.61L135.84 173.58L134.78 173.54L133.71 173.49L132.65 173.43L131.58 173.36L130.52 173.28L129.46 173.19L128.4 173.09L127.35 172.97L126.3 172.85L125.25 172.72L124.22 172.57L123.19 172.42L122.17 172.25L121.16 172.08L120.17 171.89L119.18 171.69L118.2 171.48L117.24 171.25L116.29 171.02L115.36 170.77L114.44 170.51L113.54 170.24L112.65 169.96L111.79 169.66L111.78 169.66L111.63 169.57L111.47 169.48L111.33 169.4L111.18 169.32L111.04 169.25L110.91 169.17L110.78 169.1L110.65 169.03L110.53 168.96L110.4 168.9L110.29 168.83L110.17 168.77L110.06 168.71L109.95 168.64L109.85 168.58L109.74 168.52L109.64 168.45L109.54 168.39L109.44 168.32L109.35 168.25L109.25 168.18L109.16 168.11L109.07 168.04L108.98 167.96L108.89 167.88L108.72 167.71L108.63 167.61L108.54 167.52L108.46 167.42L108.37 167.31L108.29 167.2L108.2 167.08L108.12 166.96L107.94 166.7L107.85 166.56L107.76 166.41L107.68 166.25L107.58 166.09L107.52 165.96L107.46 165.84L107.34 165.6L107.29 165.47L107.23 165.34L107.18 165.22L107.13 165.09L107.05 164.83L107 164.7L106.97 164.57L106.93 164.43L106.87 164.17L106.84 164.03L106.81 163.9L106.79 163.76L106.77 163.63L106.75 163.49L106.73 163.36L106.72 163.22L106.71 163.08L106.7 162.95L106.7 162.4L106.71 162.27L106.71 162.13L106.72 162L106.74 161.86L106.76 161.73L106.77 161.6L106.8 161.46L106.82 161.33L106.85 161.2L106.88 161.07L106.91 160.94L106.95 160.81L108.24 158.43L108.39 158.31L108.54 158.19L108.68 158.08L108.81 157.97L108.94 157.87L109.06 157.77L109.18 157.68L109.29 157.59L109.4 157.51L109.5 157.43L109.6 157.36L109.7 157.28L109.79 157.22L109.89 157.15L109.98 157.09L110.07 157.04L110.16 156.98L110.24 156.93L110.42 156.83L110.51 156.78L110.6 156.73L110.69 156.69L110.79 156.64L110.89 156.6L110.99 156.56L111.09 156.52L111.2 156.47L111.31 156.43L111.43 156.39L111.55 156.34L111.68 156.29L111.81 156.25L111.95 156.2L112.1 156.15L112.26 156.1L112.42 156.04L112.59 155.99L112.77 155.93L112.96 155.86L113.03 155.87L113.96 155.87L114.03 155.86L114.75 155.86L114.82 155.87L114.97 155.87L115.04 155.88L115.11 155.88L115.18 155.89L115.25 155.89L115.6 155.94L115.67 155.96L115.74 155.97L115.81 155.99L115.84 155.99L115.88 156L115.92 156.01L115.93 156.01L115.97 156.02L116 156.03L116.04 156.04L116.12 156.06L116.22 156.08L116.29 156.1L116.34 156.11L117.18 156.29L118.03 156.47L118.88 156.63L119.73 156.78L120.58 156.92L121.43 157.05L122.28 157.17L123.14 157.27L123.99 157.37L124.85 157.45L125.7 157.53L127.42 157.65L128.28 157.69L129.14 157.72L130 157.74L130.86 157.75L131.71 157.75L133.43 157.71L134.29 157.68L135.15 157.63L136 157.58L136.86 157.51L137.72 157.43L138.57 157.34L139.42 157.24L140.27 157.13L141.12 157.01L141.97 156.88L143.67 156.58L144.51 156.41L145.35 156.24L146.19 156.05L147.03 155.85L147.86 155.64L148.69 155.42L149.52 155.19L150.35 154.95L150.83 154.81L151.79 154.51L152.26 154.35L152.74 154.19L153.21 154.03L153.68 153.87L154.16 153.7L154.63 153.53L155.1 153.36L156.04 153.02L156.51 152.84L156.98 152.66L157.45 152.48L157.92 152.3L158.38 152.12L159.32 151.76L159.79 151.57L160.25 151.39L160.72 151.2L161.18 151.02L161.65 150.83L162.12 150.65L162.58 150.46L163.05 150.28L163.51 150.09L163.98 149.91L164.45 149.73L164.91 149.54L165.38 149.36L165.84 149.18L166.31 149.01L167.25 148.65L167.71 148.48L168.18 148.31L168.65 148.14L169.12 147.98L167.12 147.38L165.13 146.75L163.17 146.09L161.24 145.39L159.33 144.65L157.45 143.88L155.6 143.07L153.8 142.21L152.03 141.32L150.3 140.38L148.61 139.4L146.98 138.38L145.39 137.31L143.86 136.2L142.39 135.05L140.97 133.84L139.61 132.59L138.32 131.29L137.1 129.94L135.94 128.54L134.86 127.09L133.85 125.58L132.93 124.03L132.08 122.42L131.32 120.75L130.64 119.03L130.06 117.26L129.56 115.42L129.17 113.53L128.87 111.58L128.67 109.57L128.57 107.5L128.58 105.37L128.71 103.17L128.94 100.91L129.29 98.59L129.76 96.2L130.34 93.75L131.05 91.23L131.89 88.64L135.37 72.09L135.42 71.85L135.48 71.6L135.53 71.36L135.59 71.12L135.65 70.88L135.7 70.64L135.76 70.4L135.88 69.92L135.94 69.68L136 69.45L136.07 69.21L136.13 68.97L136.19 68.74L136.26 68.51L136.32 68.27L136.39 68.04L136.46 67.81L136.52 67.58L136.59 67.35L136.73 66.89L136.8 66.66L136.87 66.43L136.95 66.21L137.02 65.98L137.09 65.76L137.17 65.53L137.24 65.31L137.32 65.09L137.39 64.86L137.47 64.64L137.79 63.76L137.87 63.54L137.95 63.33L138.03 63.11L138.11 62.9L137.97 62.79L137.82 62.68L137.68 62.56L137.53 62.45L137.39 62.34L137.11 62.1L136.97 61.98L136.83 61.86L136.55 61.62L136.42 61.5L136.28 61.37L136.14 61.24L136.01 61.12L135.87 60.99L135.74 60.86L135.61 60.72L135.48 60.59L135.35 60.46L135.09 60.18L134.96 60.05L134.83 59.91L134.71 59.76L134.58 59.62L134.46 59.48L134.34 59.33L134.21 59.19L134.09 59.04L133.85 58.74L133.74 58.59L133.62 58.44L133.5 58.28L133.39 58.13L133.27 57.97L133.16 57.81L133.05 57.66L132.94 57.5L132.47 56.78L132.03 56.06L131.62 55.33L131.24 54.59L130.89 53.84L130.57 53.09L130.28 52.33L130.02 51.57L129.79 50.8L129.59 50.03L129.42 49.26L129.27 48.48L129.16 47.71L129.07 46.93L129.01 46.16L128.98 45.39L128.98 44.63L129.01 43.86L129.07 43.11L129.15 42.36L129.26 41.61L129.4 40.87L129.57 40.15L129.76 39.43L129.99 38.72L130.24 38.02L130.51 37.34L130.82 36.67L131.15 36.01L131.51 35.37L131.89 34.74L132.3 34.13L132.74 33.53L133.2 32.96L133.69 32.4L134.21 31.87L134.75 31.36L135.32 30.86L135.92 30.39L136.54 29.95L137.15 29.55L137.78 29.17L138.41 28.83L139.06 28.52L139.72 28.24L140.39 27.98L141.06 27.76L141.74 27.57L142.43 27.4L143.12 27.26L143.82 27.15L144.52 27.07L145.23 27.02L145.94 26.99L146.65 26.99L147.36 27.02L148.07 27.08ZM139.88 81.03L139.3 81.22L138.75 81.51L138.23 81.88L137.74 82.33L137.27 82.85L136.83 83.45L136.41 84.1L136.03 84.82L135.67 85.6L135.33 86.42L135.03 87.29L134.75 88.2L134.5 89.14L134.27 90.12L134.07 91.12L133.9 92.14L133.76 93.18L133.65 94.23L133.56 95.28L133.5 96.33L133.47 97.38L133.46 98.42L133.48 99.45L133.53 100.46L133.61 101.45L133.72 102.4L133.85 103.32L134.01 104.21L134.2 105.05L134.41 105.84L134.66 106.58L134.93 107.26L135.23 107.88L135.56 108.43L135.91 108.91L136.3 109.31L136.71 109.63L137.15 109.85L220.33 126L221.06 126.11L221.8 126.12L222.56 126.03L223.33 125.85L224.11 125.58L224.89 125.24L225.67 124.81L226.45 124.31L227.22 123.75L227.99 123.12L228.75 122.43L229.49 121.69L230.22 120.9L230.93 120.07L231.61 119.2L232.27 118.29L232.9 117.35L233.51 116.39L234.07 115.4L234.6 114.4L235.09 113.39L235.54 112.38L235.94 111.36L236.3 110.34L236.6 109.33L236.85 108.34L237.04 107.36L237.17 106.4L237.24 105.47L237.24 104.57L237.17 103.7L237.03 102.88L236.81 102.1L236.52 101.37L236.14 100.7L235.69 100.09L235.14 99.54L234.51 99.06L233.78 98.65L232.96 98.32L231.79 97.94L230.65 97.56L229.51 97.2L228.4 96.84L227.3 96.49L226.21 96.15L225.13 95.82L224.06 95.49L223.01 95.18L221.97 94.86L220.93 94.56L219.9 94.26L218.88 93.97L217.87 93.68L215.85 93.12L214.85 92.85L213.86 92.58L211.86 92.06L210.87 91.8L209.87 91.54L208.88 91.29L207.88 91.04L206.87 90.8L205.87 90.55L204.85 90.31L203.83 90.07L202.81 89.83L201.78 89.59L199.68 89.11L198.62 88.87L197.55 88.63L196.46 88.38L195.36 88.14L194.25 87.9L193.12 87.65L191.98 87.4L190.82 87.15L189.65 86.91L188.47 86.69L187.28 86.46L186.08 86.24L184.88 86.03L183.67 85.83L182.45 85.62L180.01 85.24L178.77 85.05L177.54 84.87L176.3 84.69L175.05 84.52L173.81 84.35L172.56 84.19L170.04 83.87L168.79 83.72L167.52 83.57L166.26 83.42L165 83.28L163.73 83.14L162.46 83L161.2 82.87L158.66 82.61L157.39 82.48L156.13 82.35L154.86 82.23L153.6 82.1L151.08 81.86L149.82 81.74L148.56 81.62L147.31 81.51L146.06 81.39L144.82 81.27L143.58 81.16L142.34 81.04L141.11 80.92L140.48 80.92L139.88 81.03Z" id="iwqiMNoyO"></path><path d="M207.09 152.03C207.14 152.1 207.19 152.18 207.25 152.26C208.16 153.59 207.13 155.46 205.31 155.75C196.06 157.25 187.65 162.44 180.44 168.6C168.11 179.15 158.46 192.61 150.16 206.72C150.14 206.75 149.99 207.02 149.97 207.05C149.47 207.82 149.13 207.95 148.57 208.08C146.96 208.46 145.27 206.56 146.17 204.83C154.99 189.77 165.27 175.53 178.39 164.58C184.76 159.26 191.96 154.74 199.86 152.47C202.34 152.45 204.75 152.3 207.09 152.03" id="b4h4U28QN"></path><path d="M207.09 152.03C207.14 152.1 207.19 152.18 207.25 152.26C208.16 153.59 207.13 155.46 205.31 155.75C196.06 157.25 187.65 162.44 180.44 168.6C168.11 179.15 158.46 192.61 150.16 206.72C150.14 206.75 149.99 207.02 149.97 207.05C149.47 207.82 149.13 207.95 148.57 208.08C146.96 208.46 145.27 206.56 146.17 204.83C154.99 189.77 165.27 175.53 178.39 164.58C184.76 159.26 191.96 154.74 199.86 152.47C202.34 152.45 204.75 152.3 207.09 152.03" id="dYNkb8Rd7"></path><path d="M148.49 201.27C150.25 201.51 152.02 202.11 153.83 202.51C168.31 205.69 183.33 207.05 198.03 205.9C201.24 205.65 204.57 205.55 207.47 204.21C207.74 204.09 207.87 203.95 207.87 203.95C207.87 203.95 208.4 203.53 208.94 203.32C211.78 202.21 215.37 205.48 214.01 208.59C213 210.91 209.94 211.91 207.4 212.53C201.14 214.06 194.59 214.17 188.06 214.13C174.69 214.06 161.23 212.58 148.35 209.36C147.52 209.15 146.71 208.81 146.03 208.35C144.83 207.54 145.78 201.61 147.58 201.31C147.87 201.27 148.18 201.25 148.49 201.27" id="b1mQCmGMBr"></path><path d="M148.49 201.27C150.25 201.51 152.02 202.11 153.83 202.51C168.31 205.69 183.33 207.05 198.03 205.9C201.24 205.65 204.57 205.55 207.47 204.21C207.74 204.09 207.87 203.95 207.87 203.95C207.87 203.95 208.4 203.53 208.94 203.32C211.78 202.21 215.37 205.48 214.01 208.59C213 210.91 209.94 211.91 207.4 212.53C201.14 214.06 194.59 214.17 188.06 214.13C174.69 214.06 161.23 212.58 148.35 209.36C147.52 209.15 146.71 208.81 146.03 208.35C144.83 207.54 145.78 201.61 147.58 201.31C147.87 201.27 148.18 201.25 148.49 201.27" id="c14OYOffu8"></path><path d="M138.2 62.81C137.46 64.7 136.8 66.64 136.21 68.64C136 69.66 134.29 77.78 134.08 78.79C170.87 80.31 208.26 88.45 246.15 102.34C246.37 101.33 248.08 93.2 248.29 92.19C248.47 90.11 248.57 88.05 248.61 86.03C212.54 70.56 175.69 62.98 138.2 62.81" id="a3tDgTIbE"></path><path d="M138.2 62.81C137.46 64.7 136.8 66.64 136.21 68.64C136 69.66 134.29 77.78 134.08 78.79C170.87 80.31 208.26 88.45 246.15 102.34C246.37 101.33 248.08 93.2 248.29 92.19C248.47 90.11 248.57 88.05 248.61 86.03C212.54 70.56 175.69 62.98 138.2 62.81" id="a2cxUxA0Of"></path><path d="M203.01 212.24C200.85 211.85 209.11 208.41 209.95 209C215.99 213.26 221.18 219.14 220.88 226.87C220.77 229.91 212.82 227.33 212.92 227.17C214.72 224.19 206.47 212.87 203.01 212.24" id="b5sy49OyO5"></path><path d="M203.01 212.24C200.85 211.85 209.11 208.41 209.95 209C215.99 213.26 221.18 219.14 220.88 226.87C220.77 229.91 212.82 227.33 212.92 227.17C214.72 224.19 206.47 212.87 203.01 212.24" id="ch0OkqVZ7"></path><path d="M207.14 207.78C207.72 207.82 207.81 207.86 208.07 207.94C209.74 208.44 210.6 210.16 211.25 211.98C213.77 219.03 215.16 226.39 217.25 233.61C217.01 235.09 209.25 235.91 209.24 234.56C209.19 227.78 206.03 220.41 203.36 213.47C203.34 213.42 203.2 213.05 203.18 213C202.46 210.7 204.12 208 206.58 207.79C206.94 207.75 207.02 207.77 207.14 207.78" id="aXN0LWKHV"></path><path d="M207.14 207.78C207.72 207.82 207.81 207.86 208.07 207.94C209.74 208.44 210.6 210.16 211.25 211.98C213.77 219.03 215.16 226.39 217.25 233.61C217.01 235.09 209.25 235.91 209.24 234.56C209.19 227.78 206.03 220.41 203.36 213.47C203.34 213.42 203.2 213.05 203.18 213C202.46 210.7 204.12 208 206.58 207.79C206.94 207.75 207.02 207.77 207.14 207.78" id="hp7EIlcAn"></path><path d="M1.91 125.65L1.01 126.05C0.6 126.49 0.38 126.74 0.33 126.79C0.13 127.35 0.02 127.67 0 127.73C0.04 128.57 -0.06 128.88 0.46 129.61C1.15 130.58 1.87 130.75 2.57 131.19C18.16 140.96 34.74 148.54 52.01 155.35C66.26 160.97 80.77 165.74 95.54 169.38C105.31 171.78 107.35 162.28 97.96 160.43C77.65 156.41 57.55 149.78 38.5 142.23C26.61 137.52 14.87 132.27 3.87 125.93C3.78 125.89 3 125.63 2.9 125.6C2.57 125.61 2.24 125.63 1.91 125.65" id="a5nMNnNAI6"></path><path d="M1.91 125.65L1.01 126.05C0.6 126.49 0.38 126.74 0.33 126.79C0.13 127.35 0.02 127.67 0 127.73C0.04 128.57 -0.06 128.88 0.46 129.61C1.15 130.58 1.87 130.75 2.57 131.19C18.16 140.96 34.74 148.54 52.01 155.35C66.26 160.97 80.77 165.74 95.54 169.38C105.31 171.78 107.35 162.28 97.96 160.43C77.65 156.41 57.55 149.78 38.5 142.23C26.61 137.52 14.87 132.27 3.87 125.93C3.78 125.89 3 125.63 2.9 125.6C2.57 125.61 2.24 125.63 1.91 125.65" id="d1YaFs6l0M"></path><path d="M111.44 182.89L110.63 183.45C110.31 183.96 110.13 184.24 110.09 184.3C110 184.89 109.95 185.22 109.94 185.28C110.14 186.11 110.1 186.43 110.75 187.05C111.6 187.87 112.35 187.91 113.11 188.21C130.24 194.91 147.94 199.28 166.18 202.78C181.22 205.65 196.37 207.65 211.55 208.48C221.6 209.03 221.85 199.31 212.28 199.23C191.57 199.05 170.59 196.27 150.47 192.39C137.9 189.96 125.4 186.98 113.42 182.8C113.31 182.78 112.5 182.67 112.4 182.65C112.08 182.73 111.76 182.81 111.44 182.89" id="b6eOdfLP1b"></path><path d="M111.44 182.89L110.63 183.45C110.31 183.96 110.13 184.24 110.09 184.3C110 184.89 109.95 185.22 109.94 185.28C110.14 186.11 110.1 186.43 110.75 187.05C111.6 187.87 112.35 187.91 113.11 188.21C130.24 194.91 147.94 199.28 166.18 202.78C181.22 205.65 196.37 207.65 211.55 208.48C221.6 209.03 221.85 199.31 212.28 199.23C191.57 199.05 170.59 196.27 150.47 192.39C137.9 189.96 125.4 186.98 113.42 182.8C113.31 182.78 112.5 182.67 112.4 182.65C112.08 182.73 111.76 182.81 111.44 182.89" id="b2xUxUIfL"></path><path d="M215.86 191.49C212.34 191.54 209.56 196.86 209.65 203.37C209.73 209.87 212.66 215.11 216.17 215.07C219.69 215.02 222.47 209.7 222.39 203.2C222.3 196.69 219.38 191.45 215.86 191.49" id="a8KHWHGfZ"></path><path d="M215.86 191.49C212.34 191.54 209.56 196.86 209.65 203.37C209.73 209.87 212.66 215.11 216.17 215.07C219.69 215.02 222.47 209.7 222.39 203.2C222.3 196.69 219.38 191.45 215.86 191.49" id="a1gn3aCEPn"></path><path d="M216.84 199.23C215.5 199.24 215.59 208.67 217.63 208.73C225.78 208.95 234.09 208.7 241.97 207.77C242.1 207.72 242.74 207.51 243.89 207.12C243.99 207.03 244.48 206.6 245.36 205.83L246.24 204.08C246.33 202.87 246.38 202.2 246.39 202.07C246 200.92 245.79 200.28 245.74 200.16C244.46 198.7 244.44 198.68 242.71 197.8C242.51 197.79 240.9 197.67 240.7 197.65C232.84 198.65 224.87 199.14 216.84 199.23" id="b3aFUhPb5p"></path><path d="M216.84 199.23C215.5 199.24 215.59 208.67 217.63 208.73C225.78 208.95 234.09 208.7 241.97 207.77C242.1 207.72 242.74 207.51 243.89 207.12C243.99 207.03 244.48 206.6 245.36 205.83L246.24 204.08C246.33 202.87 246.38 202.2 246.39 202.07C246 200.92 245.79 200.28 245.74 200.16C244.46 198.7 244.44 198.68 242.71 197.8C242.51 197.79 240.9 197.67 240.7 197.65C232.84 198.65 224.87 199.14 216.84 199.23" id="e2AolDuCjZ"></path><path d="M189.68 167.77C187.49 166.95 205.03 154.18 207.32 155.39C209.95 156.78 213.18 157.78 215.69 159.39C226.63 166.42 237.26 176.21 238.04 189.64C238.27 193.72 237.43 197.84 235.71 201.56C235.71 201.56 235.7 201.57 235.7 201.57C234.28 203.55 234.09 204.39 231.73 205.38C230.05 206.09 228.07 206.14 226.41 205.46C226.18 205.31 224.41 204.1 224.19 203.95C223.7 203.19 223.07 202.51 222.72 201.69C221.73 199.33 222.17 198.59 222.52 196.16C224.87 189.14 217.83 182.18 211.05 177.85C208.94 176.5 206.77 175.27 204.54 174.13C201 172.31 197.33 170.74 193.61 169.33C193.61 169.33 191.53 168.47 189.68 167.77" id="a1vv9yuE14"></path><path d="M189.68 167.77C187.49 166.95 205.03 154.18 207.32 155.39C209.95 156.78 213.18 157.78 215.69 159.39C226.63 166.42 237.26 176.21 238.04 189.64C238.27 193.72 237.43 197.84 235.71 201.56C235.71 201.56 235.7 201.57 235.7 201.57C234.28 203.55 234.09 204.39 231.73 205.38C230.05 206.09 228.07 206.14 226.41 205.46C226.18 205.31 224.41 204.1 224.19 203.95C223.7 203.19 223.07 202.51 222.72 201.69C221.73 199.33 222.17 198.59 222.52 196.16C224.87 189.14 217.83 182.18 211.05 177.85C208.94 176.5 206.77 175.27 204.54 174.13C201 172.31 197.33 170.74 193.61 169.33C193.61 169.33 191.53 168.47 189.68 167.77" id="e7HJw7JCIR"></path><path d="M102.92 153.49C99.46 152.88 95.74 157.59 94.61 164C93.49 170.41 95.39 176.1 98.86 176.71C102.32 177.32 106.04 172.61 107.16 166.2C108.29 159.79 106.39 154.09 102.92 153.49" id="dcaQrLgs6"></path><path d="M102.92 153.49C99.46 152.88 95.74 157.59 94.61 164C93.49 170.41 95.39 176.1 98.86 176.71C102.32 177.32 106.04 172.61 107.16 166.2C108.29 159.79 106.39 154.09 102.92 153.49" id="dqTALSSR"></path><path d="M102.45 161.27C101.13 161.03 99.47 170.32 101.46 170.75C109.43 172.48 117.64 173.77 125.56 174.32C125.69 174.31 126.36 174.21 127.56 174.04C127.67 173.97 128.24 173.64 129.25 173.05L130.44 171.5C130.75 170.32 130.93 169.67 130.96 169.54C130.79 168.34 130.7 167.68 130.68 167.55C129.69 165.87 129.67 165.85 128.13 164.67C127.94 164.62 126.38 164.2 126.18 164.15C118.28 163.67 110.36 162.68 102.45 161.27" id="b14ZyP4yBA"></path><path d="M102.45 161.27C101.13 161.03 99.47 170.32 101.46 170.75C109.43 172.48 117.64 173.77 125.56 174.32C125.69 174.31 126.36 174.21 127.56 174.04C127.67 173.97 128.24 173.64 129.25 173.05L130.44 171.5C130.75 170.32 130.93 169.67 130.96 169.54C130.79 168.34 130.7 167.68 130.68 167.55C129.69 165.87 129.67 165.85 128.13 164.67C127.94 164.62 126.38 164.2 126.18 164.15C118.28 163.67 110.36 162.68 102.45 161.27" id="j4WqJBBn3D"></path><path d="M113.76 159.32C111.75 159.32 110.11 160.96 110.11 162.97C110.11 164.99 111.75 166.62 113.76 166.62C115.77 166.62 117.41 164.99 117.41 162.97C117.41 160.96 115.77 159.32 113.76 159.32" id="b1iIRpm5UW"></path><path d="M113.76 159.32C111.75 159.32 110.11 160.96 110.11 162.97C110.11 164.99 111.75 166.62 113.76 166.62C115.77 166.62 117.41 164.99 117.41 162.97C117.41 160.96 115.77 159.32 113.76 159.32" id="d15xguA3lL"></path></defs><g><g><g><use xlink:href="#c1dwTMhJ8n" opacity="1" fill="#797979" fill-opacity="1"></use><g><use xlink:href="#c1dwTMhJ8n" opacity="1" fill-opacity="0" stroke="#000000" stroke-width="1" stroke-opacity="0"></use></g></g><g><use xlink:href="#a7egRqKW2e" opacity="1" fill="#000000" fill-opacity="0"></use><g><use xlink:href="#a7egRqKW2e" opacity="1" fill-opacity="0" stroke="#000000" stroke-width="1" stroke-opacity="0"></use></g></g><g><use xlink:href="#b2PIMiDZsf" opacity="1" fill="#797979" fill-opacity="1"></use><g><use xlink:href="#b2PIMiDZsf" opacity="1" fill-opacity="0" stroke="#000000" stroke-width="1" stroke-opacity="0"></use></g></g><g><use xlink:href="#a1p9vGZY4F" opacity="1" fill="#000000" fill-opacity="0"></use><g><use xlink:href="#a1p9vGZY4F" opacity="1" fill-opacity="0" stroke="#000000" stroke-width="1" stroke-opacity="0"></use></g></g><g><use xlink:href="#c37JmS4fMq" opacity="1" fill="#d7d5d3" fill-opacity="1"></use><g><use xlink:href="#c37JmS4fMq" opacity="1" fill-opacity="0" stroke="#000000" stroke-width="1" stroke-opacity="0"></use></g></g><g><use xlink:href="#h5sJvOQhso" opacity="1" fill="#000000" fill-opacity="0"></use><g><use xlink:href="#h5sJvOQhso" opacity="1" fill-opacity="0" stroke="#000000" stroke-width="1" stroke-opacity="0"></use></g></g><g><use xlink:href="#c9MKQ0Mvl" opacity="1" fill="#1f2633" fill-opacity="1"></use><g><use xlink:href="#c9MKQ0Mvl" opacity="1" fill-opacity="0" stroke="#000000" stroke-width="1" stroke-opacity="0"></use></g></g><g><use xlink:href="#a1snyP4xQq" opacity="1" fill="#000000" fill-opacity="0"></use><g><use xlink:href="#a1snyP4xQq" opacity="1" fill-opacity="0" stroke="#000000" stroke-width="1" stroke-opacity="0"></use></g></g><g><use xlink:href="#a7ZFU9OBBo" opacity="1" fill="#1f2633" fill-opacity="1"></use><g><use xlink:href="#a7ZFU9OBBo" opacity="1" fill-opacity="0" stroke="#000000" stroke-width="1" stroke-opacity="0"></use></g></g><g><use xlink:href="#f2v7rewHRu" opacity="1" fill="#000000" fill-opacity="0"></use><g><use xlink:href="#f2v7rewHRu" opacity="1" fill-opacity="0" stroke="#000000" stroke-width="1" stroke-opacity="0"></use></g></g><g><use xlink:href="#a163t2pLxW" opacity="1" fill="#1f2633" fill-opacity="1"></use><g><use xlink:href="#a163t2pLxW" opacity="1" fill-opacity="0" stroke="#000000" stroke-width="1" stroke-opacity="0"></use></g></g><g><use xlink:href="#c4tNI6y8km" opacity="1" fill="#000000" fill-opacity="0"></use><g><use xlink:href="#c4tNI6y8km" opacity="1" fill-opacity="0" stroke="#000000" stroke-width="1" stroke-opacity="0"></use></g></g><g><use xlink:href="#evLKjknd5" opacity="1" fill="#636363" fill-opacity="1"></use><g><use xlink:href="#evLKjknd5" opacity="1" fill-opacity="0" stroke="#000000" stroke-width="1" stroke-opacity="0"></use></g></g><g><use xlink:href="#c63ojZIJt" opacity="1" fill="#000000" fill-opacity="0"></use><g><use xlink:href="#c63ojZIJt" opacity="1" fill-opacity="0" stroke="#000000" stroke-width="1" stroke-opacity="0"></use></g></g><g><use xlink:href="#c1InBFO7ob" opacity="1" fill="#636363" fill-opacity="1"></use><g><use xlink:href="#c1InBFO7ob" opacity="1" fill-opacity="0" stroke="#000000" stroke-width="1" stroke-opacity="0"></use></g></g><g><use xlink:href="#cQhAUMrHu" opacity="1" fill="#000000" fill-opacity="0"></use><g><use xlink:href="#cQhAUMrHu" opacity="1" fill-opacity="0" stroke="#000000" stroke-width="1" stroke-opacity="0"></use></g></g><g><use xlink:href="#b2pdGHMQO8" opacity="1" fill="#ffffff" fill-opacity="1"></use><g><use xlink:href="#b2pdGHMQO8" opacity="1" fill-opacity="0" stroke="#000000" stroke-width="1" stroke-opacity="0"></use></g></g><g><use xlink:href="#c1Mt8sLOmC" opacity="1" fill="#000000" fill-opacity="0"></use><g><use xlink:href="#c1Mt8sLOmC" opacity="1" fill-opacity="0" stroke="#000000" stroke-width="1" stroke-opacity="0"></use></g></g><g><use xlink:href="#dL9oGrchB" opacity="1" fill="#ffffff" fill-opacity="1"></use><g><use xlink:href="#dL9oGrchB" opacity="1" fill-opacity="0" stroke="#000000" stroke-width="1" stroke-opacity="0"></use></g></g><g><use xlink:href="#d5M4pAB2BT" opacity="1" fill="#000000" fill-opacity="0"></use><g><use xlink:href="#d5M4pAB2BT" opacity="1" fill-opacity="0" stroke="#000000" stroke-width="1" stroke-opacity="0"></use></g></g><g><use xlink:href="#dUmUROyx4" opacity="1" fill="#323940" fill-opacity="1"></use><g><use xlink:href="#dUmUROyx4" opacity="1" fill-opacity="0" stroke="#000000" stroke-width="1" stroke-opacity="0"></use></g></g><g><use xlink:href="#iwqiMNoyO" opacity="1" fill="#000000" fill-opacity="0"></use><g><use xlink:href="#iwqiMNoyO" opacity="1" fill-opacity="0" stroke="#000000" stroke-width="1" stroke-opacity="0"></use></g></g><g><use xlink:href="#b4h4U28QN" opacity="1" fill="#dba425" fill-opacity="1"></use><g><use xlink:href="#b4h4U28QN" opacity="1" fill-opacity="0" stroke="#000000" stroke-width="1" stroke-opacity="0"></use></g></g><g><use xlink:href="#dYNkb8Rd7" opacity="1" fill="#000000" fill-opacity="0"></use><g><use xlink:href="#dYNkb8Rd7" opacity="1" fill-opacity="0" stroke="#000000" stroke-width="1" stroke-opacity="0"></use></g></g><g><use xlink:href="#b1mQCmGMBr" opacity="1" fill="#a9a9a9" fill-opacity="1"></use><g><use xlink:href="#b1mQCmGMBr" opacity="1" fill-opacity="0" stroke="#000000" stroke-width="1" stroke-opacity="0"></use></g></g><g><use xlink:href="#c14OYOffu8" opacity="1" fill="#000000" fill-opacity="0"></use><g><use xlink:href="#c14OYOffu8" opacity="1" fill-opacity="0" stroke="#000000" stroke-width="1" stroke-opacity="0"></use></g></g><g><use xlink:href="#a3tDgTIbE" opacity="1" fill="#797979" fill-opacity="1"></use><g><use xlink:href="#a3tDgTIbE" opacity="1" fill-opacity="0" stroke="#000000" stroke-width="1" stroke-opacity="0"></use></g></g><g><use xlink:href="#a2cxUxA0Of" opacity="1" fill="#000000" fill-opacity="0"></use><g><use xlink:href="#a2cxUxA0Of" opacity="1" fill-opacity="0" stroke="#000000" stroke-width="1" stroke-opacity="0"></use></g></g><g><use xlink:href="#b5sy49OyO5" opacity="1" fill="#a9a9a9" fill-opacity="1"></use><g><use xlink:href="#b5sy49OyO5" opacity="1" fill-opacity="0" stroke="#000000" stroke-width="1" stroke-opacity="0"></use></g></g><g><use xlink:href="#ch0OkqVZ7" opacity="1" fill="#000000" fill-opacity="0"></use><g><use xlink:href="#ch0OkqVZ7" opacity="1" fill-opacity="0" stroke="#000000" stroke-width="1" stroke-opacity="0"></use></g></g><g><use xlink:href="#aXN0LWKHV" opacity="1" fill="#a9a9a9" fill-opacity="1"></use><g><use xlink:href="#aXN0LWKHV" opacity="1" fill-opacity="0" stroke="#000000" stroke-width="1" stroke-opacity="0"></use></g></g><g><use xlink:href="#hp7EIlcAn" opacity="1" fill="#000000" fill-opacity="0"></use><g><use xlink:href="#hp7EIlcAn" opacity="1" fill-opacity="0" stroke="#000000" stroke-width="1" stroke-opacity="0"></use></g></g><g><use xlink:href="#a5nMNnNAI6" opacity="1" fill="#d7d5d3" fill-opacity="1"></use><g><use xlink:href="#a5nMNnNAI6" opacity="1" fill-opacity="0" stroke="#000000" stroke-width="1" stroke-opacity="0"></use></g></g><g><use xlink:href="#d1YaFs6l0M" opacity="1" fill="#000000" fill-opacity="0"></use><g><use xlink:href="#d1YaFs6l0M" opacity="1" fill-opacity="0" stroke="#000000" stroke-width="1" stroke-opacity="0"></use></g></g><g><use xlink:href="#b6eOdfLP1b" opacity="1" fill="#d7d5d3" fill-opacity="1"></use><g><use xlink:href="#b6eOdfLP1b" opacity="1" fill-opacity="0" stroke="#000000" stroke-width="1" stroke-opacity="0"></use></g></g><g><use xlink:href="#b2xUxUIfL" opacity="1" fill="#000000" fill-opacity="0"></use><g><use xlink:href="#b2xUxUIfL" opacity="1" fill-opacity="0" stroke="#000000" stroke-width="1" stroke-opacity="0"></use></g></g><g><use xlink:href="#a8KHWHGfZ" opacity="1" fill="#ca2121" fill-opacity="1"></use><g><use xlink:href="#a8KHWHGfZ" opacity="1" fill-opacity="0" stroke="#000000" stroke-width="1" stroke-opacity="0"></use></g></g><g><use xlink:href="#a1gn3aCEPn" opacity="1" fill="#000000" fill-opacity="0"></use><g><use xlink:href="#a1gn3aCEPn" opacity="1" fill-opacity="0" stroke="#000000" stroke-width="1" stroke-opacity="0"></use></g></g><g><use xlink:href="#b3aFUhPb5p" opacity="1" fill="#930505" fill-opacity="1"></use><g><use xlink:href="#b3aFUhPb5p" opacity="1" fill-opacity="0" stroke="#000000" stroke-width="1" stroke-opacity="0"></use></g></g><g><use xlink:href="#e2AolDuCjZ" opacity="1" fill="#000000" fill-opacity="0"></use><g><use xlink:href="#e2AolDuCjZ" opacity="1" fill-opacity="0" stroke="#000000" stroke-width="1" stroke-opacity="0"></use></g></g><g><use xlink:href="#a1vv9yuE14" opacity="1" fill="#323940" fill-opacity="1"></use><g><use xlink:href="#a1vv9yuE14" opacity="1" fill-opacity="0" stroke="#000000" stroke-width="1" stroke-opacity="0"></use></g></g><g><use xlink:href="#e7HJw7JCIR" opacity="1" fill="#000000" fill-opacity="0"></use><g><use xlink:href="#e7HJw7JCIR" opacity="1" fill-opacity="0" stroke="#000000" stroke-width="1" stroke-opacity="0"></use></g></g><g><use xlink:href="#dcaQrLgs6" opacity="1" fill="#ca2121" fill-opacity="1"></use><g><use xlink:href="#dcaQrLgs6" opacity="1" fill-opacity="0" stroke="#000000" stroke-width="1" stroke-opacity="0"></use></g></g><g><use xlink:href="#dqTALSSR" opacity="1" fill="#000000" fill-opacity="0"></use><g><use xlink:href="#dqTALSSR" opacity="1" fill-opacity="0" stroke="#000000" stroke-width="1" stroke-opacity="0"></use></g></g><g><use xlink:href="#b14ZyP4yBA" opacity="1" fill="#930505" fill-opacity="1"></use><g><use xlink:href="#b14ZyP4yBA" opacity="1" fill-opacity="0" stroke="#000000" stroke-width="1" stroke-opacity="0"></use></g></g><g><use xlink:href="#j4WqJBBn3D" opacity="1" fill="#000000" fill-opacity="0"></use><g><use xlink:href="#j4WqJBBn3D" opacity="1" fill-opacity="0" stroke="#000000" stroke-width="1" stroke-opacity="0"></use></g></g><g><use xlink:href="#b1iIRpm5UW" opacity="1" fill="#323940" fill-opacity="1"></use><g><use xlink:href="#b1iIRpm5UW" opacity="1" fill-opacity="0" stroke="#000000" stroke-width="1" stroke-opacity="0"></use></g></g><g><use xlink:href="#d15xguA3lL" opacity="1" fill="#000000" fill-opacity="0"></use><g><use xlink:href="#d15xguA3lL" opacity="1" fill-opacity="0" stroke="#000000" stroke-width="1" stroke-opacity="0"></use></g></g></g></g></svg>