<?xml version="1.0" encoding="UTF-8" standalone="no"?>
<!DOCTYPE svg PUBLIC "-//W3C//DTD SVG 1.1//EN" "http://www.w3.org/Graphics/SVG/1.1/DTD/svg11.dtd">
<svg version="1.1" xmlns="http://www.w3.org/2000/svg" xmlns:xlink="http://www.w3.org/1999/xlink" preserveAspectRatio="xMidYMid meet" viewBox="0 0 270 270" width="270" height="270"><defs><path d="M195.76 196.16L196.11 197.14C196.08 197.77 196.07 198.12 196.06 198.19C195.78 198.75 195.63 199.07 195.6 199.13C194.93 199.71 194.77 200.02 193.84 200.16C192.61 200.35 191.94 199.93 191.1 199.72C172.33 195.13 154.49 188.19 136.7 180.17C122.04 173.55 107.82 166.11 94.27 157.65C85.3 152.04 90.97 143.55 99.24 149.26C117.14 161.63 136.85 171.91 156.48 180.74C168.74 186.25 181.28 191.25 194.12 194.89C194.21 194.94 194.98 195.33 195.08 195.38C195.31 195.64 195.54 195.9 195.76 196.16" id="a3k9dYr1af"></path><path d="M195.76 196.16L196.11 197.14C196.08 197.77 196.07 198.12 196.06 198.19C195.78 198.75 195.63 199.07 195.6 199.13C194.93 199.71 194.77 200.02 193.84 200.16C192.61 200.35 191.94 199.93 191.1 199.72C172.33 195.13 154.49 188.19 136.7 180.17C122.04 173.55 107.82 166.11 94.27 157.65C85.3 152.04 90.97 143.55 99.24 149.26C117.14 161.63 136.85 171.91 156.48 180.74C168.74 186.25 181.28 191.25 194.12 194.89C194.21 194.94 194.98 195.33 195.08 195.38C195.31 195.64 195.54 195.9 195.76 196.16" id="b10e1Rj7cu"></path><path d="M100.83 140.45C103.83 142.61 103 148.87 99 154.4C94.99 159.94 89.31 162.68 86.32 160.51C83.32 158.35 84.15 152.1 88.15 146.56C92.16 141.02 97.84 138.28 100.83 140.45" id="ceVIwMKLE"></path><path d="M100.83 140.45C103.83 142.61 103 148.87 99 154.4C94.99 159.94 89.31 162.68 86.32 160.51C83.32 158.35 84.15 152.1 88.15 146.56C92.16 141.02 97.84 138.28 100.83 140.45" id="aYt1nj21G"></path><path d="M95.32 146.5C96.46 147.32 90.69 155.37 88.9 154.19C81.76 149.45 74.78 144.21 68.56 138.65C68.48 138.54 68.06 137.96 67.31 136.94C67.28 136.81 67.12 136.14 66.82 134.94L67.12 132.9C67.78 131.81 68.14 131.2 68.21 131.08C69.24 130.33 69.81 129.91 69.92 129.83C71.91 129.35 71.93 129.35 73.95 129.64C74.13 129.75 75.59 130.62 75.77 130.73C81.92 136.33 88.47 141.58 95.32 146.5" id="a2a4Ms07mI"></path><path d="M95.32 146.5C96.46 147.32 90.69 155.37 88.9 154.19C81.76 149.45 74.78 144.21 68.56 138.65C68.48 138.54 68.06 137.96 67.31 136.94C67.28 136.81 67.12 136.14 66.82 134.94L67.12 132.9C67.78 131.81 68.14 131.2 68.21 131.08C69.24 130.33 69.81 129.91 69.92 129.83C71.91 129.35 71.93 129.35 73.95 129.64C74.13 129.75 75.59 130.62 75.77 130.73C81.92 136.33 88.47 141.58 95.32 146.5" id="g3WbPloBAS"></path><path d="M192.73 79.06C198.55 83.99 203.01 88.74 211.11 90.41C213.23 90.84 226.59 90.34 227.25 90.99C227.42 91.16 227.02 91.69 226.93 91.83C225.24 94.24 224.48 106.02 214.99 106.02C207.79 106.02 187.54 79.78 190.21 75.02" id="b4t8YHtiH"></path><path d="M192.73 79.06C198.55 83.99 203.01 88.74 211.11 90.41C213.23 90.84 226.59 90.34 227.25 90.99C227.42 91.16 227.02 91.69 226.93 91.83C225.24 94.24 224.48 106.02 214.99 106.02C207.79 106.02 187.54 79.78 190.21 75.02" id="aHcSS1Uhp"></path><path d="M194.17 78.25C195.3 85.8 195.54 92.31 200.53 98.89C201.84 100.62 212.23 109.03 212.3 109.96C212.32 110.2 211.67 110.34 211.51 110.38C208.65 111.08 200.32 119.45 193.17 113.2C187.75 108.46 189.78 75.38 194.92 73.55" id="e1NMJZW4iz"></path><path d="M194.17 78.25C195.3 85.8 195.54 92.31 200.53 98.89C201.84 100.62 212.23 109.03 212.3 109.96C212.32 110.2 211.67 110.34 211.51 110.38C208.65 111.08 200.32 119.45 193.17 113.2C187.75 108.46 189.78 75.38 194.92 73.55" id="f27q3dE9zZ"></path><path d="M180.44 123.86C194.64 120.47 198.71 73.65 191.03 72.79C157.11 69.03 120.8 68.74 84.93 72.79C72.16 74.24 77.71 119.42 88.16 120.33C88.16 120.33 116.97 141.38 135.65 140.78C157.24 140.08 180.44 123.86 180.44 123.86" id="c1dAQzQxYx"></path><path d="M180.44 123.86C194.64 120.47 198.71 73.65 191.03 72.79C157.11 69.03 120.8 68.74 84.93 72.79C72.16 74.24 77.71 119.42 88.16 120.33C88.16 120.33 116.97 141.38 135.65 140.78C157.24 140.08 180.44 123.86 180.44 123.86" id="a1x2NCWW3X"></path><path d="M123.98 83.87C128.13 87.13 127.73 100.11 120.41 108.79C113.1 117.48 109.87 127.82 96.32 116.1C89.67 110.34 86.73 98.07 94.05 89.39C101.36 80.71 119.94 80.7 123.98 83.87" id="butJeIeyu"></path><path d="M123.98 83.87C128.13 87.13 127.73 100.11 120.41 108.79C113.1 117.48 109.87 127.82 96.32 116.1C89.67 110.34 86.73 98.07 94.05 89.39C101.36 80.71 119.94 80.7 123.98 83.87" id="aZErPn8E"></path><path d="M152.76 83.87C148.62 87.13 149.01 100.11 156.33 108.79C163.65 117.48 166.87 127.82 180.42 116.1C187.08 110.34 190.01 98.07 182.7 89.39C175.38 80.71 156.8 80.7 152.76 83.87" id="bKvfyRdep"></path><path d="M152.76 83.87C148.62 87.13 149.01 100.11 156.33 108.79C163.65 117.48 166.87 127.82 180.42 116.1C187.08 110.34 190.01 98.07 182.7 89.39C175.38 80.71 156.8 80.7 152.76 83.87" id="itM4ca5fA"></path><path d="M139.19 121.35C136.62 121.35 130.18 110.94 131.47 108.86C132.75 106.78 145.63 106.78 146.91 108.86C148.2 110.94 141.76 121.35 139.19 121.35" id="e1LoDGtiDl"></path><path d="M139.19 121.35C136.62 121.35 130.18 110.94 131.47 108.86C132.75 106.78 145.63 106.78 146.91 108.86C148.2 110.94 141.76 121.35 139.19 121.35" id="cXSjliCte"></path><path d="M109.02 92.5C112.44 92.5 115.21 95.27 115.21 98.7C115.21 102.12 112.44 104.89 109.02 104.89C105.59 104.89 102.82 102.12 102.82 98.7C102.82 95.27 105.59 92.5 109.02 92.5" id="g2UMDIkEo"></path><path d="M109.02 92.5C112.44 92.5 115.21 95.27 115.21 98.7C115.21 102.12 112.44 104.89 109.02 104.89C105.59 104.89 102.82 102.12 102.82 98.7C102.82 95.27 105.59 92.5 109.02 92.5" id="ck2wDdtqy"></path><path d="M167.73 92.5C164.31 92.5 161.53 95.27 161.53 98.7C161.53 102.12 164.31 104.89 167.73 104.89C171.15 104.89 173.93 102.12 173.93 98.7C173.93 95.27 171.15 92.5 167.73 92.5" id="d1u08oyrox"></path><path d="M167.73 92.5C164.31 92.5 161.53 95.27 161.53 98.7C161.53 102.12 164.31 104.89 167.73 104.89C171.15 104.89 173.93 102.12 173.93 98.7C173.93 95.27 171.15 92.5 167.73 92.5" id="bQ6DlN2Rk"></path><path d="M111.62 93.07C113.04 93.07 114.2 94.22 114.2 95.64C114.2 97.06 113.04 98.22 111.62 98.22C110.2 98.22 109.05 97.06 109.05 95.64C109.05 94.22 110.2 93.07 111.62 93.07" id="g2MNAG9tzg"></path><path d="M111.62 93.07C113.04 93.07 114.2 94.22 114.2 95.64C114.2 97.06 113.04 98.22 111.62 98.22C110.2 98.22 109.05 97.06 109.05 95.64C109.05 94.22 110.2 93.07 111.62 93.07" id="f72fEmnwI"></path><path d="M165.12 93.07C163.7 93.07 162.55 94.22 162.55 95.64C162.55 97.06 163.7 98.22 165.12 98.22C166.54 98.22 167.69 97.06 167.69 95.64C167.69 94.22 166.54 93.07 165.12 93.07" id="c3HPMDj5L"></path><path d="M165.12 93.07C163.7 93.07 162.55 94.22 162.55 95.64C162.55 97.06 163.7 98.22 165.12 98.22C166.54 98.22 167.69 97.06 167.69 95.64C167.69 94.22 166.54 93.07 165.12 93.07" id="aqU8pcL9S"></path><path d="M184.83 21.46L185.69 21.54L186.55 21.65L187.4 21.79L188.24 21.97L189.07 22.17L189.89 22.41L190.7 22.68L191.49 22.98L192.28 23.32L193.05 23.69L193.81 24.09L194.55 24.52L195.27 24.98L195.98 25.48L196.66 26.01L197.33 26.57L197.98 27.17L198.61 27.79L199.23 28.47L199.81 29.18L200.36 29.9L200.88 30.64L201.36 31.4L201.8 32.18L202.2 32.97L202.57 33.78L202.91 34.61L203.21 35.44L203.47 36.29L203.7 37.15L203.89 38.02L204.05 38.9L204.17 39.78L204.25 40.68L204.31 41.57L204.32 42.48L204.31 43.38L204.25 44.29L204.16 45.2L204.04 46.1L203.89 47.01L203.69 47.92L203.47 48.82L203.21 49.72L202.91 50.61L202.59 51.5L202.22 52.38L201.83 53.25L201.4 54.11L200.93 54.96L200.44 55.79L199.91 56.62L199.34 57.43L198.74 58.22L198.11 59L197.45 59.77L196.75 60.51L196.02 61.24L195.99 61.26L195.85 61.4L195.82 61.42L195.76 61.48L195.74 61.5L195.68 61.56L195.65 61.58L195.54 61.69L195.51 61.71L195.48 61.74L195.45 61.77L195.42 61.79L195.36 61.85L195.31 61.9L195.28 61.92L195.25 61.95L195.22 61.97L195.16 62.03L195.13 62.05L195.1 62.08L195.07 62.1L195.05 62.13L195.02 62.15L194.99 62.18L194.96 62.2L194.93 62.23L194.9 62.25L194.87 62.28L195.14 63.36L195.23 63.73L195.32 64.09L195.4 64.46L195.48 64.83L195.56 65.2L195.63 65.57L195.71 65.94L195.78 66.32L195.85 66.69L195.92 67.07L195.98 67.45L196.05 67.83L196.11 68.22L196.16 68.6L196.22 68.99L196.28 69.37L196.33 69.76L196.38 70.15L196.42 70.54L196.47 70.94L196.51 71.33L196.59 72.13L196.63 72.53L196.66 72.93L196.72 73.73L196.75 74.14L196.77 74.54L196.79 74.95L196.83 75.77L196.84 76.19L196.85 76.6L196.87 77.44L196.88 77.86L196.88 95.62L197.13 97.97L197.31 100.25L197.41 102.46L197.44 104.61L197.39 106.7L197.27 108.73L197.08 110.69L196.82 112.59L196.49 114.44L196.1 116.22L195.64 117.95L195.11 119.62L194.53 121.23L193.88 122.78L193.18 124.28L192.42 125.73L191.6 127.13L190.73 128.47L189.81 129.76L188.83 131L187.81 132.19L186.74 133.33L185.62 134.42L184.45 135.46L183.24 136.46L181.99 137.41L180.7 138.32L179.37 139.18L178 140.01L176.6 140.78L175.16 141.52L173.68 142.22L172.18 142.87L170.65 143.49L169.08 144.07L167.49 144.61L165.88 145.11L164.24 145.58L162.58 146.02L160.9 146.42L161.06 146.52L161.4 146.72L161.57 146.82L161.73 146.92L162.24 147.22L162.4 147.33L162.57 147.43L162.74 147.53L162.9 147.64L163.07 147.74L163.23 147.85L163.4 147.95L163.56 148.06L163.73 148.16L163.89 148.27L164.06 148.37L164.22 148.48L164.38 148.59L164.55 148.69L164.71 148.8L164.87 148.91L165.04 149.02L165.2 149.13L165.36 149.24L165.52 149.34L165.69 149.45L165.85 149.56L166.49 150L166.65 150.12L166.81 150.23L166.97 150.34L167.13 150.45L167.29 150.56L167.45 150.67L167.56 150.76L168.41 151.39L169.26 152.03L170.09 152.68L170.91 153.34L171.73 154.01L172.53 154.7L173.33 155.4L174.11 156.11L174.89 156.83L175.65 157.56L176.4 158.3L177.14 159.05L177.87 159.82L178.59 160.59L179.3 161.38L179.99 162.17L180.67 162.98L181.34 163.8L181.99 164.62L182.64 165.46L183.26 166.31L183.88 167.17L184.47 168.03L185.06 168.91L185.63 169.8L186.18 170.7L186.72 171.6L187.24 172.52L187.75 173.45L188.24 174.38L188.71 175.33L189.17 176.28L189.61 177.25L190.03 178.22L190.44 179.2L190.82 180.19L191.19 181.19L191.54 182.2L191.87 183.22L192.18 184.24L192.18 184.25L192.2 184.44L192.22 184.62L192.24 184.8L192.26 184.97L192.3 185.29L192.32 185.45L192.36 185.75L192.38 185.89L192.4 186.03L192.41 186.17L192.43 186.3L192.44 186.43L192.46 186.69L192.47 186.82L192.47 186.94L192.48 187.07L192.48 187.31L192.47 187.44L192.45 187.68L192.44 187.81L192.42 187.94L192.4 188.06L192.37 188.19L192.35 188.33L192.31 188.46L192.28 188.6L192.23 188.74L192.19 188.89L192.14 189.04L192.08 189.19L192.02 189.35L191.95 189.51L191.88 189.68L191.8 189.85L191.72 190.03L191.69 190.09L191.66 190.16L191.62 190.22L191.59 190.28L191.55 190.34L191.52 190.4L191.44 190.52L191.41 190.58L191.37 190.64L191.25 190.82L191.2 190.87L191.16 190.93L191.12 190.99L191.08 191.04L191.03 191.1L190.99 191.16L190.94 191.21L190.9 191.27L190.86 191.32L190.81 191.38L190.77 191.43L190.72 191.49L190.68 191.55L190.63 191.6L190.58 191.66L190.54 191.71L190.49 191.77L190.45 191.82L190.4 191.88L190.36 191.93L190.32 191.99L190.27 192.05L190.23 192.1L190.18 192.16L190.14 192.22L190.1 192.27L190.06 192.33L187.64 193.82L184.85 194.18L184.78 194.17L184.71 194.15L184.64 194.13L184.57 194.11L184.51 194.1L184.44 194.08L184.37 194.07L184.3 194.05L184.23 194.04L184.16 194.02L184.09 194.01L184.02 193.99L183.95 193.98L183.88 193.96L183.81 193.95L183.74 193.94L183.67 193.92L183.6 193.91L183.53 193.89L183.46 193.88L183.32 193.84L183.25 193.83L183.18 193.81L183.12 193.79L183.05 193.78L182.98 193.76L182.91 193.74L182.77 193.7L182.71 193.68L182.64 193.66L182.57 193.63L182.51 193.61L182.44 193.59L182.38 193.56L182.31 193.53L182.24 193.51L181.94 193.36L181.77 193.28L181.61 193.19L181.45 193.11L181.31 193.03L181.16 192.94L180.9 192.78L180.78 192.69L180.66 192.61L180.55 192.53L180.45 192.44L180.34 192.36L180.25 192.27L180.15 192.18L180.06 192.1L179.97 192.01L179.89 191.92L179.81 191.82L179.73 191.73L179.65 191.63L179.57 191.53L179.5 191.43L179.42 191.33L179.35 191.23L179.27 191.12L179.2 191.01L179.12 190.9L179.05 190.78L178.97 190.66L178.89 190.54L178.82 190.42L178.73 190.29L178.65 190.15L178.56 190.02L178.47 189.88L178.38 189.73L178.28 189.58L178.18 189.43L178.07 189.27L177.99 189.08L177.91 188.89L177.83 188.71L177.74 188.52L177.66 188.33L177.57 188.15L177.48 187.96L177.39 187.78L177.3 187.59L177.21 187.41L177.12 187.23L177.03 187.04L176.93 186.86L176.84 186.68L176.75 186.5L176.65 186.32L176.45 185.96L176.36 185.78L176.26 185.6L176.16 185.42L176.05 185.24L175.95 185.07L175.75 184.71L175.64 184.54L175.53 184.36L175.43 184.19L175.32 184.02L175.21 183.84L175.1 183.67L174.99 183.5L174.88 183.33L174.77 183.15L174.66 182.98L174.55 182.81L174.43 182.64L174.32 182.47L174.2 182.31L174.09 182.14L174.16 182.86L174.24 183.59L174.31 184.32L174.37 185.04L174.44 185.77L174.49 186.5L174.55 187.23L174.6 187.95L174.65 188.68L174.7 189.41L174.74 190.14L174.78 190.87L174.82 191.6L174.85 192.33L174.91 193.79L174.93 194.52L174.96 195.25L174.98 195.98L174.99 196.71L175.01 197.44L175.02 198.17L175.03 198.9L175.04 199.63L175.04 200.36L175.05 201.09L175.05 202.55L175.04 203.28L175.04 204.01L175.03 204.74L175.02 205.47L175 206.93L174.99 207.66L174.97 208.38L174.96 209.11L174.94 209.84L174.92 210.56L174.9 211.29L174.87 212.2L174.81 214.02L174.78 214.92L174.74 215.83L174.7 216.73L174.66 217.64L174.62 218.54L174.57 219.44L174.52 220.34L174.47 221.24L174.42 222.14L174.36 223.03L174.3 223.93L174.24 224.82L174.17 225.72L174.1 226.61L174.03 227.5L173.87 229.28L173.69 231.06L173.6 231.94L173.51 232.83L173.41 233.71L173.3 234.59L173.19 235.48L173.08 236.36L172.72 239L172.59 239.87L172.31 241.63L172.16 242.5L172.01 243.37L171.86 244.25L171.7 245.12L171.53 245.99L171.36 246.86L171.33 247.04L171.25 247.4L171.22 247.58L171.18 247.76L171.14 247.94L171.1 248.12L171.06 248.3L171.02 248.48L170.94 248.84L170.9 249.02L170.78 249.56L170.73 249.74L170.69 249.92L170.64 250.1L170.59 250.28L170.55 250.45L170.5 250.63L170.45 250.81L170.4 250.98L170.35 251.16L170.29 251.33L170.24 251.51L170.19 251.68L170.13 251.85L170.07 252.03L169.95 252.37L169.89 252.54L169.83 252.71L169.77 252.88L169.7 253.05L169.63 253.21L169.57 253.38L169.5 253.55L169.43 253.71L169.35 253.87L169.34 254.04L169.33 254.2L169.32 254.36L169.3 254.51L169.29 254.67L169.28 254.81L169.27 254.96L169.25 255.24L169.24 255.37L169.23 255.51L169.22 255.63L169.21 255.76L169.2 255.88L169.2 256L169.19 256.11L169.18 256.22L169.18 256.32L169.17 256.43L169.16 256.52L169.16 256.62L169.15 256.71L169.15 256.87L169.14 256.95L169.14 257.15L169.13 257.21L169.13 257.4L169.14 257.43L169.14 257.51L169.15 257.52L169.15 257.53L169.16 257.54L169.27 257.6L169.39 257.67L169.51 257.74L169.62 257.82L169.74 257.91L169.85 258L169.97 258.09L170.08 258.19L170.2 258.29L170.31 258.4L170.41 258.51L170.52 258.62L170.62 258.74L170.73 258.86L170.82 258.98L170.92 259.1L171.01 259.22L171.1 259.35L171.18 259.48L171.26 259.6L171.4 259.86L171.46 259.99L171.52 260.11L171.57 260.24L171.62 260.36L171.66 260.49L171.69 260.61L171.71 260.73L171.73 260.85L171.74 260.96L171.75 261.07L171.74 261.18L171.73 261.29L171.71 261.39L171.68 261.48L171.64 261.58L171.59 261.66L171.53 261.74L171.46 261.82L171.24 262L170.96 262.16L170.62 262.31L170.23 262.44L169.79 262.57L169.29 262.67L168.76 262.77L168.18 262.85L167.56 262.92L166.91 262.98L166.23 263.03L165.52 263.07L164.79 263.1L164.03 263.12L163.26 263.13L162.48 263.14L161.68 263.13L160.88 263.12L160.07 263.1L159.26 263.07L158.46 263.04L157.66 263L156.87 262.95L156.1 262.9L155.34 262.85L154.6 262.79L153.89 262.73L153.2 262.67L152.54 262.6L151.92 262.53L151.33 262.46L150.79 262.39L150.29 262.31L149.83 262.24L149.43 262.17L149.08 262.1L148.79 262.02L148.56 261.95L148.39 261.89L148.3 261.82L148.29 261.77L148.27 261.64L148.24 261.43L148.2 261.14L148.16 260.78L148.11 260.34L148.05 259.84L147.99 259.28L147.92 258.65L147.84 257.97L147.76 257.23L147.68 256.45L147.59 255.61L147.5 254.73L147.41 253.81L147.31 252.86L147.22 251.86L147.12 250.84L147.02 249.79L146.92 248.72L146.83 247.62L146.73 246.51L146.63 245.38L146.54 244.25L146.45 243.1L146.37 241.95L146.28 240.8L146.2 239.65L146.13 238.5L146.06 237.37L146 236.25L145.94 235.14L145.89 234.05L145.85 232.99L145.82 231.95L145.79 230.93L145.78 229.95L145.77 229.01L145.77 228.1L145.79 227.24L145.63 227.26L145.47 227.27L145.31 227.29L144.99 227.33L144.84 227.34L144.68 227.36L144.52 227.37L144.37 227.39L144.21 227.4L144.06 227.42L143.9 227.43L143.75 227.44L143.6 227.46L143.44 227.47L143.29 227.48L143.14 227.49L142.99 227.5L142.84 227.51L142.69 227.52L142.39 227.54L142.24 227.54L142.09 227.55L141.94 227.56L141.8 227.56L141.65 227.57L141.5 227.58L141.36 227.58L141.22 227.59L140.93 227.59L140.79 227.6L140.37 227.6L140.23 227.61L139.46 227.61L139.29 227.6L139.11 227.6L138.93 227.59L138.74 227.59L138.56 227.58L138.38 227.57L138.19 227.57L138 227.56L137.82 227.54L137.44 227.52L137.24 227.5L137.05 227.49L136.86 227.47L136.66 227.45L136.46 227.44L136.26 227.42L136.07 227.4L135.87 227.37L135.66 227.35L135.46 227.33L135.26 227.3L135.05 227.28L134.85 227.25L134.64 227.22L134.44 227.19L134.23 227.16L133.81 227.1L133.6 227.06L133.39 227.03L133.18 226.99L132.96 226.96L132.54 226.88L132.1 226.8L131.89 226.76L131.91 227.61L131.92 228.5L131.92 229.44L131.91 230.42L131.88 231.43L131.85 232.47L131.82 233.54L131.77 234.63L131.72 235.75L131.66 236.88L131.52 239.18L131.44 240.35L131.36 241.51L131.27 242.68L131.18 243.85L131.09 245L130.99 246.15L130.89 247.29L130.79 248.4L130.7 249.5L130.6 250.57L130.5 251.61L130.4 252.63L130.3 253.61L130.21 254.55L130.11 255.45L130.02 256.31L129.94 257.11L129.86 257.87L129.78 258.57L129.71 259.21L129.64 259.79L129.58 260.3L129.53 260.75L129.49 261.12L129.45 261.42L129.42 261.64L129.4 261.77L129.39 261.82L129.3 261.89L129.13 261.95L128.9 262.02L128.61 262.1L128.26 262.17L127.86 262.24L127.4 262.31L126.9 262.39L126.36 262.46L125.77 262.53L125.15 262.6L124.49 262.67L123.8 262.73L123.09 262.79L122.35 262.85L121.59 262.9L120.82 262.95L120.03 263L119.23 263.04L118.43 263.07L117.62 263.1L116.81 263.12L116.01 263.13L115.22 263.14L114.43 263.13L113.66 263.12L112.9 263.1L112.17 263.07L111.46 263.03L110.78 262.98L110.13 262.92L109.51 262.85L108.93 262.77L108.4 262.67L107.9 262.57L107.46 262.44L107.07 262.31L106.73 262.16L106.45 262L106.23 261.82L106.16 261.74L106.1 261.66L106.05 261.58L106.01 261.48L105.98 261.39L105.96 261.29L105.95 261.18L105.94 261.07L105.95 260.96L105.96 260.85L106 260.61L106.03 260.49L106.07 260.36L106.12 260.24L106.17 260.11L106.23 259.99L106.29 259.86L106.36 259.73L106.43 259.6L106.51 259.48L106.59 259.35L106.68 259.22L106.77 259.1L107.17 258.62L107.28 258.51L107.38 258.4L107.5 258.29L107.61 258.19L107.72 258.09L107.84 258L107.95 257.91L108.07 257.82L108.19 257.74L108.3 257.67L108.42 257.6L108.54 257.54L108.54 257.52L108.55 257.51L108.55 257.43L108.56 257.39L108.56 257.25L108.55 257.2L108.55 256.93L108.54 256.85L108.54 256.76L108.53 256.68L108.53 256.58L108.52 256.49L108.52 256.39L108.5 256.17L108.5 256.06L108.49 255.94L108.47 255.7L108.45 255.44L108.44 255.3L108.43 255.16L108.42 255.02L108.41 254.87L108.4 254.72L108.39 254.57L108.37 254.25L108.35 254.09L108.34 253.92L108.33 253.75L108.31 253.71L108.28 253.66L108.26 253.62L108.24 253.57L108.22 253.53L108.2 253.48L108.18 253.43L108.16 253.39L108.14 253.34L108.12 253.29L108.1 253.25L108.06 253.15L108.04 253.11L108.02 253.06L108 253.01L107.98 252.96L107.96 252.92L107.94 252.87L107.92 252.82L107.9 252.77L107.88 252.73L107.86 252.68L107.84 252.63L107.8 252.53L107.79 252.48L107.77 252.44L107.73 252.34L107.71 252.29L107.7 252.24L107.68 252.19L107.66 252.14L107.65 252.09L107.63 252.05L107.61 252L107.6 251.95L107.58 251.9L107.56 251.85L107.47 251.55L107.37 251.24L107.28 250.93L107.19 250.63L107.11 250.32L107.02 250.01L106.94 249.7L106.86 249.4L106.79 249.09L106.71 248.78L106.64 248.46L106.43 247.53L106.36 247.22L106.3 246.9L106.24 246.59L106.17 246.27L106.12 245.96L106.06 245.64L106 245.33L105.94 245.01L105.89 244.7L105.84 244.38L105.78 244.06L105.73 243.75L105.63 243.11L105.59 242.8L105.54 242.48L105.44 241.84L105.4 241.52L105.35 241.21L105.31 240.89L105.26 240.57L105.22 240.25L105.17 239.93L105.13 239.61L105.09 239.3L104.99 238.61L104.9 237.93L104.81 237.24L104.73 236.56L104.64 235.87L104.56 235.19L104.48 234.5L104.4 233.82L104.32 233.13L104.25 232.45L104.18 231.76L104.1 231.07L104.04 230.39L103.97 229.7L103.9 229.01L103.84 228.33L103.78 227.64L103.72 226.95L103.66 226.27L103.6 225.58L103.55 224.89L103.49 224.2L103.44 223.52L103.34 222.14L103.3 221.45L103.25 220.76L103.21 220.08L103.17 219.39L103.12 218.7L103.09 218.01L103.01 216.63L102.95 215.25L102.91 214.56L102.89 213.87L102.86 213.19L102.8 211.81L102.78 211.05L102.75 210.29L102.73 209.53L102.71 208.78L102.69 208.02L102.68 207.26L102.67 206.5L102.65 205.74L102.65 204.98L102.64 204.22L102.64 203.45L102.63 202.69L102.64 201.93L102.64 201.17L102.65 200.4L102.65 199.64L102.67 198.88L102.68 198.12L102.7 197.35L102.71 196.59L102.74 195.82L102.76 195.06L102.79 194.3L102.82 193.53L102.85 192.77L102.89 192.01L102.93 191.24L102.97 190.48L103.01 189.71L103.06 188.95L103.11 188.19L103.17 187.42L103.23 186.66L103.35 185.14L103.42 184.37L103.49 183.61L103.56 182.85L103.72 181.33L103.59 181.5L103.47 181.68L103.35 181.85L103.23 182.03L103.11 182.21L102.99 182.38L102.87 182.56L102.63 182.92L102.52 183.1L102.4 183.28L102.29 183.46L102.17 183.64L102.06 183.83L101.84 184.19L101.73 184.38L101.62 184.56L101.51 184.75L101.41 184.93L101.3 185.12L101.2 185.31L101.09 185.5L100.99 185.68L100.59 186.44L100.49 186.64L100.39 186.83L100.3 187.02L100.2 187.22L100.02 187.6L99.92 187.8L99.83 187.99L99.74 188.19L99.66 188.39L99.57 188.59L99.48 188.78L99.48 188.79L99.37 188.95L99.27 189.1L99.18 189.25L99.08 189.39L98.9 189.67L98.66 190.06L98.5 190.3L98.43 190.41L98.36 190.53L98.28 190.64L98.21 190.75L98.13 190.85L98.06 190.95L97.98 191.05L97.91 191.15L97.83 191.25L97.75 191.34L97.67 191.43L97.31 191.79L97.21 191.87L97.11 191.96L97 192.04L96.89 192.13L96.77 192.21L96.65 192.29L96.52 192.38L96.39 192.46L96.25 192.54L96.1 192.63L95.95 192.71L95.79 192.79L95.62 192.88L95.44 192.97L95.37 193L95.31 193.02L95.24 193.05L95.18 193.08L95.11 193.1L95.05 193.13L94.98 193.15L94.91 193.17L94.85 193.2L94.78 193.22L94.71 193.24L94.64 193.26L94.58 193.28L94.51 193.29L94.44 193.31L94.3 193.35L94.23 193.36L94.16 193.38L94.09 193.39L94.02 193.41L93.95 193.42L93.88 193.44L93.82 193.45L93.75 193.47L93.68 193.48L93.61 193.5L93.54 193.51L93.47 193.53L93.4 193.54L93.33 193.55L93.26 193.57L93.19 193.58L93.12 193.6L93.05 193.62L92.98 193.63L92.91 193.65L92.84 193.67L92.77 193.68L92.7 193.7L89.91 193.33L87.5 191.85L87.45 191.79L87.37 191.67L87.33 191.62L87.28 191.56L87.24 191.51L87.19 191.45L87.15 191.39L87.1 191.34L87.06 191.28L87.01 191.23L86.97 191.17L86.92 191.12L86.88 191.06L86.83 191.01L86.79 190.95L86.74 190.9L86.7 190.84L86.65 190.78L86.61 190.73L86.57 190.67L86.52 190.62L86.48 190.56L86.43 190.5L86.39 190.45L86.27 190.27L86.23 190.22L86.07 189.98L86.04 189.92L86 189.86L85.97 189.8L85.93 189.73L85.75 189.37L85.67 189.19L85.6 189.03L85.54 188.86L85.47 188.71L85.42 188.55L85.37 188.4L85.32 188.26L85.28 188.12L85.24 187.98L85.21 187.84L85.15 187.58L85.13 187.45L85.12 187.33L85.1 187.2L85.09 187.08L85.08 186.95L85.08 186.46L85.09 186.33L85.09 186.21L85.1 186.08L85.11 185.95L85.13 185.82L85.14 185.68L85.16 185.55L85.17 185.41L85.19 185.26L85.21 185.12L85.23 184.97L85.27 184.65L85.29 184.48L85.33 184.14L85.35 183.95L85.37 183.77L85.68 182.74L86.02 181.72L86.37 180.7L86.74 179.7L87.14 178.7L87.55 177.72L87.98 176.74L88.42 175.77L88.89 174.81L89.37 173.86L89.87 172.92L90.39 171.99L90.92 171.06L91.46 170.15L92.03 169.25L92.6 168.36L93.2 167.48L93.8 166.6L94.42 165.74L95.05 164.89L95.7 164.05L96.36 163.22L97.03 162.41L97.71 161.6L98.4 160.81L99.11 160.02L99.82 159.25L100.55 158.49L101.28 157.74L102.02 157.01L102.78 156.28L103.54 155.57L105.08 154.19L105.87 153.52L106.66 152.86L107.45 152.21L108.26 151.58L109.07 150.96L109.88 150.35L109.99 150.27L110.11 150.19L110.24 150.1L110.36 150.01L110.48 149.93L110.6 149.84L110.73 149.76L110.97 149.58L111.1 149.5L111.22 149.42L111.34 149.33L111.47 149.25L111.59 149.16L111.72 149.08L111.84 148.99L111.97 148.91L112.09 148.83L112.22 148.75L112.34 148.66L112.47 148.58L112.59 148.5L112.72 148.42L112.84 148.33L112.97 148.25L113.09 148.17L113.22 148.09L113.35 148.01L113.47 147.93L113.6 147.85L113.72 147.77L113.85 147.69L114.11 147.53L114.23 147.45L114.36 147.37L114.49 147.29L114.61 147.21L114.74 147.14L114.87 147.06L115 146.98L113.22 146.62L111.46 146.22L109.72 145.78L108.01 145.31L106.32 144.8L104.66 144.25L103.03 143.66L101.43 143.03L99.86 142.36L98.32 141.64L96.82 140.88L95.36 140.08L93.93 139.23L92.55 138.34L91.21 137.39L89.91 136.4L88.66 135.36L87.45 134.27L86.29 133.12L85.19 131.93L84.14 130.68L83.14 129.38L82.2 128.02L81.31 126.61L80.48 125.14L79.72 123.61L79.02 122.02L78.38 120.38L77.81 118.67L77.3 116.9L76.87 115.07L76.5 113.18L76.21 111.22L75.99 109.19L75.85 107.1L75.79 104.94L75.81 102.72L75.9 100.42L76.08 98.06L76.35 95.62L76.35 77.86L76.39 77.51L76.43 77.17L76.47 76.82L76.55 76.14L76.59 75.8L76.64 75.46L76.69 75.13L76.73 74.79L76.78 74.45L76.83 74.12L76.89 73.79L76.94 73.46L76.99 73.13L77.11 72.47L77.17 72.14L77.23 71.81L77.29 71.49L77.35 71.16L77.41 70.84L77.55 70.2L77.61 69.88L77.82 68.92L77.9 68.61L77.97 68.29L78.05 67.98L78.12 67.67L78.36 66.74L78.44 66.43L78.52 66.12L78.61 65.82L78.69 65.51L78.78 65.21L78.87 64.9L78.74 64.83L78.62 64.75L78.49 64.67L78.37 64.59L78.24 64.51L78.12 64.43L77.99 64.35L77.87 64.27L77.75 64.18L77.62 64.1L77.5 64.02L77.38 63.93L77.26 63.85L77.14 63.76L77.01 63.67L76.89 63.58L76.77 63.49L76.65 63.4L76.53 63.31L76.17 63.04L76.06 62.94L75.94 62.85L75.82 62.75L75.7 62.66L75.58 62.56L75.47 62.46L75.35 62.37L75.24 62.27L75.12 62.17L75.01 62.07L74.89 61.97L74.78 61.86L74.66 61.76L74.55 61.66L74.44 61.55L74.32 61.45L74.21 61.34L74.1 61.24L73.37 60.51L72.67 59.77L72 59L71.37 58.22L70.78 57.43L70.21 56.62L69.68 55.79L69.18 54.96L68.72 54.11L68.29 53.25L67.89 52.38L67.53 51.5L67.2 50.61L66.91 49.72L66.65 48.82L66.42 47.92L66.23 47.01L66.07 46.1L65.95 45.2L65.86 44.29L65.81 43.38L65.79 42.48L65.81 41.57L65.86 40.68L65.95 39.78L66.07 38.9L66.23 38.02L66.42 37.15L66.65 36.29L66.91 35.44L67.21 34.61L67.54 33.78L67.91 32.97L68.32 32.18L68.76 31.4L69.24 30.64L69.75 29.9L70.3 29.18L70.89 28.47L71.51 27.79L72.16 27.14L72.84 26.52L73.54 25.94L74.25 25.4L74.99 24.88L75.75 24.41L76.53 23.97L77.32 23.56L78.13 23.19L78.95 22.86L79.79 22.55L80.63 22.29L81.49 22.06L82.36 21.86L83.24 21.7L84.13 21.57L85.02 21.48L85.92 21.43L86.83 21.4L87.74 21.42L88.65 21.46L89.56 21.54L90.48 21.66L91.39 21.81L92.3 22L93.21 22.21L94.11 22.47L95.01 22.76L95.91 23.08L96.8 23.44L97.67 23.83L98.54 24.25L99.4 24.71L100.25 25.21L101.09 25.73L101.91 26.3L102.72 26.89L103.51 27.52L104.28 28.19L105.04 28.88L105.06 28.91L105.09 28.93L105.11 28.96L105.14 28.98L105.19 29.03L105.22 29.05L105.24 29.08L105.27 29.1L105.29 29.13L105.32 29.15L105.34 29.18L105.37 29.2L105.39 29.23L105.42 29.25L105.44 29.28L105.47 29.3L105.49 29.33L105.52 29.35L105.54 29.38L105.57 29.4L105.59 29.43L105.61 29.45L105.64 29.48L105.71 29.55L105.74 29.58L105.79 29.63L105.81 29.65L105.83 29.68L105.86 29.7L105.88 29.73L105.91 29.75L105.93 29.78L105.96 29.8L105.98 29.83L106.03 29.88L107.42 29.11L108.82 28.37L110.24 27.67L111.68 27.01L113.14 26.39L114.6 25.81L116.09 25.26L117.58 24.75L119.08 24.28L120.6 23.84L122.13 23.44L123.66 23.08L125.2 22.75L126.75 22.47L128.3 22.22L129.86 22L131.42 21.83L132.99 21.69L134.56 21.58L136.13 21.52L137.69 21.49L139.26 21.49L140.83 21.54L142.39 21.61L143.95 21.73L145.51 21.88L147.06 22.07L148.6 22.3L150.14 22.56L151.67 22.85L153.18 23.19L154.69 23.56L156.19 23.96L157.68 24.4L159.15 24.88L160.61 25.39L162.05 25.94L163.48 26.52L164.89 27.14L166.28 27.8L167.04 27.18L167.8 26.59L168.59 26.03L169.38 25.51L170.19 25.01L171.01 24.55L171.84 24.12L172.67 23.72L173.52 23.35L174.37 23.02L175.23 22.71L176.1 22.44L176.97 22.2L177.84 21.99L178.72 21.81L179.59 21.67L180.47 21.55L181.35 21.47L182.22 21.42L183.1 21.4L183.97 21.42L184.83 21.46ZM134.1 81.38L132.84 81.4L131.59 81.42L130.33 81.44L129.07 81.47L127.81 81.5L126.54 81.53L124.02 81.61L122.75 81.65L121.49 81.7L120.22 81.75L118.95 81.81L117.69 81.86L116.42 81.92L115.15 81.99L112.61 82.13L111.34 82.21L110.06 82.28L108.79 82.37L107.51 82.45L106.24 82.54L104.96 82.63L103.68 82.73L102.41 82.83L101.13 82.93L97.29 83.26L96 83.38L93.44 83.62L90.86 83.88L89.58 84.01L87 84.29L85.71 84.44L85.21 84.53L84.76 84.73L84.35 85.02L83.99 85.41L83.68 85.88L83.42 86.43L83.19 87.06L83.01 87.75L82.87 88.51L82.78 89.33L82.72 90.21L82.7 91.13L82.71 92.1L82.77 93.11L82.86 94.15L82.98 95.22L83.13 96.31L83.32 97.42L83.54 98.54L83.78 99.67L84.06 100.81L84.36 101.94L84.69 103.06L85.04 104.17L85.42 105.26L85.82 106.33L86.25 107.37L86.69 108.37L87.15 109.34L87.64 110.26L88.14 111.14L88.65 111.95L89.18 112.71L89.73 113.41L90.29 114.03L90.86 114.58L91.44 115.04L92.03 115.42L92.63 115.71L93.24 115.91L181.79 115.5L182.49 115.56L183.17 115.5L183.83 115.32L184.47 115.04L185.09 114.66L185.69 114.18L186.27 113.61L186.83 112.96L187.36 112.23L187.87 111.42L188.36 110.56L188.81 109.63L189.24 108.65L189.65 107.62L190.02 106.55L190.36 105.45L190.68 104.32L190.96 103.17L191.21 102L191.43 100.82L191.61 99.63L191.76 98.45L191.87 97.27L191.95 96.11L191.99 94.97L191.99 93.86L191.95 92.78L191.88 91.73L191.76 90.73L191.6 89.79L191.39 88.89L191.15 88.07L190.86 87.31L190.52 86.62L190.14 86.02L189.71 85.5L189.24 85.08L188.71 84.76L188.14 84.54L187.51 84.44L186.22 84.29L184.94 84.15L183.65 84.01L182.36 83.88L181.08 83.75L179.79 83.62L178.51 83.5L177.22 83.38L175.94 83.26L172.1 82.93L169.54 82.73L168.27 82.63L165.71 82.45L164.44 82.37L163.16 82.28L161.89 82.21L160.62 82.13L158.08 81.99L156.81 81.92L155.54 81.86L154.27 81.81L153.01 81.75L150.47 81.65L147.95 81.57L146.68 81.53L144.16 81.47L142.9 81.44L140.38 81.4L139.13 81.38L137.87 81.37L136.61 81.36L135.36 81.37L134.1 81.38Z" id="cU3EsTJMb"></path><path d="M184.83 21.46L185.69 21.54L186.55 21.65L187.4 21.79L188.24 21.97L189.07 22.17L189.89 22.41L190.7 22.68L191.49 22.98L192.28 23.32L193.05 23.69L193.81 24.09L194.55 24.52L195.27 24.98L195.98 25.48L196.66 26.01L197.33 26.57L197.98 27.17L198.61 27.79L199.23 28.47L199.81 29.18L200.36 29.9L200.88 30.64L201.36 31.4L201.8 32.18L202.2 32.97L202.57 33.78L202.91 34.61L203.21 35.44L203.47 36.29L203.7 37.15L203.89 38.02L204.05 38.9L204.17 39.78L204.25 40.68L204.31 41.57L204.32 42.48L204.31 43.38L204.25 44.29L204.16 45.2L204.04 46.1L203.89 47.01L203.69 47.92L203.47 48.82L203.21 49.72L202.91 50.61L202.59 51.5L202.22 52.38L201.83 53.25L201.4 54.11L200.93 54.96L200.44 55.79L199.91 56.62L199.34 57.43L198.74 58.22L198.11 59L197.45 59.77L196.75 60.51L196.02 61.24L195.99 61.26L195.85 61.4L195.82 61.42L195.76 61.48L195.74 61.5L195.68 61.56L195.65 61.58L195.54 61.69L195.51 61.71L195.48 61.74L195.45 61.77L195.42 61.79L195.36 61.85L195.31 61.9L195.28 61.92L195.25 61.95L195.22 61.97L195.16 62.03L195.13 62.05L195.1 62.08L195.07 62.1L195.05 62.13L195.02 62.15L194.99 62.18L194.96 62.2L194.93 62.23L194.9 62.25L194.87 62.28L195.14 63.36L195.23 63.73L195.32 64.09L195.4 64.46L195.48 64.83L195.56 65.2L195.63 65.57L195.71 65.94L195.78 66.32L195.85 66.69L195.92 67.07L195.98 67.45L196.05 67.83L196.11 68.22L196.16 68.6L196.22 68.99L196.28 69.37L196.33 69.76L196.38 70.15L196.42 70.54L196.47 70.94L196.51 71.33L196.59 72.13L196.63 72.53L196.66 72.93L196.72 73.73L196.75 74.14L196.77 74.54L196.79 74.95L196.83 75.77L196.84 76.19L196.85 76.6L196.87 77.44L196.88 77.86L196.88 95.62L197.13 97.97L197.31 100.25L197.41 102.46L197.44 104.61L197.39 106.7L197.27 108.73L197.08 110.69L196.82 112.59L196.49 114.44L196.1 116.22L195.64 117.95L195.11 119.62L194.53 121.23L193.88 122.78L193.18 124.28L192.42 125.73L191.6 127.13L190.73 128.47L189.81 129.76L188.83 131L187.81 132.19L186.74 133.33L185.62 134.42L184.45 135.46L183.24 136.46L181.99 137.41L180.7 138.32L179.37 139.18L178 140.01L176.6 140.78L175.16 141.52L173.68 142.22L172.18 142.87L170.65 143.49L169.08 144.07L167.49 144.61L165.88 145.11L164.24 145.58L162.58 146.02L160.9 146.42L161.06 146.52L161.4 146.72L161.57 146.82L161.73 146.92L162.24 147.22L162.4 147.33L162.57 147.43L162.74 147.53L162.9 147.64L163.07 147.74L163.23 147.85L163.4 147.95L163.56 148.06L163.73 148.16L163.89 148.27L164.06 148.37L164.22 148.48L164.38 148.59L164.55 148.69L164.71 148.8L164.87 148.91L165.04 149.02L165.2 149.13L165.36 149.24L165.52 149.34L165.69 149.45L165.85 149.56L166.49 150L166.65 150.12L166.81 150.23L166.97 150.34L167.13 150.45L167.29 150.56L167.45 150.67L167.56 150.76L168.41 151.39L169.26 152.03L170.09 152.68L170.91 153.34L171.73 154.01L172.53 154.7L173.33 155.4L174.11 156.11L174.89 156.83L175.65 157.56L176.4 158.3L177.14 159.05L177.87 159.82L178.59 160.59L179.3 161.38L179.99 162.17L180.67 162.98L181.34 163.8L181.99 164.62L182.64 165.46L183.26 166.31L183.88 167.17L184.47 168.03L185.06 168.91L185.63 169.8L186.18 170.7L186.72 171.6L187.24 172.52L187.75 173.45L188.24 174.38L188.71 175.33L189.17 176.28L189.61 177.25L190.03 178.22L190.44 179.2L190.82 180.19L191.19 181.19L191.54 182.2L191.87 183.22L192.18 184.24L192.18 184.25L192.2 184.44L192.22 184.62L192.24 184.8L192.26 184.97L192.3 185.29L192.32 185.45L192.36 185.75L192.38 185.89L192.4 186.03L192.41 186.17L192.43 186.3L192.44 186.43L192.46 186.69L192.47 186.82L192.47 186.94L192.48 187.07L192.48 187.31L192.47 187.44L192.45 187.68L192.44 187.81L192.42 187.94L192.4 188.06L192.37 188.19L192.35 188.33L192.31 188.46L192.28 188.6L192.23 188.74L192.19 188.89L192.14 189.04L192.08 189.19L192.02 189.35L191.95 189.51L191.88 189.68L191.8 189.85L191.72 190.03L191.69 190.09L191.66 190.16L191.62 190.22L191.59 190.28L191.55 190.34L191.52 190.4L191.44 190.52L191.41 190.58L191.37 190.64L191.25 190.82L191.2 190.87L191.16 190.93L191.12 190.99L191.08 191.04L191.03 191.1L190.99 191.16L190.94 191.21L190.9 191.27L190.86 191.32L190.81 191.38L190.77 191.43L190.72 191.49L190.68 191.55L190.63 191.6L190.58 191.66L190.54 191.71L190.49 191.77L190.45 191.82L190.4 191.88L190.36 191.93L190.32 191.99L190.27 192.05L190.23 192.1L190.18 192.16L190.14 192.22L190.1 192.27L190.06 192.33L187.64 193.82L184.85 194.18L184.78 194.17L184.71 194.15L184.64 194.13L184.57 194.11L184.51 194.1L184.44 194.08L184.37 194.07L184.3 194.05L184.23 194.04L184.16 194.02L184.09 194.01L184.02 193.99L183.95 193.98L183.88 193.96L183.81 193.95L183.74 193.94L183.67 193.92L183.6 193.91L183.53 193.89L183.46 193.88L183.32 193.84L183.25 193.83L183.18 193.81L183.12 193.79L183.05 193.78L182.98 193.76L182.91 193.74L182.77 193.7L182.71 193.68L182.64 193.66L182.57 193.63L182.51 193.61L182.44 193.59L182.38 193.56L182.31 193.53L182.24 193.51L181.94 193.36L181.77 193.28L181.61 193.19L181.45 193.11L181.31 193.03L181.16 192.94L180.9 192.78L180.78 192.69L180.66 192.61L180.55 192.53L180.45 192.44L180.34 192.36L180.25 192.27L180.15 192.18L180.06 192.1L179.97 192.01L179.89 191.92L179.81 191.82L179.73 191.73L179.65 191.63L179.57 191.53L179.5 191.43L179.42 191.33L179.35 191.23L179.27 191.12L179.2 191.01L179.12 190.9L179.05 190.78L178.97 190.66L178.89 190.54L178.82 190.42L178.73 190.29L178.65 190.15L178.56 190.02L178.47 189.88L178.38 189.73L178.28 189.58L178.18 189.43L178.07 189.27L177.99 189.08L177.91 188.89L177.83 188.71L177.74 188.52L177.66 188.33L177.57 188.15L177.48 187.96L177.39 187.78L177.3 187.59L177.21 187.41L177.12 187.23L177.03 187.04L176.93 186.86L176.84 186.68L176.75 186.5L176.65 186.32L176.45 185.96L176.36 185.78L176.26 185.6L176.16 185.42L176.05 185.24L175.95 185.07L175.75 184.71L175.64 184.54L175.53 184.36L175.43 184.19L175.32 184.02L175.21 183.84L175.1 183.67L174.99 183.5L174.88 183.33L174.77 183.15L174.66 182.98L174.55 182.81L174.43 182.64L174.32 182.47L174.2 182.31L174.09 182.14L174.16 182.86L174.24 183.59L174.31 184.32L174.37 185.04L174.44 185.77L174.49 186.5L174.55 187.23L174.6 187.95L174.65 188.68L174.7 189.41L174.74 190.14L174.78 190.87L174.82 191.6L174.85 192.33L174.91 193.79L174.93 194.52L174.96 195.25L174.98 195.98L174.99 196.71L175.01 197.44L175.02 198.17L175.03 198.9L175.04 199.63L175.04 200.36L175.05 201.09L175.05 202.55L175.04 203.28L175.04 204.01L175.03 204.74L175.02 205.47L175 206.93L174.99 207.66L174.97 208.38L174.96 209.11L174.94 209.84L174.92 210.56L174.9 211.29L174.87 212.2L174.81 214.02L174.78 214.92L174.74 215.83L174.7 216.73L174.66 217.64L174.62 218.54L174.57 219.44L174.52 220.34L174.47 221.24L174.42 222.14L174.36 223.03L174.3 223.93L174.24 224.82L174.17 225.72L174.1 226.61L174.03 227.5L173.87 229.28L173.69 231.06L173.6 231.94L173.51 232.83L173.41 233.71L173.3 234.59L173.19 235.48L173.08 236.36L172.72 239L172.59 239.87L172.31 241.63L172.16 242.5L172.01 243.37L171.86 244.25L171.7 245.12L171.53 245.99L171.36 246.86L171.33 247.04L171.25 247.4L171.22 247.58L171.18 247.76L171.14 247.94L171.1 248.12L171.06 248.3L171.02 248.48L170.94 248.84L170.9 249.02L170.78 249.56L170.73 249.74L170.69 249.92L170.64 250.1L170.59 250.28L170.55 250.45L170.5 250.63L170.45 250.81L170.4 250.98L170.35 251.16L170.29 251.33L170.24 251.51L170.19 251.68L170.13 251.85L170.07 252.03L169.95 252.37L169.89 252.54L169.83 252.71L169.77 252.88L169.7 253.05L169.63 253.21L169.57 253.38L169.5 253.55L169.43 253.71L169.35 253.87L169.34 254.04L169.33 254.2L169.32 254.36L169.3 254.51L169.29 254.67L169.28 254.81L169.27 254.96L169.25 255.24L169.24 255.37L169.23 255.51L169.22 255.63L169.21 255.76L169.2 255.88L169.2 256L169.19 256.11L169.18 256.22L169.18 256.32L169.17 256.43L169.16 256.52L169.16 256.62L169.15 256.71L169.15 256.87L169.14 256.95L169.14 257.15L169.13 257.21L169.13 257.4L169.14 257.43L169.14 257.51L169.15 257.52L169.15 257.53L169.16 257.54L169.27 257.6L169.39 257.67L169.51 257.74L169.62 257.82L169.74 257.91L169.85 258L169.97 258.09L170.08 258.19L170.2 258.29L170.31 258.4L170.41 258.51L170.52 258.62L170.62 258.74L170.73 258.86L170.82 258.98L170.92 259.1L171.01 259.22L171.1 259.35L171.18 259.48L171.26 259.6L171.4 259.86L171.46 259.99L171.52 260.11L171.57 260.24L171.62 260.36L171.66 260.49L171.69 260.61L171.71 260.73L171.73 260.85L171.74 260.96L171.75 261.07L171.74 261.18L171.73 261.29L171.71 261.39L171.68 261.48L171.64 261.58L171.59 261.66L171.53 261.74L171.46 261.82L171.24 262L170.96 262.16L170.62 262.31L170.23 262.44L169.79 262.57L169.29 262.67L168.76 262.77L168.18 262.85L167.56 262.92L166.91 262.98L166.23 263.03L165.52 263.07L164.79 263.1L164.03 263.12L163.26 263.13L162.48 263.14L161.68 263.13L160.88 263.12L160.07 263.1L159.26 263.07L158.46 263.04L157.66 263L156.87 262.95L156.1 262.9L155.34 262.85L154.6 262.79L153.89 262.73L153.2 262.67L152.54 262.6L151.92 262.53L151.33 262.46L150.79 262.39L150.29 262.31L149.83 262.24L149.43 262.17L149.08 262.1L148.79 262.02L148.56 261.95L148.39 261.89L148.3 261.82L148.29 261.77L148.27 261.64L148.24 261.43L148.2 261.14L148.16 260.78L148.11 260.34L148.05 259.84L147.99 259.28L147.92 258.65L147.84 257.97L147.76 257.23L147.68 256.45L147.59 255.61L147.5 254.73L147.41 253.81L147.31 252.86L147.22 251.86L147.12 250.84L147.02 249.79L146.92 248.72L146.83 247.62L146.73 246.51L146.63 245.38L146.54 244.25L146.45 243.1L146.37 241.95L146.28 240.8L146.2 239.65L146.13 238.5L146.06 237.37L146 236.25L145.94 235.14L145.89 234.05L145.85 232.99L145.82 231.95L145.79 230.93L145.78 229.95L145.77 229.01L145.77 228.1L145.79 227.24L145.63 227.26L145.47 227.27L145.31 227.29L144.99 227.33L144.84 227.34L144.68 227.36L144.52 227.37L144.37 227.39L144.21 227.4L144.06 227.42L143.9 227.43L143.75 227.44L143.6 227.46L143.44 227.47L143.29 227.48L143.14 227.49L142.99 227.5L142.84 227.51L142.69 227.52L142.39 227.54L142.24 227.54L142.09 227.55L141.94 227.56L141.8 227.56L141.65 227.57L141.5 227.58L141.36 227.58L141.22 227.59L140.93 227.59L140.79 227.6L140.37 227.6L140.23 227.61L139.46 227.61L139.29 227.6L139.11 227.6L138.93 227.59L138.74 227.59L138.56 227.58L138.38 227.57L138.19 227.57L138 227.56L137.82 227.54L137.44 227.52L137.24 227.5L137.05 227.49L136.86 227.47L136.66 227.45L136.46 227.44L136.26 227.42L136.07 227.4L135.87 227.37L135.66 227.35L135.46 227.33L135.26 227.3L135.05 227.28L134.85 227.25L134.64 227.22L134.44 227.19L134.23 227.16L133.81 227.1L133.6 227.06L133.39 227.03L133.18 226.99L132.96 226.96L132.54 226.88L132.1 226.8L131.89 226.76L131.91 227.61L131.92 228.5L131.92 229.44L131.91 230.42L131.88 231.43L131.85 232.47L131.82 233.54L131.77 234.63L131.72 235.75L131.66 236.88L131.52 239.18L131.44 240.35L131.36 241.51L131.27 242.68L131.18 243.85L131.09 245L130.99 246.15L130.89 247.29L130.79 248.4L130.7 249.5L130.6 250.57L130.5 251.61L130.4 252.63L130.3 253.61L130.21 254.55L130.11 255.45L130.02 256.31L129.94 257.11L129.86 257.87L129.78 258.57L129.71 259.21L129.64 259.79L129.58 260.3L129.53 260.75L129.49 261.12L129.45 261.42L129.42 261.64L129.4 261.77L129.39 261.82L129.3 261.89L129.13 261.95L128.9 262.02L128.61 262.1L128.26 262.17L127.86 262.24L127.4 262.31L126.9 262.39L126.36 262.46L125.77 262.53L125.15 262.6L124.49 262.67L123.8 262.73L123.09 262.79L122.35 262.85L121.59 262.9L120.82 262.95L120.03 263L119.23 263.04L118.43 263.07L117.62 263.1L116.81 263.12L116.01 263.13L115.22 263.14L114.43 263.13L113.66 263.12L112.9 263.1L112.17 263.07L111.46 263.03L110.78 262.98L110.13 262.92L109.51 262.85L108.93 262.77L108.4 262.67L107.9 262.57L107.46 262.44L107.07 262.31L106.73 262.16L106.45 262L106.23 261.82L106.16 261.74L106.1 261.66L106.05 261.58L106.01 261.48L105.98 261.39L105.96 261.29L105.95 261.18L105.94 261.07L105.95 260.96L105.96 260.85L106 260.61L106.03 260.49L106.07 260.36L106.12 260.24L106.17 260.11L106.23 259.99L106.29 259.86L106.36 259.73L106.43 259.6L106.51 259.48L106.59 259.35L106.68 259.22L106.77 259.1L107.17 258.62L107.28 258.51L107.38 258.4L107.5 258.29L107.61 258.19L107.72 258.09L107.84 258L107.95 257.91L108.07 257.82L108.19 257.74L108.3 257.67L108.42 257.6L108.54 257.54L108.54 257.52L108.55 257.51L108.55 257.43L108.56 257.39L108.56 257.25L108.55 257.2L108.55 256.93L108.54 256.85L108.54 256.76L108.53 256.68L108.53 256.58L108.52 256.49L108.52 256.39L108.5 256.17L108.5 256.06L108.49 255.94L108.47 255.7L108.45 255.44L108.44 255.3L108.43 255.16L108.42 255.02L108.41 254.87L108.4 254.72L108.39 254.57L108.37 254.25L108.35 254.09L108.34 253.92L108.33 253.75L108.31 253.71L108.28 253.66L108.26 253.62L108.24 253.57L108.22 253.53L108.2 253.48L108.18 253.43L108.16 253.39L108.14 253.34L108.12 253.29L108.1 253.25L108.06 253.15L108.04 253.11L108.02 253.06L108 253.01L107.98 252.96L107.96 252.92L107.94 252.87L107.92 252.82L107.9 252.77L107.88 252.73L107.86 252.68L107.84 252.63L107.8 252.53L107.79 252.48L107.77 252.44L107.73 252.34L107.71 252.29L107.7 252.24L107.68 252.19L107.66 252.14L107.65 252.09L107.63 252.05L107.61 252L107.6 251.95L107.58 251.9L107.56 251.85L107.47 251.55L107.37 251.24L107.28 250.93L107.19 250.63L107.11 250.32L107.02 250.01L106.94 249.7L106.86 249.4L106.79 249.09L106.71 248.78L106.64 248.46L106.43 247.53L106.36 247.22L106.3 246.9L106.24 246.59L106.17 246.27L106.12 245.96L106.06 245.64L106 245.33L105.94 245.01L105.89 244.7L105.84 244.38L105.78 244.06L105.73 243.75L105.63 243.11L105.59 242.8L105.54 242.48L105.44 241.84L105.4 241.52L105.35 241.21L105.31 240.89L105.26 240.57L105.22 240.25L105.17 239.93L105.13 239.61L105.09 239.3L104.99 238.61L104.9 237.93L104.81 237.24L104.73 236.56L104.64 235.87L104.56 235.19L104.48 234.5L104.4 233.82L104.32 233.13L104.25 232.45L104.18 231.76L104.1 231.07L104.04 230.39L103.97 229.7L103.9 229.01L103.84 228.33L103.78 227.64L103.72 226.95L103.66 226.27L103.6 225.58L103.55 224.89L103.49 224.2L103.44 223.52L103.34 222.14L103.3 221.45L103.25 220.76L103.21 220.08L103.17 219.39L103.12 218.7L103.09 218.01L103.01 216.63L102.95 215.25L102.91 214.56L102.89 213.87L102.86 213.19L102.8 211.81L102.78 211.05L102.75 210.29L102.73 209.53L102.71 208.78L102.69 208.02L102.68 207.26L102.67 206.5L102.65 205.74L102.65 204.98L102.64 204.22L102.64 203.45L102.63 202.69L102.64 201.93L102.64 201.17L102.65 200.4L102.65 199.64L102.67 198.88L102.68 198.12L102.7 197.35L102.71 196.59L102.74 195.82L102.76 195.06L102.79 194.3L102.82 193.53L102.85 192.77L102.89 192.01L102.93 191.24L102.97 190.48L103.01 189.71L103.06 188.95L103.11 188.19L103.17 187.42L103.23 186.66L103.35 185.14L103.42 184.37L103.49 183.61L103.56 182.85L103.72 181.33L103.59 181.5L103.47 181.68L103.35 181.85L103.23 182.03L103.11 182.21L102.99 182.38L102.87 182.56L102.63 182.92L102.52 183.1L102.4 183.28L102.29 183.46L102.17 183.64L102.06 183.83L101.84 184.19L101.73 184.38L101.62 184.56L101.51 184.75L101.41 184.93L101.3 185.12L101.2 185.31L101.09 185.5L100.99 185.68L100.59 186.44L100.49 186.64L100.39 186.83L100.3 187.02L100.2 187.22L100.02 187.6L99.92 187.8L99.83 187.99L99.74 188.19L99.66 188.39L99.57 188.59L99.48 188.78L99.48 188.79L99.37 188.95L99.27 189.1L99.18 189.25L99.08 189.39L98.9 189.67L98.66 190.06L98.5 190.3L98.43 190.41L98.36 190.53L98.28 190.64L98.21 190.75L98.13 190.85L98.06 190.95L97.98 191.05L97.91 191.15L97.83 191.25L97.75 191.34L97.67 191.43L97.31 191.79L97.21 191.87L97.11 191.96L97 192.04L96.89 192.13L96.77 192.21L96.65 192.29L96.52 192.38L96.39 192.46L96.25 192.54L96.1 192.63L95.95 192.71L95.79 192.79L95.62 192.88L95.44 192.97L95.37 193L95.31 193.02L95.24 193.05L95.18 193.08L95.11 193.1L95.05 193.13L94.98 193.15L94.91 193.17L94.85 193.2L94.78 193.22L94.71 193.24L94.64 193.26L94.58 193.28L94.51 193.29L94.44 193.31L94.3 193.35L94.23 193.36L94.16 193.38L94.09 193.39L94.02 193.41L93.95 193.42L93.88 193.44L93.82 193.45L93.75 193.47L93.68 193.48L93.61 193.5L93.54 193.51L93.47 193.53L93.4 193.54L93.33 193.55L93.26 193.57L93.19 193.58L93.12 193.6L93.05 193.62L92.98 193.63L92.91 193.65L92.84 193.67L92.77 193.68L92.7 193.7L89.91 193.33L87.5 191.85L87.45 191.79L87.37 191.67L87.33 191.62L87.28 191.56L87.24 191.51L87.19 191.45L87.15 191.39L87.1 191.34L87.06 191.28L87.01 191.23L86.97 191.17L86.92 191.12L86.88 191.06L86.83 191.01L86.79 190.95L86.74 190.9L86.7 190.84L86.65 190.78L86.61 190.73L86.57 190.67L86.52 190.62L86.48 190.56L86.43 190.5L86.39 190.45L86.27 190.27L86.23 190.22L86.07 189.98L86.04 189.92L86 189.86L85.97 189.8L85.93 189.73L85.75 189.37L85.67 189.19L85.6 189.03L85.54 188.86L85.47 188.71L85.42 188.55L85.37 188.4L85.32 188.26L85.28 188.12L85.24 187.98L85.21 187.84L85.15 187.58L85.13 187.45L85.12 187.33L85.1 187.2L85.09 187.08L85.08 186.95L85.08 186.46L85.09 186.33L85.09 186.21L85.1 186.08L85.11 185.95L85.13 185.82L85.14 185.68L85.16 185.55L85.17 185.41L85.19 185.26L85.21 185.12L85.23 184.97L85.27 184.65L85.29 184.48L85.33 184.14L85.35 183.95L85.37 183.77L85.68 182.74L86.02 181.72L86.37 180.7L86.74 179.7L87.14 178.7L87.55 177.72L87.98 176.74L88.42 175.77L88.89 174.81L89.37 173.86L89.87 172.92L90.39 171.99L90.92 171.06L91.46 170.15L92.03 169.25L92.6 168.36L93.2 167.48L93.8 166.6L94.42 165.74L95.05 164.89L95.7 164.05L96.36 163.22L97.03 162.41L97.71 161.6L98.4 160.81L99.11 160.02L99.82 159.25L100.55 158.49L101.28 157.74L102.02 157.01L102.78 156.28L103.54 155.57L105.08 154.19L105.87 153.52L106.66 152.86L107.45 152.21L108.26 151.58L109.07 150.96L109.88 150.35L109.99 150.27L110.11 150.19L110.24 150.1L110.36 150.01L110.48 149.93L110.6 149.84L110.73 149.76L110.97 149.58L111.1 149.5L111.22 149.42L111.34 149.33L111.47 149.25L111.59 149.16L111.72 149.08L111.84 148.99L111.97 148.91L112.09 148.83L112.22 148.75L112.34 148.66L112.47 148.58L112.59 148.5L112.72 148.42L112.84 148.33L112.97 148.25L113.09 148.17L113.22 148.09L113.35 148.01L113.47 147.93L113.6 147.85L113.72 147.77L113.85 147.69L114.11 147.53L114.23 147.45L114.36 147.37L114.49 147.29L114.61 147.21L114.74 147.14L114.87 147.06L115 146.98L113.22 146.62L111.46 146.22L109.72 145.78L108.01 145.31L106.32 144.8L104.66 144.25L103.03 143.66L101.43 143.03L99.86 142.36L98.32 141.64L96.82 140.88L95.36 140.08L93.93 139.23L92.55 138.34L91.21 137.39L89.91 136.4L88.66 135.36L87.45 134.27L86.29 133.12L85.19 131.93L84.14 130.68L83.14 129.38L82.2 128.02L81.31 126.61L80.48 125.14L79.72 123.61L79.02 122.02L78.38 120.38L77.81 118.67L77.3 116.9L76.87 115.07L76.5 113.18L76.21 111.22L75.99 109.19L75.85 107.1L75.79 104.94L75.81 102.72L75.9 100.42L76.08 98.06L76.35 95.62L76.35 77.86L76.39 77.51L76.43 77.17L76.47 76.82L76.55 76.14L76.59 75.8L76.64 75.46L76.69 75.13L76.73 74.79L76.78 74.45L76.83 74.12L76.89 73.79L76.94 73.46L76.99 73.13L77.11 72.47L77.17 72.14L77.23 71.81L77.29 71.49L77.35 71.16L77.41 70.84L77.55 70.2L77.61 69.88L77.82 68.92L77.9 68.61L77.97 68.29L78.05 67.98L78.12 67.67L78.36 66.74L78.44 66.43L78.52 66.12L78.61 65.82L78.69 65.51L78.78 65.21L78.87 64.9L78.74 64.83L78.62 64.75L78.49 64.67L78.37 64.59L78.24 64.51L78.12 64.43L77.99 64.35L77.87 64.27L77.75 64.18L77.62 64.1L77.5 64.02L77.38 63.93L77.26 63.85L77.14 63.76L77.01 63.67L76.89 63.58L76.77 63.49L76.65 63.4L76.53 63.31L76.17 63.04L76.06 62.94L75.94 62.85L75.82 62.75L75.7 62.66L75.58 62.56L75.47 62.46L75.35 62.37L75.24 62.27L75.12 62.17L75.01 62.07L74.89 61.97L74.78 61.86L74.66 61.76L74.55 61.66L74.44 61.55L74.32 61.45L74.21 61.34L74.1 61.24L73.37 60.51L72.67 59.77L72 59L71.37 58.22L70.78 57.43L70.21 56.62L69.68 55.79L69.18 54.96L68.72 54.11L68.29 53.25L67.89 52.38L67.53 51.5L67.2 50.61L66.91 49.72L66.65 48.82L66.42 47.92L66.23 47.01L66.07 46.1L65.95 45.2L65.86 44.29L65.81 43.38L65.79 42.48L65.81 41.57L65.86 40.68L65.95 39.78L66.07 38.9L66.23 38.02L66.42 37.15L66.65 36.29L66.91 35.44L67.21 34.61L67.54 33.78L67.91 32.97L68.32 32.18L68.76 31.4L69.24 30.64L69.75 29.9L70.3 29.18L70.89 28.47L71.51 27.79L72.16 27.14L72.84 26.52L73.54 25.94L74.25 25.4L74.99 24.88L75.75 24.41L76.53 23.97L77.32 23.56L78.13 23.19L78.95 22.86L79.79 22.55L80.63 22.29L81.49 22.06L82.36 21.86L83.24 21.7L84.13 21.57L85.02 21.48L85.92 21.43L86.83 21.4L87.74 21.42L88.65 21.46L89.56 21.54L90.48 21.66L91.39 21.81L92.3 22L93.21 22.21L94.11 22.47L95.01 22.76L95.91 23.08L96.8 23.44L97.67 23.83L98.54 24.25L99.4 24.71L100.25 25.21L101.09 25.73L101.91 26.3L102.72 26.89L103.51 27.52L104.28 28.19L105.04 28.88L105.06 28.91L105.09 28.93L105.11 28.96L105.14 28.98L105.19 29.03L105.22 29.05L105.24 29.08L105.27 29.1L105.29 29.13L105.32 29.15L105.34 29.18L105.37 29.2L105.39 29.23L105.42 29.25L105.44 29.28L105.47 29.3L105.49 29.33L105.52 29.35L105.54 29.38L105.57 29.4L105.59 29.43L105.61 29.45L105.64 29.48L105.71 29.55L105.74 29.58L105.79 29.63L105.81 29.65L105.83 29.68L105.86 29.7L105.88 29.73L105.91 29.75L105.93 29.78L105.96 29.8L105.98 29.83L106.03 29.88L107.42 29.11L108.82 28.37L110.24 27.67L111.68 27.01L113.14 26.39L114.6 25.81L116.09 25.26L117.58 24.75L119.08 24.28L120.6 23.84L122.13 23.44L123.66 23.08L125.2 22.75L126.75 22.47L128.3 22.22L129.86 22L131.42 21.83L132.99 21.69L134.56 21.58L136.13 21.52L137.69 21.49L139.26 21.49L140.83 21.54L142.39 21.61L143.95 21.73L145.51 21.88L147.06 22.07L148.6 22.3L150.14 22.56L151.67 22.85L153.18 23.19L154.69 23.56L156.19 23.96L157.68 24.4L159.15 24.88L160.61 25.39L162.05 25.94L163.48 26.52L164.89 27.14L166.28 27.8L167.04 27.18L167.8 26.59L168.59 26.03L169.38 25.51L170.19 25.01L171.01 24.55L171.84 24.12L172.67 23.72L173.52 23.35L174.37 23.02L175.23 22.71L176.1 22.44L176.97 22.2L177.84 21.99L178.72 21.81L179.59 21.67L180.47 21.55L181.35 21.47L182.22 21.42L183.1 21.4L183.97 21.42L184.83 21.46ZM134.1 81.38L132.84 81.4L131.59 81.42L130.33 81.44L129.07 81.47L127.81 81.5L126.54 81.53L124.02 81.61L122.75 81.65L121.49 81.7L120.22 81.75L118.95 81.81L117.69 81.86L116.42 81.92L115.15 81.99L112.61 82.13L111.34 82.21L110.06 82.28L108.79 82.37L107.51 82.45L106.24 82.54L104.96 82.63L103.68 82.73L102.41 82.83L101.13 82.93L97.29 83.26L96 83.38L93.44 83.62L90.86 83.88L89.58 84.01L87 84.29L85.71 84.44L85.21 84.53L84.76 84.73L84.35 85.02L83.99 85.41L83.68 85.88L83.42 86.43L83.19 87.06L83.01 87.75L82.87 88.51L82.78 89.33L82.72 90.21L82.7 91.13L82.71 92.1L82.77 93.11L82.86 94.15L82.98 95.22L83.13 96.31L83.32 97.42L83.54 98.54L83.78 99.67L84.06 100.81L84.36 101.94L84.69 103.06L85.04 104.17L85.42 105.26L85.82 106.33L86.25 107.37L86.69 108.37L87.15 109.34L87.64 110.26L88.14 111.14L88.65 111.95L89.18 112.71L89.73 113.41L90.29 114.03L90.86 114.58L91.44 115.04L92.03 115.42L92.63 115.71L93.24 115.91L181.79 115.5L182.49 115.56L183.17 115.5L183.83 115.32L184.47 115.04L185.09 114.66L185.69 114.18L186.27 113.61L186.83 112.96L187.36 112.23L187.87 111.42L188.36 110.56L188.81 109.63L189.24 108.65L189.65 107.62L190.02 106.55L190.36 105.45L190.68 104.32L190.96 103.17L191.21 102L191.43 100.82L191.61 99.63L191.76 98.45L191.87 97.27L191.95 96.11L191.99 94.97L191.99 93.86L191.95 92.78L191.88 91.73L191.76 90.73L191.6 89.79L191.39 88.89L191.15 88.07L190.86 87.31L190.52 86.62L190.14 86.02L189.71 85.5L189.24 85.08L188.71 84.76L188.14 84.54L187.51 84.44L186.22 84.29L184.94 84.15L183.65 84.01L182.36 83.88L181.08 83.75L179.79 83.62L178.51 83.5L177.22 83.38L175.94 83.26L172.1 82.93L169.54 82.73L168.27 82.63L165.71 82.45L164.44 82.37L163.16 82.28L161.89 82.21L160.62 82.13L158.08 81.99L156.81 81.92L155.54 81.86L154.27 81.81L153.01 81.75L150.47 81.65L147.95 81.57L146.68 81.53L144.16 81.47L142.9 81.44L140.38 81.4L139.13 81.38L137.87 81.37L136.61 81.36L135.36 81.37L134.1 81.38Z" id="i1ZqQ05VjH"></path><path d="M196.41 67.13C196.76 69.23 197.02 71.37 197.2 73.56C197.2 74.65 197.2 83.36 197.2 84.45C158.69 78.07 118.13 78.36 75.79 84.46C75.79 83.37 75.79 74.65 75.79 73.56C76.05 71.38 76.39 69.24 76.8 67.15C117.59 59.04 157.47 59.21 196.41 67.13" id="bewFmTpbb"></path><path d="M196.41 67.13C196.76 69.23 197.02 71.37 197.2 73.56C197.2 74.65 197.2 83.36 197.2 84.45C158.69 78.07 118.13 78.36 75.79 84.46C75.79 83.37 75.79 74.65 75.79 73.56C76.05 71.38 76.39 69.24 76.8 67.15C117.59 59.04 157.47 59.21 196.41 67.13" id="h14JxhtecB"></path><path d="M163.71 146.51C165.18 146.66 166.27 148.2 165.76 149.61C165.47 150.4 164.79 151.64 164.2 152.76C154.44 171.43 138.88 187.01 121.19 197.86C116.37 200.82 111.33 203.41 106.02 205.4C104.76 205.88 102.02 204.8 102.77 202.59C103.12 201.58 104.26 201.14 105.13 200.8C122.19 194.12 136.83 182.06 148.43 168.01C153.55 161.81 158.05 155.05 161.5 147.82C161.5 147.82 162.16 146.79 163.03 146.58C163.45 146.47 163.57 146.51 163.71 146.51" id="a1htDLrnXU"></path><path d="M163.71 146.51C165.18 146.66 166.27 148.2 165.76 149.61C165.47 150.4 164.79 151.64 164.2 152.76C154.44 171.43 138.88 187.01 121.19 197.86C116.37 200.82 111.33 203.41 106.02 205.4C104.76 205.88 102.02 204.8 102.77 202.59C103.12 201.58 104.26 201.14 105.13 200.8C122.19 194.12 136.83 182.06 148.43 168.01C153.55 161.81 158.05 155.05 161.5 147.82C161.5 147.82 162.16 146.79 163.03 146.58C163.45 146.47 163.57 146.51 163.71 146.51" id="lsNdQPiwc"></path><path d="M119.36 202.65C137.19 204.5 168.26 200.31 174.96 198.47C177 199.58 175.93 206.3 175.26 206.64C173.91 207.33 172.2 207.55 170.57 207.93C154.1 211.76 136.86 212.59 120.11 211.08C114.95 210.61 103.4 207.39 102.71 206.87C100.93 205.52 101.87 199.19 102.82 199.29C103.98 199.42 115.78 202.28 119.36 202.65" id="bj00rXvaz"></path><path d="M119.36 202.65C137.19 204.5 168.26 200.31 174.96 198.47C177 199.58 175.93 206.3 175.26 206.64C173.91 207.33 172.2 207.55 170.57 207.93C154.1 211.76 136.86 212.59 120.11 211.08C114.95 210.61 103.4 207.39 102.71 206.87C100.93 205.52 101.87 199.19 102.82 199.29C103.98 199.42 115.78 202.28 119.36 202.65" id="b6Nw1L0bwm"></path><path d="M119.11 201.4C122.15 201.6 124.25 205.53 122.2 208.13C119.61 211.41 117.55 215.43 118.15 219.66C118.33 220.95 118.7 222.2 119.18 223.42C119.38 223.74 112.02 227.14 111.1 225.55C107.29 218.94 109.87 210.22 114.96 203.83C115.92 202.63 117.04 201.55 118.58 201.42C118.92 201.39 119 201.4 119.11 201.4" id="a11eMbFDYb"></path><path d="M119.11 201.4C122.15 201.6 124.25 205.53 122.2 208.13C119.61 211.41 117.55 215.43 118.15 219.66C118.33 220.95 118.7 222.2 119.18 223.42C119.38 223.74 112.02 227.14 111.1 225.55C107.29 218.94 109.87 210.22 114.96 203.83C115.92 202.63 117.04 201.55 118.58 201.42C118.92 201.39 119 201.4 119.11 201.4" id="f1ljNRJNJJ"></path><path d="M119.14 201.41C119.89 201.46 120.11 201.55 120.52 201.72C122.44 202.51 123.16 204.74 122.98 206.94C122.38 214.69 123.12 222.5 123.09 230.29C123.09 230.81 114.93 234.42 114.78 230.84C114.47 223.71 113.97 214.15 114.76 205.52C114.76 205.52 114.97 203.53 116.14 202.48C116.8 201.88 117.65 201.51 118.53 201.42C118.92 201.38 119.01 201.4 119.14 201.41" id="a8NN14DAfc"></path><path d="M119.14 201.41C119.89 201.46 120.11 201.55 120.52 201.72C122.44 202.51 123.16 204.74 122.98 206.94C122.38 214.69 123.12 222.5 123.09 230.29C123.09 230.81 114.93 234.42 114.78 230.84C114.47 223.71 113.97 214.15 114.76 205.52C114.76 205.52 114.97 203.53 116.14 202.48C116.8 201.88 117.65 201.51 118.53 201.42C118.92 201.38 119.01 201.4 119.14 201.41" id="a2sDH2MyHU"></path></defs><g><g><g><use xlink:href="#a3k9dYr1af" opacity="1" fill="#d7d5d3" fill-opacity="1"></use><g><use xlink:href="#a3k9dYr1af" opacity="1" fill-opacity="0" stroke="#000000" stroke-width="1" stroke-opacity="0"></use></g></g><g><use xlink:href="#b10e1Rj7cu" opacity="1" fill="#000000" fill-opacity="0"></use><g><use xlink:href="#b10e1Rj7cu" opacity="1" fill-opacity="0" stroke="#000000" stroke-width="1" stroke-opacity="0"></use></g></g><g><use xlink:href="#ceVIwMKLE" opacity="1" fill="#ca2121" fill-opacity="1"></use><g><use xlink:href="#ceVIwMKLE" opacity="1" fill-opacity="0" stroke="#000000" stroke-width="1" stroke-opacity="0"></use></g></g><g><use xlink:href="#aYt1nj21G" opacity="1" fill="#000000" fill-opacity="0"></use><g><use xlink:href="#aYt1nj21G" opacity="1" fill-opacity="0" stroke="#000000" stroke-width="1" stroke-opacity="0"></use></g></g><g><use xlink:href="#a2a4Ms07mI" opacity="1" fill="#930505" fill-opacity="1"></use><g><use xlink:href="#a2a4Ms07mI" opacity="1" fill-opacity="0" stroke="#000000" stroke-width="1" stroke-opacity="0"></use></g></g><g><use xlink:href="#g3WbPloBAS" opacity="1" fill="#000000" fill-opacity="0"></use><g><use xlink:href="#g3WbPloBAS" opacity="1" fill-opacity="0" stroke="#000000" stroke-width="1" stroke-opacity="0"></use></g></g><g><use xlink:href="#b4t8YHtiH" opacity="1" fill="#797979" fill-opacity="1"></use><g><use xlink:href="#b4t8YHtiH" opacity="1" fill-opacity="0" stroke="#000000" stroke-width="1" stroke-opacity="0"></use></g></g><g><use xlink:href="#aHcSS1Uhp" opacity="1" fill="#000000" fill-opacity="0"></use><g><use xlink:href="#aHcSS1Uhp" opacity="1" fill-opacity="0" stroke="#000000" stroke-width="1" stroke-opacity="0"></use></g></g><g><use xlink:href="#e1NMJZW4iz" opacity="1" fill="#797979" fill-opacity="1"></use><g><use xlink:href="#e1NMJZW4iz" opacity="1" fill-opacity="0" stroke="#000000" stroke-width="1" stroke-opacity="0"></use></g></g><g><use xlink:href="#f27q3dE9zZ" opacity="1" fill="#000000" fill-opacity="0"></use><g><use xlink:href="#f27q3dE9zZ" opacity="1" fill-opacity="0" stroke="#000000" stroke-width="1" stroke-opacity="0"></use></g></g><g><use xlink:href="#c1dAQzQxYx" opacity="1" fill="#d7d5d3" fill-opacity="1"></use><g><use xlink:href="#c1dAQzQxYx" opacity="1" fill-opacity="0" stroke="#000000" stroke-width="1" stroke-opacity="0"></use></g></g><g><use xlink:href="#a1x2NCWW3X" opacity="1" fill="#000000" fill-opacity="0"></use><g><use xlink:href="#a1x2NCWW3X" opacity="1" fill-opacity="0" stroke="#000000" stroke-width="1" stroke-opacity="0"></use></g></g><g><use xlink:href="#butJeIeyu" opacity="1" fill="#1f2633" fill-opacity="1"></use><g><use xlink:href="#butJeIeyu" opacity="1" fill-opacity="0" stroke="#000000" stroke-width="1" stroke-opacity="0"></use></g></g><g><use xlink:href="#aZErPn8E" opacity="1" fill="#000000" fill-opacity="0"></use><g><use xlink:href="#aZErPn8E" opacity="1" fill-opacity="0" stroke="#000000" stroke-width="1" stroke-opacity="0"></use></g></g><g><use xlink:href="#bKvfyRdep" opacity="1" fill="#1f2633" fill-opacity="1"></use><g><use xlink:href="#bKvfyRdep" opacity="1" fill-opacity="0" stroke="#000000" stroke-width="1" stroke-opacity="0"></use></g></g><g><use xlink:href="#itM4ca5fA" opacity="1" fill="#000000" fill-opacity="0"></use><g><use xlink:href="#itM4ca5fA" opacity="1" fill-opacity="0" stroke="#000000" stroke-width="1" stroke-opacity="0"></use></g></g><g><use xlink:href="#e1LoDGtiDl" opacity="1" fill="#1f2633" fill-opacity="1"></use><g><use xlink:href="#e1LoDGtiDl" opacity="1" fill-opacity="0" stroke="#000000" stroke-width="1" stroke-opacity="0"></use></g></g><g><use xlink:href="#cXSjliCte" opacity="1" fill="#000000" fill-opacity="0"></use><g><use xlink:href="#cXSjliCte" opacity="1" fill-opacity="0" stroke="#000000" stroke-width="1" stroke-opacity="0"></use></g></g><g><use xlink:href="#g2UMDIkEo" opacity="1" fill="#636363" fill-opacity="1"></use><g><use xlink:href="#g2UMDIkEo" opacity="1" fill-opacity="0" stroke="#000000" stroke-width="1" stroke-opacity="0"></use></g></g><g><use xlink:href="#ck2wDdtqy" opacity="1" fill="#000000" fill-opacity="0"></use><g><use xlink:href="#ck2wDdtqy" opacity="1" fill-opacity="0" stroke="#000000" stroke-width="1" stroke-opacity="0"></use></g></g><g><use xlink:href="#d1u08oyrox" opacity="1" fill="#636363" fill-opacity="1"></use><g><use xlink:href="#d1u08oyrox" opacity="1" fill-opacity="0" stroke="#000000" stroke-width="1" stroke-opacity="0"></use></g></g><g><use xlink:href="#bQ6DlN2Rk" opacity="1" fill="#000000" fill-opacity="0"></use><g><use xlink:href="#bQ6DlN2Rk" opacity="1" fill-opacity="0" stroke="#000000" stroke-width="1" stroke-opacity="0"></use></g></g><g><use xlink:href="#g2MNAG9tzg" opacity="1" fill="#ffffff" fill-opacity="1"></use><g><use xlink:href="#g2MNAG9tzg" opacity="1" fill-opacity="0" stroke="#000000" stroke-width="1" stroke-opacity="0"></use></g></g><g><use xlink:href="#f72fEmnwI" opacity="1" fill="#000000" fill-opacity="0"></use><g><use xlink:href="#f72fEmnwI" opacity="1" fill-opacity="0" stroke="#000000" stroke-width="1" stroke-opacity="0"></use></g></g><g><use xlink:href="#c3HPMDj5L" opacity="1" fill="#ffffff" fill-opacity="1"></use><g><use xlink:href="#c3HPMDj5L" opacity="1" fill-opacity="0" stroke="#000000" stroke-width="1" stroke-opacity="0"></use></g></g><g><use xlink:href="#aqU8pcL9S" opacity="1" fill="#000000" fill-opacity="0"></use><g><use xlink:href="#aqU8pcL9S" opacity="1" fill-opacity="0" stroke="#000000" stroke-width="1" stroke-opacity="0"></use></g></g><g><use xlink:href="#cU3EsTJMb" opacity="1" fill="#323940" fill-opacity="1"></use><g><use xlink:href="#cU3EsTJMb" opacity="1" fill-opacity="0" stroke="#000000" stroke-width="1" stroke-opacity="0"></use></g></g><g><use xlink:href="#i1ZqQ05VjH" opacity="1" fill="#000000" fill-opacity="0"></use><g><use xlink:href="#i1ZqQ05VjH" opacity="1" fill-opacity="0" stroke="#000000" stroke-width="1" stroke-opacity="0"></use></g></g><g><use xlink:href="#bewFmTpbb" opacity="1" fill="#797979" fill-opacity="1"></use><g><use xlink:href="#bewFmTpbb" opacity="1" fill-opacity="0" stroke="#000000" stroke-width="1" stroke-opacity="0"></use></g></g><g><use xlink:href="#h14JxhtecB" opacity="1" fill="#000000" fill-opacity="0"></use><g><use xlink:href="#h14JxhtecB" opacity="1" fill-opacity="0" stroke="#000000" stroke-width="1" stroke-opacity="0"></use></g></g><g><use xlink:href="#a1htDLrnXU" opacity="1" fill="#dba425" fill-opacity="1"></use><g><use xlink:href="#a1htDLrnXU" opacity="1" fill-opacity="0" stroke="#000000" stroke-width="1" stroke-opacity="0"></use></g></g><g><use xlink:href="#lsNdQPiwc" opacity="1" fill="#000000" fill-opacity="0"></use><g><use xlink:href="#lsNdQPiwc" opacity="1" fill-opacity="0" stroke="#000000" stroke-width="1" stroke-opacity="0"></use></g></g><g><use xlink:href="#bj00rXvaz" opacity="1" fill="#a9a9a9" fill-opacity="1"></use><g><use xlink:href="#bj00rXvaz" opacity="1" fill-opacity="0" stroke="#000000" stroke-width="1" stroke-opacity="0"></use></g></g><g><use xlink:href="#b6Nw1L0bwm" opacity="1" fill="#000000" fill-opacity="0"></use><g><use xlink:href="#b6Nw1L0bwm" opacity="1" fill-opacity="0" stroke="#000000" stroke-width="1" stroke-opacity="0"></use></g></g><g><use xlink:href="#a11eMbFDYb" opacity="1" fill="#a9a9a9" fill-opacity="1"></use><g><use xlink:href="#a11eMbFDYb" opacity="1" fill-opacity="0" stroke="#000000" stroke-width="1" stroke-opacity="0"></use></g></g><g><use xlink:href="#f1ljNRJNJJ" opacity="1" fill="#000000" fill-opacity="0"></use><g><use xlink:href="#f1ljNRJNJJ" opacity="1" fill-opacity="0" stroke="#000000" stroke-width="1" stroke-opacity="0"></use></g></g><g><use xlink:href="#a8NN14DAfc" opacity="1" fill="#a9a9a9" fill-opacity="1"></use><g><use xlink:href="#a8NN14DAfc" opacity="1" fill-opacity="0" stroke="#000000" stroke-width="1" stroke-opacity="0"></use></g></g><g><use xlink:href="#a2sDH2MyHU" opacity="1" fill="#000000" fill-opacity="0"></use><g><use xlink:href="#a2sDH2MyHU" opacity="1" fill-opacity="0" stroke="#000000" stroke-width="1" stroke-opacity="0"></use></g></g></g></g></svg>