<?xml version="1.0" encoding="UTF-8" standalone="no"?>
<!DOCTYPE svg PUBLIC "-//W3C//DTD SVG 1.1//EN" "http://www.w3.org/Graphics/SVG/1.1/DTD/svg11.dtd">
<svg version="1.1" xmlns="http://www.w3.org/2000/svg" xmlns:xlink="http://www.w3.org/1999/xlink" preserveAspectRatio="xMidYMid meet" viewBox="0 0 270 270" width="270" height="270"><defs><path d="M165.18 83.56C171.2 88.66 175.8 93.56 184.16 95.28C186.35 95.74 200.15 95.22 200.84 95.89C201.01 96.06 200.6 96.61 200.5 96.75C198.76 99.24 197.97 111.41 188.17 111.41C180.73 111.41 159.82 84.31 162.58 79.4" id="a42r2gKvWR"></path><path d="M165.18 83.56C171.2 88.66 175.8 93.56 184.16 95.28C186.35 95.74 200.15 95.22 200.84 95.89C201.01 96.06 200.6 96.61 200.5 96.75C198.76 99.24 197.97 111.41 188.17 111.41C180.73 111.41 159.82 84.31 162.58 79.4" id="gj0JMLHgo"></path><path d="M166.67 82.73C167.84 90.52 168.08 97.25 173.24 104.05C174.59 105.83 185.32 114.52 185.4 115.48C185.41 115.72 184.74 115.87 184.58 115.91C181.62 116.63 173.02 125.28 165.64 118.82C160.05 113.93 162.14 79.76 167.45 77.88" id="c1ezmRMwY"></path><path d="M166.67 82.73C167.84 90.52 168.08 97.25 173.24 104.05C174.59 105.83 185.32 114.52 185.4 115.48C185.41 115.72 184.74 115.87 184.58 115.91C181.62 116.63 173.02 125.28 165.64 118.82C160.05 113.93 162.14 79.76 167.45 77.88" id="cs6K55e65"></path><path d="M153.37 129.83C168.04 126.33 172.24 77.98 164.31 77.09C129.28 73.21 91.79 72.91 54.74 77.09C41.55 78.58 47.28 125.25 58.07 126.19C58.07 126.19 87.83 147.93 107.11 147.3C129.42 146.59 153.37 129.83 153.37 129.83" id="a1sXX8SrnT"></path><path d="M153.37 129.83C168.04 126.33 172.24 77.98 164.31 77.09C129.28 73.21 91.79 72.91 54.74 77.09C41.55 78.58 47.28 125.25 58.07 126.19C58.07 126.19 87.83 147.93 107.11 147.3C129.42 146.59 153.37 129.83 153.37 129.83" id="a1HOue1Dq"></path><path d="M101.26 88.54C105.54 91.9 105.13 105.31 97.57 114.27C90.02 123.24 86.68 133.92 72.69 121.82C65.82 115.87 62.79 103.2 70.34 94.23C77.9 85.27 97.09 85.26 101.26 88.54" id="a1JyefKsNU"></path><path d="M101.26 88.54C105.54 91.9 105.13 105.31 97.57 114.27C90.02 123.24 86.68 133.92 72.69 121.82C65.82 115.87 62.79 103.2 70.34 94.23C77.9 85.27 97.09 85.26 101.26 88.54" id="bMJTvuhSo"></path><path d="M130.99 88.54C126.7 91.9 127.11 105.31 134.67 114.27C142.22 123.24 145.56 133.92 159.55 121.82C166.42 115.87 169.45 103.2 161.9 94.23C154.34 85.27 135.15 85.26 130.99 88.54" id="cnrh8SKYw"></path><path d="M130.99 88.54C126.7 91.9 127.11 105.31 134.67 114.27C142.22 123.24 145.56 133.92 159.55 121.82C166.42 115.87 169.45 103.2 161.9 94.23C154.34 85.27 135.15 85.26 130.99 88.54" id="eEJWHVUQl"></path><path d="M116.97 127.24C114.31 127.24 107.66 116.49 108.99 114.34C110.32 112.19 123.61 112.19 124.94 114.34C126.27 116.49 119.63 127.24 116.97 127.24" id="ej4KmLlCv"></path><path d="M116.97 127.24C114.31 127.24 107.66 116.49 108.99 114.34C110.32 112.19 123.61 112.19 124.94 114.34C126.27 116.49 119.63 127.24 116.97 127.24" id="c35t4n45ND"></path><path d="M85.8 97.44C89.34 97.44 92.2 100.31 92.2 103.85C92.2 107.38 89.34 110.25 85.8 110.25C82.27 110.25 79.4 107.38 79.4 103.85C79.4 100.31 82.27 97.44 85.8 97.44" id="bGT9HeMAN"></path><path d="M85.8 97.44C89.34 97.44 92.2 100.31 92.2 103.85C92.2 107.38 89.34 110.25 85.8 110.25C82.27 110.25 79.4 107.38 79.4 103.85C79.4 100.31 82.27 97.44 85.8 97.44" id="aC6dyD7rB"></path><path d="M146.44 97.44C142.91 97.44 140.04 100.31 140.04 103.85C140.04 107.38 142.91 110.25 146.44 110.25C149.97 110.25 152.84 107.38 152.84 103.85C152.84 100.31 149.97 97.44 146.44 97.44" id="e1pcq60opR"></path><path d="M146.44 97.44C142.91 97.44 140.04 100.31 140.04 103.85C140.04 107.38 142.91 110.25 146.44 110.25C149.97 110.25 152.84 107.38 152.84 103.85C152.84 100.31 149.97 97.44 146.44 97.44" id="b2lR4vAorI"></path><path d="M88.5 98.04C89.97 98.04 91.15 99.23 91.15 100.69C91.15 102.16 89.97 103.35 88.5 103.35C87.03 103.35 85.84 102.16 85.84 100.69C85.84 99.23 87.03 98.04 88.5 98.04" id="bdNC12Z0c"></path><path d="M88.5 98.04C89.97 98.04 91.15 99.23 91.15 100.69C91.15 102.16 89.97 103.35 88.5 103.35C87.03 103.35 85.84 102.16 85.84 100.69C85.84 99.23 87.03 98.04 88.5 98.04" id="f1UDYAA3F6"></path><path d="M143.74 98.04C142.28 98.04 141.09 99.23 141.09 100.69C141.09 102.16 142.28 103.35 143.74 103.35C145.21 103.35 146.4 102.16 146.4 100.69C146.4 99.23 145.21 98.04 143.74 98.04" id="bP5piAIh"></path><path d="M143.74 98.04C142.28 98.04 141.09 99.23 141.09 100.69C141.09 102.16 142.28 103.35 143.74 103.35C145.21 103.35 146.4 102.16 146.4 100.69C146.4 99.23 145.21 98.04 143.74 98.04" id="dIsp3gL1G"></path><path d="M112.64 24.21L114.6 24.34L116.56 24.53L118.5 24.78L120.43 25.08L122.36 25.43L124.27 25.84L126.16 26.31L128.04 26.83L129.89 27.41L131.73 28.04L133.54 28.72L135.33 29.46L137.1 30.25L138.84 31.1L140.54 32L142.22 32.96L143.86 33.97L145.47 35.03L147.04 36.15L148.58 37.32L149.25 36.77L149.94 36.24L150.65 35.74L151.36 35.26L152.09 34.82L152.82 34.4L153.57 34.02L154.32 33.66L155.08 33.33L155.85 33.03L156.62 32.75L157.4 32.51L158.18 32.29L158.96 32.1L159.75 31.94L160.54 31.81L161.33 31.71L162.11 31.64L162.9 31.59L163.69 31.57L164.47 31.59L165.25 31.63L166.02 31.7L166.79 31.8L167.55 31.92L168.31 32.08L169.05 32.26L169.79 32.48L170.52 32.72L171.23 32.99L171.94 33.29L172.63 33.62L173.31 33.98L173.98 34.37L174.63 34.79L175.26 35.24L175.88 35.71L176.48 36.22L177.06 36.75L177.63 37.31L178.18 37.93L178.71 38.56L179.2 39.21L179.67 39.87L180.1 40.56L180.49 41.26L180.86 41.97L181.19 42.7L181.49 43.44L181.76 44.19L181.99 44.95L182.2 45.72L182.37 46.51L182.51 47.29L182.62 48.09L182.7 48.89L182.75 49.7L182.76 50.51L182.75 51.32L182.7 52.14L182.62 52.95L182.51 53.77L182.37 54.59L182.2 55.4L181.99 56.21L181.76 57.02L181.5 57.82L181.2 58.61L180.88 59.4L180.52 60.19L180.13 60.96L179.72 61.72L179.27 62.48L178.79 63.22L178.29 63.95L177.75 64.66L177.18 65.36L176.59 66.05L175.96 66.72L175.3 67.37L175.15 67.51L174.99 67.66L174.84 67.8L174.68 67.94L174.53 68.08L174.37 68.22L174.21 68.35L174.05 68.49L173.89 68.62L173.73 68.75L173.41 69.01L173.24 69.13L173.08 69.26L172.92 69.38L172.58 69.62L172.42 69.74L172.08 69.98L171.23 70.53L171.06 70.63L170.89 70.74L170.72 70.84L170.54 70.94L170.37 71.04L170.2 71.14L170.02 71.24L169.84 71.33L169.67 71.42L169.49 71.51L169.32 71.6L168.96 71.78L168.78 71.86L168.6 71.95L168.64 72.2L168.68 72.44L168.76 72.94L168.79 73.19L168.83 73.44L168.86 73.69L168.9 73.94L168.93 74.2L168.99 74.7L169.02 74.96L169.05 75.21L169.08 75.47L169.1 75.72L169.13 75.98L169.15 76.24L169.18 76.49L169.2 76.75L169.22 77.01L169.25 77.27L169.27 77.53L169.28 77.79L169.3 78.05L169.32 78.32L169.34 78.58L169.35 78.84L169.37 79.11L169.38 79.37L169.39 79.63L169.4 79.9L169.42 80.17L169.43 80.43L169.43 80.7L169.44 80.97L169.45 81.24L169.45 81.51L169.46 81.78L169.46 82.05L169.47 82.32L169.47 100.67L169.7 102.78L169.88 104.85L169.99 106.86L170.04 108.82L170.04 110.74L169.98 112.6L169.86 114.41L169.68 116.18L169.45 117.9L169.17 119.57L168.84 121.19L168.45 122.77L168.01 124.3L167.53 125.79L166.99 127.23L166.41 128.63L165.79 129.99L165.11 131.31L164.4 132.58L163.64 133.81L162.84 135L161.99 136.15L161.11 137.26L160.19 138.33L159.23 139.37L158.23 140.36L157.2 141.32L156.13 142.24L155.03 143.12L153.9 143.97L152.73 144.78L151.54 145.56L150.31 146.31L149.06 147.02L147.78 147.7L146.47 148.35L145.13 148.96L143.77 149.55L142.39 150.1L140.99 150.62L141.23 150.71L141.3 150.74L141.54 150.83L141.62 150.85L141.86 150.94L141.94 150.96L142.18 151.05L142.26 151.07L142.34 151.1L142.42 151.12L142.58 151.18L142.66 151.2L142.74 151.23L142.82 151.25L142.9 151.28L142.98 151.3L143.06 151.33L143.14 151.35L143.22 151.37L143.3 151.4L143.38 151.42L143.46 151.44L143.54 151.47L143.62 151.49L143.7 151.51L143.78 151.53L143.86 151.56L143.94 151.58L144.02 151.6L144.18 151.64L144.9 151.81L145.62 151.97L146.35 152.1L147.07 152.21L147.8 152.3L148.53 152.37L149.25 152.42L149.98 152.46L150.71 152.47L151.45 152.47L152.18 152.45L152.91 152.41L153.64 152.36L154.37 152.29L155.1 152.21L155.83 152.11L156.56 152L157.29 151.87L158.01 151.73L158.74 151.57L159.46 151.41L160.18 151.23L160.9 151.04L161.62 150.84L163.04 150.4L163.75 150.17L165.15 149.67L165.85 149.41L166.54 149.15L167.23 148.87L167.91 148.59L168.59 148.3L169.27 148L169.94 147.7L170.6 147.4L171.26 147.09L171.92 146.77L172.57 146.45L172.76 146.4L172.94 146.34L173.12 146.29L173.29 146.24L173.45 146.19L173.61 146.14L173.77 146.09L173.92 146.04L174.06 145.99L174.21 145.95L174.35 145.91L174.48 145.86L174.62 145.83L174.88 145.75L175.01 145.72L175.13 145.69L175.26 145.66L175.38 145.63L175.64 145.59L175.76 145.57L175.89 145.55L176.02 145.54L176.15 145.53L176.28 145.53L176.42 145.52L176.55 145.52L176.69 145.53L177.14 145.56L177.29 145.58L177.46 145.6L177.62 145.63L177.79 145.66L177.97 145.7L178.16 145.74L178.35 145.79L178.54 145.84L178.68 145.88L178.75 145.9L178.89 145.94L178.96 145.97L179.03 145.99L179.1 146.02L179.16 146.05L179.23 146.08L179.3 146.1L179.37 146.13L179.43 146.16L179.5 146.19L179.56 146.23L179.63 146.26L179.7 146.29L179.76 146.32L179.83 146.36L179.89 146.39L179.96 146.43L180.02 146.46L180.09 146.49L180.15 146.53L180.22 146.56L180.28 146.6L180.35 146.63L180.41 146.67L180.48 146.7L180.54 146.74L180.61 146.77L180.67 146.81L180.74 146.84L180.8 146.88L180.87 146.91L180.93 146.94L181 146.97L181.06 147.01L181.13 147.04L181.2 147.07L183.16 149.21L184.07 151.98L184.07 152.05L184.06 152.12L184.06 152.27L184.05 152.34L184.05 152.56L184.04 152.64L184.04 153.15L184.03 153.23L184.03 153.52L184.02 153.6L184.02 153.74L184.01 153.82L184.01 153.89L184 153.96L184 154.03L183.99 154.11L183.98 154.18L183.96 154.32L183.95 154.4L183.92 154.61L183.9 154.68L183.89 154.76L183.87 154.83L183.85 154.9L183.75 155.28L183.69 155.46L183.64 155.64L183.52 155.96L183.4 156.26L183.34 156.4L183.22 156.66L183.15 156.79L183.09 156.91L183.02 157.02L182.95 157.13L182.88 157.24L182.8 157.35L182.73 157.45L182.65 157.55L182.57 157.65L182.49 157.75L182.4 157.85L182.31 157.94L182.22 158.04L182.13 158.13L182.04 158.23L181.94 158.32L181.74 158.52L181.63 158.62L181.52 158.72L181.41 158.83L181.29 158.93L181.17 159.04L180.93 159.28L180.8 159.4L180.66 159.53L180.39 159.8L179.78 160.2L179.16 160.61L178.55 161.01L177.93 161.41L177.3 161.8L176.67 162.19L175.41 162.95L174.13 163.69L173.49 164.05L172.84 164.41L172.19 164.76L171.53 165.1L170.88 165.44L170.21 165.77L169.55 166.09L168.88 166.41L168.21 166.72L167.54 167.02L166.86 167.32L166.18 167.61L165.5 167.89L164.81 168.16L164.12 168.42L163.43 168.67L162.73 168.92L162.03 169.16L160.63 169.6L159.92 169.81L159.21 170.01L158.49 170.2L157.78 170.38L157.05 170.54L156.33 170.7L155.61 170.85L154.88 170.98L154.14 171.11L153.41 171.22L153.36 171.23L153.3 171.24L153.26 171.24L153.21 171.25L153.19 171.25L153.15 171.26L153.13 171.26L153.08 171.27L153.06 171.27L153.02 171.28L153 171.28L152.96 171.29L152.89 171.29L152.87 171.3L152.83 171.3L152.81 171.31L152.76 171.31L152.72 171.32L152.66 171.32L152.61 171.33L152.57 171.33L152.55 171.34L152.73 171.66L152.91 171.99L153.09 172.32L153.28 172.64L153.46 172.97L153.64 173.3L153.81 173.63L153.99 173.96L154.17 174.3L154.35 174.63L154.52 174.96L154.7 175.29L154.87 175.63L155.04 175.96L155.22 176.3L155.39 176.63L155.56 176.97L155.73 177.3L155.9 177.63L156.07 177.97L156.23 178.3L156.4 178.64L156.56 178.97L156.73 179.31L156.89 179.64L157.06 179.97L157.22 180.31L157.38 180.64L157.54 180.97L157.7 181.3L157.85 181.63L158.17 182.29L158.32 182.62L158.48 182.95L158.63 183.27L158.78 183.6L158.93 183.92L159.08 184.25L159.23 184.57L159.95 184.34L161.41 183.9L162.13 183.68L162.86 183.47L163.59 183.25L164.32 183.04L165.05 182.83L165.78 182.63L166.51 182.42L167.24 182.22L167.98 182.02L169.44 181.62L170.18 181.43L170.91 181.24L172.39 180.86L173.12 180.67L175.34 180.13L176.08 179.95L176.82 179.77L177.56 179.6L178.3 179.42L179.04 179.25L179.78 179.08L180.52 178.92L181.26 178.75L182 178.59L182.75 178.43L183.49 178.27L184.23 178.11L184.98 177.95L185.72 177.8L186.47 177.65L187.21 177.5L187.96 177.35L188.7 177.2L189.08 177.13L189.5 177.05L189.95 176.97L190.44 176.88L190.96 176.8L191.51 176.7L192.08 176.61L192.68 176.51L193.29 176.41L193.93 176.31L194.58 176.2L195.25 176.1L195.93 175.99L196.62 175.89L197.31 175.78L198 175.67L198.7 175.56L199.4 175.46L200.09 175.35L200.77 175.25L201.45 175.14L202.11 175.04L202.76 174.95L203.4 174.85L204.01 174.76L204.61 174.67L205.18 174.58L205.72 174.5L206.24 174.42L206.72 174.35L207.17 174.28L207.58 174.21L207.95 174.16L208.29 174.1L208.57 174.06L208.82 174.02L209.01 173.98L209.15 173.96L209.27 173.93L209.29 173.8L209.32 173.66L209.35 173.52L209.39 173.38L209.44 173.24L209.49 173.09L209.54 172.95L209.6 172.81L209.66 172.66L209.73 172.52L209.81 172.38L209.88 172.24L209.96 172.1L210.05 171.96L210.13 171.83L210.22 171.69L210.31 171.56L210.51 171.32L210.61 171.2L210.71 171.08L210.81 170.98L210.91 170.87L211.02 170.77L211.13 170.68L211.23 170.6L211.34 170.52L211.56 170.38L211.67 170.33L211.78 170.28L211.89 170.24L211.99 170.21L212.1 170.19L212.21 170.18L212.41 170.18L212.52 170.2L212.62 170.23L212.71 170.28L212.96 170.43L213.2 170.65L213.46 170.94L213.71 171.28L213.97 171.67L214.22 172.12L214.48 172.61L214.74 173.15L215 173.72L215.26 174.34L215.52 174.99L215.78 175.67L216.03 176.37L216.29 177.1L216.54 177.85L216.78 178.62L217.03 179.4L217.26 180.19L217.5 180.98L217.94 182.58L218.16 183.37L218.36 184.16L218.56 184.93L218.75 185.69L218.93 186.43L219.1 187.15L219.27 187.85L219.42 188.51L219.56 189.15L219.69 189.75L219.8 190.31L219.91 190.83L220 191.3L220.08 191.72L220.14 192.09L220.19 192.41L220.22 192.67L220.24 192.86L220.24 192.99L220.11 193.3L219.76 193.68L219.21 194.12L218.46 194.62L217.53 195.17L216.42 195.78L215.15 196.43L213.72 197.13L212.14 197.87L210.43 198.65L208.59 199.46L206.62 200.31L204.55 201.19L202.38 202.09L200.12 203.02L197.78 203.97L195.37 204.94L192.9 205.92L190.37 206.91L187.8 207.91L185.2 208.92L182.58 209.93L179.94 210.94L174.66 212.94L172.04 213.93L169.44 214.91L166.87 215.87L164.35 216.81L161.88 217.73L159.48 218.63L157.14 219.49L154.89 220.33L152.73 221.13L150.66 221.9L148.71 222.62L146.88 223.3L145.18 223.94L143.61 224.52L142.19 225.06L141.74 225.3L141.26 225.54L140.78 225.78L140.28 226.02L139.76 226.25L139.23 226.48L138.69 226.71L138.14 226.93L137.58 227.15L137 227.37L136.42 227.58L135.82 227.78L135.21 227.99L134.6 228.18L133.34 228.56L132.7 228.74L132.05 228.91L130.73 229.23L130.06 229.38L129.39 229.52L128.71 229.66L128.03 229.79L127.34 229.9L126.65 230.01L125.95 230.11L125.26 230.2L124.56 230.29L123.85 230.36L123.15 230.42L122.45 230.47L121.74 230.51L121.04 230.54L120.33 230.55L119.63 230.56L118.93 230.55L118.23 230.53L117.53 230.5L116.84 230.46L116.83 230.55L116.82 230.65L116.81 230.74L116.8 230.84L116.78 230.94L116.77 231.03L116.74 231.33L116.73 231.43L116.71 231.63L116.7 231.73L116.68 231.93L116.67 232.04L116.65 232.24L116.64 232.35L116.63 232.45L116.62 232.56L116.61 232.66L116.61 232.77L116.6 232.87L116.59 232.98L116.57 233.2L116.56 233.3L116.56 233.41L116.55 233.52L116.54 233.63L116.53 233.74L116.53 233.85L116.52 233.96L116.51 234.08L116.5 234.19L116.5 234.3L116.49 234.42L116.48 234.53L116.48 234.64L116.45 235.45L116.44 236.24L116.46 237.03L116.5 237.81L116.57 238.57L116.65 239.33L116.76 240.08L116.89 240.83L117.03 241.56L117.19 242.28L117.37 243L117.56 243.7L117.98 245.08L118.21 245.75L118.45 246.42L118.7 247.07L118.96 247.72L119.5 248.98L120.06 250.2L120.34 250.79L120.63 251.37L120.92 251.94L121.2 252.51L121.49 253.06L122.05 254.12L122.33 254.64L122.6 255.15L122.86 255.64L123.12 256.12L123.36 256.59L123.6 257.05L123.83 257.5L124.04 257.94L124.24 258.36L124.43 258.77L124.6 259.17L124.76 259.58L124.91 259.97L125.03 260.33L125.14 260.68L125.22 261L125.29 261.3L125.35 261.58L125.39 261.85L125.41 262.09L125.42 262.32L125.42 262.53L125.4 262.72L125.37 262.9L125.33 263.07L125.28 263.21L125.22 263.35L125.16 263.47L125.08 263.58L125 263.68L124.91 263.77L124.81 263.85L124.72 263.91L124.61 263.97L124.51 264.03L124.29 264.11L124.07 264.17L123.96 264.19L123.85 264.2L123.75 264.22L123.55 264.24L123.46 264.25L123.37 264.26L123.21 264.28L123.15 264.29L123.09 264.3L123.04 264.32L122.92 264.36L122.73 264.4L122.48 264.45L122.16 264.5L121.79 264.56L121.37 264.62L120.89 264.68L120.36 264.75L119.79 264.81L119.18 264.88L118.54 264.95L117.86 265.01L117.15 265.08L116.41 265.14L115.65 265.2L114.87 265.26L114.07 265.32L113.26 265.37L111.62 265.45L110.79 265.49L109.96 265.52L108.32 265.56L107.52 265.57L106.73 265.56L105.95 265.55L105.2 265.53L104.48 265.5L103.78 265.46L103.11 265.41L102.48 265.34L101.89 265.27L101.34 265.17L100.84 265.07L100.38 264.95L99.98 264.82L99.63 264.67L99.35 264.5L99.12 264.32L99.06 264.24L99.01 264.15L98.99 264.06L98.99 263.96L99 263.85L99.03 263.74L99.08 263.63L99.14 263.51L99.22 263.38L99.31 263.26L99.41 263.13L99.51 262.99L99.63 262.86L99.75 262.72L99.88 262.58L100.02 262.44L100.3 262.16L100.44 262.02L100.58 261.88L100.72 261.74L100.86 261.61L100.99 261.47L101.12 261.34L101.24 261.21L101.36 261.08L101.56 260.84L101.65 260.73L101.72 260.62L101.78 260.52L101.82 260.42L101.85 260.33L101.86 260.24L101.86 260.16L101.83 260.09L101.78 260.03L101.71 259.98L101.62 259.93L101.5 259.9L100.67 259.65L99.82 259.33L98.96 258.92L98.1 258.43L97.24 257.86L96.37 257.22L95.51 256.5L94.66 255.71L93.82 254.85L92.99 253.93L92.19 252.94L91.4 251.88L90.64 250.76L89.9 249.59L89.2 248.36L88.54 247.07L87.91 245.73L87.32 244.34L86.78 242.9L86.29 241.41L85.85 239.88L85.47 238.31L85.14 236.7L84.88 235.05L84.69 233.36L84.56 231.64L84.51 229.89L84.53 228.11L84.63 226.3L84.82 224.47L85.09 222.61L85.46 220.73L85.91 218.84L86.47 216.92L87.12 214.99L87.88 213.05L88.74 211.1L89.72 209.14L90.81 207.18L92.01 205.21L91.83 204.64L91.66 204.06L91.48 203.48L91.31 202.89L91.14 202.3L90.98 201.7L90.66 200.48L90.51 199.87L90.36 199.25L90.22 198.62L90.08 197.99L89.95 197.35L89.69 196.07L89.57 195.42L89.35 194.1L89.25 193.44L89.15 192.77L89.06 192.09L88.97 191.42L88.89 190.73L88.81 190.05L88.75 189.35L88.68 188.66L88.58 187.26L88.54 186.55L88.5 185.84L88.48 185.12L88.45 184.4L88.44 183.68L88.44 182.22L88.45 181.49L88.46 180.75L88.49 180.01L88.52 179.26L88.56 178.51L88.6 177.83L88.62 177.16L88.64 176.51L88.65 175.87L88.65 175.23L88.64 174.61L88.62 174L88.61 173.4L88.58 172.81L88.56 172.23L88.53 171.65L88.5 171.08L88.44 169.96L88.41 169.41L88.39 168.85L88.37 168.31L88.35 167.76L88.34 167.21L88.33 166.67L88.33 166.12L88.34 165.58L88.36 165.03L88.39 164.48L88.43 163.92L88.55 162.8L88.63 162.23L88.72 161.65L88.83 161.07L88.96 160.48L89.1 159.88L89.27 159.27L89.45 158.66L89.65 158.03L89.87 157.39L90.12 156.73L90.39 156.07L90.68 155.38L91 154.69L88.96 154.4L86.93 154.08L84.92 153.71L82.93 153.31L80.97 152.86L79.04 152.36L77.13 151.82L75.26 151.24L73.42 150.6L71.61 149.92L69.84 149.19L68.12 148.41L66.43 147.57L64.79 146.68L63.19 145.74L61.65 144.74L60.16 143.68L58.71 142.56L57.33 141.38L56 140.15L54.73 138.85L53.53 137.48L52.39 136.05L51.31 134.56L50.31 133L49.37 131.37L48.51 129.67L47.73 127.9L47.02 126.05L46.39 124.14L45.84 122.15L45.38 120.08L45.01 117.94L44.72 115.71L44.52 113.41L44.42 111.03L44.41 108.57L44.51 106.02L44.7 103.39L44.99 100.67L44.99 82.32L45.01 82.08L45.04 81.85L45.07 81.61L45.09 81.38L45.12 81.14L45.15 80.91L45.18 80.67L45.21 80.44L45.24 80.21L45.27 79.97L45.3 79.74L45.33 79.51L45.37 79.28L45.43 78.82L45.47 78.59L45.5 78.36L45.54 78.13L45.58 77.91L45.61 77.68L45.65 77.45L45.69 77.23L45.73 77L45.77 76.77L45.81 76.55L45.85 76.32L45.93 75.88L45.98 75.65L46.06 75.21L46.11 74.99L46.15 74.77L46.2 74.55L46.24 74.33L46.29 74.11L46.34 73.89L46.38 73.67L46.43 73.45L46.48 73.24L46.39 73.17L46.31 73.11L46.22 73.05L46.13 72.98L46.05 72.92L45.96 72.86L45.88 72.79L45.79 72.73L45.7 72.66L45.62 72.6L45.53 72.53L45.45 72.46L45.36 72.4L45.28 72.33L45.19 72.26L45.11 72.19L45.03 72.13L44.94 72.06L44.86 71.99L44.77 71.92L44.69 71.85L44.61 71.78L44.52 71.71L44.36 71.57L44.28 71.5L44.19 71.43L44.11 71.35L44.03 71.28L43.95 71.21L43.86 71.14L43.78 71.06L43.62 70.92L43.54 70.84L43.46 70.77L43.38 70.69L43.3 70.62L43.22 70.54L43.14 70.46L42.34 69.67L41.58 68.86L40.86 68.03L40.17 67.18L39.52 66.31L38.9 65.43L38.32 64.53L37.78 63.62L37.27 62.69L36.81 61.75L36.37 60.8L35.98 59.85L35.62 58.88L35.3 57.91L35.02 56.93L34.77 55.95L34.56 54.96L34.39 53.97L34.26 52.98L34.16 51.99L34.11 51L34.09 50.01L34.11 49.03L34.16 48.05L34.26 47.08L34.39 46.12L34.56 45.16L34.77 44.21L35.02 43.28L35.31 42.35L35.63 41.44L36 40.54L36.4 39.66L36.84 38.79L37.32 37.94L37.84 37.12L38.4 36.31L39 35.52L39.64 34.75L40.32 34.01L40.98 33.34L41.67 32.71L42.38 32.11L43.11 31.55L43.85 31.02L44.62 30.52L45.4 30.05L46.2 29.62L47.02 29.23L47.85 28.86L48.69 28.53L49.55 28.23L50.42 27.97L51.3 27.74L52.18 27.54L53.08 27.38L53.98 27.25L54.9 27.15L55.81 27.08L56.74 27.05L57.66 27.05L58.59 27.09L59.52 27.16L60.45 27.26L61.38 27.39L62.32 27.56L63.24 27.75L64.17 27.99L65.09 28.25L66.01 28.55L66.92 28.88L67.83 29.24L68.72 29.64L69.61 30.07L70.49 30.53L71.36 31.02L72.21 31.55L73.06 32.11L73.89 32.7L74.71 33.32L76.43 32.33L78.19 31.39L79.98 30.51L81.78 29.68L83.62 28.91L85.47 28.2L87.34 27.55L89.23 26.96L91.13 26.42L93.05 25.93L94.99 25.51L96.93 25.14L98.88 24.83L100.84 24.57L102.8 24.37L104.77 24.23L106.74 24.14L108.71 24.1L110.68 24.13L112.64 24.21ZM104.67 85.96L103.42 85.97L102.18 85.98L100.96 85.99L98.56 86.03L97.38 86.04L96.21 86.06L95.05 86.09L93.9 86.11L91.62 86.17L90.49 86.2L89.37 86.24L88.25 86.27L87.13 86.31L86.02 86.36L84.9 86.41L82.68 86.51L80.44 86.63L79.32 86.7L78.19 86.77L77.05 86.84L75.91 86.92L74.76 87.01L73.61 87.09L72.44 87.19L71.26 87.28L70.07 87.39L68.87 87.49L67.65 87.61L66.42 87.72L65.17 87.85L63.9 87.98L62.62 88.11L61.32 88.25L60 88.4L59.05 88.57L58.19 88.84L57.41 89.21L56.71 89.67L56.08 90.22L55.54 90.85L55.06 91.56L54.66 92.34L54.33 93.18L54.06 94.08L53.86 95.04L53.73 96.04L53.65 97.09L53.63 98.17L53.67 99.28L53.77 100.42L53.92 101.58L54.12 102.75L54.37 103.93L54.66 105.11L55 106.29L55.39 107.46L55.81 108.62L56.27 109.76L56.77 110.87L57.3 111.95L57.87 112.99L58.46 113.99L59.09 114.94L59.74 115.84L60.41 116.68L61.11 117.45L61.83 118.16L62.56 118.78L63.31 119.32L64.08 119.78L64.85 120.14L65.64 120.4L66.43 120.56L67.23 120.61L159.15 122.02L159.67 121.88L160.18 121.63L160.67 121.29L161.16 120.87L161.63 120.35L162.08 119.76L162.53 119.1L162.95 118.37L163.36 117.58L163.74 116.73L164.11 115.82L164.46 114.87L164.78 113.88L165.08 112.85L165.36 111.79L165.62 110.71L165.84 109.6L166.04 108.48L166.21 107.35L166.35 106.21L166.47 105.07L166.55 103.94L166.59 102.82L166.61 101.71L166.59 100.62L166.53 99.56L166.44 98.54L166.31 97.55L166.14 96.6L165.93 95.69L165.68 94.84L165.38 94.05L165.05 93.32L164.67 92.66L164.24 92.08L163.77 91.57L163.25 91.14L162.68 90.8L162.07 90.56L161.4 90.42L160.07 90.27L158.73 90.12L157.38 89.96L156.03 89.81L154.68 89.65L153.33 89.5L151.97 89.35L150.61 89.19L149.24 89.04L147.87 88.89L146.5 88.74L143.76 88.44L142.39 88.29L141.01 88.15L139.64 88L138.26 87.87L136.89 87.73L135.51 87.6L134.14 87.47L132.76 87.34L131.39 87.22L128.65 86.98L127.28 86.87L125.92 86.77L124.55 86.67L123.2 86.57L121.84 86.48L119.14 86.32L117.79 86.25L116.45 86.19L115.12 86.13L113.79 86.08L112.47 86.04L111.15 86L109.83 85.97L108.53 85.96L107.23 85.94L105.94 85.95L104.67 85.96Z" id="b2xjXX7Kl"></path><path d="M112.64 24.21L114.6 24.34L116.56 24.53L118.5 24.78L120.43 25.08L122.36 25.43L124.27 25.84L126.16 26.31L128.04 26.83L129.89 27.41L131.73 28.04L133.54 28.72L135.33 29.46L137.1 30.25L138.84 31.1L140.54 32L142.22 32.96L143.86 33.97L145.47 35.03L147.04 36.15L148.58 37.32L149.25 36.77L149.94 36.24L150.65 35.74L151.36 35.26L152.09 34.82L152.82 34.4L153.57 34.02L154.32 33.66L155.08 33.33L155.85 33.03L156.62 32.75L157.4 32.51L158.18 32.29L158.96 32.1L159.75 31.94L160.54 31.81L161.33 31.71L162.11 31.64L162.9 31.59L163.69 31.57L164.47 31.59L165.25 31.63L166.02 31.7L166.79 31.8L167.55 31.92L168.31 32.08L169.05 32.26L169.79 32.48L170.52 32.72L171.23 32.99L171.94 33.29L172.63 33.62L173.31 33.98L173.98 34.37L174.63 34.79L175.26 35.24L175.88 35.71L176.48 36.22L177.06 36.75L177.63 37.31L178.18 37.93L178.71 38.56L179.2 39.21L179.67 39.87L180.1 40.56L180.49 41.26L180.86 41.97L181.19 42.7L181.49 43.44L181.76 44.19L181.99 44.95L182.2 45.72L182.37 46.51L182.51 47.29L182.62 48.09L182.7 48.89L182.75 49.7L182.76 50.51L182.75 51.32L182.7 52.14L182.62 52.95L182.51 53.77L182.37 54.59L182.2 55.4L181.99 56.21L181.76 57.02L181.5 57.82L181.2 58.61L180.88 59.4L180.52 60.19L180.13 60.96L179.72 61.72L179.27 62.48L178.79 63.22L178.29 63.95L177.75 64.66L177.18 65.36L176.59 66.05L175.96 66.72L175.3 67.37L175.15 67.51L174.99 67.66L174.84 67.8L174.68 67.94L174.53 68.08L174.37 68.22L174.21 68.35L174.05 68.49L173.89 68.62L173.73 68.75L173.41 69.01L173.24 69.13L173.08 69.26L172.92 69.38L172.58 69.62L172.42 69.74L172.08 69.98L171.23 70.53L171.06 70.63L170.89 70.74L170.72 70.84L170.54 70.94L170.37 71.04L170.2 71.14L170.02 71.24L169.84 71.33L169.67 71.42L169.49 71.51L169.32 71.6L168.96 71.78L168.78 71.86L168.6 71.95L168.64 72.2L168.68 72.44L168.76 72.94L168.79 73.19L168.83 73.44L168.86 73.69L168.9 73.94L168.93 74.2L168.99 74.7L169.02 74.96L169.05 75.21L169.08 75.47L169.1 75.72L169.13 75.98L169.15 76.24L169.18 76.49L169.2 76.75L169.22 77.01L169.25 77.27L169.27 77.53L169.28 77.79L169.3 78.05L169.32 78.32L169.34 78.58L169.35 78.84L169.37 79.11L169.38 79.37L169.39 79.63L169.4 79.9L169.42 80.17L169.43 80.43L169.43 80.7L169.44 80.97L169.45 81.24L169.45 81.51L169.46 81.78L169.46 82.05L169.47 82.32L169.47 100.67L169.7 102.78L169.88 104.85L169.99 106.86L170.04 108.82L170.04 110.74L169.98 112.6L169.86 114.41L169.68 116.18L169.45 117.9L169.17 119.57L168.84 121.19L168.45 122.77L168.01 124.3L167.53 125.79L166.99 127.23L166.41 128.63L165.79 129.99L165.11 131.31L164.4 132.58L163.64 133.81L162.84 135L161.99 136.15L161.11 137.26L160.19 138.33L159.23 139.37L158.23 140.36L157.2 141.32L156.13 142.24L155.03 143.12L153.9 143.97L152.73 144.78L151.54 145.56L150.31 146.31L149.06 147.02L147.78 147.7L146.47 148.35L145.13 148.96L143.77 149.55L142.39 150.1L140.99 150.62L141.23 150.71L141.3 150.74L141.54 150.83L141.62 150.85L141.86 150.94L141.94 150.96L142.18 151.05L142.26 151.07L142.34 151.1L142.42 151.12L142.58 151.18L142.66 151.2L142.74 151.23L142.82 151.25L142.9 151.28L142.98 151.3L143.06 151.33L143.14 151.35L143.22 151.37L143.3 151.4L143.38 151.42L143.46 151.44L143.54 151.47L143.62 151.49L143.7 151.51L143.78 151.53L143.86 151.56L143.94 151.58L144.02 151.6L144.18 151.64L144.9 151.81L145.62 151.97L146.35 152.1L147.07 152.21L147.8 152.3L148.53 152.37L149.25 152.42L149.98 152.46L150.71 152.47L151.45 152.47L152.18 152.45L152.91 152.41L153.64 152.36L154.37 152.29L155.1 152.21L155.83 152.11L156.56 152L157.29 151.87L158.01 151.73L158.74 151.57L159.46 151.41L160.18 151.23L160.9 151.04L161.62 150.84L163.04 150.4L163.75 150.17L165.15 149.67L165.85 149.41L166.54 149.15L167.23 148.87L167.91 148.59L168.59 148.3L169.27 148L169.94 147.7L170.6 147.4L171.26 147.09L171.92 146.77L172.57 146.45L172.76 146.4L172.94 146.34L173.12 146.29L173.29 146.24L173.45 146.19L173.61 146.14L173.77 146.09L173.92 146.04L174.06 145.99L174.21 145.95L174.35 145.91L174.48 145.86L174.62 145.83L174.88 145.75L175.01 145.72L175.13 145.69L175.26 145.66L175.38 145.63L175.64 145.59L175.76 145.57L175.89 145.55L176.02 145.54L176.15 145.53L176.28 145.53L176.42 145.52L176.55 145.52L176.69 145.53L177.14 145.56L177.29 145.58L177.46 145.6L177.62 145.63L177.79 145.66L177.97 145.7L178.16 145.74L178.35 145.79L178.54 145.84L178.68 145.88L178.75 145.9L178.89 145.94L178.96 145.97L179.03 145.99L179.1 146.02L179.16 146.05L179.23 146.08L179.3 146.1L179.37 146.13L179.43 146.16L179.5 146.19L179.56 146.23L179.63 146.26L179.7 146.29L179.76 146.32L179.83 146.36L179.89 146.39L179.96 146.43L180.02 146.46L180.09 146.49L180.15 146.53L180.22 146.56L180.28 146.6L180.35 146.63L180.41 146.67L180.48 146.7L180.54 146.74L180.61 146.77L180.67 146.81L180.74 146.84L180.8 146.88L180.87 146.91L180.93 146.94L181 146.97L181.06 147.01L181.13 147.04L181.2 147.07L183.16 149.21L184.07 151.98L184.07 152.05L184.06 152.12L184.06 152.27L184.05 152.34L184.05 152.56L184.04 152.64L184.04 153.15L184.03 153.23L184.03 153.52L184.02 153.6L184.02 153.74L184.01 153.82L184.01 153.89L184 153.96L184 154.03L183.99 154.11L183.98 154.18L183.96 154.32L183.95 154.4L183.92 154.61L183.9 154.68L183.89 154.76L183.87 154.83L183.85 154.9L183.75 155.28L183.69 155.46L183.64 155.64L183.52 155.96L183.4 156.26L183.34 156.4L183.22 156.66L183.15 156.79L183.09 156.91L183.02 157.02L182.95 157.13L182.88 157.24L182.8 157.35L182.73 157.45L182.65 157.55L182.57 157.65L182.49 157.75L182.4 157.85L182.31 157.94L182.22 158.04L182.13 158.13L182.04 158.23L181.94 158.32L181.74 158.52L181.63 158.62L181.52 158.72L181.41 158.83L181.29 158.93L181.17 159.04L180.93 159.28L180.8 159.4L180.66 159.53L180.39 159.8L179.78 160.2L179.16 160.61L178.55 161.01L177.93 161.41L177.3 161.8L176.67 162.19L175.41 162.95L174.13 163.69L173.49 164.05L172.84 164.41L172.19 164.76L171.53 165.1L170.88 165.44L170.21 165.77L169.55 166.09L168.88 166.41L168.21 166.72L167.54 167.02L166.86 167.32L166.18 167.61L165.5 167.89L164.81 168.16L164.12 168.42L163.43 168.67L162.73 168.92L162.03 169.16L160.63 169.6L159.92 169.81L159.21 170.01L158.49 170.2L157.78 170.38L157.05 170.54L156.33 170.7L155.61 170.85L154.88 170.98L154.14 171.11L153.41 171.22L153.36 171.23L153.3 171.24L153.26 171.24L153.21 171.25L153.19 171.25L153.15 171.26L153.13 171.26L153.08 171.27L153.06 171.27L153.02 171.28L153 171.28L152.96 171.29L152.89 171.29L152.87 171.3L152.83 171.3L152.81 171.31L152.76 171.31L152.72 171.32L152.66 171.32L152.61 171.33L152.57 171.33L152.55 171.34L152.73 171.66L152.91 171.99L153.09 172.32L153.28 172.64L153.46 172.97L153.64 173.3L153.81 173.63L153.99 173.96L154.17 174.3L154.35 174.63L154.52 174.96L154.7 175.29L154.87 175.63L155.04 175.96L155.22 176.3L155.39 176.63L155.56 176.97L155.73 177.3L155.9 177.63L156.07 177.97L156.23 178.3L156.4 178.64L156.56 178.97L156.73 179.31L156.89 179.64L157.06 179.97L157.22 180.31L157.38 180.64L157.54 180.97L157.7 181.3L157.85 181.63L158.17 182.29L158.32 182.62L158.48 182.95L158.63 183.27L158.78 183.6L158.93 183.92L159.08 184.25L159.23 184.57L159.95 184.34L161.41 183.9L162.13 183.68L162.86 183.47L163.59 183.25L164.32 183.04L165.05 182.83L165.78 182.63L166.51 182.42L167.24 182.22L167.98 182.02L169.44 181.62L170.18 181.43L170.91 181.24L172.39 180.86L173.12 180.67L175.34 180.13L176.08 179.95L176.82 179.77L177.56 179.6L178.3 179.42L179.04 179.25L179.78 179.08L180.52 178.92L181.26 178.75L182 178.59L182.75 178.43L183.49 178.27L184.23 178.11L184.98 177.95L185.72 177.8L186.47 177.65L187.21 177.5L187.96 177.35L188.7 177.2L189.08 177.13L189.5 177.05L189.95 176.97L190.44 176.88L190.96 176.8L191.51 176.7L192.08 176.61L192.68 176.51L193.29 176.41L193.93 176.31L194.58 176.2L195.25 176.1L195.93 175.99L196.62 175.89L197.31 175.78L198 175.67L198.7 175.56L199.4 175.46L200.09 175.35L200.77 175.25L201.45 175.14L202.11 175.04L202.76 174.95L203.4 174.85L204.01 174.76L204.61 174.67L205.18 174.58L205.72 174.5L206.24 174.42L206.72 174.35L207.17 174.28L207.58 174.21L207.95 174.16L208.29 174.1L208.57 174.06L208.82 174.02L209.01 173.98L209.15 173.96L209.27 173.93L209.29 173.8L209.32 173.66L209.35 173.52L209.39 173.38L209.44 173.24L209.49 173.09L209.54 172.95L209.6 172.81L209.66 172.66L209.73 172.52L209.81 172.38L209.88 172.24L209.96 172.1L210.05 171.96L210.13 171.83L210.22 171.69L210.31 171.56L210.51 171.32L210.61 171.2L210.71 171.08L210.81 170.98L210.91 170.87L211.02 170.77L211.13 170.68L211.23 170.6L211.34 170.52L211.56 170.38L211.67 170.33L211.78 170.28L211.89 170.24L211.99 170.21L212.1 170.19L212.21 170.18L212.41 170.18L212.52 170.2L212.62 170.23L212.71 170.28L212.96 170.43L213.2 170.65L213.46 170.94L213.71 171.28L213.97 171.67L214.22 172.12L214.48 172.61L214.74 173.15L215 173.72L215.26 174.34L215.52 174.99L215.78 175.67L216.03 176.37L216.29 177.1L216.54 177.85L216.78 178.62L217.03 179.4L217.26 180.19L217.5 180.98L217.94 182.58L218.16 183.37L218.36 184.16L218.56 184.93L218.75 185.69L218.93 186.43L219.1 187.15L219.27 187.85L219.42 188.51L219.56 189.15L219.69 189.75L219.8 190.31L219.91 190.83L220 191.3L220.08 191.72L220.14 192.09L220.19 192.41L220.22 192.67L220.24 192.86L220.24 192.99L220.11 193.3L219.76 193.68L219.21 194.12L218.46 194.62L217.53 195.17L216.42 195.78L215.15 196.43L213.72 197.13L212.14 197.87L210.43 198.65L208.59 199.46L206.62 200.31L204.55 201.19L202.38 202.09L200.12 203.02L197.78 203.97L195.37 204.94L192.9 205.92L190.37 206.91L187.8 207.91L185.2 208.92L182.58 209.93L179.94 210.94L174.66 212.94L172.04 213.93L169.44 214.91L166.87 215.87L164.35 216.81L161.88 217.73L159.48 218.63L157.14 219.49L154.89 220.33L152.73 221.13L150.66 221.9L148.71 222.62L146.88 223.3L145.18 223.94L143.61 224.52L142.19 225.06L141.74 225.3L141.26 225.54L140.78 225.78L140.28 226.02L139.76 226.25L139.23 226.48L138.69 226.71L138.14 226.93L137.58 227.15L137 227.37L136.42 227.58L135.82 227.78L135.21 227.99L134.6 228.18L133.34 228.56L132.7 228.74L132.05 228.91L130.73 229.23L130.06 229.38L129.39 229.52L128.71 229.66L128.03 229.79L127.34 229.9L126.65 230.01L125.95 230.11L125.26 230.2L124.56 230.29L123.85 230.36L123.15 230.42L122.45 230.47L121.74 230.51L121.04 230.54L120.33 230.55L119.63 230.56L118.93 230.55L118.23 230.53L117.53 230.5L116.84 230.46L116.83 230.55L116.82 230.65L116.81 230.74L116.8 230.84L116.78 230.94L116.77 231.03L116.74 231.33L116.73 231.43L116.71 231.63L116.7 231.73L116.68 231.93L116.67 232.04L116.65 232.24L116.64 232.35L116.63 232.45L116.62 232.56L116.61 232.66L116.61 232.77L116.6 232.87L116.59 232.98L116.57 233.2L116.56 233.3L116.56 233.41L116.55 233.52L116.54 233.63L116.53 233.74L116.53 233.85L116.52 233.96L116.51 234.08L116.5 234.19L116.5 234.3L116.49 234.42L116.48 234.53L116.48 234.64L116.45 235.45L116.44 236.24L116.46 237.03L116.5 237.81L116.57 238.57L116.65 239.33L116.76 240.08L116.89 240.83L117.03 241.56L117.19 242.28L117.37 243L117.56 243.7L117.98 245.08L118.21 245.75L118.45 246.42L118.7 247.07L118.96 247.72L119.5 248.98L120.06 250.2L120.34 250.79L120.63 251.37L120.92 251.94L121.2 252.51L121.49 253.06L122.05 254.12L122.33 254.64L122.6 255.15L122.86 255.64L123.12 256.12L123.36 256.59L123.6 257.05L123.83 257.5L124.04 257.94L124.24 258.36L124.43 258.77L124.6 259.17L124.76 259.58L124.91 259.97L125.03 260.33L125.14 260.68L125.22 261L125.29 261.3L125.35 261.58L125.39 261.85L125.41 262.09L125.42 262.32L125.42 262.53L125.4 262.72L125.37 262.9L125.33 263.07L125.28 263.21L125.22 263.35L125.16 263.47L125.08 263.58L125 263.68L124.91 263.77L124.81 263.85L124.72 263.91L124.61 263.97L124.51 264.03L124.29 264.11L124.07 264.17L123.96 264.19L123.85 264.2L123.75 264.22L123.55 264.24L123.46 264.25L123.37 264.26L123.21 264.28L123.15 264.29L123.09 264.3L123.04 264.32L122.92 264.36L122.73 264.4L122.48 264.45L122.16 264.5L121.79 264.56L121.37 264.62L120.89 264.68L120.36 264.75L119.79 264.81L119.18 264.88L118.54 264.95L117.86 265.01L117.15 265.08L116.41 265.14L115.65 265.2L114.87 265.26L114.07 265.32L113.26 265.37L111.62 265.45L110.79 265.49L109.96 265.52L108.32 265.56L107.52 265.57L106.73 265.56L105.95 265.55L105.2 265.53L104.48 265.5L103.78 265.46L103.11 265.41L102.48 265.34L101.89 265.27L101.34 265.17L100.84 265.07L100.38 264.95L99.98 264.82L99.63 264.67L99.35 264.5L99.12 264.32L99.06 264.24L99.01 264.15L98.99 264.06L98.99 263.96L99 263.85L99.03 263.74L99.08 263.63L99.14 263.51L99.22 263.38L99.31 263.26L99.41 263.13L99.51 262.99L99.63 262.86L99.75 262.72L99.88 262.58L100.02 262.44L100.3 262.16L100.44 262.02L100.58 261.88L100.72 261.74L100.86 261.61L100.99 261.47L101.12 261.34L101.24 261.21L101.36 261.08L101.56 260.84L101.65 260.73L101.72 260.62L101.78 260.52L101.82 260.42L101.85 260.33L101.86 260.24L101.86 260.16L101.83 260.09L101.78 260.03L101.71 259.98L101.62 259.93L101.5 259.9L100.67 259.65L99.82 259.33L98.96 258.92L98.1 258.43L97.24 257.86L96.37 257.22L95.51 256.5L94.66 255.71L93.82 254.85L92.99 253.93L92.19 252.94L91.4 251.88L90.64 250.76L89.9 249.59L89.2 248.36L88.54 247.07L87.91 245.73L87.32 244.34L86.78 242.9L86.29 241.41L85.85 239.88L85.47 238.31L85.14 236.7L84.88 235.05L84.69 233.36L84.56 231.64L84.51 229.89L84.53 228.11L84.63 226.3L84.82 224.47L85.09 222.61L85.46 220.73L85.91 218.84L86.47 216.92L87.12 214.99L87.88 213.05L88.74 211.1L89.72 209.14L90.81 207.18L92.01 205.21L91.83 204.64L91.66 204.06L91.48 203.48L91.31 202.89L91.14 202.3L90.98 201.7L90.66 200.48L90.51 199.87L90.36 199.25L90.22 198.62L90.08 197.99L89.95 197.35L89.69 196.07L89.57 195.42L89.35 194.1L89.25 193.44L89.15 192.77L89.06 192.09L88.97 191.42L88.89 190.73L88.81 190.05L88.75 189.35L88.68 188.66L88.58 187.26L88.54 186.55L88.5 185.84L88.48 185.12L88.45 184.4L88.44 183.68L88.44 182.22L88.45 181.49L88.46 180.75L88.49 180.01L88.52 179.26L88.56 178.51L88.6 177.83L88.62 177.16L88.64 176.51L88.65 175.87L88.65 175.23L88.64 174.61L88.62 174L88.61 173.4L88.58 172.81L88.56 172.23L88.53 171.65L88.5 171.08L88.44 169.96L88.41 169.41L88.39 168.85L88.37 168.31L88.35 167.76L88.34 167.21L88.33 166.67L88.33 166.12L88.34 165.58L88.36 165.03L88.39 164.48L88.43 163.92L88.55 162.8L88.63 162.23L88.72 161.65L88.83 161.07L88.96 160.48L89.1 159.88L89.27 159.27L89.45 158.66L89.65 158.03L89.87 157.39L90.12 156.73L90.39 156.07L90.68 155.38L91 154.69L88.96 154.4L86.93 154.08L84.92 153.71L82.93 153.31L80.97 152.86L79.04 152.36L77.13 151.82L75.26 151.24L73.42 150.6L71.61 149.92L69.84 149.19L68.12 148.41L66.43 147.57L64.79 146.68L63.19 145.74L61.65 144.74L60.16 143.68L58.71 142.56L57.33 141.38L56 140.15L54.73 138.85L53.53 137.48L52.39 136.05L51.31 134.56L50.31 133L49.37 131.37L48.51 129.67L47.73 127.9L47.02 126.05L46.39 124.14L45.84 122.15L45.38 120.08L45.01 117.94L44.72 115.71L44.52 113.41L44.42 111.03L44.41 108.57L44.51 106.02L44.7 103.39L44.99 100.67L44.99 82.32L45.01 82.08L45.04 81.85L45.07 81.61L45.09 81.38L45.12 81.14L45.15 80.91L45.18 80.67L45.21 80.44L45.24 80.21L45.27 79.97L45.3 79.74L45.33 79.51L45.37 79.28L45.43 78.82L45.47 78.59L45.5 78.36L45.54 78.13L45.58 77.91L45.61 77.68L45.65 77.45L45.69 77.23L45.73 77L45.77 76.77L45.81 76.55L45.85 76.32L45.93 75.88L45.98 75.65L46.06 75.21L46.11 74.99L46.15 74.77L46.2 74.55L46.24 74.33L46.29 74.11L46.34 73.89L46.38 73.67L46.43 73.45L46.48 73.24L46.39 73.17L46.31 73.11L46.22 73.05L46.13 72.98L46.05 72.92L45.96 72.86L45.88 72.79L45.79 72.73L45.7 72.66L45.62 72.6L45.53 72.53L45.45 72.46L45.36 72.4L45.28 72.33L45.19 72.26L45.11 72.19L45.03 72.13L44.94 72.06L44.86 71.99L44.77 71.92L44.69 71.85L44.61 71.78L44.52 71.71L44.36 71.57L44.28 71.5L44.19 71.43L44.11 71.35L44.03 71.28L43.95 71.21L43.86 71.14L43.78 71.06L43.62 70.92L43.54 70.84L43.46 70.77L43.38 70.69L43.3 70.62L43.22 70.54L43.14 70.46L42.34 69.67L41.58 68.86L40.86 68.03L40.17 67.18L39.52 66.31L38.9 65.43L38.32 64.53L37.78 63.62L37.27 62.69L36.81 61.75L36.37 60.8L35.98 59.85L35.62 58.88L35.3 57.91L35.02 56.93L34.77 55.95L34.56 54.96L34.39 53.97L34.26 52.98L34.16 51.99L34.11 51L34.09 50.01L34.11 49.03L34.16 48.05L34.26 47.08L34.39 46.12L34.56 45.16L34.77 44.21L35.02 43.28L35.31 42.35L35.63 41.44L36 40.54L36.4 39.66L36.84 38.79L37.32 37.94L37.84 37.12L38.4 36.31L39 35.52L39.64 34.75L40.32 34.01L40.98 33.34L41.67 32.71L42.38 32.11L43.11 31.55L43.85 31.02L44.62 30.52L45.4 30.05L46.2 29.62L47.02 29.23L47.85 28.86L48.69 28.53L49.55 28.23L50.42 27.97L51.3 27.74L52.18 27.54L53.08 27.38L53.98 27.25L54.9 27.15L55.81 27.08L56.74 27.05L57.66 27.05L58.59 27.09L59.52 27.16L60.45 27.26L61.38 27.39L62.32 27.56L63.24 27.75L64.17 27.99L65.09 28.25L66.01 28.55L66.92 28.88L67.83 29.24L68.72 29.64L69.61 30.07L70.49 30.53L71.36 31.02L72.21 31.55L73.06 32.11L73.89 32.7L74.71 33.32L76.43 32.33L78.19 31.39L79.98 30.51L81.78 29.68L83.62 28.91L85.47 28.2L87.34 27.55L89.23 26.96L91.13 26.42L93.05 25.93L94.99 25.51L96.93 25.14L98.88 24.83L100.84 24.57L102.8 24.37L104.77 24.23L106.74 24.14L108.71 24.1L110.68 24.13L112.64 24.21ZM104.67 85.96L103.42 85.97L102.18 85.98L100.96 85.99L98.56 86.03L97.38 86.04L96.21 86.06L95.05 86.09L93.9 86.11L91.62 86.17L90.49 86.2L89.37 86.24L88.25 86.27L87.13 86.31L86.02 86.36L84.9 86.41L82.68 86.51L80.44 86.63L79.32 86.7L78.19 86.77L77.05 86.84L75.91 86.92L74.76 87.01L73.61 87.09L72.44 87.19L71.26 87.28L70.07 87.39L68.87 87.49L67.65 87.61L66.42 87.72L65.17 87.85L63.9 87.98L62.62 88.11L61.32 88.25L60 88.4L59.05 88.57L58.19 88.84L57.41 89.21L56.71 89.67L56.08 90.22L55.54 90.85L55.06 91.56L54.66 92.34L54.33 93.18L54.06 94.08L53.86 95.04L53.73 96.04L53.65 97.09L53.63 98.17L53.67 99.28L53.77 100.42L53.92 101.58L54.12 102.75L54.37 103.93L54.66 105.11L55 106.29L55.39 107.46L55.81 108.62L56.27 109.76L56.77 110.87L57.3 111.95L57.87 112.99L58.46 113.99L59.09 114.94L59.74 115.84L60.41 116.68L61.11 117.45L61.83 118.16L62.56 118.78L63.31 119.32L64.08 119.78L64.85 120.14L65.64 120.4L66.43 120.56L67.23 120.61L159.15 122.02L159.67 121.88L160.18 121.63L160.67 121.29L161.16 120.87L161.63 120.35L162.08 119.76L162.53 119.1L162.95 118.37L163.36 117.58L163.74 116.73L164.11 115.82L164.46 114.87L164.78 113.88L165.08 112.85L165.36 111.79L165.62 110.71L165.84 109.6L166.04 108.48L166.21 107.35L166.35 106.21L166.47 105.07L166.55 103.94L166.59 102.82L166.61 101.71L166.59 100.62L166.53 99.56L166.44 98.54L166.31 97.55L166.14 96.6L165.93 95.69L165.68 94.84L165.38 94.05L165.05 93.32L164.67 92.66L164.24 92.08L163.77 91.57L163.25 91.14L162.68 90.8L162.07 90.56L161.4 90.42L160.07 90.27L158.73 90.12L157.38 89.96L156.03 89.81L154.68 89.65L153.33 89.5L151.97 89.35L150.61 89.19L149.24 89.04L147.87 88.89L146.5 88.74L143.76 88.44L142.39 88.29L141.01 88.15L139.64 88L138.26 87.87L136.89 87.73L135.51 87.6L134.14 87.47L132.76 87.34L131.39 87.22L128.65 86.98L127.28 86.87L125.92 86.77L124.55 86.67L123.2 86.57L121.84 86.48L119.14 86.32L117.79 86.25L116.45 86.19L115.12 86.13L113.79 86.08L112.47 86.04L111.15 86L109.83 85.97L108.53 85.96L107.23 85.94L105.94 85.95L104.67 85.96Z" id="a2jYDwg8Jl"></path><path d="M168.99 71.25C169.35 73.42 169.62 75.63 169.8 77.88C169.8 79.01 169.8 88.01 169.8 89.13C130.23 82.54 88.55 82.84 45.03 89.14C45.03 88.01 45.03 79.01 45.03 77.88C45.3 75.63 45.65 73.43 46.07 71.27C87.99 62.89 128.98 63.07 168.99 71.25" id="a8bUKOwr0"></path><path d="M168.99 71.25C169.35 73.42 169.62 75.63 169.8 77.88C169.8 79.01 169.8 88.01 169.8 89.13C130.23 82.54 88.55 82.84 45.03 89.14C45.03 88.01 45.03 79.01 45.03 77.88C45.3 75.63 45.65 73.43 46.07 71.27C87.99 62.89 128.98 63.07 168.99 71.25" id="cGx2gRP3I"></path><path d="M139.52 148.61C142.42 148.98 141.98 153.99 141.33 158.2C139.56 169.69 132.73 180.02 124.09 188.22C116.84 195.08 108.16 201.08 98.64 202.98C95.96 203.52 93.07 203.82 90.59 202.86C88.89 202.2 88.61 199.33 90.44 198.47C91.06 198.18 91.77 198.27 92.47 198.43C96.4 199.33 100.56 197.78 104.32 196.09C116.25 190.75 126.46 180.94 132.34 169.9C135.4 164.15 137.28 157.66 136.94 151.11C136.94 151.11 137.36 148.52 139.52 148.61" id="fRsdEPm0Q"></path><path d="M139.52 148.61C142.42 148.98 141.98 153.99 141.33 158.2C139.56 169.69 132.73 180.02 124.09 188.22C116.84 195.08 108.16 201.08 98.64 202.98C95.96 203.52 93.07 203.82 90.59 202.86C88.89 202.2 88.61 199.33 90.44 198.47C91.06 198.18 91.77 198.27 92.47 198.43C96.4 199.33 100.56 197.78 104.32 196.09C116.25 190.75 126.46 180.94 132.34 169.9C135.4 164.15 137.28 157.66 136.94 151.11C136.94 151.11 137.36 148.52 139.52 148.61" id="a1nnhxMAvh"></path><path d="M156.76 178.88C157.94 179.02 160.74 183.83 159.6 185.77C159.48 185.96 159.36 186.16 159.24 186.35C152.41 197.37 139.42 203.3 127 206.54C117.95 208.91 108.55 210.3 99.31 209.3C96.21 208.97 92.97 208.37 90.79 206.31C90.79 206.31 89.2 204.41 89.51 202.51C89.96 199.7 93.65 197.89 96.2 199.67C97.81 200.79 99.95 200.8 102.09 200.91C110.84 201.39 119.72 200.01 128.11 197.3C135.1 195.05 145.26 188.28 156.76 178.88" id="b1mrg5G3e0"></path><path d="M156.76 178.88C157.94 179.02 160.74 183.83 159.6 185.77C159.48 185.96 159.36 186.16 159.24 186.35C152.41 197.37 139.42 203.3 127 206.54C117.95 208.91 108.55 210.3 99.31 209.3C96.21 208.97 92.97 208.37 90.79 206.31C90.79 206.31 89.2 204.41 89.51 202.51C89.96 199.7 93.65 197.89 96.2 199.67C97.81 200.79 99.95 200.8 102.09 200.91C110.84 201.39 119.72 200.01 128.11 197.3C135.1 195.05 145.26 188.28 156.76 178.88" id="b1nit85OWO"></path><path d="M98.95 198.91C102.02 199.16 104.12 203.1 102.12 205.77C99.5 209.25 97.51 213.43 98.22 217.76C98.44 219.09 98.86 220.38 99.38 221.62C99.93 224.51 91.63 226.57 91.09 224.03C89.47 216.31 89.44 208.23 94.54 201.51C95.54 200.19 96.74 199.02 98.4 198.91C98.76 198.88 98.84 198.9 98.95 198.91" id="c6Cfjknsku"></path><path d="M98.95 198.91C102.02 199.16 104.12 203.1 102.12 205.77C99.5 209.25 97.51 213.43 98.22 217.76C98.44 219.09 98.86 220.38 99.38 221.62C99.93 224.51 91.63 226.57 91.09 224.03C89.47 216.31 89.44 208.23 94.54 201.51C95.54 200.19 96.74 199.02 98.4 198.91C98.76 198.88 98.84 198.9 98.95 198.91" id="bhVsK9Rjj"></path><path d="M98.79 198.9C99.57 198.94 99.8 199.02 100.23 199.19C102.23 199.96 103.03 202.25 102.9 204.52C102.47 212.54 103.15 220.59 103.59 228.62C103.69 230.45 95.23 231.38 95.07 229.81C94.93 228.48 94.96 227.07 94.91 225.66C94.61 218.17 93.88 210.67 94.37 203.25C94.37 203.25 94.55 201.2 95.73 200.08C96.39 199.45 97.25 199.04 98.16 198.93C98.57 198.88 98.66 198.9 98.79 198.9" id="c40VR11tS"></path><path d="M98.79 198.9C99.57 198.94 99.8 199.02 100.23 199.19C102.23 199.96 103.03 202.25 102.9 204.52C102.47 212.54 103.15 220.59 103.59 228.62C103.69 230.45 95.23 231.38 95.07 229.81C94.93 228.48 94.96 227.07 94.91 225.66C94.61 218.17 93.88 210.67 94.37 203.25C94.37 203.25 94.55 201.2 95.73 200.08C96.39 199.45 97.25 199.04 98.16 198.93C98.57 198.88 98.66 198.9 98.79 198.9" id="ckw1CjYxM"></path><path d="M252.42 92.16C253.65 92.62 254.05 92.63 255.04 93.55C256.85 95.23 257.39 98.18 256.2 100.42C255.57 101.61 255.2 101.75 254.19 102.59C230.96 117.17 45.15 233.82 21.92 248.4C20.73 248.95 20.44 249.23 19.09 249.27C15.64 249.4 12.48 245.85 13.3 242.28C13.63 240.83 14.66 239.68 15.83 238.71C39.06 224.13 224.87 107.47 248.1 92.89C249.45 92.27 249.46 92.27 250.93 92.02C251.43 92.07 251.92 92.12 252.42 92.16" id="aq9UaheVk"></path><path d="M252.42 92.16C253.65 92.62 254.05 92.63 255.04 93.55C256.85 95.23 257.39 98.18 256.2 100.42C255.57 101.61 255.2 101.75 254.19 102.59C230.96 117.17 45.15 233.82 21.92 248.4C20.73 248.95 20.44 249.23 19.09 249.27C15.64 249.4 12.48 245.85 13.3 242.28C13.63 240.83 14.66 239.68 15.83 238.71C39.06 224.13 224.87 107.47 248.1 92.89C249.45 92.27 249.46 92.27 250.93 92.02C251.43 92.07 251.92 92.12 252.42 92.16" id="a34znuIgjv"></path><path d="M184.43 146.5C173.27 153.52 84 209.66 72.84 216.68C70.83 217.42 66.8 210.59 66.68 206.47C89 192.47 155.96 150.47 178.28 136.46C182.13 137.48 184.99 142.8 184.43 146.5Z" id="d2g5eqlqSP"></path><path d="M184.43 146.5C173.27 153.52 84 209.66 72.84 216.68C70.83 217.42 66.8 210.59 66.68 206.47C89 192.47 155.96 150.47 178.28 136.46C182.13 137.48 184.99 142.8 184.43 146.5Z" id="c5ijEpa76i"></path><path d="M96.54 145.42C96.54 145.42 100.09 168.63 96.43 171.23C91.66 174.63 86.99 178.23 82.78 182.76C80.51 185.21 77.98 188.1 78.35 191.25C78.54 192.89 79.5 194.35 80.57 195.62C80.57 195.62 80.57 195.62 80.57 195.62C81.9 197.93 82.64 198.5 82.61 201.27C82.6 202.25 82.25 203.19 82.07 204.14C81.96 204.3 81.43 205.11 80.47 206.56C78.99 207.51 78.17 208.03 78 208.13C77.04 208.3 76.09 208.65 75.11 208.64C72.34 208.61 71.8 207.85 69.54 206.46C63.32 200.78 59.84 192.15 62.07 183.27C64.16 174.96 69.89 168.18 75.78 162.32C75.79 162.3 75.93 162.16 75.95 162.14C82.4 155.91 89.7 150.51 96.54 145.42" id="g5W4bwPLd"></path><path d="M96.54 145.42C96.54 145.42 100.09 168.63 96.43 171.23C91.66 174.63 86.99 178.23 82.78 182.76C80.51 185.21 77.98 188.1 78.35 191.25C78.54 192.89 79.5 194.35 80.57 195.62C80.57 195.62 80.57 195.62 80.57 195.62C81.9 197.93 82.64 198.5 82.61 201.27C82.6 202.25 82.25 203.19 82.07 204.14C81.96 204.3 81.43 205.11 80.47 206.56C78.99 207.51 78.17 208.03 78 208.13C77.04 208.3 76.09 208.65 75.11 208.64C72.34 208.61 71.8 207.85 69.54 206.46C63.32 200.78 59.84 192.15 62.07 183.27C64.16 174.96 69.89 168.18 75.78 162.32C75.79 162.3 75.93 162.16 75.95 162.14C82.4 155.91 89.7 150.51 96.54 145.42" id="b73xxfHsb"></path></defs><g><g><g><use xlink:href="#a42r2gKvWR" opacity="1" fill="#797979" fill-opacity="1"></use><g><use xlink:href="#a42r2gKvWR" opacity="1" fill-opacity="0" stroke="#000000" stroke-width="1" stroke-opacity="0"></use></g></g><g><use xlink:href="#gj0JMLHgo" opacity="1" fill="#000000" fill-opacity="0"></use><g><use xlink:href="#gj0JMLHgo" opacity="1" fill-opacity="0" stroke="#000000" stroke-width="1" stroke-opacity="0"></use></g></g><g><use xlink:href="#c1ezmRMwY" opacity="1" fill="#797979" fill-opacity="1"></use><g><use xlink:href="#c1ezmRMwY" opacity="1" fill-opacity="0" stroke="#000000" stroke-width="1" stroke-opacity="0"></use></g></g><g><use xlink:href="#cs6K55e65" opacity="1" fill="#000000" fill-opacity="0"></use><g><use xlink:href="#cs6K55e65" opacity="1" fill-opacity="0" stroke="#000000" stroke-width="1" stroke-opacity="0"></use></g></g><g><use xlink:href="#a1sXX8SrnT" opacity="1" fill="#d7d5d3" fill-opacity="1"></use><g><use xlink:href="#a1sXX8SrnT" opacity="1" fill-opacity="0" stroke="#000000" stroke-width="1" stroke-opacity="0"></use></g></g><g><use xlink:href="#a1HOue1Dq" opacity="1" fill="#000000" fill-opacity="0"></use><g><use xlink:href="#a1HOue1Dq" opacity="1" fill-opacity="0" stroke="#000000" stroke-width="1" stroke-opacity="0"></use></g></g><g><use xlink:href="#a1JyefKsNU" opacity="1" fill="#1f2633" fill-opacity="1"></use><g><use xlink:href="#a1JyefKsNU" opacity="1" fill-opacity="0" stroke="#000000" stroke-width="1" stroke-opacity="0"></use></g></g><g><use xlink:href="#bMJTvuhSo" opacity="1" fill="#000000" fill-opacity="0"></use><g><use xlink:href="#bMJTvuhSo" opacity="1" fill-opacity="0" stroke="#000000" stroke-width="1" stroke-opacity="0"></use></g></g><g><use xlink:href="#cnrh8SKYw" opacity="1" fill="#1f2633" fill-opacity="1"></use><g><use xlink:href="#cnrh8SKYw" opacity="1" fill-opacity="0" stroke="#000000" stroke-width="1" stroke-opacity="0"></use></g></g><g><use xlink:href="#eEJWHVUQl" opacity="1" fill="#000000" fill-opacity="0"></use><g><use xlink:href="#eEJWHVUQl" opacity="1" fill-opacity="0" stroke="#000000" stroke-width="1" stroke-opacity="0"></use></g></g><g><use xlink:href="#ej4KmLlCv" opacity="1" fill="#1f2633" fill-opacity="1"></use><g><use xlink:href="#ej4KmLlCv" opacity="1" fill-opacity="0" stroke="#000000" stroke-width="1" stroke-opacity="0"></use></g></g><g><use xlink:href="#c35t4n45ND" opacity="1" fill="#000000" fill-opacity="0"></use><g><use xlink:href="#c35t4n45ND" opacity="1" fill-opacity="0" stroke="#000000" stroke-width="1" stroke-opacity="0"></use></g></g><g><use xlink:href="#bGT9HeMAN" opacity="1" fill="#636363" fill-opacity="1"></use><g><use xlink:href="#bGT9HeMAN" opacity="1" fill-opacity="0" stroke="#000000" stroke-width="1" stroke-opacity="0"></use></g></g><g><use xlink:href="#aC6dyD7rB" opacity="1" fill="#000000" fill-opacity="0"></use><g><use xlink:href="#aC6dyD7rB" opacity="1" fill-opacity="0" stroke="#000000" stroke-width="1" stroke-opacity="0"></use></g></g><g><use xlink:href="#e1pcq60opR" opacity="1" fill="#636363" fill-opacity="1"></use><g><use xlink:href="#e1pcq60opR" opacity="1" fill-opacity="0" stroke="#000000" stroke-width="1" stroke-opacity="0"></use></g></g><g><use xlink:href="#b2lR4vAorI" opacity="1" fill="#000000" fill-opacity="0"></use><g><use xlink:href="#b2lR4vAorI" opacity="1" fill-opacity="0" stroke="#000000" stroke-width="1" stroke-opacity="0"></use></g></g><g><use xlink:href="#bdNC12Z0c" opacity="1" fill="#ffffff" fill-opacity="1"></use><g><use xlink:href="#bdNC12Z0c" opacity="1" fill-opacity="0" stroke="#000000" stroke-width="1" stroke-opacity="0"></use></g></g><g><use xlink:href="#f1UDYAA3F6" opacity="1" fill="#000000" fill-opacity="0"></use><g><use xlink:href="#f1UDYAA3F6" opacity="1" fill-opacity="0" stroke="#000000" stroke-width="1" stroke-opacity="0"></use></g></g><g><use xlink:href="#bP5piAIh" opacity="1" fill="#ffffff" fill-opacity="1"></use><g><use xlink:href="#bP5piAIh" opacity="1" fill-opacity="0" stroke="#000000" stroke-width="1" stroke-opacity="0"></use></g></g><g><use xlink:href="#dIsp3gL1G" opacity="1" fill="#000000" fill-opacity="0"></use><g><use xlink:href="#dIsp3gL1G" opacity="1" fill-opacity="0" stroke="#000000" stroke-width="1" stroke-opacity="0"></use></g></g><g><use xlink:href="#b2xjXX7Kl" opacity="1" fill="#323940" fill-opacity="1"></use><g><use xlink:href="#b2xjXX7Kl" opacity="1" fill-opacity="0" stroke="#000000" stroke-width="1" stroke-opacity="0"></use></g></g><g><use xlink:href="#a2jYDwg8Jl" opacity="1" fill="#000000" fill-opacity="0"></use><g><use xlink:href="#a2jYDwg8Jl" opacity="1" fill-opacity="0" stroke="#000000" stroke-width="1" stroke-opacity="0"></use></g></g><g><use xlink:href="#a8bUKOwr0" opacity="1" fill="#797979" fill-opacity="1"></use><g><use xlink:href="#a8bUKOwr0" opacity="1" fill-opacity="0" stroke="#000000" stroke-width="1" stroke-opacity="0"></use></g></g><g><use xlink:href="#cGx2gRP3I" opacity="1" fill="#000000" fill-opacity="0"></use><g><use xlink:href="#cGx2gRP3I" opacity="1" fill-opacity="0" stroke="#000000" stroke-width="1" stroke-opacity="0"></use></g></g><g><use xlink:href="#fRsdEPm0Q" opacity="1" fill="#dba425" fill-opacity="1"></use><g><use xlink:href="#fRsdEPm0Q" opacity="1" fill-opacity="0" stroke="#000000" stroke-width="1" stroke-opacity="0"></use></g></g><g><use xlink:href="#a1nnhxMAvh" opacity="1" fill="#000000" fill-opacity="0"></use><g><use xlink:href="#a1nnhxMAvh" opacity="1" fill-opacity="0" stroke="#000000" stroke-width="1" stroke-opacity="0"></use></g></g><g><use xlink:href="#b1mrg5G3e0" opacity="1" fill="#a9a9a9" fill-opacity="1"></use><g><use xlink:href="#b1mrg5G3e0" opacity="1" fill-opacity="0" stroke="#000000" stroke-width="1" stroke-opacity="0"></use></g></g><g><use xlink:href="#b1nit85OWO" opacity="1" fill="#000000" fill-opacity="0"></use><g><use xlink:href="#b1nit85OWO" opacity="1" fill-opacity="0" stroke="#000000" stroke-width="1" stroke-opacity="0"></use></g></g><g><use xlink:href="#c6Cfjknsku" opacity="1" fill="#a9a9a9" fill-opacity="1"></use><g><use xlink:href="#c6Cfjknsku" opacity="1" fill-opacity="0" stroke="#000000" stroke-width="1" stroke-opacity="0"></use></g></g><g><use xlink:href="#bhVsK9Rjj" opacity="1" fill="#000000" fill-opacity="0"></use><g><use xlink:href="#bhVsK9Rjj" opacity="1" fill-opacity="0" stroke="#000000" stroke-width="1" stroke-opacity="0"></use></g></g><g><use xlink:href="#c40VR11tS" opacity="1" fill="#a9a9a9" fill-opacity="1"></use><g><use xlink:href="#c40VR11tS" opacity="1" fill-opacity="0" stroke="#000000" stroke-width="1" stroke-opacity="0"></use></g></g><g><use xlink:href="#ckw1CjYxM" opacity="1" fill="#000000" fill-opacity="0"></use><g><use xlink:href="#ckw1CjYxM" opacity="1" fill-opacity="0" stroke="#000000" stroke-width="1" stroke-opacity="0"></use></g></g><g><use xlink:href="#aq9UaheVk" opacity="1" fill="#b56a00" fill-opacity="1"></use><g><use xlink:href="#aq9UaheVk" opacity="1" fill-opacity="0" stroke="#000000" stroke-width="1" stroke-opacity="0"></use></g></g><g><use xlink:href="#a34znuIgjv" opacity="1" fill="#000000" fill-opacity="0"></use><g><use xlink:href="#a34znuIgjv" opacity="1" fill-opacity="0" stroke="#000000" stroke-width="1" stroke-opacity="0"></use></g></g><g><use xlink:href="#d2g5eqlqSP" opacity="1" fill="#8d8984" fill-opacity="1"></use><g><use xlink:href="#d2g5eqlqSP" opacity="1" fill-opacity="0" stroke="#000000" stroke-width="1" stroke-opacity="0"></use></g></g><g><use xlink:href="#c5ijEpa76i" opacity="1" fill="#000000" fill-opacity="0"></use><g><use xlink:href="#c5ijEpa76i" opacity="1" fill-opacity="0" stroke="#000000" stroke-width="1" stroke-opacity="0"></use></g></g><g><use xlink:href="#g5W4bwPLd" opacity="1" fill="#323940" fill-opacity="1"></use><g><use xlink:href="#g5W4bwPLd" opacity="1" fill-opacity="0" stroke="#000000" stroke-width="1" stroke-opacity="0"></use></g></g><g><use xlink:href="#b73xxfHsb" opacity="1" fill="#000000" fill-opacity="0"></use><g><use xlink:href="#b73xxfHsb" opacity="1" fill-opacity="0" stroke="#000000" stroke-width="1" stroke-opacity="0"></use></g></g></g></g></svg>