<?xml version="1.0" encoding="UTF-8" standalone="no"?>
<!DOCTYPE svg PUBLIC "-//W3C//DTD SVG 1.1//EN" "http://www.w3.org/Graphics/SVG/1.1/DTD/svg11.dtd">
<svg version="1.1" xmlns="http://www.w3.org/2000/svg" xmlns:xlink="http://www.w3.org/1999/xlink" preserveAspectRatio="xMidYMid meet" viewBox="0 0 270 270" width="270" height="270"><defs><path d="M83.23 210.51L82.91 211.56C82.98 212.22 83.02 212.59 83.03 212.67C83.36 213.25 83.54 213.57 83.57 213.64C84.32 214.22 84.5 214.53 85.49 214.63C86.81 214.76 87.48 214.28 88.36 214.01C107.95 208.09 126.43 199.74 144.79 190.24C159.92 182.41 174.53 173.73 188.38 164.02C197.55 157.58 191.08 148.93 182.65 155.44C164.42 169.53 144.16 181.52 123.9 191.97C111.24 198.49 98.26 204.49 84.9 209.08C84.8 209.13 84.01 209.59 83.91 209.65C83.68 209.94 83.46 210.22 83.23 210.51" id="b1tGUduKCG"></path><path d="M83.23 210.51L82.91 211.56C82.98 212.22 83.02 212.59 83.03 212.67C83.36 213.25 83.54 213.57 83.57 213.64C84.32 214.22 84.5 214.53 85.49 214.63C86.81 214.76 87.48 214.28 88.36 214.01C107.95 208.09 126.43 199.74 144.79 190.24C159.92 182.41 174.53 173.73 188.38 164.02C197.55 157.58 191.08 148.93 182.65 155.44C164.42 169.53 144.16 181.52 123.9 191.97C111.24 198.49 98.26 204.49 84.9 209.08C84.8 209.13 84.01 209.59 83.91 209.65C83.68 209.94 83.46 210.22 83.23 210.51" id="d1lweMNqg2"></path><path d="M180.46 146.21C177.42 148.67 178.65 155.23 183.2 160.86C187.75 166.48 193.92 169.05 196.96 166.59C200 164.14 198.78 157.57 194.22 151.95C189.67 146.32 183.51 143.76 180.46 146.21" id="a3QhkBtLZ"></path><path d="M180.46 146.21C177.42 148.67 178.65 155.23 183.2 160.86C187.75 166.48 193.92 169.05 196.96 166.59C200 164.14 198.78 157.57 194.22 151.95C189.67 146.32 183.51 143.76 180.46 146.21" id="a1LTz4RNd1"></path><path d="M186.64 152.3C185.48 153.23 192.05 161.41 193.87 160.06C201.15 154.64 208.24 148.71 214.5 142.47C214.58 142.35 214.99 141.72 215.72 140.59C215.75 140.44 215.88 139.73 216.12 138.45L215.69 136.32C214.93 135.19 214.51 134.57 214.43 134.45C213.3 133.72 212.68 133.31 212.55 133.23C210.43 132.83 210.4 132.83 208.28 133.26C208.09 133.39 206.6 134.39 206.42 134.51C200.24 140.78 193.6 146.7 186.64 152.3" id="a16Qn4mq"></path><path d="M186.64 152.3C185.48 153.23 192.05 161.41 193.87 160.06C201.15 154.64 208.24 148.71 214.5 142.47C214.58 142.35 214.99 141.72 215.72 140.59C215.75 140.44 215.88 139.73 216.12 138.45L215.69 136.32C214.93 135.19 214.51 134.57 214.43 134.45C213.3 133.72 212.68 133.31 212.55 133.23C210.43 132.83 210.4 132.83 208.28 133.26C208.09 133.39 206.6 134.39 206.42 134.51C200.24 140.78 193.6 146.7 186.64 152.3" id="cq9IelH9A"></path><path d="M201 210.51L201.31 211.56C201.24 212.22 201.21 212.59 201.2 212.67C200.87 213.25 200.69 213.57 200.65 213.64C199.91 214.22 199.73 214.53 198.73 214.63C197.42 214.76 196.74 214.28 195.87 214.01C176.27 208.09 157.79 199.74 139.44 190.24C124.31 182.41 109.69 173.73 95.84 164.02C86.67 157.58 93.15 148.93 101.57 155.44C119.8 169.53 140.07 181.52 160.33 191.97C172.98 198.49 185.96 204.49 199.33 209.08C199.43 209.13 200.22 209.59 200.32 209.65C200.54 209.94 200.77 210.22 201 210.51" id="aVZm6fpBF"></path><path d="M201 210.51L201.31 211.56C201.24 212.22 201.21 212.59 201.2 212.67C200.87 213.25 200.69 213.57 200.65 213.64C199.91 214.22 199.73 214.53 198.73 214.63C197.42 214.76 196.74 214.28 195.87 214.01C176.27 208.09 157.79 199.74 139.44 190.24C124.31 182.41 109.69 173.73 95.84 164.02C86.67 157.58 93.15 148.93 101.57 155.44C119.8 169.53 140.07 181.52 160.33 191.97C172.98 198.49 185.96 204.49 199.33 209.08C199.43 209.13 200.22 209.59 200.32 209.65C200.54 209.94 200.77 210.22 201 210.51" id="a5BJO81I1Y"></path><path d="M103.76 146.21C106.81 148.67 105.58 155.23 101.03 160.86C96.47 166.48 90.31 169.05 87.27 166.59C84.22 164.14 85.45 157.57 90 151.95C94.56 146.32 100.72 143.76 103.76 146.21" id="a1iGzyDVw5"></path><path d="M103.76 146.21C106.81 148.67 105.58 155.23 101.03 160.86C96.47 166.48 90.31 169.05 87.27 166.59C84.22 164.14 85.45 157.57 90 151.95C94.56 146.32 100.72 143.76 103.76 146.21" id="b5IerBYkKg"></path><path d="M97.58 152.3C98.75 153.23 92.18 161.41 90.36 160.06C83.08 154.64 75.99 148.71 69.73 142.47C69.65 142.35 69.24 141.72 68.5 140.59C68.47 140.44 68.34 139.73 68.11 138.45L68.54 136.32C69.29 135.19 69.71 134.57 69.79 134.45C70.92 133.72 71.55 133.31 71.67 133.23C73.8 132.83 73.83 132.83 75.95 133.26C76.13 133.39 77.62 134.39 77.81 134.51C83.99 140.78 90.62 146.7 97.58 152.3" id="a1JaSaekFI"></path><path d="M97.58 152.3C98.75 153.23 92.18 161.41 90.36 160.06C83.08 154.64 75.99 148.71 69.73 142.47C69.65 142.35 69.24 141.72 68.5 140.59C68.47 140.44 68.34 139.73 68.11 138.45L68.54 136.32C69.29 135.19 69.71 134.57 69.79 134.45C70.92 133.72 71.55 133.31 71.67 133.23C73.8 132.83 73.83 132.83 75.95 133.26C76.13 133.39 77.62 134.39 77.81 134.51C83.99 140.78 90.62 146.7 97.58 152.3" id="nvdTLqCpR"></path><path d="M84.1 81.31C76.22 83.15 69.72 85.47 61.29 83.13C59.07 82.52 46.72 75.6 45.78 75.89C45.54 75.97 45.66 76.67 45.68 76.84C46.11 79.92 41.14 91.39 50.09 95.97C56.87 99.45 88.64 84.5 88.42 78.73" id="aaG6ApyZE"></path><path d="M84.1 81.31C76.22 83.15 69.72 85.47 61.29 83.13C59.07 82.52 46.72 75.6 45.78 75.89C45.54 75.97 45.66 76.67 45.68 76.84C46.11 79.92 41.14 91.39 50.09 95.97C56.87 99.45 88.64 84.5 88.42 78.73" id="aX77YU1ae"></path><path d="M83.13 79.85C78.41 86.42 75.05 92.44 67.16 96.23C65.09 97.22 51.23 100.14 50.72 100.98C50.59 101.2 51.13 101.64 51.26 101.75C53.62 103.8 57.43 115.7 67.19 113.26C74.58 111.41 88.65 79.26 84.68 75.06" id="a5gam6AVkF"></path><path d="M83.13 79.85C78.41 86.42 75.05 92.44 67.16 96.23C65.09 97.22 51.23 100.14 50.72 100.98C50.59 101.2 51.13 101.64 51.26 101.75C53.62 103.8 57.43 115.7 67.19 113.26C74.58 111.41 88.65 79.26 84.68 75.06" id="b252lCS3fU"></path><path d="M187.99 134.9C203.04 131.31 207.35 81.74 199.21 80.84C163.28 76.85 124.83 76.55 86.83 80.84C73.3 82.37 79.18 130.2 90.25 131.17C90.25 131.17 120.76 153.44 140.55 152.81C163.42 152.07 187.99 134.9 187.99 134.9" id="bXh8gM51l"></path><path d="M187.99 134.9C203.04 131.31 207.35 81.74 199.21 80.84C163.28 76.85 124.83 76.55 86.83 80.84C73.3 82.37 79.18 130.2 90.25 131.17C90.25 131.17 120.76 153.44 140.55 152.81C163.42 152.07 187.99 134.9 187.99 134.9" id="btWXQB943"></path><path d="M128.19 92.57C132.58 96.02 132.16 109.76 124.41 118.95C116.66 128.14 113.24 139.09 98.89 126.68C91.84 120.59 88.73 107.6 96.48 98.41C104.23 89.22 123.92 89.21 128.19 92.57" id="c2ns2C5WSH"></path><path d="M128.19 92.57C132.58 96.02 132.16 109.76 124.41 118.95C116.66 128.14 113.24 139.09 98.89 126.68C91.84 120.59 88.73 107.6 96.48 98.41C104.23 89.22 123.92 89.21 128.19 92.57" id="d1S0dCLTUS"></path><path d="M158.68 92.57C154.29 96.02 154.71 109.76 162.46 118.95C170.21 128.14 173.63 139.09 187.98 126.68C195.03 120.59 198.14 107.6 190.39 98.41C182.64 89.22 162.95 89.21 158.68 92.57" id="a1jVCdsAtk"></path><path d="M158.68 92.57C154.29 96.02 154.71 109.76 162.46 118.95C170.21 128.14 173.63 139.09 187.98 126.68C195.03 120.59 198.14 107.6 190.39 98.41C182.64 89.22 162.95 89.21 158.68 92.57" id="c11IHubYix"></path><path d="M144.3 132.24C141.57 132.24 134.76 121.22 136.12 119.02C137.48 116.82 151.12 116.82 152.48 119.02C153.85 121.22 147.03 132.24 144.3 132.24" id="b3zgDLgvR"></path><path d="M144.3 132.24C141.57 132.24 134.76 121.22 136.12 119.02C137.48 116.82 151.12 116.82 152.48 119.02C153.85 121.22 147.03 132.24 144.3 132.24" id="aA6zQjcP7"></path><path d="M112.34 101.7C115.96 101.7 118.9 104.64 118.9 108.26C118.9 111.88 115.96 114.82 112.34 114.82C108.72 114.82 105.77 111.88 105.77 108.26C105.77 104.64 108.72 101.7 112.34 101.7" id="c1PU0mceK"></path><path d="M112.34 101.7C115.96 101.7 118.9 104.64 118.9 108.26C118.9 111.88 115.96 114.82 112.34 114.82C108.72 114.82 105.77 111.88 105.77 108.26C105.77 104.64 108.72 101.7 112.34 101.7" id="bkEInfXQ1"></path><path d="M174.53 101.7C170.91 101.7 167.96 104.64 167.96 108.26C167.96 111.88 170.91 114.82 174.53 114.82C178.15 114.82 181.09 111.88 181.09 108.26C181.09 104.64 178.15 101.7 174.53 101.7" id="dpApsaODS"></path><path d="M174.53 101.7C170.91 101.7 167.96 104.64 167.96 108.26C167.96 111.88 170.91 114.82 174.53 114.82C178.15 114.82 181.09 111.88 181.09 108.26C181.09 104.64 178.15 101.7 174.53 101.7" id="c1Nxc0UpFk"></path><path d="M115.1 102.31C116.61 102.31 117.83 103.53 117.83 105.03C117.83 106.53 116.61 107.75 115.1 107.75C113.6 107.75 112.38 106.53 112.38 105.03C112.38 103.53 113.6 102.31 115.1 102.31" id="cFU1UniJ1"></path><path d="M115.1 102.31C116.61 102.31 117.83 103.53 117.83 105.03C117.83 106.53 116.61 107.75 115.1 107.75C113.6 107.75 112.38 106.53 112.38 105.03C112.38 103.53 113.6 102.31 115.1 102.31" id="a15j2gD08Q"></path><path d="M171.77 102.31C170.26 102.31 169.04 103.53 169.04 105.03C169.04 106.53 170.26 107.75 171.77 107.75C173.27 107.75 174.49 106.53 174.49 105.03C174.49 103.53 173.27 102.31 171.77 102.31" id="beY9xkoCB"></path><path d="M171.77 102.31C170.26 102.31 169.04 103.53 169.04 105.03C169.04 106.53 170.26 107.75 171.77 107.75C173.27 107.75 174.49 106.53 174.49 105.03C174.49 103.53 173.27 102.31 171.77 102.31" id="a10JFydHyV"></path><path d="M192.65 26.5L193.56 26.59L194.47 26.7L195.37 26.85L196.26 27.04L197.13 27.25L198 27.51L198.86 27.79L199.71 28.11L200.54 28.47L201.35 28.86L202.16 29.28L202.94 29.74L203.71 30.23L204.46 30.76L205.18 31.32L205.89 31.91L206.58 32.54L207.24 33.2L207.9 33.92L208.52 34.67L209.1 35.43L209.65 36.22L210.15 37.02L210.62 37.85L211.05 38.69L211.44 39.54L211.8 40.42L212.11 41.3L212.39 42.2L212.63 43.11L212.84 44.03L213 44.96L213.13 45.9L213.22 46.84L213.28 47.79L213.3 48.75L213.28 49.7L213.22 50.67L213.13 51.63L213 52.59L212.83 53.55L212.63 54.51L212.39 55.46L212.12 56.41L211.81 57.36L211.46 58.3L211.07 59.23L210.65 60.15L210.2 61.06L209.71 61.96L209.18 62.85L208.62 63.72L208.02 64.58L207.39 65.42L206.72 66.25L206.01 67.05L205.28 67.84L204.5 68.61L204.47 68.64L204.44 68.67L204.41 68.69L204.29 68.81L204.26 68.83L204.2 68.89L204.17 68.92L204.14 68.95L204.11 68.97L203.99 69.09L203.96 69.11L203.93 69.14L203.9 69.17L203.87 69.2L203.84 69.22L203.81 69.25L203.77 69.28L203.74 69.31L203.71 69.33L203.65 69.39L203.62 69.41L203.56 69.47L203.53 69.49L203.44 69.58L203.41 69.6L203.37 69.63L203.34 69.66L203.31 69.68L203.28 69.71L203.38 70.09L203.48 70.47L203.57 70.86L203.66 71.24L203.93 72.41L204.01 72.8L204.09 73.19L204.17 73.59L204.25 73.99L204.32 74.38L204.39 74.78L204.46 75.19L204.53 75.59L204.59 75.99L204.71 76.81L204.77 77.22L204.83 77.63L204.88 78.04L204.93 78.46L204.98 78.87L205.02 79.29L205.1 80.13L205.14 80.56L205.18 80.98L205.21 81.41L205.24 81.83L205.27 82.26L205.29 82.69L205.32 83.13L205.34 83.56L205.36 84L205.37 84.43L205.38 84.87L205.4 85.75L205.41 86.2L205.41 105.01L205.63 107L205.8 108.94L205.92 110.84L205.99 112.7L206 114.52L205.97 116.29L205.89 118.02L205.76 119.71L205.58 121.35L205.35 122.96L205.08 124.52L204.76 126.05L204.4 127.53L204 128.98L203.55 130.39L203.06 131.75L202.53 133.09L201.96 134.38L201.35 135.64L200.7 136.86L200.02 138.04L199.29 139.19L198.53 140.3L197.74 141.38L196.91 142.43L196.05 143.44L195.15 144.42L194.22 145.36L193.27 146.27L192.28 147.16L191.26 148L190.21 148.82L189.13 149.61L188.03 150.37L186.9 151.1L185.75 151.79L184.57 152.46L183.37 153.11L182.14 153.72L180.89 154.31L181.21 154.29L181.52 154.28L181.84 154.26L182.15 154.23L182.47 154.21L183.11 154.15L183.42 154.11L183.74 154.08L184.06 154.03L184.37 153.99L184.69 153.94L185 153.88L185.32 153.83L185.63 153.76L185.94 153.7L186.25 153.62L186.55 153.55L186.86 153.46L187.16 153.38L187.46 153.28L187.75 153.19L188.04 153.08L188.62 152.86L188.9 152.73L189.17 152.61L189.45 152.47L189.72 152.33L190.24 152.03L190.49 151.86L190.74 151.7L190.98 151.52L191.22 151.33L191.45 151.14L191.68 150.94L191.9 150.74L192.11 150.52L192.32 150.3L192.48 150.08L192.6 149.92L192.71 149.76L192.82 149.61L193.02 149.31L193.12 149.17L193.22 149.03L193.4 148.77L193.48 148.64L193.57 148.52L193.65 148.4L193.74 148.28L193.82 148.17L193.9 148.06L193.98 147.95L194.07 147.85L194.15 147.74L194.23 147.64L194.32 147.54L194.41 147.45L194.5 147.35L194.59 147.26L194.69 147.17L194.79 147.08L194.89 146.99L195 146.9L195.11 146.81L195.22 146.73L195.35 146.64L195.47 146.56L195.6 146.48L195.74 146.39L196.04 146.23L196.2 146.14L196.36 146.06L196.54 145.98L196.72 145.89L196.91 145.81L197.12 145.72L197.19 145.7L197.26 145.67L197.33 145.65L197.4 145.62L197.47 145.6L197.54 145.58L197.62 145.56L197.69 145.54L197.76 145.52L197.83 145.51L197.91 145.49L197.98 145.47L198.05 145.46L198.13 145.44L198.2 145.43L198.27 145.41L198.35 145.4L198.42 145.38L198.5 145.37L198.57 145.36L198.65 145.34L198.72 145.33L198.79 145.32L198.87 145.31L198.94 145.29L199.02 145.28L199.09 145.27L199.17 145.25L199.31 145.23L199.39 145.21L199.46 145.2L199.53 145.18L199.61 145.17L199.68 145.15L199.75 145.13L199.83 145.12L199.97 145.14L200.12 145.17L200.19 145.18L200.34 145.2L200.41 145.21L200.56 145.24L200.63 145.25L200.71 145.26L200.85 145.28L201.07 145.32L201.51 145.39L201.66 145.41L201.8 145.44L201.88 145.45L201.95 145.46L202.1 145.49L202.24 145.51L202.39 145.53L202.46 145.55L202.61 145.57L202.76 145.59L202.76 145.6L205.28 147.26L205.32 147.32L205.37 147.38L205.41 147.44L205.45 147.5L205.5 147.56L205.54 147.62L205.59 147.69L205.63 147.75L205.68 147.81L205.72 147.87L205.77 147.93L205.82 147.99L205.86 148.05L205.91 148.11L205.96 148.17L206 148.23L206.05 148.29L206.09 148.35L206.14 148.41L206.18 148.47L206.23 148.53L206.27 148.59L206.32 148.65L206.36 148.71L206.41 148.77L206.45 148.84L206.49 148.9L206.53 148.96L206.57 149.02L206.61 149.09L206.65 149.15L206.69 149.22L206.73 149.28L206.77 149.35L206.8 149.41L206.84 149.48L206.87 149.54L206.93 149.68L206.97 149.75L207.05 149.94L207.12 150.12L207.19 150.3L207.26 150.48L207.32 150.65L207.37 150.81L207.42 150.97L207.47 151.13L207.51 151.28L207.54 151.42L207.57 151.57L207.6 151.71L207.62 151.85L207.64 151.98L207.65 152.12L207.66 152.25L207.67 152.38L207.67 152.77L207.66 152.9L207.66 153.04L207.64 153.17L207.63 153.3L207.62 153.44L207.6 153.57L207.58 153.71L207.56 153.85L207.54 154L207.52 154.14L207.49 154.29L207.47 154.45L207.41 154.77L207.39 154.94L207.36 155.11L207.33 155.29L207.27 155.67L207.25 155.87L207.04 156.45L206.81 157.03L206.56 157.59L206.3 158.15L206.01 158.7L205.7 159.24L205.38 159.77L205.04 160.28L204.69 160.79L204.32 161.3L203.93 161.79L203.53 162.27L203.11 162.74L202.68 163.2L202.24 163.66L201.79 164.1L201.32 164.53L200.84 164.95L200.36 165.37L199.86 165.77L199.36 166.16L198.84 166.55L198.32 166.92L197.79 167.28L197.26 167.63L196.71 167.97L196.17 168.3L195.62 168.62L195.06 168.93L194.5 169.23L193.94 169.52L193.37 169.8L192.81 170.06L192.24 170.32L191.67 170.56L191.1 170.79L190.54 171.02L189.97 171.23L189.41 171.43L188.85 171.61L188.53 171.72L188.21 171.82L187.88 171.92L187.56 172.01L187.24 172.1L186.91 172.19L186.59 172.28L186.26 172.37L185.94 172.45L185.61 172.53L185.28 172.61L184.96 172.69L184.63 172.76L184.3 172.83L183.97 172.9L183.64 172.97L182.98 173.09L182.64 173.15L182.31 173.2L181.98 173.26L181.65 173.31L181.31 173.36L180.98 173.4L180.65 173.45L180.31 173.49L179.98 173.53L179.64 173.56L179.31 173.6L178.97 173.63L178.64 173.66L178.3 173.68L177.96 173.71L177.63 173.73L177.29 173.75L176.96 173.76L176.62 173.78L176.28 173.79L175.95 173.8L175.61 173.81L175.63 173.94L175.65 174.08L175.67 174.22L175.69 174.37L175.72 174.51L175.74 174.65L175.76 174.8L175.78 174.94L175.8 175.09L175.83 175.24L175.85 175.39L175.89 175.69L175.92 175.84L175.94 176L175.96 176.15L175.98 176.31L176.01 176.46L176.05 176.78L176.08 176.94L176.1 177.1L176.12 177.26L176.15 177.43L176.17 177.59L176.19 177.75L176.22 177.92L176.24 178.08L176.27 178.25L176.29 178.42L176.31 178.59L176.34 178.76L176.36 178.93L176.39 179.1L176.41 179.27L176.44 179.44L176.46 179.62L176.48 179.79L176.51 179.97L176.53 180.14L177.32 183.78L178.03 187.31L178.66 190.72L179.23 194.02L179.73 197.22L180.16 200.3L180.52 203.29L180.82 206.17L181.05 208.96L181.22 211.65L181.33 214.25L181.37 216.76L181.36 219.18L181.3 221.51L181.17 223.76L181 225.93L180.77 228.02L180.48 230.04L180.15 231.98L179.77 233.85L179.34 235.65L178.86 237.39L178.34 239.06L177.78 240.68L177.17 242.23L176.53 243.73L175.84 245.17L175.12 246.57L174.36 247.91L173.56 249.21L172.74 250.46L171.87 251.68L170.98 252.85L170.06 253.99L169.11 255.1L168.13 256.17L167.13 257.22L166.1 258.23L165.05 259.23L163.98 260.2L163.86 260.24L163.77 260.29L163.69 260.34L163.65 260.4L163.62 260.48L163.61 260.56L163.62 260.64L163.65 260.74L163.7 260.84L163.76 260.94L163.83 261.06L163.92 261.17L164.02 261.29L164.13 261.42L164.25 261.55L164.37 261.68L164.5 261.82L164.64 261.96L164.78 262.1L164.93 262.24L165.07 262.38L165.22 262.52L165.36 262.67L165.5 262.81L165.64 262.95L165.77 263.1L165.9 263.24L166.02 263.38L166.13 263.51L166.23 263.65L166.32 263.78L166.4 263.9L166.46 264.03L166.51 264.14L166.55 264.26L166.56 264.36L166.56 264.47L166.54 264.56L166.49 264.65L166.43 264.73L166.19 264.92L165.9 265.09L165.54 265.24L165.13 265.38L164.66 265.5L164.15 265.61L163.58 265.7L162.98 265.78L162.33 265.85L161.65 265.9L160.93 265.95L160.19 265.98L159.42 266L158.63 266.01L157.81 266.01L156.99 266L156.15 265.99L155.31 265.96L153.61 265.9L152.76 265.86L151.92 265.81L151.09 265.75L150.27 265.7L149.47 265.64L148.69 265.58L147.94 265.51L147.21 265.44L146.51 265.38L145.85 265.31L145.22 265.24L144.64 265.17L144.1 265.11L143.61 265.04L143.17 264.98L142.79 264.92L142.47 264.87L142.21 264.82L142.01 264.77L141.89 264.73L141.84 264.72L141.79 264.7L141.73 264.69L141.66 264.68L141.59 264.68L141.51 264.67L141.33 264.65L141.24 264.64L141.14 264.63L141.04 264.62L140.94 264.6L140.83 264.58L140.73 264.55L140.62 264.52L140.52 264.49L140.42 264.45L140.31 264.4L140.22 264.35L140.12 264.29L140.03 264.22L139.94 264.14L139.78 263.96L139.71 263.85L139.59 263.61L139.55 263.47L139.51 263.31L139.48 263.15L139.46 262.97L139.45 262.77L139.45 262.57L139.47 262.34L139.5 262.1L139.54 261.85L139.59 261.57L139.66 261.28L139.75 260.98L139.85 260.65L139.35 260.69L138.83 260.74L138.3 260.79L137.75 260.83L137.18 260.88L136.61 260.92L136.02 260.96L135.43 261L134.82 261.04L134.21 261.07L133.6 261.11L132.98 261.14L132.36 261.16L131.73 261.19L131.11 261.21L130.49 261.23L129.87 261.24L129.26 261.25L128.65 261.26L127.46 261.26L126.88 261.25L126.3 261.24L125.75 261.23L125.2 261.2L124.68 261.17L124.17 261.14L123.67 261.1L123.2 261.05L122.75 261L122.32 260.94L121.92 260.88L121.54 260.8L121.19 260.72L120.86 260.63L120.57 260.54L120.3 260.43L120.07 260.32L119.88 260.2L119.71 260.07L119.65 259.99L119.6 259.91L119.58 259.82L119.58 259.72L119.59 259.62L119.62 259.51L119.67 259.4L119.74 259.29L119.81 259.17L119.9 259.05L120 258.92L120.12 258.8L120.36 258.54L120.5 258.4L120.63 258.27L120.77 258.13L120.92 258L121.06 257.86L121.21 257.73L121.35 257.6L121.63 257.34L121.76 257.21L121.89 257.09L122.01 256.97L122.21 256.73L122.3 256.62L122.38 256.52L122.44 256.42L122.48 256.33L122.51 256.24L122.52 256.16L122.52 256.08L122.49 256.01L122.44 255.96L122.37 255.9L122.27 255.86L122.15 255.83L121.38 255.62L120.6 255.35L119.81 255.01L119.02 254.61L118.22 254.15L117.42 253.63L116.62 253.05L115.83 252.42L115.04 251.73L114.27 250.98L113.5 250.18L112.75 249.33L112.02 248.44L111.31 247.49L110.62 246.5L109.96 245.46L109.32 244.37L108.71 243.25L108.14 242.08L107.6 240.88L107.1 239.64L106.64 238.36L106.22 237.04L105.85 235.7L105.53 234.32L105.25 232.91L105.03 231.47L104.87 230.01L104.77 228.52L104.72 227L104.74 225.46L104.83 223.9L104.98 222.32L105.21 220.73L105.51 219.11L105.89 217.48L106.34 215.83L106.88 214.18L107.5 212.51L108.21 210.83L108.22 210.28L108.24 209.73L108.25 209.16L108.28 208.58L108.3 207.99L108.33 207.39L108.41 206.17L108.45 205.55L108.5 204.91L108.55 204.28L108.6 203.63L108.65 202.98L108.71 202.33L108.77 201.67L108.98 199.66L109.05 198.98L109.12 198.3L109.2 197.61L109.28 196.93L109.36 196.24L109.44 195.55L109.62 194.17L109.7 193.48L109.88 192.1L109.98 191.41L110.07 190.72L110.16 190.04L110.26 189.35L110.35 188.67L110.55 187.33L110.64 186.66L110.74 185.99L110.84 185.34L110.94 184.68L110.67 184.97L110.41 185.26L110.14 185.55L109.88 185.84L109.63 186.13L109.37 186.43L109.12 186.72L108.87 187.02L108.62 187.32L108.37 187.63L108.13 187.93L107.65 188.55L107.41 188.86L107.18 189.18L106.94 189.49L106.72 189.81L106.49 190.13L106.27 190.45L106.04 190.78L105.83 191.1L105.61 191.43L105.19 192.09L104.98 192.43L104.78 192.76L104.38 193.44L104.18 193.79L103.99 194.13L103.61 194.83L103.25 195.53L103.07 195.89L102.9 196.24L102.73 196.6L102.56 196.96L102.4 197.33L102.24 197.69L102.24 197.7L102.12 197.86L102.02 198.03L101.91 198.18L101.82 198.34L101.72 198.49L101.63 198.63L101.54 198.77L101.45 198.91L101.29 199.17L101.2 199.3L101.13 199.42L100.97 199.66L100.89 199.77L100.81 199.88L100.73 199.99L100.65 200.09L100.57 200.2L100.49 200.3L100.4 200.4L100.32 200.5L100.04 200.78L99.94 200.87L99.83 200.96L99.73 201.05L99.61 201.14L99.5 201.23L99.11 201.5L98.97 201.58L98.82 201.67L98.5 201.85L98.33 201.94L98.15 202.03L97.96 202.12L97.54 202.3L97.4 202.36L97.12 202.46L96.97 202.51L96.83 202.56L96.53 202.64L96.39 202.68L95.79 202.8L95.64 202.82L95.34 202.86L95.19 202.87L95.04 202.89L94.89 202.9L94.74 202.9L94.59 202.91L94.44 202.91L94.29 202.9L94.14 202.9L93.69 202.87L93.54 202.85L93.4 202.83L93.25 202.81L93.1 202.78L92.96 202.75L92.81 202.72L92.53 202.64L92.38 202.6L92.24 202.56L92.1 202.51L89.54 200.93L89.5 200.87L89.45 200.81L89.41 200.75L89.36 200.69L89.32 200.63L89.22 200.51L89.18 200.46L89.03 200.28L88.99 200.22L88.89 200.1L88.84 200.05L88.8 199.99L88.65 199.81L88.61 199.75L88.51 199.63L88.47 199.57L88.42 199.51L88.38 199.45L88.33 199.39L88.29 199.33L88.24 199.27L88.16 199.15L88.12 199.08L88.08 199.02L88.04 198.96L88 198.89L87.96 198.83L87.92 198.77L87.89 198.7L87.85 198.63L87.82 198.57L87.78 198.5L87.7 198.31L87.61 198.13L87.54 197.95L87.4 197.61L87.34 197.45L87.29 197.29L87.24 197.14L87.2 196.99L87.16 196.84L87.12 196.7L87.06 196.42L87.04 196.28L87.02 196.15L87.01 196.02L87 195.89L86.99 195.75L86.98 195.62L86.98 195.36L86.99 195.23L86.99 195.1L87 194.97L87.02 194.69L87.04 194.55L87.05 194.41L87.07 194.27L87.09 194.12L87.1 193.97L87.14 193.65L87.17 193.49L87.19 193.32L87.21 193.14L87.23 192.96L87.27 192.58L87.29 192.38L87.61 191.33L87.95 190.28L88.31 189.24L88.69 188.21L89.09 187.19L89.51 186.18L89.95 185.18L90.4 184.18L90.87 183.2L91.36 182.22L91.87 181.25L92.39 180.29L92.93 179.35L93.48 178.41L94.05 177.48L94.64 176.56L95.23 175.65L95.85 174.75L96.47 173.86L97.11 172.99L97.77 172.12L98.43 171.26L99.11 170.42L99.8 169.58L100.5 168.76L101.21 167.95L101.94 167.15L102.67 166.36L103.41 165.58L104.16 164.81L104.93 164.06L105.7 163.32L106.48 162.59L107.26 161.88L108.06 161.17L108.86 160.48L109.67 159.8L110.48 159.14L111.31 158.49L112.13 157.85L110.49 157.38L108.87 156.87L107.27 156.33L105.7 155.75L104.16 155.13L102.64 154.48L101.16 153.8L99.7 153.07L98.28 152.3L96.89 151.5L95.54 150.65L94.23 149.76L92.95 148.83L91.71 147.86L90.51 146.84L89.35 145.78L88.24 144.67L87.17 143.52L86.15 142.32L85.17 141.08L84.25 139.78L83.37 138.44L82.55 137.04L81.78 135.6L81.06 134.1L80.4 132.56L79.79 130.95L79.25 129.3L78.76 127.59L78.33 125.83L77.97 124.01L77.67 122.14L77.44 120.2L77.27 118.21L77.17 116.16L77.14 114.05L77.18 111.88L77.29 109.65L77.48 107.36L77.74 105.01L77.74 86.2L77.78 85.83L77.82 85.47L77.86 85.11L77.9 84.74L77.95 84.38L77.99 84.03L78.04 83.67L78.09 83.31L78.14 82.95L78.2 82.6L78.25 82.25L78.3 81.89L78.42 81.19L78.48 80.84L78.54 80.5L78.6 80.15L78.66 79.8L78.73 79.46L78.8 79.12L78.86 78.77L78.93 78.43L79.07 77.75L79.15 77.42L79.22 77.08L79.3 76.74L79.37 76.41L79.45 76.08L79.53 75.75L79.61 75.41L79.7 75.09L79.78 74.76L79.87 74.43L79.95 74.1L80.04 73.78L80.13 73.46L80.22 73.13L80.31 72.81L80.4 72.49L80.14 72.33L80.01 72.24L79.87 72.16L79.74 72.08L79.61 71.99L79.48 71.9L79.35 71.82L79.22 71.73L79.09 71.64L78.96 71.55L78.83 71.46L78.57 71.28L78.44 71.18L78.18 71L78.06 70.9L77.93 70.81L77.8 70.71L77.68 70.61L77.55 70.51L77.42 70.41L77.3 70.32L77.17 70.21L77.05 70.11L76.93 70.01L76.8 69.91L76.68 69.8L76.56 69.7L76.43 69.59L76.31 69.49L76.07 69.27L75.95 69.16L75.35 68.61L74.58 67.84L73.84 67.05L73.13 66.25L72.46 65.42L71.83 64.58L71.23 63.72L70.67 62.85L70.14 61.96L69.65 61.06L69.2 60.15L68.78 59.23L68.39 58.3L68.05 57.36L67.73 56.41L67.46 55.46L67.22 54.51L67.02 53.55L66.85 52.59L66.72 51.63L66.63 50.67L66.57 49.7L66.55 48.75L66.57 47.79L66.63 46.84L66.72 45.9L66.85 44.96L67.01 44.03L67.22 43.11L67.46 42.2L67.74 41.3L68.05 40.42L68.41 39.54L68.8 38.69L69.23 37.85L69.7 37.02L70.2 36.22L70.75 35.43L71.33 34.67L71.95 33.92L72.61 33.2L73.3 32.51L74.02 31.86L74.76 31.24L75.52 30.67L76.3 30.13L77.1 29.62L77.92 29.15L78.76 28.73L79.62 28.33L80.49 27.98L81.38 27.66L82.27 27.38L83.19 27.13L84.11 26.93L85.04 26.76L85.98 26.62L86.93 26.52L87.88 26.46L88.84 26.44L89.8 26.45L90.77 26.5L91.73 26.59L92.7 26.71L93.67 26.87L94.63 27.07L95.6 27.3L96.56 27.57L97.51 27.87L98.46 28.22L99.39 28.59L100.33 29.01L101.25 29.46L102.16 29.94L103.06 30.47L103.94 31.03L104.81 31.62L105.67 32.25L106.5 32.92L107.32 33.62L108.13 34.36L108.15 34.39L108.18 34.41L108.21 34.44L108.23 34.47L108.26 34.49L108.34 34.57L108.37 34.6L108.42 34.65L108.45 34.67L108.47 34.7L108.5 34.73L108.53 34.75L108.55 34.78L108.58 34.8L108.61 34.83L108.63 34.86L108.66 34.88L108.68 34.91L108.71 34.94L108.74 34.96L108.76 34.99L108.79 35.02L108.82 35.04L108.84 35.07L108.87 35.09L108.89 35.12L108.92 35.15L108.95 35.17L108.97 35.2L109.05 35.28L109.07 35.31L109.1 35.33L109.12 35.36L109.15 35.39L109.18 35.41L110.65 34.6L112.13 33.82L113.64 33.08L115.17 32.38L116.71 31.72L118.26 31.1L119.83 30.52L121.41 29.98L123.01 29.48L124.61 29.02L126.23 28.6L127.85 28.21L129.48 27.87L131.12 27.57L132.77 27.3L134.42 27.08L136.08 26.89L137.73 26.74L139.39 26.63L141.06 26.56L142.72 26.53L144.38 26.54L146.04 26.58L147.69 26.66L149.35 26.79L150.99 26.95L152.64 27.15L154.27 27.39L155.9 27.66L157.52 27.98L159.13 28.33L160.72 28.72L162.31 29.15L163.88 29.61L165.44 30.12L166.99 30.66L168.52 31.24L170.03 31.86L171.53 32.51L173 33.21L173.8 32.55L174.61 31.93L175.44 31.34L176.28 30.78L177.14 30.26L178.01 29.77L178.88 29.32L179.77 28.89L180.67 28.5L181.57 28.15L182.48 27.83L183.4 27.54L184.32 27.28L185.24 27.06L186.17 26.87L187.1 26.72L188.03 26.6L188.96 26.51L189.89 26.46L190.81 26.44L191.73 26.45L192.65 26.5ZM192.27 93.54L190.7 93.71L189.16 93.88L187.63 94.04L186.12 94.19L184.64 94.34L183.17 94.48L181.72 94.61L180.29 94.73L178.88 94.85L177.48 94.96L176.1 95.06L174.73 95.16L173.37 95.26L170.69 95.42L169.37 95.5L168.06 95.57L166.75 95.63L165.45 95.69L164.16 95.75L162.88 95.8L161.6 95.85L160.32 95.89L159.05 95.92L157.78 95.96L156.51 95.99L153.97 96.03L152.69 96.05L151.42 96.06L150.14 96.08L148.86 96.08L147.58 96.09L142.36 96.09L141.04 96.08L139.71 96.09L134.44 96.09L131.82 96.07L130.51 96.05L129.21 96.04L127.9 96.02L126.6 95.99L125.3 95.96L124 95.93L122.69 95.9L121.39 95.86L120.09 95.81L118.78 95.77L117.48 95.71L116.17 95.66L114.86 95.59L113.55 95.53L112.23 95.45L110.91 95.38L109.59 95.3L108.26 95.21L106.93 95.11L105.6 95.02L104.26 94.91L102.91 94.8L101.56 94.68L100.2 94.56L98.84 94.43L97.47 94.3L96.09 94.16L94.7 94.01L93.31 93.85L91.91 93.69L90.5 93.52L89.08 93.35L87.65 93.17L87.12 93.27L86.62 93.47L86.16 93.78L85.75 94.18L85.38 94.67L85.04 95.25L84.75 95.9L84.49 96.63L84.28 97.42L84.1 98.28L83.97 99.19L83.87 100.16L83.81 101.17L83.79 102.22L83.8 103.31L83.86 104.43L83.95 105.58L84.07 106.74L84.24 107.92L84.44 109.11L84.67 110.3L84.95 111.49L85.25 112.67L85.6 113.84L85.97 114.99L86.38 116.12L86.83 117.22L87.31 118.28L87.83 119.31L88.37 120.29L88.95 121.22L89.57 122.1L90.21 122.92L90.89 123.67L91.6 124.35L92.34 124.95L93.12 125.47L93.92 125.9L94.76 126.24L95.63 126.48L98.01 126.98L100.38 127.46L102.76 127.91L105.13 128.33L107.5 128.73L109.88 129.11L112.24 129.46L114.61 129.78L116.98 130.08L119.34 130.35L121.7 130.6L124.06 130.82L126.42 131.01L128.78 131.18L131.13 131.32L133.49 131.44L135.84 131.53L138.19 131.59L140.54 131.62L142.88 131.63L145.23 131.62L147.57 131.57L149.91 131.5L152.25 131.4L154.59 131.27L156.92 131.12L159.26 130.94L161.59 130.73L163.92 130.49L166.25 130.23L168.58 129.94L170.9 129.62L173.22 129.27L175.54 128.9L177.86 128.49L180.18 128.06L182.5 127.6L184.81 127.11L187.12 126.59L189.43 126.05L190.31 125.78L191.16 125.42L191.98 124.97L192.76 124.44L193.51 123.82L194.23 123.14L194.91 122.39L195.55 121.57L196.16 120.7L196.73 119.77L197.27 118.8L197.77 117.79L198.23 116.73L198.65 115.65L199.04 114.54L199.39 113.41L199.7 112.26L199.97 111.1L200.21 109.93L200.4 108.77L200.56 107.6L200.67 106.45L200.74 105.31L200.78 104.19L200.77 103.1L200.72 102.03L200.63 101L200.5 100.01L200.32 99.07L200.1 98.18L199.84 97.34L199.54 96.56L199.19 95.85L198.79 95.21L198.36 94.65L197.87 94.17L197.35 93.78L196.77 93.47L196.15 93.27L195.49 93.17L193.87 93.36L192.27 93.54Z" id="b7Y13v5gx"></path><path d="M192.65 26.5L193.56 26.59L194.47 26.7L195.37 26.85L196.26 27.04L197.13 27.25L198 27.51L198.86 27.79L199.71 28.11L200.54 28.47L201.35 28.86L202.16 29.28L202.94 29.74L203.71 30.23L204.46 30.76L205.18 31.32L205.89 31.91L206.58 32.54L207.24 33.2L207.9 33.92L208.52 34.67L209.1 35.43L209.65 36.22L210.15 37.02L210.62 37.85L211.05 38.69L211.44 39.54L211.8 40.42L212.11 41.3L212.39 42.2L212.63 43.11L212.84 44.03L213 44.96L213.13 45.9L213.22 46.84L213.28 47.79L213.3 48.75L213.28 49.7L213.22 50.67L213.13 51.63L213 52.59L212.83 53.55L212.63 54.51L212.39 55.46L212.12 56.41L211.81 57.36L211.46 58.3L211.07 59.23L210.65 60.15L210.2 61.06L209.71 61.96L209.18 62.85L208.62 63.72L208.02 64.58L207.39 65.42L206.72 66.25L206.01 67.05L205.28 67.84L204.5 68.61L204.47 68.64L204.44 68.67L204.41 68.69L204.29 68.81L204.26 68.83L204.2 68.89L204.17 68.92L204.14 68.95L204.11 68.97L203.99 69.09L203.96 69.11L203.93 69.14L203.9 69.17L203.87 69.2L203.84 69.22L203.81 69.25L203.77 69.28L203.74 69.31L203.71 69.33L203.65 69.39L203.62 69.41L203.56 69.47L203.53 69.49L203.44 69.58L203.41 69.6L203.37 69.63L203.34 69.66L203.31 69.68L203.28 69.71L203.38 70.09L203.48 70.47L203.57 70.86L203.66 71.24L203.93 72.41L204.01 72.8L204.09 73.19L204.17 73.59L204.25 73.99L204.32 74.38L204.39 74.78L204.46 75.19L204.53 75.59L204.59 75.99L204.71 76.81L204.77 77.22L204.83 77.63L204.88 78.04L204.93 78.46L204.98 78.87L205.02 79.29L205.1 80.13L205.14 80.56L205.18 80.98L205.21 81.41L205.24 81.83L205.27 82.26L205.29 82.69L205.32 83.13L205.34 83.56L205.36 84L205.37 84.43L205.38 84.87L205.4 85.75L205.41 86.2L205.41 105.01L205.63 107L205.8 108.94L205.92 110.84L205.99 112.7L206 114.52L205.97 116.29L205.89 118.02L205.76 119.71L205.58 121.35L205.35 122.96L205.08 124.52L204.76 126.05L204.4 127.53L204 128.98L203.55 130.39L203.06 131.75L202.53 133.09L201.96 134.38L201.35 135.64L200.7 136.86L200.02 138.04L199.29 139.19L198.53 140.3L197.74 141.38L196.91 142.43L196.05 143.44L195.15 144.42L194.22 145.36L193.27 146.27L192.28 147.16L191.26 148L190.21 148.82L189.13 149.61L188.03 150.37L186.9 151.1L185.75 151.79L184.57 152.46L183.37 153.11L182.14 153.72L180.89 154.31L181.21 154.29L181.52 154.28L181.84 154.26L182.15 154.23L182.47 154.21L183.11 154.15L183.42 154.11L183.74 154.08L184.06 154.03L184.37 153.99L184.69 153.94L185 153.88L185.32 153.83L185.63 153.76L185.94 153.7L186.25 153.62L186.55 153.55L186.86 153.46L187.16 153.38L187.46 153.28L187.75 153.19L188.04 153.08L188.62 152.86L188.9 152.73L189.17 152.61L189.45 152.47L189.72 152.33L190.24 152.03L190.49 151.86L190.74 151.7L190.98 151.52L191.22 151.33L191.45 151.14L191.68 150.94L191.9 150.74L192.11 150.52L192.32 150.3L192.48 150.08L192.6 149.92L192.71 149.76L192.82 149.61L193.02 149.31L193.12 149.17L193.22 149.03L193.4 148.77L193.48 148.64L193.57 148.52L193.65 148.4L193.74 148.28L193.82 148.17L193.9 148.06L193.98 147.95L194.07 147.85L194.15 147.74L194.23 147.64L194.32 147.54L194.41 147.45L194.5 147.35L194.59 147.26L194.69 147.17L194.79 147.08L194.89 146.99L195 146.9L195.11 146.81L195.22 146.73L195.35 146.64L195.47 146.56L195.6 146.48L195.74 146.39L196.04 146.23L196.2 146.14L196.36 146.06L196.54 145.98L196.72 145.89L196.91 145.81L197.12 145.72L197.19 145.7L197.26 145.67L197.33 145.65L197.4 145.62L197.47 145.6L197.54 145.58L197.62 145.56L197.69 145.54L197.76 145.52L197.83 145.51L197.91 145.49L197.98 145.47L198.05 145.46L198.13 145.44L198.2 145.43L198.27 145.41L198.35 145.4L198.42 145.38L198.5 145.37L198.57 145.36L198.65 145.34L198.72 145.33L198.79 145.32L198.87 145.31L198.94 145.29L199.02 145.28L199.09 145.27L199.17 145.25L199.31 145.23L199.39 145.21L199.46 145.2L199.53 145.18L199.61 145.17L199.68 145.15L199.75 145.13L199.83 145.12L199.97 145.14L200.12 145.17L200.19 145.18L200.34 145.2L200.41 145.21L200.56 145.24L200.63 145.25L200.71 145.26L200.85 145.28L201.07 145.32L201.51 145.39L201.66 145.41L201.8 145.44L201.88 145.45L201.95 145.46L202.1 145.49L202.24 145.51L202.39 145.53L202.46 145.55L202.61 145.57L202.76 145.59L202.76 145.6L205.28 147.26L205.32 147.32L205.37 147.38L205.41 147.44L205.45 147.5L205.5 147.56L205.54 147.62L205.59 147.69L205.63 147.75L205.68 147.81L205.72 147.87L205.77 147.93L205.82 147.99L205.86 148.05L205.91 148.11L205.96 148.17L206 148.23L206.05 148.29L206.09 148.35L206.14 148.41L206.18 148.47L206.23 148.53L206.27 148.59L206.32 148.65L206.36 148.71L206.41 148.77L206.45 148.84L206.49 148.9L206.53 148.96L206.57 149.02L206.61 149.09L206.65 149.15L206.69 149.22L206.73 149.28L206.77 149.35L206.8 149.41L206.84 149.48L206.87 149.54L206.93 149.68L206.97 149.75L207.05 149.94L207.12 150.12L207.19 150.3L207.26 150.48L207.32 150.65L207.37 150.81L207.42 150.97L207.47 151.13L207.51 151.28L207.54 151.42L207.57 151.57L207.6 151.71L207.62 151.85L207.64 151.98L207.65 152.12L207.66 152.25L207.67 152.38L207.67 152.77L207.66 152.9L207.66 153.04L207.64 153.17L207.63 153.3L207.62 153.44L207.6 153.57L207.58 153.71L207.56 153.85L207.54 154L207.52 154.14L207.49 154.29L207.47 154.45L207.41 154.77L207.39 154.94L207.36 155.11L207.33 155.29L207.27 155.67L207.25 155.87L207.04 156.45L206.81 157.03L206.56 157.59L206.3 158.15L206.01 158.7L205.7 159.24L205.38 159.77L205.04 160.28L204.69 160.79L204.32 161.3L203.93 161.79L203.53 162.27L203.11 162.74L202.68 163.2L202.24 163.66L201.79 164.1L201.32 164.53L200.84 164.95L200.36 165.37L199.86 165.77L199.36 166.16L198.84 166.55L198.32 166.92L197.79 167.28L197.26 167.63L196.71 167.97L196.17 168.3L195.62 168.62L195.06 168.93L194.5 169.23L193.94 169.52L193.37 169.8L192.81 170.06L192.24 170.32L191.67 170.56L191.1 170.79L190.54 171.02L189.97 171.23L189.41 171.43L188.85 171.61L188.53 171.72L188.21 171.82L187.88 171.92L187.56 172.01L187.24 172.1L186.91 172.19L186.59 172.28L186.26 172.37L185.94 172.45L185.61 172.53L185.28 172.61L184.96 172.69L184.63 172.76L184.3 172.83L183.97 172.9L183.64 172.97L182.98 173.09L182.64 173.15L182.31 173.2L181.98 173.26L181.65 173.31L181.31 173.36L180.98 173.4L180.65 173.45L180.31 173.49L179.98 173.53L179.64 173.56L179.31 173.6L178.97 173.63L178.64 173.66L178.3 173.68L177.96 173.71L177.63 173.73L177.29 173.75L176.96 173.76L176.62 173.78L176.28 173.79L175.95 173.8L175.61 173.81L175.63 173.94L175.65 174.08L175.67 174.22L175.69 174.37L175.72 174.51L175.74 174.65L175.76 174.8L175.78 174.94L175.8 175.09L175.83 175.24L175.85 175.39L175.89 175.69L175.92 175.84L175.94 176L175.96 176.15L175.98 176.31L176.01 176.46L176.05 176.78L176.08 176.94L176.1 177.1L176.12 177.26L176.15 177.43L176.17 177.59L176.19 177.75L176.22 177.92L176.24 178.08L176.27 178.25L176.29 178.42L176.31 178.59L176.34 178.76L176.36 178.93L176.39 179.1L176.41 179.27L176.44 179.44L176.46 179.62L176.48 179.79L176.51 179.97L176.53 180.14L177.32 183.78L178.03 187.31L178.66 190.72L179.23 194.02L179.73 197.22L180.16 200.3L180.52 203.29L180.82 206.17L181.05 208.96L181.22 211.65L181.33 214.25L181.37 216.76L181.36 219.18L181.3 221.51L181.17 223.76L181 225.93L180.77 228.02L180.48 230.04L180.15 231.98L179.77 233.85L179.34 235.65L178.86 237.39L178.34 239.06L177.78 240.68L177.17 242.23L176.53 243.73L175.84 245.17L175.12 246.57L174.36 247.91L173.56 249.21L172.74 250.46L171.87 251.68L170.98 252.85L170.06 253.99L169.11 255.1L168.13 256.17L167.13 257.22L166.1 258.23L165.05 259.23L163.98 260.2L163.86 260.24L163.77 260.29L163.69 260.34L163.65 260.4L163.62 260.48L163.61 260.56L163.62 260.64L163.65 260.74L163.7 260.84L163.76 260.94L163.83 261.06L163.92 261.17L164.02 261.29L164.13 261.42L164.25 261.55L164.37 261.68L164.5 261.82L164.64 261.96L164.78 262.1L164.93 262.24L165.07 262.38L165.22 262.52L165.36 262.67L165.5 262.81L165.64 262.95L165.77 263.1L165.9 263.24L166.02 263.38L166.13 263.51L166.23 263.65L166.32 263.78L166.4 263.9L166.46 264.03L166.51 264.14L166.55 264.26L166.56 264.36L166.56 264.47L166.54 264.56L166.49 264.65L166.43 264.73L166.19 264.92L165.9 265.09L165.54 265.24L165.13 265.38L164.66 265.5L164.15 265.61L163.58 265.7L162.98 265.78L162.33 265.85L161.65 265.9L160.93 265.95L160.19 265.98L159.42 266L158.63 266.01L157.81 266.01L156.99 266L156.15 265.99L155.31 265.96L153.61 265.9L152.76 265.86L151.92 265.81L151.09 265.75L150.27 265.7L149.47 265.64L148.69 265.58L147.94 265.51L147.21 265.44L146.51 265.38L145.85 265.31L145.22 265.24L144.64 265.17L144.1 265.11L143.61 265.04L143.17 264.98L142.79 264.92L142.47 264.87L142.21 264.82L142.01 264.77L141.89 264.73L141.84 264.72L141.79 264.7L141.73 264.69L141.66 264.68L141.59 264.68L141.51 264.67L141.33 264.65L141.24 264.64L141.14 264.63L141.04 264.62L140.94 264.6L140.83 264.58L140.73 264.55L140.62 264.52L140.52 264.49L140.42 264.45L140.31 264.4L140.22 264.35L140.12 264.29L140.03 264.22L139.94 264.14L139.78 263.96L139.71 263.85L139.59 263.61L139.55 263.47L139.51 263.31L139.48 263.15L139.46 262.97L139.45 262.77L139.45 262.57L139.47 262.34L139.5 262.1L139.54 261.85L139.59 261.57L139.66 261.28L139.75 260.98L139.85 260.65L139.35 260.69L138.83 260.74L138.3 260.79L137.75 260.83L137.18 260.88L136.61 260.92L136.02 260.96L135.43 261L134.82 261.04L134.21 261.07L133.6 261.11L132.98 261.14L132.36 261.16L131.73 261.19L131.11 261.21L130.49 261.23L129.87 261.24L129.26 261.25L128.65 261.26L127.46 261.26L126.88 261.25L126.3 261.24L125.75 261.23L125.2 261.2L124.68 261.17L124.17 261.14L123.67 261.1L123.2 261.05L122.75 261L122.32 260.94L121.92 260.88L121.54 260.8L121.19 260.72L120.86 260.63L120.57 260.54L120.3 260.43L120.07 260.32L119.88 260.2L119.71 260.07L119.65 259.99L119.6 259.91L119.58 259.82L119.58 259.72L119.59 259.62L119.62 259.51L119.67 259.4L119.74 259.29L119.81 259.17L119.9 259.05L120 258.92L120.12 258.8L120.36 258.54L120.5 258.4L120.63 258.27L120.77 258.13L120.92 258L121.06 257.86L121.21 257.73L121.35 257.6L121.63 257.34L121.76 257.21L121.89 257.09L122.01 256.97L122.21 256.73L122.3 256.62L122.38 256.52L122.44 256.42L122.48 256.33L122.51 256.24L122.52 256.16L122.52 256.08L122.49 256.01L122.44 255.96L122.37 255.9L122.27 255.86L122.15 255.83L121.38 255.62L120.6 255.35L119.81 255.01L119.02 254.61L118.22 254.15L117.42 253.63L116.62 253.05L115.83 252.42L115.04 251.73L114.27 250.98L113.5 250.18L112.75 249.33L112.02 248.44L111.31 247.49L110.62 246.5L109.96 245.46L109.32 244.37L108.71 243.25L108.14 242.08L107.6 240.88L107.1 239.64L106.64 238.36L106.22 237.04L105.85 235.7L105.53 234.32L105.25 232.91L105.03 231.47L104.87 230.01L104.77 228.52L104.72 227L104.74 225.46L104.83 223.9L104.98 222.32L105.21 220.73L105.51 219.11L105.89 217.48L106.34 215.83L106.88 214.18L107.5 212.51L108.21 210.83L108.22 210.28L108.24 209.73L108.25 209.16L108.28 208.58L108.3 207.99L108.33 207.39L108.41 206.17L108.45 205.55L108.5 204.91L108.55 204.28L108.6 203.63L108.65 202.98L108.71 202.33L108.77 201.67L108.98 199.66L109.05 198.98L109.12 198.3L109.2 197.61L109.28 196.93L109.36 196.24L109.44 195.55L109.62 194.17L109.7 193.48L109.88 192.1L109.98 191.41L110.07 190.72L110.16 190.04L110.26 189.35L110.35 188.67L110.55 187.33L110.64 186.66L110.74 185.99L110.84 185.34L110.94 184.68L110.67 184.97L110.41 185.26L110.14 185.55L109.88 185.84L109.63 186.13L109.37 186.43L109.12 186.72L108.87 187.02L108.62 187.32L108.37 187.63L108.13 187.93L107.65 188.55L107.41 188.86L107.18 189.18L106.94 189.49L106.72 189.81L106.49 190.13L106.27 190.45L106.04 190.78L105.83 191.1L105.61 191.43L105.19 192.09L104.98 192.43L104.78 192.76L104.38 193.44L104.18 193.79L103.99 194.13L103.61 194.83L103.25 195.53L103.07 195.89L102.9 196.24L102.73 196.6L102.56 196.96L102.4 197.33L102.24 197.69L102.24 197.7L102.12 197.86L102.02 198.03L101.91 198.18L101.82 198.34L101.72 198.49L101.63 198.63L101.54 198.77L101.45 198.91L101.29 199.17L101.2 199.3L101.13 199.42L100.97 199.66L100.89 199.77L100.81 199.88L100.73 199.99L100.65 200.09L100.57 200.2L100.49 200.3L100.4 200.4L100.32 200.5L100.04 200.78L99.94 200.87L99.83 200.96L99.73 201.05L99.61 201.14L99.5 201.23L99.11 201.5L98.97 201.58L98.82 201.67L98.5 201.85L98.33 201.94L98.15 202.03L97.96 202.12L97.54 202.3L97.4 202.36L97.12 202.46L96.97 202.51L96.83 202.56L96.53 202.64L96.39 202.68L95.79 202.8L95.64 202.82L95.34 202.86L95.19 202.87L95.04 202.89L94.89 202.9L94.74 202.9L94.59 202.91L94.44 202.91L94.29 202.9L94.14 202.9L93.69 202.87L93.54 202.85L93.4 202.83L93.25 202.81L93.1 202.78L92.96 202.75L92.81 202.72L92.53 202.64L92.38 202.6L92.24 202.56L92.1 202.51L89.54 200.93L89.5 200.87L89.45 200.81L89.41 200.75L89.36 200.69L89.32 200.63L89.22 200.51L89.18 200.46L89.03 200.28L88.99 200.22L88.89 200.1L88.84 200.05L88.8 199.99L88.65 199.81L88.61 199.75L88.51 199.63L88.47 199.57L88.42 199.51L88.38 199.45L88.33 199.39L88.29 199.33L88.24 199.27L88.16 199.15L88.12 199.08L88.08 199.02L88.04 198.96L88 198.89L87.96 198.83L87.92 198.77L87.89 198.7L87.85 198.63L87.82 198.57L87.78 198.5L87.7 198.31L87.61 198.13L87.54 197.95L87.4 197.61L87.34 197.45L87.29 197.29L87.24 197.14L87.2 196.99L87.16 196.84L87.12 196.7L87.06 196.42L87.04 196.28L87.02 196.15L87.01 196.02L87 195.89L86.99 195.75L86.98 195.62L86.98 195.36L86.99 195.23L86.99 195.1L87 194.97L87.02 194.69L87.04 194.55L87.05 194.41L87.07 194.27L87.09 194.12L87.1 193.97L87.14 193.65L87.17 193.49L87.19 193.32L87.21 193.14L87.23 192.96L87.27 192.58L87.29 192.38L87.61 191.33L87.95 190.28L88.31 189.24L88.69 188.21L89.09 187.19L89.51 186.18L89.95 185.18L90.4 184.18L90.87 183.2L91.36 182.22L91.87 181.25L92.39 180.29L92.93 179.35L93.48 178.41L94.05 177.48L94.64 176.56L95.23 175.65L95.85 174.75L96.47 173.86L97.11 172.99L97.77 172.12L98.43 171.26L99.11 170.42L99.8 169.58L100.5 168.76L101.21 167.95L101.94 167.15L102.67 166.36L103.41 165.58L104.16 164.81L104.93 164.06L105.7 163.32L106.48 162.59L107.26 161.88L108.06 161.17L108.86 160.48L109.67 159.8L110.48 159.14L111.31 158.49L112.13 157.85L110.49 157.38L108.87 156.87L107.27 156.33L105.7 155.75L104.16 155.13L102.64 154.48L101.16 153.8L99.7 153.07L98.28 152.3L96.89 151.5L95.54 150.65L94.23 149.76L92.95 148.83L91.71 147.86L90.51 146.84L89.35 145.78L88.24 144.67L87.17 143.52L86.15 142.32L85.17 141.08L84.25 139.78L83.37 138.44L82.55 137.04L81.78 135.6L81.06 134.1L80.4 132.56L79.79 130.95L79.25 129.3L78.76 127.59L78.33 125.83L77.97 124.01L77.67 122.14L77.44 120.2L77.27 118.21L77.17 116.16L77.14 114.05L77.18 111.88L77.29 109.65L77.48 107.36L77.74 105.01L77.74 86.2L77.78 85.83L77.82 85.47L77.86 85.11L77.9 84.74L77.95 84.38L77.99 84.03L78.04 83.67L78.09 83.31L78.14 82.95L78.2 82.6L78.25 82.25L78.3 81.89L78.42 81.19L78.48 80.84L78.54 80.5L78.6 80.15L78.66 79.8L78.73 79.46L78.8 79.12L78.86 78.77L78.93 78.43L79.07 77.75L79.15 77.42L79.22 77.08L79.3 76.74L79.37 76.41L79.45 76.08L79.53 75.75L79.61 75.41L79.7 75.09L79.78 74.76L79.87 74.43L79.95 74.1L80.04 73.78L80.13 73.46L80.22 73.13L80.31 72.81L80.4 72.49L80.14 72.33L80.01 72.24L79.87 72.16L79.74 72.08L79.61 71.99L79.48 71.9L79.35 71.82L79.22 71.73L79.09 71.64L78.96 71.55L78.83 71.46L78.57 71.28L78.44 71.18L78.18 71L78.06 70.9L77.93 70.81L77.8 70.71L77.68 70.61L77.55 70.51L77.42 70.41L77.3 70.32L77.17 70.21L77.05 70.11L76.93 70.01L76.8 69.91L76.68 69.8L76.56 69.7L76.43 69.59L76.31 69.49L76.07 69.27L75.95 69.16L75.35 68.61L74.58 67.84L73.84 67.05L73.13 66.25L72.46 65.42L71.83 64.58L71.23 63.72L70.67 62.85L70.14 61.96L69.65 61.06L69.2 60.15L68.78 59.23L68.39 58.3L68.05 57.36L67.73 56.41L67.46 55.46L67.22 54.51L67.02 53.55L66.85 52.59L66.72 51.63L66.63 50.67L66.57 49.7L66.55 48.75L66.57 47.79L66.63 46.84L66.72 45.9L66.85 44.96L67.01 44.03L67.22 43.11L67.46 42.2L67.74 41.3L68.05 40.42L68.41 39.54L68.8 38.69L69.23 37.85L69.7 37.02L70.2 36.22L70.75 35.43L71.33 34.67L71.95 33.92L72.61 33.2L73.3 32.51L74.02 31.86L74.76 31.24L75.52 30.67L76.3 30.13L77.1 29.62L77.92 29.15L78.76 28.73L79.62 28.33L80.49 27.98L81.38 27.66L82.27 27.38L83.19 27.13L84.11 26.93L85.04 26.76L85.98 26.62L86.93 26.52L87.88 26.46L88.84 26.44L89.8 26.45L90.77 26.5L91.73 26.59L92.7 26.71L93.67 26.87L94.63 27.07L95.6 27.3L96.56 27.57L97.51 27.87L98.46 28.22L99.39 28.59L100.33 29.01L101.25 29.46L102.16 29.94L103.06 30.47L103.94 31.03L104.81 31.62L105.67 32.25L106.5 32.92L107.32 33.62L108.13 34.36L108.15 34.39L108.18 34.41L108.21 34.44L108.23 34.47L108.26 34.49L108.34 34.57L108.37 34.6L108.42 34.65L108.45 34.67L108.47 34.7L108.5 34.73L108.53 34.75L108.55 34.78L108.58 34.8L108.61 34.83L108.63 34.86L108.66 34.88L108.68 34.91L108.71 34.94L108.74 34.96L108.76 34.99L108.79 35.02L108.82 35.04L108.84 35.07L108.87 35.09L108.89 35.12L108.92 35.15L108.95 35.17L108.97 35.2L109.05 35.28L109.07 35.31L109.1 35.33L109.12 35.36L109.15 35.39L109.18 35.41L110.65 34.6L112.13 33.82L113.64 33.08L115.17 32.38L116.71 31.72L118.26 31.1L119.83 30.52L121.41 29.98L123.01 29.48L124.61 29.02L126.23 28.6L127.85 28.21L129.48 27.87L131.12 27.57L132.77 27.3L134.42 27.08L136.08 26.89L137.73 26.74L139.39 26.63L141.06 26.56L142.72 26.53L144.38 26.54L146.04 26.58L147.69 26.66L149.35 26.79L150.99 26.95L152.64 27.15L154.27 27.39L155.9 27.66L157.52 27.98L159.13 28.33L160.72 28.72L162.31 29.15L163.88 29.61L165.44 30.12L166.99 30.66L168.52 31.24L170.03 31.86L171.53 32.51L173 33.21L173.8 32.55L174.61 31.93L175.44 31.34L176.28 30.78L177.14 30.26L178.01 29.77L178.88 29.32L179.77 28.89L180.67 28.5L181.57 28.15L182.48 27.83L183.4 27.54L184.32 27.28L185.24 27.06L186.17 26.87L187.1 26.72L188.03 26.6L188.96 26.51L189.89 26.46L190.81 26.44L191.73 26.45L192.65 26.5ZM192.27 93.54L190.7 93.71L189.16 93.88L187.63 94.04L186.12 94.19L184.64 94.34L183.17 94.48L181.72 94.61L180.29 94.73L178.88 94.85L177.48 94.96L176.1 95.06L174.73 95.16L173.37 95.26L170.69 95.42L169.37 95.5L168.06 95.57L166.75 95.63L165.45 95.69L164.16 95.75L162.88 95.8L161.6 95.85L160.32 95.89L159.05 95.92L157.78 95.96L156.51 95.99L153.97 96.03L152.69 96.05L151.42 96.06L150.14 96.08L148.86 96.08L147.58 96.09L142.36 96.09L141.04 96.08L139.71 96.09L134.44 96.09L131.82 96.07L130.51 96.05L129.21 96.04L127.9 96.02L126.6 95.99L125.3 95.96L124 95.93L122.69 95.9L121.39 95.86L120.09 95.81L118.78 95.77L117.48 95.71L116.17 95.66L114.86 95.59L113.55 95.53L112.23 95.45L110.91 95.38L109.59 95.3L108.26 95.21L106.93 95.11L105.6 95.02L104.26 94.91L102.91 94.8L101.56 94.68L100.2 94.56L98.84 94.43L97.47 94.3L96.09 94.16L94.7 94.01L93.31 93.85L91.91 93.69L90.5 93.52L89.08 93.35L87.65 93.17L87.12 93.27L86.62 93.47L86.16 93.78L85.75 94.18L85.38 94.67L85.04 95.25L84.75 95.9L84.49 96.63L84.28 97.42L84.1 98.28L83.97 99.19L83.87 100.16L83.81 101.17L83.79 102.22L83.8 103.31L83.86 104.43L83.95 105.58L84.07 106.74L84.24 107.92L84.44 109.11L84.67 110.3L84.95 111.49L85.25 112.67L85.6 113.84L85.97 114.99L86.38 116.12L86.83 117.22L87.31 118.28L87.83 119.31L88.37 120.29L88.95 121.22L89.57 122.1L90.21 122.92L90.89 123.67L91.6 124.35L92.34 124.95L93.12 125.47L93.92 125.9L94.76 126.24L95.63 126.48L98.01 126.98L100.38 127.46L102.76 127.91L105.13 128.33L107.5 128.73L109.88 129.11L112.24 129.46L114.61 129.78L116.98 130.08L119.34 130.35L121.7 130.6L124.06 130.82L126.42 131.01L128.78 131.18L131.13 131.32L133.49 131.44L135.84 131.53L138.19 131.59L140.54 131.62L142.88 131.63L145.23 131.62L147.57 131.57L149.91 131.5L152.25 131.4L154.59 131.27L156.92 131.12L159.26 130.94L161.59 130.73L163.92 130.49L166.25 130.23L168.58 129.94L170.9 129.62L173.22 129.27L175.54 128.9L177.86 128.49L180.18 128.06L182.5 127.6L184.81 127.11L187.12 126.59L189.43 126.05L190.31 125.78L191.16 125.42L191.98 124.97L192.76 124.44L193.51 123.82L194.23 123.14L194.91 122.39L195.55 121.57L196.16 120.7L196.73 119.77L197.27 118.8L197.77 117.79L198.23 116.73L198.65 115.65L199.04 114.54L199.39 113.41L199.7 112.26L199.97 111.1L200.21 109.93L200.4 108.77L200.56 107.6L200.67 106.45L200.74 105.31L200.78 104.19L200.77 103.1L200.72 102.03L200.63 101L200.5 100.01L200.32 99.07L200.1 98.18L199.84 97.34L199.54 96.56L199.19 95.85L198.79 95.21L198.36 94.65L197.87 94.17L197.35 93.78L196.77 93.47L196.15 93.27L195.49 93.17L193.87 93.36L192.27 93.54Z" id="b1N5Y1kmUm"></path><path d="M173.5 157.11C169.61 170.02 159.78 180.96 148.22 188.67C138.33 195.26 126.61 201.69 114.96 200.29C112.12 199.95 110.29 199.89 109.78 197.78C109.31 195.86 109.9 193.98 111.96 194.67C118.98 196.93 126.87 193.68 134.16 190.68C145.29 186.09 155.2 178.49 162.23 168.69C164.46 165.58 166.36 162.22 167.76 158.67C169.72 158.22 171.63 157.7 173.5 157.11" id="g1cdpDI5VZ"></path><path d="M173.5 157.11C169.61 170.02 159.78 180.96 148.22 188.67C138.33 195.26 126.61 201.69 114.96 200.29C112.12 199.95 110.29 199.89 109.78 197.78C109.31 195.86 109.9 193.98 111.96 194.67C118.98 196.93 126.87 193.68 134.16 190.68C145.29 186.09 155.2 178.49 162.23 168.69C164.46 165.58 166.36 162.22 167.76 158.67C169.72 158.22 171.63 157.7 173.5 157.11" id="aa8UeHMb0"></path><path d="M204.91 70.62C205.28 72.84 205.56 75.11 205.75 77.42C205.75 78.58 205.75 87.81 205.75 88.96C164.73 95.98 121.79 96.25 77.14 88.96C77.14 87.81 77.14 78.58 77.14 77.42C77.42 75.12 77.78 72.86 78.21 70.65C121.47 80.14 163.71 78.71 204.91 70.62" id="f5WuXWbVTs"></path><path d="M204.91 70.62C205.28 72.84 205.56 75.11 205.75 77.42C205.75 78.58 205.75 87.81 205.75 88.96C164.73 95.98 121.79 96.25 77.14 88.96C77.14 87.81 77.14 78.58 77.14 77.42C77.42 75.12 77.78 72.86 78.21 70.65C121.47 80.14 163.71 78.71 204.91 70.62" id="f3dusRkPS7"></path><path d="M179.18 193.01C180.85 193.82 181.45 203.74 180.68 204.44C173.89 210.57 164.24 213.1 155.06 214.18C141.72 215.75 127.83 214.85 115.55 209.47C112.66 208.19 109.81 206.59 107.59 204.46C106.05 202.97 108.96 193.44 109.33 193.42C110.79 193.87 111.82 195.07 112.47 196.48C113.94 199.56 117.9 201.07 121.55 202.38C132.71 206.35 145.07 206.93 156.78 205.06C164.69 203.8 176.39 198.18 179.18 193.01" id="bPhB25Xv"></path><path d="M179.18 193.01C180.85 193.82 181.45 203.74 180.68 204.44C173.89 210.57 164.24 213.1 155.06 214.18C141.72 215.75 127.83 214.85 115.55 209.47C112.66 208.19 109.81 206.59 107.59 204.46C106.05 202.97 108.96 193.44 109.33 193.42C110.79 193.87 111.82 195.07 112.47 196.48C113.94 199.56 117.9 201.07 121.55 202.38C132.71 206.35 145.07 206.93 156.78 205.06C164.69 203.8 176.39 198.18 179.18 193.01" id="a51VtzA1Em"></path><path d="M109.37 201.88C110.38 200.61 118.31 201.87 117.93 204.37C117.72 205.76 116.62 206.85 115.76 208.01C112.71 212.12 111.37 221.43 113.39 226.53C112.82 227.46 103.53 226.52 103.4 225.34C102.48 217.05 103.98 208.64 109.37 201.88" id="c1TuLptePj"></path><path d="M109.37 201.88C110.38 200.61 118.31 201.87 117.93 204.37C117.72 205.76 116.62 206.85 115.76 208.01C112.71 212.12 111.37 221.43 113.39 226.53C112.82 227.46 103.53 226.52 103.4 225.34C102.48 217.05 103.98 208.64 109.37 201.88" id="a1mClkKlFt"></path><path d="M109.16 203.66C109.36 201.48 118.05 202.84 117.87 205.17C117.23 213.38 118.01 223.26 117.98 231.51C117.97 232.03 109.3 231.47 109.22 230.9C109.04 229.66 108.42 211.51 109.16 203.66" id="c1qij1m0uf"></path><path d="M109.16 203.66C109.36 201.48 118.05 202.84 117.87 205.17C117.23 213.38 118.01 223.26 117.98 231.51C117.97 232.03 109.3 231.47 109.22 230.9C109.04 229.66 108.42 211.51 109.16 203.66" id="a1mlNTNoQz"></path></defs><g><g><g><use xlink:href="#b1tGUduKCG" opacity="1" fill="#d7d5d3" fill-opacity="1"></use><g><use xlink:href="#b1tGUduKCG" opacity="1" fill-opacity="0" stroke="#000000" stroke-width="1" stroke-opacity="0"></use></g></g><g><use xlink:href="#d1lweMNqg2" opacity="1" fill="#000000" fill-opacity="0"></use><g><use xlink:href="#d1lweMNqg2" opacity="1" fill-opacity="0" stroke="#000000" stroke-width="1" stroke-opacity="0"></use></g></g><g><use xlink:href="#a3QhkBtLZ" opacity="1" fill="#ca2121" fill-opacity="1"></use><g><use xlink:href="#a3QhkBtLZ" opacity="1" fill-opacity="0" stroke="#000000" stroke-width="1" stroke-opacity="0"></use></g></g><g><use xlink:href="#a1LTz4RNd1" opacity="1" fill="#000000" fill-opacity="0"></use><g><use xlink:href="#a1LTz4RNd1" opacity="1" fill-opacity="0" stroke="#000000" stroke-width="1" stroke-opacity="0"></use></g></g><g><use xlink:href="#a16Qn4mq" opacity="1" fill="#930505" fill-opacity="1"></use><g><use xlink:href="#a16Qn4mq" opacity="1" fill-opacity="0" stroke="#000000" stroke-width="1" stroke-opacity="0"></use></g></g><g><use xlink:href="#cq9IelH9A" opacity="1" fill="#000000" fill-opacity="0"></use><g><use xlink:href="#cq9IelH9A" opacity="1" fill-opacity="0" stroke="#000000" stroke-width="1" stroke-opacity="0"></use></g></g><g><use xlink:href="#aVZm6fpBF" opacity="1" fill="#d7d5d3" fill-opacity="1"></use><g><use xlink:href="#aVZm6fpBF" opacity="1" fill-opacity="0" stroke="#000000" stroke-width="1" stroke-opacity="0"></use></g></g><g><use xlink:href="#a5BJO81I1Y" opacity="1" fill="#000000" fill-opacity="0"></use><g><use xlink:href="#a5BJO81I1Y" opacity="1" fill-opacity="0" stroke="#000000" stroke-width="1" stroke-opacity="0"></use></g></g><g><use xlink:href="#a1iGzyDVw5" opacity="1" fill="#ca2121" fill-opacity="1"></use><g><use xlink:href="#a1iGzyDVw5" opacity="1" fill-opacity="0" stroke="#000000" stroke-width="1" stroke-opacity="0"></use></g></g><g><use xlink:href="#b5IerBYkKg" opacity="1" fill="#000000" fill-opacity="0"></use><g><use xlink:href="#b5IerBYkKg" opacity="1" fill-opacity="0" stroke="#000000" stroke-width="1" stroke-opacity="0"></use></g></g><g><use xlink:href="#a1JaSaekFI" opacity="1" fill="#930505" fill-opacity="1"></use><g><use xlink:href="#a1JaSaekFI" opacity="1" fill-opacity="0" stroke="#000000" stroke-width="1" stroke-opacity="0"></use></g></g><g><use xlink:href="#nvdTLqCpR" opacity="1" fill="#000000" fill-opacity="0"></use><g><use xlink:href="#nvdTLqCpR" opacity="1" fill-opacity="0" stroke="#000000" stroke-width="1" stroke-opacity="0"></use></g></g><g><use xlink:href="#aaG6ApyZE" opacity="1" fill="#797979" fill-opacity="1"></use><g><use xlink:href="#aaG6ApyZE" opacity="1" fill-opacity="0" stroke="#000000" stroke-width="1" stroke-opacity="0"></use></g></g><g><use xlink:href="#aX77YU1ae" opacity="1" fill="#000000" fill-opacity="0"></use><g><use xlink:href="#aX77YU1ae" opacity="1" fill-opacity="0" stroke="#000000" stroke-width="1" stroke-opacity="0"></use></g></g><g><use xlink:href="#a5gam6AVkF" opacity="1" fill="#797979" fill-opacity="1"></use><g><use xlink:href="#a5gam6AVkF" opacity="1" fill-opacity="0" stroke="#000000" stroke-width="1" stroke-opacity="0"></use></g></g><g><use xlink:href="#b252lCS3fU" opacity="1" fill="#000000" fill-opacity="0"></use><g><use xlink:href="#b252lCS3fU" opacity="1" fill-opacity="0" stroke="#000000" stroke-width="1" stroke-opacity="0"></use></g></g><g><use xlink:href="#bXh8gM51l" opacity="1" fill="#d7d5d3" fill-opacity="1"></use><g><use xlink:href="#bXh8gM51l" opacity="1" fill-opacity="0" stroke="#000000" stroke-width="1" stroke-opacity="0"></use></g></g><g><use xlink:href="#btWXQB943" opacity="1" fill="#000000" fill-opacity="0"></use><g><use xlink:href="#btWXQB943" opacity="1" fill-opacity="0" stroke="#000000" stroke-width="1" stroke-opacity="0"></use></g></g><g><use xlink:href="#c2ns2C5WSH" opacity="1" fill="#1f2633" fill-opacity="1"></use><g><use xlink:href="#c2ns2C5WSH" opacity="1" fill-opacity="0" stroke="#000000" stroke-width="1" stroke-opacity="0"></use></g></g><g><use xlink:href="#d1S0dCLTUS" opacity="1" fill="#000000" fill-opacity="0"></use><g><use xlink:href="#d1S0dCLTUS" opacity="1" fill-opacity="0" stroke="#000000" stroke-width="1" stroke-opacity="0"></use></g></g><g><use xlink:href="#a1jVCdsAtk" opacity="1" fill="#1f2633" fill-opacity="1"></use><g><use xlink:href="#a1jVCdsAtk" opacity="1" fill-opacity="0" stroke="#000000" stroke-width="1" stroke-opacity="0"></use></g></g><g><use xlink:href="#c11IHubYix" opacity="1" fill="#000000" fill-opacity="0"></use><g><use xlink:href="#c11IHubYix" opacity="1" fill-opacity="0" stroke="#000000" stroke-width="1" stroke-opacity="0"></use></g></g><g><use xlink:href="#b3zgDLgvR" opacity="1" fill="#1f2633" fill-opacity="1"></use><g><use xlink:href="#b3zgDLgvR" opacity="1" fill-opacity="0" stroke="#000000" stroke-width="1" stroke-opacity="0"></use></g></g><g><use xlink:href="#aA6zQjcP7" opacity="1" fill="#000000" fill-opacity="0"></use><g><use xlink:href="#aA6zQjcP7" opacity="1" fill-opacity="0" stroke="#000000" stroke-width="1" stroke-opacity="0"></use></g></g><g><use xlink:href="#c1PU0mceK" opacity="1" fill="#636363" fill-opacity="1"></use><g><use xlink:href="#c1PU0mceK" opacity="1" fill-opacity="0" stroke="#000000" stroke-width="1" stroke-opacity="0"></use></g></g><g><use xlink:href="#bkEInfXQ1" opacity="1" fill="#000000" fill-opacity="0"></use><g><use xlink:href="#bkEInfXQ1" opacity="1" fill-opacity="0" stroke="#000000" stroke-width="1" stroke-opacity="0"></use></g></g><g><use xlink:href="#dpApsaODS" opacity="1" fill="#636363" fill-opacity="1"></use><g><use xlink:href="#dpApsaODS" opacity="1" fill-opacity="0" stroke="#000000" stroke-width="1" stroke-opacity="0"></use></g></g><g><use xlink:href="#c1Nxc0UpFk" opacity="1" fill="#000000" fill-opacity="0"></use><g><use xlink:href="#c1Nxc0UpFk" opacity="1" fill-opacity="0" stroke="#000000" stroke-width="1" stroke-opacity="0"></use></g></g><g><use xlink:href="#cFU1UniJ1" opacity="1" fill="#ffffff" fill-opacity="1"></use><g><use xlink:href="#cFU1UniJ1" opacity="1" fill-opacity="0" stroke="#000000" stroke-width="1" stroke-opacity="0"></use></g></g><g><use xlink:href="#a15j2gD08Q" opacity="1" fill="#000000" fill-opacity="0"></use><g><use xlink:href="#a15j2gD08Q" opacity="1" fill-opacity="0" stroke="#000000" stroke-width="1" stroke-opacity="0"></use></g></g><g><use xlink:href="#beY9xkoCB" opacity="1" fill="#ffffff" fill-opacity="1"></use><g><use xlink:href="#beY9xkoCB" opacity="1" fill-opacity="0" stroke="#000000" stroke-width="1" stroke-opacity="0"></use></g></g><g><use xlink:href="#a10JFydHyV" opacity="1" fill="#000000" fill-opacity="0"></use><g><use xlink:href="#a10JFydHyV" opacity="1" fill-opacity="0" stroke="#000000" stroke-width="1" stroke-opacity="0"></use></g></g><g><use xlink:href="#b7Y13v5gx" opacity="1" fill="#323940" fill-opacity="1"></use><g><use xlink:href="#b7Y13v5gx" opacity="1" fill-opacity="0" stroke="#000000" stroke-width="1" stroke-opacity="0"></use></g></g><g><use xlink:href="#b1N5Y1kmUm" opacity="1" fill="#000000" fill-opacity="0"></use><g><use xlink:href="#b1N5Y1kmUm" opacity="1" fill-opacity="0" stroke="#000000" stroke-width="1" stroke-opacity="0"></use></g></g><g><use xlink:href="#g1cdpDI5VZ" opacity="1" fill="#dba425" fill-opacity="1"></use><g><use xlink:href="#g1cdpDI5VZ" opacity="1" fill-opacity="0" stroke="#000000" stroke-width="1" stroke-opacity="0"></use></g></g><g><use xlink:href="#aa8UeHMb0" opacity="1" fill="#000000" fill-opacity="0"></use><g><use xlink:href="#aa8UeHMb0" opacity="1" fill-opacity="0" stroke="#000000" stroke-width="1" stroke-opacity="0"></use></g></g><g><use xlink:href="#f5WuXWbVTs" opacity="1" fill="#797979" fill-opacity="1"></use><g><use xlink:href="#f5WuXWbVTs" opacity="1" fill-opacity="0" stroke="#000000" stroke-width="1" stroke-opacity="0"></use></g></g><g><use xlink:href="#f3dusRkPS7" opacity="1" fill="#000000" fill-opacity="0"></use><g><use xlink:href="#f3dusRkPS7" opacity="1" fill-opacity="0" stroke="#000000" stroke-width="1" stroke-opacity="0"></use></g></g><g><use xlink:href="#bPhB25Xv" opacity="1" fill="#a9a9a9" fill-opacity="1"></use><g><use xlink:href="#bPhB25Xv" opacity="1" fill-opacity="0" stroke="#000000" stroke-width="1" stroke-opacity="0"></use></g></g><g><use xlink:href="#a51VtzA1Em" opacity="1" fill="#000000" fill-opacity="0"></use><g><use xlink:href="#a51VtzA1Em" opacity="1" fill-opacity="0" stroke="#000000" stroke-width="1" stroke-opacity="0"></use></g></g><g><use xlink:href="#c1TuLptePj" opacity="1" fill="#a9a9a9" fill-opacity="1"></use><g><use xlink:href="#c1TuLptePj" opacity="1" fill-opacity="0" stroke="#000000" stroke-width="1" stroke-opacity="0"></use></g></g><g><use xlink:href="#a1mClkKlFt" opacity="1" fill="#000000" fill-opacity="0"></use><g><use xlink:href="#a1mClkKlFt" opacity="1" fill-opacity="0" stroke="#000000" stroke-width="1" stroke-opacity="0"></use></g></g><g><use xlink:href="#c1qij1m0uf" opacity="1" fill="#a9a9a9" fill-opacity="1"></use><g><use xlink:href="#c1qij1m0uf" opacity="1" fill-opacity="0" stroke="#000000" stroke-width="1" stroke-opacity="0"></use></g></g><g><use xlink:href="#a1mlNTNoQz" opacity="1" fill="#000000" fill-opacity="0"></use><g><use xlink:href="#a1mlNTNoQz" opacity="1" fill-opacity="0" stroke="#000000" stroke-width="1" stroke-opacity="0"></use></g></g></g></g></svg>