<?xml version="1.0" encoding="UTF-8" standalone="no"?>
<!DOCTYPE svg PUBLIC "-//W3C//DTD SVG 1.1//EN" "http://www.w3.org/Graphics/SVG/1.1/DTD/svg11.dtd">
<svg version="1.1" xmlns="http://www.w3.org/2000/svg" xmlns:xlink="http://www.w3.org/1999/xlink" preserveAspectRatio="xMidYMid meet" viewBox="0 0 270 270" width="270" height="270"><defs><path d="M220.5 115.13C227.32 116.2 233 117.77 240.03 115.25C241.88 114.59 251.96 107.93 252.77 108.12C252.98 108.16 252.93 108.76 252.92 108.91C252.74 111.57 257.69 121.02 250.37 125.48C244.81 128.87 216.84 118.13 216.66 113.2" id="aKhNA4SJI"></path><path d="M220.5 115.13C227.32 116.2 233 117.77 240.03 115.25C241.88 114.59 251.96 107.93 252.77 108.12C252.98 108.16 252.93 108.76 252.92 108.91C252.74 111.57 257.69 121.02 250.37 125.48C244.81 128.87 216.84 118.13 216.66 113.2" id="b7hBgl04Q9"></path><path d="M221.24 113.83C225.66 119.12 228.9 124.04 235.85 126.77C237.68 127.49 249.65 129.11 250.14 129.79C250.27 129.96 249.83 130.38 249.73 130.48C247.85 132.37 245.35 142.75 236.9 141.28C230.49 140.17 216.5 113.67 219.61 109.84" id="b2ouLJrZvS"></path><path d="M221.24 113.83C225.66 119.12 228.9 124.04 235.85 126.77C237.68 127.49 249.65 129.11 250.14 129.79C250.27 129.96 249.83 130.38 249.73 130.48C247.85 132.37 245.35 142.75 236.9 141.28C230.49 140.17 216.5 113.67 219.61 109.84" id="c1Nc053nH6"></path><path d="M133.41 157.42C120.57 154.36 116.89 112.03 123.83 111.26C154.5 107.86 187.31 107.6 219.74 111.26C231.28 112.57 226.26 153.41 216.82 154.24C216.82 154.24 190.78 173.26 173.9 172.72C154.38 172.09 133.41 157.42 133.41 157.42" id="hcGtGnWn4"></path><path d="M133.41 157.42C120.57 154.36 116.89 112.03 123.83 111.26C154.5 107.86 187.31 107.6 219.74 111.26C231.28 112.57 226.26 153.41 216.82 154.24C216.82 154.24 190.78 173.26 173.9 172.72C154.38 172.09 133.41 157.42 133.41 157.42" id="b5bXvy6Op"></path><path d="M179.02 121.28C175.27 124.23 175.63 135.96 182.24 143.81C188.86 151.65 191.78 161 204.02 150.41C210.04 145.2 212.69 134.11 206.08 126.27C199.46 118.42 182.67 118.41 179.02 121.28" id="b2Q8J9VCGp"></path><path d="M179.02 121.28C175.27 124.23 175.63 135.96 182.24 143.81C188.86 151.65 191.78 161 204.02 150.41C210.04 145.2 212.69 134.11 206.08 126.27C199.46 118.42 182.67 118.41 179.02 121.28" id="a1eEGVIjQ1"></path><path d="M153 121.28C156.75 124.23 156.39 135.96 149.78 143.81C143.16 151.65 140.25 161 128 150.41C121.99 145.2 119.33 134.11 125.94 126.27C132.56 118.42 149.35 118.41 153 121.28" id="agL7bQ80r"></path><path d="M153 121.28C156.75 124.23 156.39 135.96 149.78 143.81C143.16 151.65 140.25 161 128 150.41C121.99 145.2 119.33 134.11 125.94 126.27C132.56 118.42 149.35 118.41 153 121.28" id="bFENEaoR9"></path><path d="M165.27 155.15C167.6 155.15 173.42 145.75 172.25 143.86C171.09 141.98 159.45 141.98 158.29 143.86C157.13 145.75 162.94 155.15 165.27 155.15" id="dHe9O1oB9"></path><path d="M165.27 155.15C167.6 155.15 173.42 145.75 172.25 143.86C171.09 141.98 159.45 141.98 158.29 143.86C157.13 145.75 162.94 155.15 165.27 155.15" id="d1YVhJFGm4"></path><path d="M192.55 129.07C189.45 129.07 186.94 131.59 186.94 134.68C186.94 137.77 189.45 140.28 192.55 140.28C195.64 140.28 198.15 137.77 198.15 134.68C198.15 131.59 195.64 129.07 192.55 129.07" id="b2jOBamUWK"></path><path d="M192.55 129.07C189.45 129.07 186.94 131.59 186.94 134.68C186.94 137.77 189.45 140.28 192.55 140.28C195.64 140.28 198.15 137.77 198.15 134.68C198.15 131.59 195.64 129.07 192.55 129.07" id="b3O5Kefn1t"></path><path d="M139.48 129.07C142.57 129.07 145.08 131.59 145.08 134.68C145.08 137.77 142.57 140.28 139.48 140.28C136.38 140.28 133.87 137.77 133.87 134.68C133.87 131.59 136.38 129.07 139.48 129.07" id="ehSgyFobH"></path><path d="M139.48 129.07C142.57 129.07 145.08 131.59 145.08 134.68C145.08 137.77 142.57 140.28 139.48 140.28C136.38 140.28 133.87 137.77 133.87 134.68C133.87 131.59 136.38 129.07 139.48 129.07" id="a3QnGqESY3"></path><path d="M190.19 129.59C188.9 129.59 187.86 130.64 187.86 131.92C187.86 133.2 188.9 134.24 190.19 134.24C191.47 134.24 192.51 133.2 192.51 131.92C192.51 130.64 191.47 129.59 190.19 129.59" id="b2C6XaIaPv"></path><path d="M190.19 129.59C188.9 129.59 187.86 130.64 187.86 131.92C187.86 133.2 188.9 134.24 190.19 134.24C191.47 134.24 192.51 133.2 192.51 131.92C192.51 130.64 191.47 129.59 190.19 129.59" id="c1bqJ0m62p"></path><path d="M141.83 129.59C143.12 129.59 144.16 130.64 144.16 131.92C144.16 133.2 143.12 134.24 141.83 134.24C140.55 134.24 139.51 133.2 139.51 131.92C139.51 130.64 140.55 129.59 141.83 129.59" id="b55iTOkVf"></path><path d="M141.83 129.59C143.12 129.59 144.16 130.64 144.16 131.92C144.16 133.2 143.12 134.24 141.83 134.24C140.55 134.24 139.51 133.2 139.51 131.92C139.51 130.64 140.55 129.59 141.83 129.59" id="a21SPvXjeM"></path><path d="M175.95 64.99L177.67 65.12L179.39 65.29L181.1 65.52L182.81 65.79L184.51 66.11L186.2 66.49L187.88 66.91L189.55 67.38L191.2 67.9L192.84 68.47L194.46 69.09L196.07 69.77L197.65 70.49L199.21 71.26L200.75 72.08L202.26 72.95L202.98 72.41L203.7 71.89L204.44 71.4L205.19 70.94L205.95 70.51L206.72 70.1L207.5 69.73L208.28 69.38L209.07 69.06L209.87 68.77L210.67 68.51L211.48 68.28L212.29 68.08L213.11 67.9L213.92 67.76L214.74 67.64L215.55 67.55L216.37 67.49L217.18 67.46L217.99 67.46L218.8 67.49L219.6 67.55L220.4 67.63L221.19 67.75L221.97 67.89L222.75 68.06L223.52 68.27L224.28 68.5L225.03 68.76L225.77 69.05L226.49 69.37L227.21 69.71L227.91 70.09L228.59 70.5L229.26 70.93L229.92 71.4L230.56 71.89L231.18 72.42L231.78 72.97L232.36 73.55L232.95 74.2L233.51 74.87L234.04 75.56L234.53 76.27L234.98 77L235.4 77.74L235.79 78.5L236.14 79.27L236.46 80.06L236.75 80.85L237 81.66L237.21 82.48L237.4 83.31L237.55 84.15L237.66 84.99L237.75 85.85L237.8 86.7L237.81 87.56L237.79 88.43L237.74 89.29L237.66 90.16L237.54 91.02L237.39 91.89L237.21 92.75L237 93.61L236.75 94.47L236.47 95.32L236.16 96.17L235.81 97.01L235.43 97.84L235.02 98.66L234.58 99.47L234.11 100.27L233.6 101.05L233.06 101.83L232.49 102.59L231.89 103.33L231.25 104.06L230.59 104.77L229.89 105.46L229.82 105.53L229.75 105.59L229.68 105.66L229.61 105.72L229.54 105.79L229.47 105.86L229.4 105.92L229.33 105.99L229.25 106.05L229.18 106.11L229.11 106.18L229.04 106.24L228.97 106.3L228.89 106.37L228.82 106.43L228.68 106.55L228.6 106.61L228.53 106.67L228.46 106.74L228.38 106.8L228.24 106.92L228.16 106.98L228.09 107.03L228.02 107.09L227.94 107.15L227.87 107.21L227.79 107.27L227.72 107.33L227.64 107.38L227.57 107.44L227.49 107.5L227.42 107.55L227.34 107.61L227.27 107.67L227.19 107.72L227.12 107.78L227.04 107.83L226.96 107.89L227.01 108.08L227.05 108.27L227.13 108.65L227.17 108.84L227.21 109.03L227.25 109.23L227.29 109.42L227.33 109.61L227.37 109.81L227.41 110L227.44 110.2L227.48 110.39L227.52 110.59L227.55 110.79L227.59 110.98L227.62 111.18L227.66 111.38L227.69 111.58L227.72 111.78L227.75 111.97L227.79 112.17L227.85 112.57L227.88 112.78L228 113.58L228.02 113.79L228.05 113.99L228.08 114.19L228.1 114.4L228.13 114.6L228.15 114.81L228.18 115.01L228.2 115.22L228.22 115.42L228.25 115.63L228.27 115.84L228.27 131.9L228.53 134.28L228.69 136.58L228.77 138.81L228.77 140.97L228.68 143.05L228.5 145.07L228.25 147.01L227.93 148.89L227.52 150.7L227.04 152.44L226.49 154.12L225.87 155.73L225.19 157.28L224.43 158.77L223.61 160.19L222.73 161.56L221.79 162.87L220.8 164.12L219.74 165.31L218.63 166.45L217.47 167.53L216.26 168.56L215 169.54L213.69 170.47L212.33 171.34L210.94 172.17L209.5 172.95L208.03 173.68L206.52 174.37L204.97 175.01L203.39 175.6L201.78 176.16L200.14 176.67L198.47 177.14L196.78 177.57L195.06 177.97L193.32 178.32L191.56 178.64L189.79 178.93L188 179.18L188.27 179.79L188.53 180.38L188.77 180.97L188.98 181.54L189.18 182.1L189.36 182.65L189.52 183.19L189.66 183.73L189.78 184.25L189.89 184.77L189.99 185.28L190.07 185.78L190.14 186.28L190.2 186.77L190.28 187.75L190.31 188.23L190.32 188.71L190.33 189.19L190.33 190.14L190.32 190.62L190.3 191.1L190.28 191.58L190.26 192.06L190.24 192.55L190.21 193.04L190.19 193.53L190.16 194.03L190.14 194.53L190.12 195.04L190.1 195.56L190.08 196.09L190.07 196.62L190.06 197.16L190.06 197.71L190.08 198.85L190.1 199.43L190.13 200.03L190.19 201.17L190.23 202.31L190.24 203.43L190.24 204.55L190.21 205.65L190.17 206.74L190.11 207.83L190.03 208.9L189.93 209.96L189.81 211.01L189.68 212.05L189.54 213.08L189.38 214.09L189.2 215.09L189.01 216.08L188.81 217.06L188.59 218.02L188.37 218.97L188.13 219.9L187.88 220.82L187.62 221.73L187.35 222.62L187.08 223.5L186.79 224.36L186.5 225.2L186.2 226.03L185.9 226.84L185.59 227.63L185.27 228.41L184.95 229.17L184.63 229.92L184.3 230.64L183.97 231.35L183.64 232.04L183.3 232.7L182.97 233.35L182.64 233.99L182.3 234.6L181.97 235.19L181.64 235.76L182.49 238.19L183.2 240.49L183.77 242.66L184.2 244.71L184.5 246.64L184.68 248.45L184.74 250.15L184.68 251.73L184.51 253.21L184.24 254.59L183.86 255.86L183.39 257.03L182.83 258.11L182.17 259.09L181.44 259.98L180.62 260.79L179.74 261.51L178.78 262.15L177.77 262.72L176.69 263.21L175.56 263.62L174.37 263.97L173.15 264.25L171.88 264.47L170.58 264.63L169.25 264.73L167.89 264.78L166.51 264.77L165.11 264.72L163.71 264.63L162.29 264.49L160.87 264.31L159.46 264.1L158.05 263.86L156.65 263.58L155.27 263.28L153.92 262.95L152.58 262.61L151.28 262.24L150.01 261.86L149.9 261.83L149.8 261.82L149.69 261.81L149.6 261.82L149.5 261.83L149.41 261.85L149.32 261.89L149.14 261.97L149.06 262.03L148.98 262.09L148.9 262.16L148.82 262.24L148.75 262.32L148.68 262.4L148.6 262.49L148.53 262.58L148.46 262.68L148.39 262.77L148.33 262.87L148.26 262.97L148.19 263.08L148.12 263.18L148.06 263.28L147.92 263.48L147.85 263.58L147.78 263.68L147.72 263.77L147.64 263.86L147.57 263.95L147.5 264.03L147.43 264.11L147.27 264.25L147.19 264.31L147.11 264.36L147.02 264.4L146.94 264.44L146.85 264.47L146.62 264.5L146.38 264.49L146.14 264.43L145.9 264.32L145.66 264.16L145.43 263.97L145.19 263.73L144.95 263.46L144.71 263.16L144.48 262.82L144.25 262.45L144.03 262.05L143.81 261.62L143.6 261.17L143.4 260.7L143.2 260.21L143.02 259.7L142.84 259.18L142.67 258.64L142.52 258.09L142.38 257.53L142.25 256.97L142.13 256.4L142.03 255.82L141.95 255.25L141.88 254.68L141.82 254.11L141.79 253.55L141.77 252.99L141.78 252.45L141.8 251.92L141.85 251.4L141.92 250.9L142.01 250.42L142.12 249.96L142.26 249.52L142.42 249.11L142.61 248.72L142.83 248.37L143.07 248.05L143.51 247.88L143.93 247.72L144.35 247.57L144.76 247.43L145.16 247.29L145.55 247.17L145.94 247.06L146.31 246.95L146.68 246.85L147.04 246.75L147.39 246.66L147.74 246.58L148.08 246.51L148.41 246.43L148.73 246.37L149.35 246.25L149.65 246.2L149.94 246.15L150.22 246.1L150.5 246.05L150.76 246.01L151.02 245.97L151.28 245.93L151.52 245.89L151.76 245.86L151.99 245.82L152.22 245.78L152.43 245.75L152.64 245.71L153.04 245.63L153.22 245.59L153.4 245.54L153.58 245.5L153.74 245.45L153.9 245.39L154.05 245.33L154.2 245.27L154.33 245.21L152.22 244.43L150.08 243.66L147.91 242.89L145.73 242.12L143.52 241.36L141.3 240.6L139.08 239.85L136.84 239.1L134.59 238.36L132.35 237.62L130.1 236.89L127.86 236.17L123.4 234.75L121.19 234.06L118.99 233.37L116.81 232.69L114.66 232.03L112.53 231.37L110.42 230.73L108.35 230.1L106.32 229.48L104.31 228.87L102.35 228.28L100.44 227.71L98.57 227.14L96.74 226.6L94.98 226.07L93.26 225.55L91.61 225.06L90.01 224.58L88.48 224.11L87.02 223.67L85.63 223.25L84.31 222.84L83.07 222.46L81.91 222.1L80.83 221.76L79.84 221.44L78.93 221.14L78.97 221.07L79.01 220.93L79.06 220.74L79.1 220.49L79.14 220.18L79.19 219.82L79.24 219.42L79.28 218.97L79.33 218.48L79.38 217.95L79.44 217.39L79.49 216.79L79.55 216.17L79.61 215.52L79.67 214.85L79.74 214.16L79.8 213.46L79.88 212.75L79.95 212.02L80.11 210.56L80.2 209.83L80.29 209.1L80.38 208.38L80.48 207.67L80.58 206.98L80.69 206.3L80.8 205.64L80.92 205.01L81.04 204.4L81.17 203.82L81.3 203.28L81.44 202.77L81.58 202.3L81.73 201.88L81.89 201.5L82.06 201.17L82.23 200.89L82.4 200.67L82.59 200.51L82.67 200.46L82.75 200.42L82.83 200.39L82.92 200.37L83.01 200.36L83.2 200.36L83.3 200.38L83.4 200.4L83.5 200.43L83.6 200.46L83.7 200.5L83.81 200.55L83.91 200.61L84.01 200.67L84.12 200.73L84.22 200.8L84.32 200.88L84.43 200.96L84.53 201.05L84.63 201.14L84.73 201.23L84.83 201.33L84.92 201.43L85.02 201.53L85.11 201.64L85.2 201.75L85.28 201.86L85.37 201.97L85.45 202.09L85.52 202.2L85.6 202.32L85.67 202.44L85.73 202.55L85.85 202.79L85.9 202.91L85.95 203.02L85.99 203.14L86.03 203.25L86.05 203.26L86.13 203.26L86.26 203.27L86.64 203.27L86.9 203.28L87.19 203.28L87.52 203.29L87.89 203.29L88.28 203.3L88.71 203.3L89.17 203.31L90.15 203.31L90.68 203.32L91.22 203.32L91.78 203.33L92.36 203.33L92.95 203.34L93.55 203.34L94.15 203.35L94.77 203.36L95.38 203.36L96 203.37L96.62 203.38L97.23 203.38L97.84 203.39L98.44 203.4L99.03 203.41L99.61 203.42L100.17 203.43L100.72 203.44L101.25 203.45L101.76 203.46L102.24 203.47L102.7 203.49L103.14 203.5L103.54 203.52L103.91 203.53L104.25 203.55L104.84 203.58L105.44 203.61L106.04 203.65L106.63 203.68L107.83 203.76L108.42 203.8L109.62 203.88L110.21 203.92L110.81 203.97L111.4 204.01L112 204.06L112.6 204.11L113.19 204.16L113.79 204.21L114.38 204.26L114.98 204.32L115.57 204.37L116.17 204.43L116.76 204.49L117.36 204.55L117.95 204.61L118.55 204.67L119.14 204.74L119.74 204.8L120.33 204.87L120.92 204.94L121.52 205.01L122.11 205.08L122.7 205.15L123.3 205.23L123.89 205.3L124.48 205.38L125.07 205.46L125.67 205.54L126.26 205.62L126.85 205.71L127.44 205.79L128.03 205.88L128.24 205.43L128.44 204.98L128.65 204.53L128.87 204.07L129.08 203.62L129.3 203.16L129.52 202.7L129.74 202.23L129.96 201.77L130.19 201.3L130.41 200.84L130.64 200.37L130.88 199.9L131.11 199.43L131.35 198.96L131.59 198.5L131.82 198.03L132.07 197.56L132.31 197.09L132.56 196.63L132.8 196.16L133.3 195.24L133.56 194.78L133.81 194.32L134.06 193.86L134.32 193.41L134.58 192.96L134.84 192.51L135.1 192.07L135.36 191.62L135.63 191.19L135.89 190.75L136.43 189.89L136.97 189.05L137.24 188.64L137.51 188.23L137.79 187.82L137.72 187.85L137.65 187.87L137.59 187.9L137.52 187.92L137.45 187.95L137.39 187.98L137.32 188L137.26 188.03L137.19 188.05L137.12 188.08L137.06 188.1L136.99 188.13L136.93 188.16L136.86 188.18L136.8 188.21L136.73 188.23L136.67 188.26L136.6 188.29L136.53 188.31L136.47 188.34L136.4 188.37L136.34 188.39L136.28 188.42L136.21 188.45L136.15 188.47L136.08 188.5L136.02 188.53L135.95 188.55L135.89 188.58L135.82 188.61L135.76 188.63L135.7 188.66L135.63 188.69L135.57 188.71L135.5 188.74L135.44 188.77L135.38 188.79L135.31 188.82L135.25 188.85L135.19 188.87L134.92 188.99L134.65 189.1L134.39 189.22L134.12 189.34L133.86 189.46L133.59 189.58L133.33 189.7L133.06 189.83L132.8 189.95L132.54 190.08L132.27 190.21L131.75 190.47L131.5 190.61L131.24 190.75L130.98 190.89L130.73 191.03L130.48 191.18L130.23 191.32L129.98 191.48L129.74 191.63L129.5 191.79L129.26 191.94L129.02 192.11L128.78 192.27L128.55 192.44L128.32 192.61L128.1 192.79L127.88 192.96L127.66 193.15L127.44 193.33L127.02 193.71L126.62 194.11L126.43 194.31L126.23 194.52L126.05 194.74L125.87 194.95L125.69 195.17L125.68 195.17L125.67 195.18L125.63 195.18L125.62 195.19L125.6 195.19L125.59 195.2L125.57 195.2L125.56 195.21L125.55 195.21L125.54 195.22L125.53 195.23L125.52 195.23L125.51 195.24L125.5 195.24L125.5 195.25L125.48 195.27L125.47 195.28L125.47 195.29L125.46 195.3L125.46 195.31L125.45 195.32L125.45 195.34L125.29 195.06L125.31 195.14L125.31 195.31L125.32 195.48L125.33 195.64L125.34 195.79L125.36 196.09L125.37 196.23L125.37 196.37L125.39 196.63L125.4 196.76L125.41 196.88L125.41 197.01L125.42 197.13L125.42 197.59L125.41 197.7L125.41 197.81L125.4 197.92L125.39 198.03L125.38 198.14L125.36 198.26L125.32 198.48L125.29 198.6L125.26 198.71L125.23 198.83L125.19 198.95L125.15 199.07L125.11 199.2L125.06 199.33L125 199.46L124.94 199.6L124.88 199.73L124.74 200.03L124.66 200.18L124.58 200.33L124.54 200.39L124.51 200.45L124.45 200.55L124.41 200.61L124.38 200.66L124.34 200.71L124.3 200.77L124.27 200.82L124.19 200.92L124.15 200.97L124.11 201.02L124.07 201.07L124.03 201.12L123.95 201.22L123.9 201.27L123.86 201.31L123.82 201.36L123.78 201.41L123.73 201.46L123.69 201.51L123.65 201.55L123.6 201.6L123.52 201.7L123.47 201.75L123.43 201.79L123.39 201.84L123.34 201.89L123.3 201.94L123.21 202.03L123.09 202.18L123.05 202.23L123 202.28L122.96 202.33L122.74 202.45L122.68 202.48L122.57 202.54L122.46 202.6L122.29 202.69L122.07 202.81L122.01 202.84L121.68 203.02L121.45 203.15L121.29 203.24L121.23 203.27L121.01 203.39L120.89 203.45L120.84 203.48L120.73 203.54L120.72 203.54L118.13 203.75L117.95 203.69L117.89 203.67L117.82 203.65L117.76 203.63L117.7 203.62L117.64 203.6L117.57 203.58L117.51 203.57L117.45 203.55L117.39 203.53L117.26 203.5L117.2 203.49L117.14 203.47L117.07 203.45L117.01 203.44L116.95 203.42L116.89 203.4L116.82 203.38L116.76 203.37L116.7 203.35L116.58 203.31L116.51 203.29L116.45 203.27L116.39 203.25L116.21 203.19L116.15 203.16L116.09 203.14L116.03 203.12L115.97 203.09L115.92 203.06L115.86 203.04L115.74 202.98L115.69 202.95L115.53 202.86L115.38 202.78L115.24 202.69L115.11 202.61L114.98 202.53L114.86 202.44L114.74 202.36L114.52 202.2L114.42 202.12L114.33 202.04L114.24 201.95L114.15 201.87L113.99 201.71L113.91 201.62L113.84 201.54L113.63 201.27L113.51 201.09L113.45 200.99L113.39 200.9L113.27 200.7L113.21 200.59L113.15 200.49L113.09 200.38L113.03 200.27L112.91 200.03L112.77 199.79L112.71 199.66L112.63 199.53L112.56 199.39L112.48 199.25L112.4 199.1L112.32 198.96L112.31 198.93L112.3 198.91L112.3 198.88L112.29 198.85L112.28 198.81L112.26 198.77L112.25 198.72L112.24 198.67L112.22 198.61L112.2 198.55L112.19 198.49L112.17 198.42L112.15 198.34L112.13 198.27L112.11 198.19L112.09 198.1L112.07 198.02L112.04 197.93L112.02 197.83L112 197.74L111.96 197.54L111.94 197.44L111.91 197.33L111.89 197.22L111.87 197.12L111.85 197.01L111.83 196.9L111.81 196.78L111.8 196.67L111.78 196.56L111.76 196.44L111.75 196.32L111.73 196.21L111.72 196.09L111.71 195.98L111.7 195.86L111.69 195.75L111.67 195.3L111.67 194.86L111.68 194.41L111.7 193.97L111.74 193.53L111.8 193.09L111.87 192.65L111.95 192.22L112.05 191.79L112.16 191.36L112.28 190.93L112.41 190.51L112.56 190.08L112.72 189.66L112.89 189.25L113.06 188.84L113.46 188.02L113.66 187.62L113.88 187.22L114.11 186.82L114.35 186.43L114.59 186.05L114.84 185.67L115.1 185.29L115.64 184.55L115.92 184.19L116.21 183.83L116.5 183.48L116.8 183.13L117.4 182.45L117.71 182.12L118.02 181.8L118.34 181.48L118.66 181.17L118.98 180.86L119.3 180.56L119.62 180.27L119.96 179.98L120.29 179.69L120.63 179.4L120.97 179.12L121.32 178.84L121.66 178.56L122.01 178.29L122.37 178.02L122.72 177.75L123.44 177.23L123.8 176.97L124.16 176.72L124.53 176.47L124.9 176.22L125.64 175.74L126.02 175.5L126.39 175.26L127.15 174.8L127.54 174.57L127.92 174.35L128.7 173.91L129.09 173.7L129.48 173.48L129.87 173.28L130.26 173.07L131.46 172.47L131.86 172.27L132.66 171.89L133.06 171.71L133.47 171.52L133.87 171.34L134.28 171.16L134.69 170.99L133.86 170.44L133.05 169.88L132.26 169.29L131.49 168.69L130.74 168.07L130 167.43L129.28 166.76L128.59 166.08L127.91 165.38L127.25 164.65L126.62 163.9L126 163.14L125.41 162.35L124.84 161.53L124.29 160.7L123.77 159.84L123.27 158.97L122.79 158.06L122.34 157.14L121.91 156.19L121.51 155.22L121.13 154.22L120.79 153.2L120.46 152.15L120.17 151.08L119.9 149.99L119.66 148.87L119.45 147.72L119.27 146.55L119.12 145.35L119 144.13L118.9 142.88L118.84 141.6L118.81 140.3L118.82 138.97L118.85 137.61L118.92 136.23L119.02 134.81L119.15 133.37L119.32 131.9L119.32 115.6L119.33 115.36L119.33 115.13L119.34 114.89L119.34 114.66L119.35 114.42L119.36 114.19L119.37 113.95L119.37 113.72L119.38 113.49L119.4 113.26L119.41 113.02L119.42 112.79L119.43 112.56L119.45 112.33L119.46 112.1L119.48 111.87L119.5 111.65L119.51 111.42L119.55 110.96L119.57 110.74L119.59 110.51L119.62 110.29L119.64 110.06L119.66 109.84L119.69 109.62L119.71 109.39L119.74 109.17L119.76 108.95L119.97 107.41L120.01 107.19L120.04 106.98L120.08 106.76L119.92 106.69L119.76 106.61L119.61 106.54L119.45 106.46L119.3 106.38L119.14 106.3L118.99 106.22L118.84 106.14L118.68 106.05L118.53 105.97L118.38 105.88L118.23 105.79L118.07 105.7L117.77 105.52L117.62 105.42L117.47 105.33L117.33 105.23L117.18 105.13L117.03 105.03L116.88 104.93L116.74 104.83L116.59 104.73L116.45 104.62L116.3 104.51L116.16 104.41L116.01 104.3L115.87 104.19L115.73 104.07L115.45 103.85L115.17 103.61L115.03 103.49L114.75 103.25L114.62 103.13L114.48 103L114.35 102.88L114.21 102.75L113.64 102.18L113.09 101.6L112.57 101L112.07 100.38L111.6 99.76L111.16 99.12L110.74 98.47L110.35 97.81L109.98 97.14L109.64 96.47L109.33 95.78L109.05 95.09L108.79 94.39L108.56 93.69L108.35 92.99L108.18 92.28L108.03 91.56L107.9 90.85L107.81 90.14L107.74 89.42L107.7 88.71L107.68 88L107.7 87.29L107.74 86.58L107.81 85.88L107.9 85.18L108.02 84.49L108.18 83.81L108.36 83.13L108.56 82.46L108.8 81.81L109.06 81.16L109.35 80.52L109.67 79.9L110.02 79.28L110.39 78.69L110.8 78.1L111.23 77.53L111.69 76.98L112.18 76.45L112.67 75.95L113.18 75.49L113.71 75.04L114.25 74.63L114.8 74.24L115.37 73.87L115.96 73.53L116.55 73.22L117.16 72.93L117.77 72.66L118.4 72.43L119.04 72.21L119.68 72.03L120.34 71.86L121 71.73L121.66 71.62L122.34 71.53L123.01 71.47L123.69 71.43L124.38 71.42L125.07 71.44L125.76 71.48L126.44 71.54L127.14 71.63L127.82 71.74L128.51 71.88L129.2 72.05L129.88 72.24L130.56 72.45L131.24 72.69L131.91 72.96L132.58 73.25L133.24 73.56L133.89 73.9L134.53 74.26L135.17 74.65L135.79 75.07L136.41 75.5L137.01 75.97L137.6 76.45L138.95 75.43L140.32 74.45L141.73 73.52L143.17 72.64L144.64 71.8L146.13 71.01L147.65 70.27L149.19 69.57L150.76 68.93L152.35 68.33L153.96 67.78L155.58 67.27L157.23 66.82L158.88 66.41L160.55 66.05L162.24 65.74L163.93 65.47L165.63 65.26L167.34 65.09L169.06 64.97L170.78 64.9L172.5 64.88L174.22 64.91L175.95 64.99ZM171.52 119.04L170.37 119.06L169.21 119.09L166.89 119.17L165.72 119.22L164.55 119.28L163.37 119.34L162.19 119.41L161.01 119.48L159.82 119.56L158.63 119.64L157.44 119.73L156.24 119.82L155.05 119.92L153.85 120.02L152.65 120.12L151.45 120.23L150.24 120.34L149.04 120.46L147.84 120.57L146.63 120.69L145.43 120.81L144.23 120.94L143.02 121.06L140.62 121.32L139.42 121.45L138.22 121.59L137.02 121.72L135.83 121.85L134.64 121.99L133.45 122.12L132.26 122.26L131.08 122.39L129.9 122.53L128.72 122.66L127.55 122.79L126.38 122.93L125.8 123.05L125.26 123.26L124.76 123.56L124.31 123.93L123.89 124.38L123.52 124.89L123.19 125.47L122.89 126.11L122.64 126.8L122.42 127.54L122.24 128.33L122.09 129.16L121.97 130.03L121.89 130.93L121.84 131.86L121.82 132.81L121.84 133.78L121.88 134.76L121.95 135.75L122.04 136.75L122.17 137.74L122.32 138.73L122.49 139.72L122.69 140.68L122.91 141.63L123.16 142.56L123.42 143.46L123.7 144.33L124.01 145.16L124.33 145.95L124.67 146.7L125.02 147.39L125.4 148.03L125.78 148.61L126.18 149.13L126.59 149.57L127.02 149.95L127.45 150.24L127.9 150.46L128.35 150.58L208.8 149.35L209.5 149.31L210.2 149.17L210.88 148.94L211.56 148.63L212.23 148.23L212.89 147.75L213.53 147.2L214.16 146.59L214.77 145.91L215.36 145.18L215.93 144.39L216.48 143.56L217 142.68L217.49 141.77L217.96 140.83L218.39 139.85L218.8 138.86L219.17 137.85L219.51 136.82L219.8 135.79L220.06 134.75L220.28 133.72L220.45 132.69L220.58 131.68L220.67 130.68L220.7 129.71L220.69 128.76L220.62 127.85L220.5 126.97L220.33 126.13L220.1 125.34L219.8 124.61L219.45 123.92L219.04 123.31L218.56 122.75L218.01 122.27L217.4 121.87L216.72 121.54L215.96 121.31L215.13 121.16L213.98 121.03L212.84 120.91L211.71 120.79L210.61 120.68L209.51 120.57L208.44 120.46L207.37 120.37L206.32 120.27L205.28 120.18L204.24 120.1L203.22 120.02L202.21 119.94L201.2 119.87L200.2 119.8L199.21 119.73L198.22 119.67L197.24 119.61L196.26 119.56L195.28 119.51L194.31 119.46L193.33 119.41L192.36 119.37L191.38 119.33L190.41 119.3L189.43 119.26L188.44 119.23L187.45 119.21L186.46 119.18L185.46 119.16L184.45 119.13L183.44 119.12L181.38 119.08L180.33 119.07L179.28 119.05L178.21 119.04L177.13 119.03L176.03 119.02L174.92 119.02L173.8 119.01L172.66 119.02L171.52 119.04Z" id="b5Sza3DEmR"></path><path d="M175.95 64.99L177.67 65.12L179.39 65.29L181.1 65.52L182.81 65.79L184.51 66.11L186.2 66.49L187.88 66.91L189.55 67.38L191.2 67.9L192.84 68.47L194.46 69.09L196.07 69.77L197.65 70.49L199.21 71.26L200.75 72.08L202.26 72.95L202.98 72.41L203.7 71.89L204.44 71.4L205.19 70.94L205.95 70.51L206.72 70.1L207.5 69.73L208.28 69.38L209.07 69.06L209.87 68.77L210.67 68.51L211.48 68.28L212.29 68.08L213.11 67.9L213.92 67.76L214.74 67.64L215.55 67.55L216.37 67.49L217.18 67.46L217.99 67.46L218.8 67.49L219.6 67.55L220.4 67.63L221.19 67.75L221.97 67.89L222.75 68.06L223.52 68.27L224.28 68.5L225.03 68.76L225.77 69.05L226.49 69.37L227.21 69.71L227.91 70.09L228.59 70.5L229.26 70.93L229.92 71.4L230.56 71.89L231.18 72.42L231.78 72.97L232.36 73.55L232.95 74.2L233.51 74.87L234.04 75.56L234.53 76.27L234.98 77L235.4 77.74L235.79 78.5L236.14 79.27L236.46 80.06L236.75 80.85L237 81.66L237.21 82.48L237.4 83.31L237.55 84.15L237.66 84.99L237.75 85.85L237.8 86.7L237.81 87.56L237.79 88.43L237.74 89.29L237.66 90.16L237.54 91.02L237.39 91.89L237.21 92.75L237 93.61L236.75 94.47L236.47 95.32L236.16 96.17L235.81 97.01L235.43 97.84L235.02 98.66L234.58 99.47L234.11 100.27L233.6 101.05L233.06 101.83L232.49 102.59L231.89 103.33L231.25 104.06L230.59 104.77L229.89 105.46L229.82 105.53L229.75 105.59L229.68 105.66L229.61 105.72L229.54 105.79L229.47 105.86L229.4 105.92L229.33 105.99L229.25 106.05L229.18 106.11L229.11 106.18L229.04 106.24L228.97 106.3L228.89 106.37L228.82 106.43L228.68 106.55L228.6 106.61L228.53 106.67L228.46 106.74L228.38 106.8L228.24 106.92L228.16 106.98L228.09 107.03L228.02 107.09L227.94 107.15L227.87 107.21L227.79 107.27L227.72 107.33L227.64 107.38L227.57 107.44L227.49 107.5L227.42 107.55L227.34 107.61L227.27 107.67L227.19 107.72L227.12 107.78L227.04 107.83L226.96 107.89L227.01 108.08L227.05 108.27L227.13 108.65L227.17 108.84L227.21 109.03L227.25 109.23L227.29 109.42L227.33 109.61L227.37 109.81L227.41 110L227.44 110.2L227.48 110.39L227.52 110.59L227.55 110.79L227.59 110.98L227.62 111.18L227.66 111.38L227.69 111.58L227.72 111.78L227.75 111.97L227.79 112.17L227.85 112.57L227.88 112.78L228 113.58L228.02 113.79L228.05 113.99L228.08 114.19L228.1 114.4L228.13 114.6L228.15 114.81L228.18 115.01L228.2 115.22L228.22 115.42L228.25 115.63L228.27 115.84L228.27 131.9L228.53 134.28L228.69 136.58L228.77 138.81L228.77 140.97L228.68 143.05L228.5 145.07L228.25 147.01L227.93 148.89L227.52 150.7L227.04 152.44L226.49 154.12L225.87 155.73L225.19 157.28L224.43 158.77L223.61 160.19L222.73 161.56L221.79 162.87L220.8 164.12L219.74 165.31L218.63 166.45L217.47 167.53L216.26 168.56L215 169.54L213.69 170.47L212.33 171.34L210.94 172.17L209.5 172.95L208.03 173.68L206.52 174.37L204.97 175.01L203.39 175.6L201.78 176.16L200.14 176.67L198.47 177.14L196.78 177.57L195.06 177.97L193.32 178.32L191.56 178.64L189.79 178.93L188 179.18L188.27 179.79L188.53 180.38L188.77 180.97L188.98 181.54L189.18 182.1L189.36 182.65L189.52 183.19L189.66 183.73L189.78 184.25L189.89 184.77L189.99 185.28L190.07 185.78L190.14 186.28L190.2 186.77L190.28 187.75L190.31 188.23L190.32 188.71L190.33 189.19L190.33 190.14L190.32 190.62L190.3 191.1L190.28 191.58L190.26 192.06L190.24 192.55L190.21 193.04L190.19 193.53L190.16 194.03L190.14 194.53L190.12 195.04L190.1 195.56L190.08 196.09L190.07 196.62L190.06 197.16L190.06 197.71L190.08 198.85L190.1 199.43L190.13 200.03L190.19 201.17L190.23 202.31L190.24 203.43L190.24 204.55L190.21 205.65L190.17 206.74L190.11 207.83L190.03 208.9L189.93 209.96L189.81 211.01L189.68 212.05L189.54 213.08L189.38 214.09L189.2 215.09L189.01 216.08L188.81 217.06L188.59 218.02L188.37 218.97L188.13 219.9L187.88 220.82L187.62 221.73L187.35 222.62L187.08 223.5L186.79 224.36L186.5 225.2L186.2 226.03L185.9 226.84L185.59 227.63L185.27 228.41L184.95 229.17L184.63 229.92L184.3 230.64L183.97 231.35L183.64 232.04L183.3 232.7L182.97 233.35L182.64 233.99L182.3 234.6L181.97 235.19L181.64 235.76L182.49 238.19L183.2 240.49L183.77 242.66L184.2 244.71L184.5 246.64L184.68 248.45L184.74 250.15L184.68 251.73L184.51 253.21L184.24 254.59L183.86 255.86L183.39 257.03L182.83 258.11L182.17 259.09L181.44 259.98L180.62 260.79L179.74 261.51L178.78 262.15L177.77 262.72L176.69 263.21L175.56 263.62L174.37 263.97L173.15 264.25L171.88 264.47L170.58 264.63L169.25 264.73L167.89 264.78L166.51 264.77L165.11 264.72L163.71 264.63L162.29 264.49L160.87 264.31L159.46 264.1L158.05 263.86L156.65 263.58L155.27 263.28L153.92 262.95L152.58 262.61L151.28 262.24L150.01 261.86L149.9 261.83L149.8 261.82L149.69 261.81L149.6 261.82L149.5 261.83L149.41 261.85L149.32 261.89L149.14 261.97L149.06 262.03L148.98 262.09L148.9 262.16L148.82 262.24L148.75 262.32L148.68 262.4L148.6 262.49L148.53 262.58L148.46 262.68L148.39 262.77L148.33 262.87L148.26 262.97L148.19 263.08L148.12 263.18L148.06 263.28L147.92 263.48L147.85 263.58L147.78 263.68L147.72 263.77L147.64 263.86L147.57 263.95L147.5 264.03L147.43 264.11L147.27 264.25L147.19 264.31L147.11 264.36L147.02 264.4L146.94 264.44L146.85 264.47L146.62 264.5L146.38 264.49L146.14 264.43L145.9 264.32L145.66 264.16L145.43 263.97L145.19 263.73L144.95 263.46L144.71 263.16L144.48 262.82L144.25 262.45L144.03 262.05L143.81 261.62L143.6 261.17L143.4 260.7L143.2 260.21L143.02 259.7L142.84 259.18L142.67 258.64L142.52 258.09L142.38 257.53L142.25 256.97L142.13 256.4L142.03 255.82L141.95 255.25L141.88 254.68L141.82 254.11L141.79 253.55L141.77 252.99L141.78 252.45L141.8 251.92L141.85 251.4L141.92 250.9L142.01 250.42L142.12 249.96L142.26 249.52L142.42 249.11L142.61 248.72L142.83 248.37L143.07 248.05L143.51 247.88L143.93 247.72L144.35 247.57L144.76 247.43L145.16 247.29L145.55 247.17L145.94 247.06L146.31 246.95L146.68 246.85L147.04 246.75L147.39 246.66L147.74 246.58L148.08 246.51L148.41 246.43L148.73 246.37L149.35 246.25L149.65 246.2L149.94 246.15L150.22 246.1L150.5 246.05L150.76 246.01L151.02 245.97L151.28 245.93L151.52 245.89L151.76 245.86L151.99 245.82L152.22 245.78L152.43 245.75L152.64 245.71L153.04 245.63L153.22 245.59L153.4 245.54L153.58 245.5L153.74 245.45L153.9 245.39L154.05 245.33L154.2 245.27L154.33 245.21L152.22 244.43L150.08 243.66L147.91 242.89L145.73 242.12L143.52 241.36L141.3 240.6L139.08 239.85L136.84 239.1L134.59 238.36L132.35 237.62L130.1 236.89L127.86 236.17L123.4 234.75L121.19 234.06L118.99 233.37L116.81 232.69L114.66 232.03L112.53 231.37L110.42 230.73L108.35 230.1L106.32 229.48L104.31 228.87L102.35 228.28L100.44 227.71L98.57 227.14L96.74 226.6L94.98 226.07L93.26 225.55L91.61 225.06L90.01 224.58L88.48 224.11L87.02 223.67L85.63 223.25L84.31 222.84L83.07 222.46L81.91 222.1L80.83 221.76L79.84 221.44L78.93 221.14L78.97 221.07L79.01 220.93L79.06 220.74L79.1 220.49L79.14 220.18L79.19 219.82L79.24 219.42L79.28 218.97L79.33 218.48L79.38 217.95L79.44 217.39L79.49 216.79L79.55 216.17L79.61 215.52L79.67 214.85L79.74 214.16L79.8 213.46L79.88 212.75L79.95 212.02L80.11 210.56L80.2 209.83L80.29 209.1L80.38 208.38L80.48 207.67L80.58 206.98L80.69 206.3L80.8 205.64L80.92 205.01L81.04 204.4L81.17 203.82L81.3 203.28L81.44 202.77L81.58 202.3L81.73 201.88L81.89 201.5L82.06 201.17L82.23 200.89L82.4 200.67L82.59 200.51L82.67 200.46L82.75 200.42L82.83 200.39L82.92 200.37L83.01 200.36L83.2 200.36L83.3 200.38L83.4 200.4L83.5 200.43L83.6 200.46L83.7 200.5L83.81 200.55L83.91 200.61L84.01 200.67L84.12 200.73L84.22 200.8L84.32 200.88L84.43 200.96L84.53 201.05L84.63 201.14L84.73 201.23L84.83 201.33L84.92 201.43L85.02 201.53L85.11 201.64L85.2 201.75L85.28 201.86L85.37 201.97L85.45 202.09L85.52 202.2L85.6 202.32L85.67 202.44L85.73 202.55L85.85 202.79L85.9 202.91L85.95 203.02L85.99 203.14L86.03 203.25L86.05 203.26L86.13 203.26L86.26 203.27L86.64 203.27L86.9 203.28L87.19 203.28L87.52 203.29L87.89 203.29L88.28 203.3L88.71 203.3L89.17 203.31L90.15 203.31L90.68 203.32L91.22 203.32L91.78 203.33L92.36 203.33L92.95 203.34L93.55 203.34L94.15 203.35L94.77 203.36L95.38 203.36L96 203.37L96.62 203.38L97.23 203.38L97.84 203.39L98.44 203.4L99.03 203.41L99.61 203.42L100.17 203.43L100.72 203.44L101.25 203.45L101.76 203.46L102.24 203.47L102.7 203.49L103.14 203.5L103.54 203.52L103.91 203.53L104.25 203.55L104.84 203.58L105.44 203.61L106.04 203.65L106.63 203.68L107.83 203.76L108.42 203.8L109.62 203.88L110.21 203.92L110.81 203.97L111.4 204.01L112 204.06L112.6 204.11L113.19 204.16L113.79 204.21L114.38 204.26L114.98 204.32L115.57 204.37L116.17 204.43L116.76 204.49L117.36 204.55L117.95 204.61L118.55 204.67L119.14 204.74L119.74 204.8L120.33 204.87L120.92 204.94L121.52 205.01L122.11 205.08L122.7 205.15L123.3 205.23L123.89 205.3L124.48 205.38L125.07 205.46L125.67 205.54L126.26 205.62L126.85 205.71L127.44 205.79L128.03 205.88L128.24 205.43L128.44 204.98L128.65 204.53L128.87 204.07L129.08 203.62L129.3 203.16L129.52 202.7L129.74 202.23L129.96 201.77L130.19 201.3L130.41 200.84L130.64 200.37L130.88 199.9L131.11 199.43L131.35 198.96L131.59 198.5L131.82 198.03L132.07 197.56L132.31 197.09L132.56 196.63L132.8 196.16L133.3 195.24L133.56 194.78L133.81 194.32L134.06 193.86L134.32 193.41L134.58 192.96L134.84 192.51L135.1 192.07L135.36 191.62L135.63 191.19L135.89 190.75L136.43 189.89L136.97 189.05L137.24 188.64L137.51 188.23L137.79 187.82L137.72 187.85L137.65 187.87L137.59 187.9L137.52 187.92L137.45 187.95L137.39 187.98L137.32 188L137.26 188.03L137.19 188.05L137.12 188.08L137.06 188.1L136.99 188.13L136.93 188.16L136.86 188.18L136.8 188.21L136.73 188.23L136.67 188.26L136.6 188.29L136.53 188.31L136.47 188.34L136.4 188.37L136.34 188.39L136.28 188.42L136.21 188.45L136.15 188.47L136.08 188.5L136.02 188.53L135.95 188.55L135.89 188.58L135.82 188.61L135.76 188.63L135.7 188.66L135.63 188.69L135.57 188.71L135.5 188.74L135.44 188.77L135.38 188.79L135.31 188.82L135.25 188.85L135.19 188.87L134.92 188.99L134.65 189.1L134.39 189.22L134.12 189.34L133.86 189.46L133.59 189.58L133.33 189.7L133.06 189.83L132.8 189.95L132.54 190.08L132.27 190.21L131.75 190.47L131.5 190.61L131.24 190.75L130.98 190.89L130.73 191.03L130.48 191.18L130.23 191.32L129.98 191.48L129.74 191.63L129.5 191.79L129.26 191.94L129.02 192.11L128.78 192.27L128.55 192.44L128.32 192.61L128.1 192.79L127.88 192.96L127.66 193.15L127.44 193.33L127.02 193.71L126.62 194.11L126.43 194.31L126.23 194.52L126.05 194.74L125.87 194.95L125.69 195.17L125.68 195.17L125.67 195.18L125.63 195.18L125.62 195.19L125.6 195.19L125.59 195.2L125.57 195.2L125.56 195.21L125.55 195.21L125.54 195.22L125.53 195.23L125.52 195.23L125.51 195.24L125.5 195.24L125.5 195.25L125.48 195.27L125.47 195.28L125.47 195.29L125.46 195.3L125.46 195.31L125.45 195.32L125.45 195.34L125.29 195.06L125.31 195.14L125.31 195.31L125.32 195.48L125.33 195.64L125.34 195.79L125.36 196.09L125.37 196.23L125.37 196.37L125.39 196.63L125.4 196.76L125.41 196.88L125.41 197.01L125.42 197.13L125.42 197.59L125.41 197.7L125.41 197.81L125.4 197.92L125.39 198.03L125.38 198.14L125.36 198.26L125.32 198.48L125.29 198.6L125.26 198.71L125.23 198.83L125.19 198.95L125.15 199.07L125.11 199.2L125.06 199.33L125 199.46L124.94 199.6L124.88 199.73L124.74 200.03L124.66 200.18L124.58 200.33L124.54 200.39L124.51 200.45L124.45 200.55L124.41 200.61L124.38 200.66L124.34 200.71L124.3 200.77L124.27 200.82L124.19 200.92L124.15 200.97L124.11 201.02L124.07 201.07L124.03 201.12L123.95 201.22L123.9 201.27L123.86 201.31L123.82 201.36L123.78 201.41L123.73 201.46L123.69 201.51L123.65 201.55L123.6 201.6L123.52 201.7L123.47 201.75L123.43 201.79L123.39 201.84L123.34 201.89L123.3 201.94L123.21 202.03L123.09 202.18L123.05 202.23L123 202.28L122.96 202.33L122.74 202.45L122.68 202.48L122.57 202.54L122.46 202.6L122.29 202.69L122.07 202.81L122.01 202.84L121.68 203.02L121.45 203.15L121.29 203.24L121.23 203.27L121.01 203.39L120.89 203.45L120.84 203.48L120.73 203.54L120.72 203.54L118.13 203.75L117.95 203.69L117.89 203.67L117.82 203.65L117.76 203.63L117.7 203.62L117.64 203.6L117.57 203.58L117.51 203.57L117.45 203.55L117.39 203.53L117.26 203.5L117.2 203.49L117.14 203.47L117.07 203.45L117.01 203.44L116.95 203.42L116.89 203.4L116.82 203.38L116.76 203.37L116.7 203.35L116.58 203.31L116.51 203.29L116.45 203.27L116.39 203.25L116.21 203.19L116.15 203.16L116.09 203.14L116.03 203.12L115.97 203.09L115.92 203.06L115.86 203.04L115.74 202.98L115.69 202.95L115.53 202.86L115.38 202.78L115.24 202.69L115.11 202.61L114.98 202.53L114.86 202.44L114.74 202.36L114.52 202.2L114.42 202.12L114.33 202.04L114.24 201.95L114.15 201.87L113.99 201.71L113.91 201.62L113.84 201.54L113.63 201.27L113.51 201.09L113.45 200.99L113.39 200.9L113.27 200.7L113.21 200.59L113.15 200.49L113.09 200.38L113.03 200.27L112.91 200.03L112.77 199.79L112.71 199.66L112.63 199.53L112.56 199.39L112.48 199.25L112.4 199.1L112.32 198.96L112.31 198.93L112.3 198.91L112.3 198.88L112.29 198.85L112.28 198.81L112.26 198.77L112.25 198.72L112.24 198.67L112.22 198.61L112.2 198.55L112.19 198.49L112.17 198.42L112.15 198.34L112.13 198.27L112.11 198.19L112.09 198.1L112.07 198.02L112.04 197.93L112.02 197.83L112 197.74L111.96 197.54L111.94 197.44L111.91 197.33L111.89 197.22L111.87 197.12L111.85 197.01L111.83 196.9L111.81 196.78L111.8 196.67L111.78 196.56L111.76 196.44L111.75 196.32L111.73 196.21L111.72 196.09L111.71 195.98L111.7 195.86L111.69 195.75L111.67 195.3L111.67 194.86L111.68 194.41L111.7 193.97L111.74 193.53L111.8 193.09L111.87 192.65L111.95 192.22L112.05 191.79L112.16 191.36L112.28 190.93L112.41 190.51L112.56 190.08L112.72 189.66L112.89 189.25L113.06 188.84L113.46 188.02L113.66 187.62L113.88 187.22L114.11 186.82L114.35 186.43L114.59 186.05L114.84 185.67L115.1 185.29L115.64 184.55L115.92 184.19L116.21 183.83L116.5 183.48L116.8 183.13L117.4 182.45L117.71 182.12L118.02 181.8L118.34 181.48L118.66 181.17L118.98 180.86L119.3 180.56L119.62 180.27L119.96 179.98L120.29 179.69L120.63 179.4L120.97 179.12L121.32 178.84L121.66 178.56L122.01 178.29L122.37 178.02L122.72 177.75L123.44 177.23L123.8 176.97L124.16 176.72L124.53 176.47L124.9 176.22L125.64 175.74L126.02 175.5L126.39 175.26L127.15 174.8L127.54 174.57L127.92 174.35L128.7 173.91L129.09 173.7L129.48 173.48L129.87 173.28L130.26 173.07L131.46 172.47L131.86 172.27L132.66 171.89L133.06 171.71L133.47 171.52L133.87 171.34L134.28 171.16L134.69 170.99L133.86 170.44L133.05 169.88L132.26 169.29L131.49 168.69L130.74 168.07L130 167.43L129.28 166.76L128.59 166.08L127.91 165.38L127.25 164.65L126.62 163.9L126 163.14L125.41 162.35L124.84 161.53L124.29 160.7L123.77 159.84L123.27 158.97L122.79 158.06L122.34 157.14L121.91 156.19L121.51 155.22L121.13 154.22L120.79 153.2L120.46 152.15L120.17 151.08L119.9 149.99L119.66 148.87L119.45 147.72L119.27 146.55L119.12 145.35L119 144.13L118.9 142.88L118.84 141.6L118.81 140.3L118.82 138.97L118.85 137.61L118.92 136.23L119.02 134.81L119.15 133.37L119.32 131.9L119.32 115.6L119.33 115.36L119.33 115.13L119.34 114.89L119.34 114.66L119.35 114.42L119.36 114.19L119.37 113.95L119.37 113.72L119.38 113.49L119.4 113.26L119.41 113.02L119.42 112.79L119.43 112.56L119.45 112.33L119.46 112.1L119.48 111.87L119.5 111.65L119.51 111.42L119.55 110.96L119.57 110.74L119.59 110.51L119.62 110.29L119.64 110.06L119.66 109.84L119.69 109.62L119.71 109.39L119.74 109.17L119.76 108.95L119.97 107.41L120.01 107.19L120.04 106.98L120.08 106.76L119.92 106.69L119.76 106.61L119.61 106.54L119.45 106.46L119.3 106.38L119.14 106.3L118.99 106.22L118.84 106.14L118.68 106.05L118.53 105.97L118.38 105.88L118.23 105.79L118.07 105.7L117.77 105.52L117.62 105.42L117.47 105.33L117.33 105.23L117.18 105.13L117.03 105.03L116.88 104.93L116.74 104.83L116.59 104.73L116.45 104.62L116.3 104.51L116.16 104.41L116.01 104.3L115.87 104.19L115.73 104.07L115.45 103.85L115.17 103.61L115.03 103.49L114.75 103.25L114.62 103.13L114.48 103L114.35 102.88L114.21 102.75L113.64 102.18L113.09 101.6L112.57 101L112.07 100.38L111.6 99.76L111.16 99.12L110.74 98.47L110.35 97.81L109.98 97.14L109.64 96.47L109.33 95.78L109.05 95.09L108.79 94.39L108.56 93.69L108.35 92.99L108.18 92.28L108.03 91.56L107.9 90.85L107.81 90.14L107.74 89.42L107.7 88.71L107.68 88L107.7 87.29L107.74 86.58L107.81 85.88L107.9 85.18L108.02 84.49L108.18 83.81L108.36 83.13L108.56 82.46L108.8 81.81L109.06 81.16L109.35 80.52L109.67 79.9L110.02 79.28L110.39 78.69L110.8 78.1L111.23 77.53L111.69 76.98L112.18 76.45L112.67 75.95L113.18 75.49L113.71 75.04L114.25 74.63L114.8 74.24L115.37 73.87L115.96 73.53L116.55 73.22L117.16 72.93L117.77 72.66L118.4 72.43L119.04 72.21L119.68 72.03L120.34 71.86L121 71.73L121.66 71.62L122.34 71.53L123.01 71.47L123.69 71.43L124.38 71.42L125.07 71.44L125.76 71.48L126.44 71.54L127.14 71.63L127.82 71.74L128.51 71.88L129.2 72.05L129.88 72.24L130.56 72.45L131.24 72.69L131.91 72.96L132.58 73.25L133.24 73.56L133.89 73.9L134.53 74.26L135.17 74.65L135.79 75.07L136.41 75.5L137.01 75.97L137.6 76.45L138.95 75.43L140.32 74.45L141.73 73.52L143.17 72.64L144.64 71.8L146.13 71.01L147.65 70.27L149.19 69.57L150.76 68.93L152.35 68.33L153.96 67.78L155.58 67.27L157.23 66.82L158.88 66.41L160.55 66.05L162.24 65.74L163.93 65.47L165.63 65.26L167.34 65.09L169.06 64.97L170.78 64.9L172.5 64.88L174.22 64.91L175.95 64.99ZM171.52 119.04L170.37 119.06L169.21 119.09L166.89 119.17L165.72 119.22L164.55 119.28L163.37 119.34L162.19 119.41L161.01 119.48L159.82 119.56L158.63 119.64L157.44 119.73L156.24 119.82L155.05 119.92L153.85 120.02L152.65 120.12L151.45 120.23L150.24 120.34L149.04 120.46L147.84 120.57L146.63 120.69L145.43 120.81L144.23 120.94L143.02 121.06L140.62 121.32L139.42 121.45L138.22 121.59L137.02 121.72L135.83 121.85L134.64 121.99L133.45 122.12L132.26 122.26L131.08 122.39L129.9 122.53L128.72 122.66L127.55 122.79L126.38 122.93L125.8 123.05L125.26 123.26L124.76 123.56L124.31 123.93L123.89 124.38L123.52 124.89L123.19 125.47L122.89 126.11L122.64 126.8L122.42 127.54L122.24 128.33L122.09 129.16L121.97 130.03L121.89 130.93L121.84 131.86L121.82 132.81L121.84 133.78L121.88 134.76L121.95 135.75L122.04 136.75L122.17 137.74L122.32 138.73L122.49 139.72L122.69 140.68L122.91 141.63L123.16 142.56L123.42 143.46L123.7 144.33L124.01 145.16L124.33 145.95L124.67 146.7L125.02 147.39L125.4 148.03L125.78 148.61L126.18 149.13L126.59 149.57L127.02 149.95L127.45 150.24L127.9 150.46L128.35 150.58L208.8 149.35L209.5 149.31L210.2 149.17L210.88 148.94L211.56 148.63L212.23 148.23L212.89 147.75L213.53 147.2L214.16 146.59L214.77 145.91L215.36 145.18L215.93 144.39L216.48 143.56L217 142.68L217.49 141.77L217.96 140.83L218.39 139.85L218.8 138.86L219.17 137.85L219.51 136.82L219.8 135.79L220.06 134.75L220.28 133.72L220.45 132.69L220.58 131.68L220.67 130.68L220.7 129.71L220.69 128.76L220.62 127.85L220.5 126.97L220.33 126.13L220.1 125.34L219.8 124.61L219.45 123.92L219.04 123.31L218.56 122.75L218.01 122.27L217.4 121.87L216.72 121.54L215.96 121.31L215.13 121.16L213.98 121.03L212.84 120.91L211.71 120.79L210.61 120.68L209.51 120.57L208.44 120.46L207.37 120.37L206.32 120.27L205.28 120.18L204.24 120.1L203.22 120.02L202.21 119.94L201.2 119.87L200.2 119.8L199.21 119.73L198.22 119.67L197.24 119.61L196.26 119.56L195.28 119.51L194.31 119.46L193.33 119.41L192.36 119.37L191.38 119.33L190.41 119.3L189.43 119.26L188.44 119.23L187.45 119.21L186.46 119.18L185.46 119.16L184.45 119.13L183.44 119.12L181.38 119.08L180.33 119.07L179.28 119.05L178.21 119.04L177.13 119.03L176.03 119.02L174.92 119.02L173.8 119.01L172.66 119.02L171.52 119.04Z" id="kCeD2QYQz"></path><path d="M143.17 174.31C144.46 174.82 145.79 175.3 147.14 175.74C145.92 183.59 148.76 192.1 152.54 199.67C157.65 209.89 165.04 219.22 174.74 225.17C177.05 226.58 179.5 227.76 182.07 228.56C182.12 228.57 182.47 228.69 182.52 228.7C184.3 229.56 183.97 230.65 183.64 231.43C182.85 233.31 179.8 232.31 177.38 231.26C167.95 227.13 160.33 219.46 154.34 210.84C148.48 202.41 143.95 192.78 142.94 182.64C142.67 179.86 142.69 177.05 143.17 174.31" id="ee9gL2NF3"></path><path d="M143.17 174.31C144.46 174.82 145.79 175.3 147.14 175.74C145.92 183.59 148.76 192.1 152.54 199.67C157.65 209.89 165.04 219.22 174.74 225.17C177.05 226.58 179.5 227.76 182.07 228.56C182.12 228.57 182.47 228.69 182.52 228.7C184.3 229.56 183.97 230.65 183.64 231.43C182.85 233.31 179.8 232.31 177.38 231.26C167.95 227.13 160.33 219.46 154.34 210.84C148.48 202.41 143.95 192.78 142.94 182.64C142.67 179.86 142.69 177.05 143.17 174.31" id="afNrbdM7I"></path><path d="M119.74 106.15C119.43 108.04 119.19 109.98 119.03 111.95C119.03 112.94 119.03 120.82 119.03 121.8C153.66 116.03 190.15 116.29 228.23 121.81C228.23 120.82 228.23 112.94 228.23 111.95C227.99 109.98 227.69 108.05 227.32 106.17C190.63 98.83 154.76 98.99 119.74 106.15" id="b1nHpyWQ5g"></path><path d="M119.74 106.15C119.43 108.04 119.19 109.98 119.03 111.95C119.03 112.94 119.03 120.82 119.03 121.8C153.66 116.03 190.15 116.29 228.23 121.81C228.23 120.82 228.23 112.94 228.23 111.95C227.99 109.98 227.69 108.05 227.32 106.17C190.63 98.83 154.76 98.99 119.74 106.15" id="aCVKTv6rx"></path><path d="M110.08 174.02L96.8 170.82L83.99 175.52L87.18 162.25L82.48 149.43L95.75 152.63L108.57 147.93L105.37 161.2L110.08 174.02ZM93.91 155.91L92.67 156.59L91.59 157.55L90.76 158.74L90.23 160.04L90.01 161.4L90.09 162.77L90.47 164.1L91.14 165.33L92.11 166.41L93.29 167.24L94.59 167.77L95.95 167.99L97.32 167.91L98.65 167.53L99.88 166.86L100.96 165.9L101.8 164.72L102.32 163.41L102.54 162.05L102.47 160.68L102.09 159.35L101.42 158.12L100.45 157.04L99.27 156.21L97.97 155.68L96.61 155.46L95.23 155.54L93.91 155.91Z" id="c8I3pF83i"></path><path d="M110.08 174.02L96.8 170.82L83.99 175.52L87.18 162.25L82.48 149.43L95.75 152.63L108.57 147.93L105.37 161.2L110.08 174.02ZM93.91 155.91L92.67 156.59L91.59 157.55L90.76 158.74L90.23 160.04L90.01 161.4L90.09 162.77L90.47 164.1L91.14 165.33L92.11 166.41L93.29 167.24L94.59 167.77L95.95 167.99L97.32 167.91L98.65 167.53L99.88 166.86L100.96 165.9L101.8 164.72L102.32 163.41L102.54 162.05L102.47 160.68L102.09 159.35L101.42 158.12L100.45 157.04L99.27 156.21L97.97 155.68L96.61 155.46L95.23 155.54L93.91 155.91Z" id="a1CHa6ubd"></path><path d="M52.52 172.62L40.15 178.41L33.07 190.09L27.29 177.72L15.61 170.64L27.98 164.86L35.06 153.18L40.84 165.55L52.52 172.62ZM31.61 165.85L30.41 166.53L29.39 167.45L28.58 168.58L28.04 169.87L27.8 171.3L27.89 172.74L28.29 174.08L28.97 175.29L29.88 176.31L31.01 177.11L32.3 177.66L33.73 177.9L35.17 177.81L36.52 177.41L37.72 176.73L38.74 175.81L39.55 174.69L40.09 173.4L40.33 171.97L40.24 170.52L39.84 169.18L39.17 167.98L38.25 166.95L37.12 166.15L35.83 165.61L34.4 165.37L32.96 165.45L31.61 165.85Z" id="h5J2jD9l6"></path><path d="M52.52 172.62L40.15 178.41L33.07 190.09L27.29 177.72L15.61 170.64L27.98 164.86L35.06 153.18L40.84 165.55L52.52 172.62ZM31.61 165.85L30.41 166.53L29.39 167.45L28.58 168.58L28.04 169.87L27.8 171.3L27.89 172.74L28.29 174.08L28.97 175.29L29.88 176.31L31.01 177.11L32.3 177.66L33.73 177.9L35.17 177.81L36.52 177.41L37.72 176.73L38.74 175.81L39.55 174.69L40.09 173.4L40.33 171.97L40.24 170.52L39.84 169.18L39.17 167.98L38.25 166.95L37.12 166.15L35.83 165.61L34.4 165.37L32.96 165.45L31.61 165.85Z" id="aot5IBdO2"></path><path d="M130.35 200.73C134.54 211.25 149.27 219.91 158.54 223.68C164.81 226.22 175.32 228.68 185.38 228.54C185.99 228.53 185.18 233.42 183.71 234.48C183.71 234.48 182.06 235.37 180.65 235.62C176.35 236.37 171.87 235.46 167.49 234.42C156.1 231.72 144.94 226.74 136.44 219.02C132.7 215.61 129.24 210.69 127.37 205.98C127.02 205.08 129.11 201.82 130.35 200.73" id="a15EmP6LNC"></path><path d="M130.35 200.73C134.54 211.25 149.27 219.91 158.54 223.68C164.81 226.22 175.32 228.68 185.38 228.54C185.99 228.53 185.18 233.42 183.71 234.48C183.71 234.48 182.06 235.37 180.65 235.62C176.35 236.37 171.87 235.46 167.49 234.42C156.1 231.72 144.94 226.74 136.44 219.02C132.7 215.61 129.24 210.69 127.37 205.98C127.02 205.08 129.11 201.82 130.35 200.73" id="b13eZ0nFwa"></path><path d="M175.06 235.11C175.06 235.11 179.09 231.68 179.15 231.9C179.81 234.25 187.42 238.96 194.89 240.81C197.63 241.48 193.49 245.18 190.86 247C189.12 248.22 176.01 237.7 175.06 235.11" id="i1m8RoIlAo"></path><path d="M175.06 235.11C175.06 235.11 179.09 231.68 179.15 231.9C179.81 234.25 187.42 238.96 194.89 240.81C197.63 241.48 193.49 245.18 190.86 247C189.12 248.22 176.01 237.7 175.06 235.11" id="aqV9L26zX"></path><path d="M175.99 235.91C175.54 234.51 173.38 230.84 173.78 230.8C175.74 230.59 185.89 233.37 199.99 229.37C199.99 229.37 202.4 235.03 199.95 236.89C194.2 241.25 176.92 238.8 175.99 235.91" id="cbqfH19B5"></path><path d="M175.99 235.91C175.54 234.51 173.38 230.84 173.78 230.8C175.74 230.59 185.89 233.37 199.99 229.37C199.99 229.37 202.4 235.03 199.95 236.89C194.2 241.25 176.92 238.8 175.99 235.91" id="g1y8Vr30vr"></path><path d="M179.3 169.4C181.04 169.9 182.73 170.56 184.01 171.79C185.99 173.69 187.42 176.16 189.68 177.95C189.68 177.95 190.79 178.89 191.81 179.6C199.97 185.23 211.18 185.42 218.95 179.93C219.16 179.79 219.46 179.57 219.46 179.57C221.54 178.52 222.07 177.9 224.49 178.05C225.34 178.11 226.15 178.46 226.97 178.66C227.11 178.77 227.79 179.27 229.01 180.17C229.76 181.51 230.18 182.25 230.26 182.4C230.37 183.25 230.62 184.09 230.57 184.95C230.41 187.37 229.72 187.81 228.41 189.72C219.63 198.43 206.19 202.14 193.5 199.33C188.12 198.13 182.99 195.81 178.5 192.5C175.26 190.1 172.43 187.01 170.11 183.66C170.11 183.66 170.11 183.66 170.11 183.66C169.32 182.23 169.01 181.93 168.68 180.32C168.07 177.41 168.97 174.23 171.02 172.09C171.45 171.64 171.96 171.28 172.43 170.88C172.43 170.88 172.43 170.88 172.43 170.88C172.98 170.58 173.49 170.23 174.06 169.98C175.52 169.36 175.99 169.42 177.54 169.26C178.13 169.31 178.72 169.36 179.3 169.4" id="h4HoChj4oW"></path><path d="M179.3 169.4C181.04 169.9 182.73 170.56 184.01 171.79C185.99 173.69 187.42 176.16 189.68 177.95C189.68 177.95 190.79 178.89 191.81 179.6C199.97 185.23 211.18 185.42 218.95 179.93C219.16 179.79 219.46 179.57 219.46 179.57C221.54 178.52 222.07 177.9 224.49 178.05C225.34 178.11 226.15 178.46 226.97 178.66C227.11 178.77 227.79 179.27 229.01 180.17C229.76 181.51 230.18 182.25 230.26 182.4C230.37 183.25 230.62 184.09 230.57 184.95C230.41 187.37 229.72 187.81 228.41 189.72C219.63 198.43 206.19 202.14 193.5 199.33C188.12 198.13 182.99 195.81 178.5 192.5C175.26 190.1 172.43 187.01 170.11 183.66C170.11 183.66 170.11 183.66 170.11 183.66C169.32 182.23 169.01 181.93 168.68 180.32C168.07 177.41 168.97 174.23 171.02 172.09C171.45 171.64 171.96 171.28 172.43 170.88C172.43 170.88 172.43 170.88 172.43 170.88C172.98 170.58 173.49 170.23 174.06 169.98C175.52 169.36 175.99 169.42 177.54 169.26C178.13 169.31 178.72 169.36 179.3 169.4" id="k1c7BDfrcY"></path></defs><g><g><g><use xlink:href="#aKhNA4SJI" opacity="1" fill="#797979" fill-opacity="1"></use><g><use xlink:href="#aKhNA4SJI" opacity="1" fill-opacity="0" stroke="#000000" stroke-width="1" stroke-opacity="0"></use></g></g><g><use xlink:href="#b7hBgl04Q9" opacity="1" fill="#000000" fill-opacity="0"></use><g><use xlink:href="#b7hBgl04Q9" opacity="1" fill-opacity="0" stroke="#000000" stroke-width="1" stroke-opacity="0"></use></g></g><g><use xlink:href="#b2ouLJrZvS" opacity="1" fill="#797979" fill-opacity="1"></use><g><use xlink:href="#b2ouLJrZvS" opacity="1" fill-opacity="0" stroke="#000000" stroke-width="1" stroke-opacity="0"></use></g></g><g><use xlink:href="#c1Nc053nH6" opacity="1" fill="#000000" fill-opacity="0"></use><g><use xlink:href="#c1Nc053nH6" opacity="1" fill-opacity="0" stroke="#000000" stroke-width="1" stroke-opacity="0"></use></g></g><g><use xlink:href="#hcGtGnWn4" opacity="1" fill="#d7d5d3" fill-opacity="1"></use><g><use xlink:href="#hcGtGnWn4" opacity="1" fill-opacity="0" stroke="#000000" stroke-width="1" stroke-opacity="0"></use></g></g><g><use xlink:href="#b5bXvy6Op" opacity="1" fill="#000000" fill-opacity="0"></use><g><use xlink:href="#b5bXvy6Op" opacity="1" fill-opacity="0" stroke="#000000" stroke-width="1" stroke-opacity="0"></use></g></g><g><use xlink:href="#b2Q8J9VCGp" opacity="1" fill="#1f2633" fill-opacity="1"></use><g><use xlink:href="#b2Q8J9VCGp" opacity="1" fill-opacity="0" stroke="#000000" stroke-width="1" stroke-opacity="0"></use></g></g><g><use xlink:href="#a1eEGVIjQ1" opacity="1" fill="#000000" fill-opacity="0"></use><g><use xlink:href="#a1eEGVIjQ1" opacity="1" fill-opacity="0" stroke="#000000" stroke-width="1" stroke-opacity="0"></use></g></g><g><use xlink:href="#agL7bQ80r" opacity="1" fill="#1f2633" fill-opacity="1"></use><g><use xlink:href="#agL7bQ80r" opacity="1" fill-opacity="0" stroke="#000000" stroke-width="1" stroke-opacity="0"></use></g></g><g><use xlink:href="#bFENEaoR9" opacity="1" fill="#000000" fill-opacity="0"></use><g><use xlink:href="#bFENEaoR9" opacity="1" fill-opacity="0" stroke="#000000" stroke-width="1" stroke-opacity="0"></use></g></g><g><use xlink:href="#dHe9O1oB9" opacity="1" fill="#1f2633" fill-opacity="1"></use><g><use xlink:href="#dHe9O1oB9" opacity="1" fill-opacity="0" stroke="#000000" stroke-width="1" stroke-opacity="0"></use></g></g><g><use xlink:href="#d1YVhJFGm4" opacity="1" fill="#000000" fill-opacity="0"></use><g><use xlink:href="#d1YVhJFGm4" opacity="1" fill-opacity="0" stroke="#000000" stroke-width="1" stroke-opacity="0"></use></g></g><g><use xlink:href="#b2jOBamUWK" opacity="1" fill="#636363" fill-opacity="1"></use><g><use xlink:href="#b2jOBamUWK" opacity="1" fill-opacity="0" stroke="#000000" stroke-width="1" stroke-opacity="0"></use></g></g><g><use xlink:href="#b3O5Kefn1t" opacity="1" fill="#000000" fill-opacity="0"></use><g><use xlink:href="#b3O5Kefn1t" opacity="1" fill-opacity="0" stroke="#000000" stroke-width="1" stroke-opacity="0"></use></g></g><g><use xlink:href="#ehSgyFobH" opacity="1" fill="#636363" fill-opacity="1"></use><g><use xlink:href="#ehSgyFobH" opacity="1" fill-opacity="0" stroke="#000000" stroke-width="1" stroke-opacity="0"></use></g></g><g><use xlink:href="#a3QnGqESY3" opacity="1" fill="#000000" fill-opacity="0"></use><g><use xlink:href="#a3QnGqESY3" opacity="1" fill-opacity="0" stroke="#000000" stroke-width="1" stroke-opacity="0"></use></g></g><g><use xlink:href="#b2C6XaIaPv" opacity="1" fill="#ffffff" fill-opacity="1"></use><g><use xlink:href="#b2C6XaIaPv" opacity="1" fill-opacity="0" stroke="#000000" stroke-width="1" stroke-opacity="0"></use></g></g><g><use xlink:href="#c1bqJ0m62p" opacity="1" fill="#000000" fill-opacity="0"></use><g><use xlink:href="#c1bqJ0m62p" opacity="1" fill-opacity="0" stroke="#000000" stroke-width="1" stroke-opacity="0"></use></g></g><g><use xlink:href="#b55iTOkVf" opacity="1" fill="#ffffff" fill-opacity="1"></use><g><use xlink:href="#b55iTOkVf" opacity="1" fill-opacity="0" stroke="#000000" stroke-width="1" stroke-opacity="0"></use></g></g><g><use xlink:href="#a21SPvXjeM" opacity="1" fill="#000000" fill-opacity="0"></use><g><use xlink:href="#a21SPvXjeM" opacity="1" fill-opacity="0" stroke="#000000" stroke-width="1" stroke-opacity="0"></use></g></g><g><use xlink:href="#b5Sza3DEmR" opacity="1" fill="#323940" fill-opacity="1"></use><g><use xlink:href="#b5Sza3DEmR" opacity="1" fill-opacity="0" stroke="#000000" stroke-width="1" stroke-opacity="0"></use></g></g><g><use xlink:href="#kCeD2QYQz" opacity="1" fill="#000000" fill-opacity="0"></use><g><use xlink:href="#kCeD2QYQz" opacity="1" fill-opacity="0" stroke="#000000" stroke-width="1" stroke-opacity="0"></use></g></g><g><use xlink:href="#ee9gL2NF3" opacity="1" fill="#dba425" fill-opacity="1"></use><g><use xlink:href="#ee9gL2NF3" opacity="1" fill-opacity="0" stroke="#000000" stroke-width="1" stroke-opacity="0"></use></g></g><g><use xlink:href="#afNrbdM7I" opacity="1" fill="#000000" fill-opacity="0"></use><g><use xlink:href="#afNrbdM7I" opacity="1" fill-opacity="0" stroke="#000000" stroke-width="1" stroke-opacity="0"></use></g></g><g><use xlink:href="#b1nHpyWQ5g" opacity="1" fill="#797979" fill-opacity="1"></use><g><use xlink:href="#b1nHpyWQ5g" opacity="1" fill-opacity="0" stroke="#000000" stroke-width="1" stroke-opacity="0"></use></g></g><g><use xlink:href="#aCVKTv6rx" opacity="1" fill="#000000" fill-opacity="0"></use><g><use xlink:href="#aCVKTv6rx" opacity="1" fill-opacity="0" stroke="#000000" stroke-width="1" stroke-opacity="0"></use></g></g><g><use xlink:href="#c8I3pF83i" opacity="1" fill="#9d9d9d" fill-opacity="1"></use><g><use xlink:href="#c8I3pF83i" opacity="1" fill-opacity="0" stroke="#000000" stroke-width="1" stroke-opacity="0"></use></g></g><g><use xlink:href="#a1CHa6ubd" opacity="1" fill="#000000" fill-opacity="0"></use><g><use xlink:href="#a1CHa6ubd" opacity="1" fill-opacity="0" stroke="#000000" stroke-width="1" stroke-opacity="0"></use></g></g><g><use xlink:href="#h5J2jD9l6" opacity="1" fill="#9d9d9d" fill-opacity="1"></use><g><use xlink:href="#h5J2jD9l6" opacity="1" fill-opacity="0" stroke="#000000" stroke-width="1" stroke-opacity="0"></use></g></g><g><use xlink:href="#aot5IBdO2" opacity="1" fill="#000000" fill-opacity="0"></use><g><use xlink:href="#aot5IBdO2" opacity="1" fill-opacity="0" stroke="#000000" stroke-width="1" stroke-opacity="0"></use></g></g><g><use xlink:href="#a15EmP6LNC" opacity="1" fill="#a9a9a9" fill-opacity="1"></use><g><use xlink:href="#a15EmP6LNC" opacity="1" fill-opacity="0" stroke="#000000" stroke-width="1" stroke-opacity="0"></use></g></g><g><use xlink:href="#b13eZ0nFwa" opacity="1" fill="#000000" fill-opacity="0"></use><g><use xlink:href="#b13eZ0nFwa" opacity="1" fill-opacity="0" stroke="#000000" stroke-width="1" stroke-opacity="0"></use></g></g><g><use xlink:href="#i1m8RoIlAo" opacity="1" fill="#a9a9a9" fill-opacity="1"></use><g><use xlink:href="#i1m8RoIlAo" opacity="1" fill-opacity="0" stroke="#000000" stroke-width="1" stroke-opacity="0"></use></g></g><g><use xlink:href="#aqV9L26zX" opacity="1" fill="#000000" fill-opacity="0"></use><g><use xlink:href="#aqV9L26zX" opacity="1" fill-opacity="0" stroke="#000000" stroke-width="1" stroke-opacity="0"></use></g></g><g><use xlink:href="#cbqfH19B5" opacity="1" fill="#a9a9a9" fill-opacity="1"></use><g><use xlink:href="#cbqfH19B5" opacity="1" fill-opacity="0" stroke="#000000" stroke-width="1" stroke-opacity="0"></use></g></g><g><use xlink:href="#g1y8Vr30vr" opacity="1" fill="#000000" fill-opacity="0"></use><g><use xlink:href="#g1y8Vr30vr" opacity="1" fill-opacity="0" stroke="#000000" stroke-width="1" stroke-opacity="0"></use></g></g><g><use xlink:href="#h4HoChj4oW" opacity="1" fill="#323940" fill-opacity="1"></use><g><use xlink:href="#h4HoChj4oW" opacity="1" fill-opacity="0" stroke="#000000" stroke-width="1" stroke-opacity="0"></use></g></g><g><use xlink:href="#k1c7BDfrcY" opacity="1" fill="#000000" fill-opacity="0"></use><g><use xlink:href="#k1c7BDfrcY" opacity="1" fill-opacity="0" stroke="#000000" stroke-width="1" stroke-opacity="0"></use></g></g></g></g></svg>