<?xml version="1.0" encoding="UTF-8" standalone="no"?>
<!DOCTYPE svg PUBLIC "-//W3C//DTD SVG 1.1//EN" "http://www.w3.org/Graphics/SVG/1.1/DTD/svg11.dtd">
<svg version="1.1" xmlns="http://www.w3.org/2000/svg" xmlns:xlink="http://www.w3.org/1999/xlink" preserveAspectRatio="xMidYMid meet" viewBox="0 0 270 270" width="270" height="270"><defs><path d="M106.02 201.52C108.45 201.69 110.43 204.18 109.84 206.62C109.5 208.03 108.22 208.98 107.17 210.01C103.76 213.42 102.23 218.36 103.33 223.24C103.33 223.24 103.67 225.13 102.67 226.54C100.87 229.1 96.04 228.57 95.22 224.89C95.18 224.7 95.14 224.5 95.1 224.31C93.6 216.79 96.15 208.89 102.18 203.35C103.19 202.42 104.28 201.57 105.67 201.52C105.79 201.52 105.9 201.52 106.02 201.52" id="b1Sp4TuOpY"></path><path d="M106.02 201.52C108.45 201.69 110.43 204.18 109.84 206.62C109.5 208.03 108.22 208.98 107.17 210.01C103.76 213.42 102.23 218.36 103.33 223.24C103.33 223.24 103.67 225.13 102.67 226.54C100.87 229.1 96.04 228.57 95.22 224.89C95.18 224.7 95.14 224.5 95.1 224.31C93.6 216.79 96.15 208.89 102.18 203.35C103.19 202.42 104.28 201.57 105.67 201.52C105.79 201.52 105.9 201.52 106.02 201.52" id="a4GKOJ2mtu"></path><path d="M190.45 80.33C196.24 85.24 200.68 89.96 208.73 91.62C210.84 92.06 224.13 91.56 224.79 92.2C224.96 92.37 224.56 92.9 224.47 93.03C222.79 95.43 222.03 107.15 212.59 107.15C205.43 107.15 185.29 81.05 187.94 76.32" id="b25RjLbHAK"></path><path d="M190.45 80.33C196.24 85.24 200.68 89.96 208.73 91.62C210.84 92.06 224.13 91.56 224.79 92.2C224.96 92.37 224.56 92.9 224.47 93.03C222.79 95.43 222.03 107.15 212.59 107.15C205.43 107.15 185.29 81.05 187.94 76.32" id="c50bLsmU63"></path><path d="M191.88 79.52C193.01 87.04 193.24 93.51 198.21 100.06C199.52 101.78 209.85 110.15 209.92 111.07C209.94 111.31 209.29 111.45 209.13 111.49C206.29 112.19 198 120.51 190.89 114.3C185.5 109.58 187.52 76.67 192.63 74.85" id="a1QzZNlPyD"></path><path d="M191.88 79.52C193.01 87.04 193.24 93.51 198.21 100.06C199.52 101.78 209.85 110.15 209.92 111.07C209.94 111.31 209.29 111.45 209.13 111.49C206.29 112.19 198 120.51 190.89 114.3C185.5 109.58 187.52 76.67 192.63 74.85" id="d6BlUG06a2"></path><path d="M178.22 124.9C192.35 121.53 196.4 74.95 188.76 74.1C155.01 70.35 118.9 70.06 83.22 74.1C70.51 75.53 76.03 120.49 86.43 121.39C86.43 121.39 115.09 142.33 133.66 141.73C155.15 141.04 178.22 124.9 178.22 124.9" id="b2Lb52zdVY"></path><path d="M178.22 124.9C192.35 121.53 196.4 74.95 188.76 74.1C155.01 70.35 118.9 70.06 83.22 74.1C70.51 75.53 76.03 120.49 86.43 121.39C86.43 121.39 115.09 142.33 133.66 141.73C155.15 141.04 178.22 124.9 178.22 124.9" id="a3zjoJV1Vn"></path><path d="M122.06 85.12C126.18 88.36 125.79 101.28 118.51 109.91C111.23 118.55 108.02 128.84 94.54 117.18C87.92 111.45 85 99.25 92.28 90.61C99.56 81.97 118.04 81.97 122.06 85.12" id="g5F8kpV6oO"></path><path d="M122.06 85.12C126.18 88.36 125.79 101.28 118.51 109.91C111.23 118.55 108.02 128.84 94.54 117.18C87.92 111.45 85 99.25 92.28 90.61C99.56 81.97 118.04 81.97 122.06 85.12" id="o5KbfCkhMD"></path><path d="M150.69 85.12C146.57 88.36 146.96 101.28 154.24 109.91C161.52 118.55 164.73 128.84 178.21 117.18C184.83 111.45 187.75 99.25 180.47 90.61C173.19 81.97 154.71 81.97 150.69 85.12" id="j9IdQG4Tcs"></path><path d="M150.69 85.12C146.57 88.36 146.96 101.28 154.24 109.91C161.52 118.55 164.73 128.84 178.21 117.18C184.83 111.45 187.75 99.25 180.47 90.61C173.19 81.97 154.71 81.97 150.69 85.12" id="a2Grl5Va8s"></path><path d="M137.19 122.4C134.63 122.4 128.23 112.05 129.51 109.98C130.79 107.91 143.59 107.91 144.87 109.98C146.15 112.05 139.75 122.4 137.19 122.4" id="aHNKgVFO3"></path><path d="M137.19 122.4C134.63 122.4 128.23 112.05 129.51 109.98C130.79 107.91 143.59 107.91 144.87 109.98C146.15 112.05 139.75 122.4 137.19 122.4" id="bIeooKqdm"></path><path d="M107.17 93.7C110.57 93.7 113.34 96.46 113.34 99.87C113.34 103.27 110.57 106.03 107.17 106.03C103.77 106.03 101.01 103.27 101.01 99.87C101.01 96.46 103.77 93.7 107.17 93.7" id="a1noHgnjnT"></path><path d="M107.17 93.7C110.57 93.7 113.34 96.46 113.34 99.87C113.34 103.27 110.57 106.03 107.17 106.03C103.77 106.03 101.01 103.27 101.01 99.87C101.01 96.46 103.77 93.7 107.17 93.7" id="bxoeK1SY2"></path><path d="M165.58 93.7C162.17 93.7 159.41 96.46 159.41 99.87C159.41 103.27 162.17 106.03 165.58 106.03C168.98 106.03 171.74 103.27 171.74 99.87C171.74 96.46 168.98 93.7 165.58 93.7" id="eX3Kibgcg"></path><path d="M165.58 93.7C162.17 93.7 159.41 96.46 159.41 99.87C159.41 103.27 162.17 106.03 165.58 106.03C168.98 106.03 171.74 103.27 171.74 99.87C171.74 96.46 168.98 93.7 165.58 93.7" id="b1i9kjOXgk"></path><path d="M109.77 94.27C111.18 94.27 112.32 95.42 112.32 96.83C112.32 98.24 111.18 99.39 109.77 99.39C108.35 99.39 107.21 98.24 107.21 96.83C107.21 95.42 108.35 94.27 109.77 94.27" id="b2HAUCQNjs"></path><path d="M109.77 94.27C111.18 94.27 112.32 95.42 112.32 96.83C112.32 98.24 111.18 99.39 109.77 99.39C108.35 99.39 107.21 98.24 107.21 96.83C107.21 95.42 108.35 94.27 109.77 94.27" id="a9Z1eUsbE"></path><path d="M162.98 94.27C161.57 94.27 160.42 95.42 160.42 96.83C160.42 98.24 161.57 99.39 162.98 99.39C164.39 99.39 165.54 98.24 165.54 96.83C165.54 95.42 164.39 94.27 162.98 94.27" id="c4I3l0y9Y"></path><path d="M162.98 94.27C161.57 94.27 160.42 95.42 160.42 96.83C160.42 98.24 161.57 99.39 162.98 99.39C164.39 99.39 165.54 98.24 165.54 96.83C165.54 95.42 164.39 94.27 162.98 94.27" id="b1HiNTdmCf"></path><path d="M182.59 23.03L183.45 23.11L184.3 23.22L185.14 23.36L185.98 23.53L186.81 23.74L187.62 23.98L188.43 24.25L189.22 24.55L190 24.88L190.77 25.25L191.52 25.64L192.26 26.07L192.98 26.53L193.68 27.03L194.36 27.56L195.03 28.11L195.67 28.71L196.3 29.33L196.91 30.01L197.5 30.71L198.04 31.42L198.56 32.16L199.03 32.92L199.47 33.69L199.87 34.48L200.24 35.29L200.57 36.11L200.87 36.94L201.13 37.79L201.36 38.64L201.55 39.51L201.71 40.38L201.83 41.26L201.92 42.15L201.97 43.04L201.98 43.94L201.97 44.84L201.91 45.74L201.83 46.64L201.7 47.55L201.55 48.45L201.36 49.35L201.13 50.25L200.88 51.14L200.58 52.03L200.26 52.91L199.9 53.79L199.5 54.65L199.07 55.51L198.61 56.35L198.12 57.19L197.59 58.01L197.03 58.81L196.43 59.61L195.81 60.38L195.15 61.14L194.45 61.88L193.72 62.6L193.7 62.63L193.67 62.65L193.64 62.68L193.61 62.71L193.58 62.73L193.55 62.76L193.53 62.79L193.5 62.81L193.47 62.84L193.44 62.87L193.41 62.89L193.38 62.92L193.36 62.95L193.33 62.97L193.3 63L193.27 63.02L193.24 63.05L193.21 63.08L193.19 63.1L193.16 63.13L193.13 63.15L193.07 63.21L193.04 63.23L193.01 63.26L192.98 63.28L192.96 63.31L192.93 63.33L192.9 63.36L192.87 63.38L192.84 63.41L192.81 63.44L192.78 63.46L192.73 63.51L192.7 63.54L192.67 63.56L192.64 63.59L192.61 63.61L192.58 63.64L192.67 63.99L192.76 64.35L192.85 64.71L192.94 65.08L193.02 65.44L193.11 65.81L193.19 66.17L193.26 66.54L193.34 66.91L193.41 67.28L193.48 67.66L193.55 68.03L193.62 68.41L193.69 68.78L193.81 69.54L193.87 69.93L193.92 70.31L193.98 70.69L194.08 71.47L194.13 71.86L194.21 72.64L194.25 73.04L194.29 73.43L194.33 73.83L194.36 74.23L194.39 74.63L194.42 75.03L194.45 75.43L194.47 75.84L194.49 76.25L194.51 76.65L194.53 77.06L194.54 77.47L194.55 77.89L194.56 78.3L194.57 78.72L194.58 79.13L194.58 96.81L194.83 99.17L195.01 101.47L195.11 103.71L195.14 105.87L195.08 107.98L194.96 110.02L194.76 111.99L194.49 113.91L194.15 115.76L193.74 117.55L193.27 119.28L192.73 120.96L192.13 122.57L191.46 124.13L190.74 125.64L189.96 127.09L189.12 128.48L188.23 129.82L187.28 131.11L186.29 132.34L185.24 133.53L184.14 134.67L183 135.75L181.8 136.79L180.57 137.78L179.29 138.73L177.97 139.63L176.62 140.48L175.22 141.29L173.79 142.06L172.32 142.78L170.82 143.47L169.29 144.11L167.73 144.71L166.14 145.28L164.52 145.81L162.88 146.3L161.21 146.75L159.52 147.17L157.81 147.56L157.9 147.6L157.98 147.64L158.02 147.65L158.14 147.71L158.19 147.73L158.27 147.77L158.35 147.81L158.47 147.87L158.56 147.91L158.64 147.95L158.68 147.96L158.76 148L158.81 148.02L158.85 148.04L158.89 148.06L158.93 148.08L158.97 148.1L159.05 148.14L159.1 148.16L159.14 148.18L159.18 148.19L159.22 148.21L159.26 148.23L159.3 148.25L159.34 148.27L159.39 148.29L159.47 148.33L159.6 148.38L159.72 148.44L159.85 148.5L159.97 148.55L160.23 148.67L160.35 148.72L160.48 148.78L160.61 148.83L160.73 148.89L160.86 148.94L160.99 148.99L161.11 149.05L161.24 149.1L161.37 149.16L161.5 149.21L161.62 149.26L161.75 149.31L161.88 149.37L162.01 149.42L162.14 149.47L162.26 149.52L162.52 149.62L162.65 149.67L163.04 149.82L163.17 149.87L163.3 149.92L163.56 150.02L163.69 150.06L163.82 150.11L163.95 150.16L164.08 150.2L164.21 150.25L164.34 150.29L164.47 150.34L164.6 150.38L164.9 150.48L165.2 150.58L165.49 150.68L165.8 150.78L166.1 150.87L166.7 151.05L167.01 151.13L167.31 151.22L167.62 151.3L167.93 151.37L168.23 151.45L168.54 151.52L168.85 151.58L169.16 151.65L169.47 151.71L170.09 151.81L170.4 151.85L170.71 151.89L171.03 151.93L171.34 151.95L171.65 151.98L171.96 151.99L172.28 152.01L172.91 152.01L173.53 151.99L173.85 151.96L174.16 151.94L174.48 151.9L174.79 151.86L175.1 151.8L175.42 151.75L175.73 151.68L176.05 151.6L176.36 151.52L176.67 151.42L176.99 151.32L177.38 151.17L177.77 151L178.16 150.81L178.55 150.6L178.93 150.37L179.31 150.12L179.69 149.85L180.06 149.57L180.43 149.27L180.79 148.96L181.15 148.64L181.51 148.31L181.86 147.96L182.21 147.61L182.55 147.25L182.89 146.88L183.22 146.51L183.54 146.14L183.86 145.76L184.18 145.38L185.08 144.24L185.37 143.87L185.65 143.5L185.92 143.14L186.19 142.78L186.45 142.43L186.7 142.09L186.94 141.76L187.17 141.44L187.4 141.14L187.62 140.85L187.83 140.57L188.03 140.31L188.22 140.06L188.41 139.84L188.58 139.64L188.74 139.45L188.9 139.29L188.95 139.24L189.07 139.12L189.13 139.06L189.2 138.98L189.26 138.91L189.4 138.75L189.47 138.66L189.55 138.57L189.62 138.47L189.7 138.38L189.78 138.28L189.87 138.18L189.96 138.07L190.05 137.97L190.14 137.86L190.24 137.75L190.34 137.64L190.44 137.53L190.66 137.31L190.77 137.2L190.89 137.08L191.13 136.86L191.26 136.76L191.39 136.65L191.53 136.54L191.67 136.44L191.97 136.24L192.12 136.14L192.28 136.05L192.44 135.96L192.78 135.8L192.96 135.72L193.14 135.64L193.32 135.58L193.39 135.55L193.46 135.53L193.52 135.51L193.66 135.47L193.8 135.43L193.87 135.41L193.93 135.39L194.07 135.35L194.14 135.34L194.21 135.32L194.28 135.31L194.35 135.29L194.42 135.28L194.49 135.26L194.7 135.23L194.78 135.22L194.85 135.21L195.13 135.17L195.2 135.17L195.27 135.16L195.34 135.16L195.41 135.15L195.48 135.15L195.55 135.14L196.11 135.14L196.18 135.15L196.25 135.15L196.33 135.16L196.47 135.18L196.55 135.19L196.63 135.2L196.71 135.22L196.78 135.23L196.86 135.25L196.94 135.27L197.02 135.28L197.18 135.32L197.26 135.34L197.34 135.36L197.42 135.39L197.5 135.41L197.58 135.43L197.65 135.45L197.73 135.47L197.8 135.5L197.88 135.52L197.95 135.54L198.09 135.58L198.16 135.6L198.23 135.63L198.29 135.65L198.35 135.67L198.42 135.68L198.47 135.7L198.53 135.72L198.58 135.74L198.63 135.75L198.68 135.77L198.73 135.78L198.77 135.79L198.81 135.8L198.85 135.81L198.88 135.84L198.92 135.86L198.95 135.89L198.99 135.91L199.03 135.94L199.08 135.97L199.12 136.01L199.17 136.04L199.22 136.07L199.28 136.11L199.33 136.15L199.39 136.18L199.45 136.22L199.51 136.26L199.57 136.31L199.63 136.35L199.69 136.39L199.76 136.44L199.82 136.48L199.89 136.53L199.95 136.58L200.02 136.62L200.08 136.67L200.15 136.72L200.21 136.77L200.35 136.87L200.41 136.92L200.47 136.97L200.54 137.02L200.6 137.08L200.72 137.18L200.78 137.23L200.89 137.34L200.94 137.39L200.99 137.44L201.04 137.5L201.09 137.55L201.14 137.6L201.18 137.66L201.23 137.72L201.28 137.79L201.32 137.85L201.37 137.92L201.42 138L201.47 138.07L201.52 138.15L201.56 138.23L201.66 138.39L201.71 138.47L201.75 138.55L201.8 138.63L201.84 138.72L201.89 138.8L201.93 138.88L201.97 138.96L202.02 139.04L202.06 139.12L202.1 139.19L202.13 139.27L202.21 139.41L202.24 139.48L202.27 139.55L202.3 139.61L202.33 139.67L202.35 139.72L202.38 139.77L202.4 139.82L202.42 139.86L202.44 139.9L202.45 139.93L202.47 139.96L202.48 139.99L202.49 140.01L202.52 140.22L202.55 140.43L202.59 140.63L202.62 140.82L202.65 141.01L202.68 141.2L202.71 141.38L202.73 141.55L202.76 141.72L202.78 141.89L202.81 142.05L202.83 142.2L202.85 142.36L202.87 142.51L202.88 142.65L202.9 142.8L202.91 142.94L202.92 143.07L202.92 143.21L202.93 143.34L202.93 143.6L202.92 143.72L202.92 143.85L202.91 143.97L202.89 144.09L202.88 144.21L202.86 144.33L202.83 144.45L202.8 144.57L202.77 144.69L202.74 144.8L202.66 145.04L202.56 145.28L202.5 145.4L202.45 145.52L202.38 145.64L202.31 145.77L202.13 146.09L201.94 146.43L201.74 146.78L201.53 147.16L201.31 147.56L201.08 147.97L200.84 148.4L200.59 148.85L200.34 149.31L200.07 149.78L199.79 150.26L199.51 150.75L199.22 151.26L198.91 151.77L198.6 152.29L198.28 152.81L197.96 153.34L197.62 153.88L197.28 154.41L196.93 154.95L196.57 155.49L196.21 156.03L195.83 156.57L195.45 157.11L195.07 157.65L194.67 158.18L194.27 158.7L193.86 159.22L193.45 159.73L193.03 160.23L192.6 160.72L192.17 161.2L191.73 161.67L191.29 162.13L190.84 162.57L190.38 163L189.92 163.41L189.45 163.81L188.98 164.19L188.5 164.54L188.07 164.85L187.63 165.15L187.19 165.44L186.74 165.72L186.29 165.99L185.84 166.25L185.38 166.51L184.91 166.75L184.44 166.99L183.97 167.21L183.49 167.43L182.53 167.85L181.55 168.23L181.06 168.4L180.56 168.57L180.06 168.73L179.56 168.88L179.05 169.03L178.54 169.16L178.03 169.29L177.51 169.41L177 169.52L176.48 169.62L175.95 169.71L175.43 169.8L174.9 169.88L174.37 169.95L173.84 170.01L173.31 170.06L172.77 170.11L172.24 170.15L171.7 170.18L170.62 170.22L168.99 170.22L168.45 170.2L168.65 171.3L168.85 172.38L169.03 173.45L169.21 174.51L169.37 175.56L169.53 176.6L169.67 177.63L169.81 178.66L170.05 180.68L170.16 181.68L170.25 182.67L170.34 183.66L170.42 184.65L170.49 185.63L170.56 186.61L170.61 187.59L170.65 188.56L170.69 189.54L170.72 190.51L170.74 191.49L170.76 193.45L170.76 194.43L170.75 195.42L170.73 196.41L170.71 197.41L170.67 198.41L170.64 199.42L170.59 200.44L170.54 201.47L170.48 202.5L170.42 203.55L170.34 204.6L170.27 205.67L170.18 206.74L170.09 207.83L170 208.94L169.9 210.05L169.79 211.19L170.64 212.96L171.39 214.72L172.05 216.47L172.62 218.22L173.11 219.95L173.52 221.66L173.84 223.36L174.09 225.04L174.27 226.7L174.37 228.34L174.41 229.96L174.38 231.55L174.29 233.12L174.14 234.66L173.93 236.17L173.66 237.65L173.35 239.09L172.98 240.5L172.57 241.87L172.11 243.21L171.62 244.5L171.08 245.76L170.51 246.97L169.91 248.13L169.28 249.25L168.62 250.32L167.93 251.34L167.22 252.31L166.5 253.23L165.76 254.09L165 254.89L164.23 255.63L163.46 256.32L162.68 256.94L161.9 257.5L161.11 258L160.33 258.42L159.56 258.78L158.8 259.07L158.04 259.29L157.93 259.32L157.84 259.37L157.77 259.42L157.72 259.48L157.7 259.55L157.69 259.62L157.7 259.7L157.73 259.79L157.77 259.89L157.83 259.99L157.9 260.09L157.98 260.2L158.08 260.31L158.18 260.43L158.29 260.55L158.41 260.68L158.53 260.81L158.79 261.07L158.93 261.2L159.06 261.34L159.2 261.47L159.33 261.61L159.47 261.74L159.6 261.88L159.84 262.14L159.95 262.27L160.06 262.4L160.15 262.53L160.24 262.65L160.31 262.77L160.37 262.88L160.42 262.99L160.45 263.1L160.46 263.2L160.46 263.3L160.44 263.39L160.39 263.47L160.33 263.55L160.12 263.72L159.84 263.88L159.5 264.03L159.12 264.16L158.68 264.27L158.19 264.37L157.66 264.46L157.09 264.54L156.49 264.6L155.85 264.65L155.17 264.69L154.47 264.72L153.75 264.74L153.01 264.75L152.25 264.75L151.47 264.74L150.69 264.73L149.89 264.71L149.1 264.68L147.5 264.6L146.71 264.56L145.93 264.51L145.16 264.46L144.41 264.4L143.68 264.34L142.97 264.28L142.28 264.22L141.63 264.15L141.01 264.09L140.42 264.02L139.87 263.96L139.37 263.9L138.9 263.84L138.49 263.78L138.14 263.73L137.83 263.67L137.59 263.63L137.41 263.58L137.29 263.55L137.24 263.53L137.19 263.52L137.13 263.51L137.05 263.5L136.98 263.49L136.89 263.48L136.8 263.47L136.71 263.46L136.51 263.44L136.41 263.42L136.19 263.38L136.09 263.35L135.98 263.31L135.88 263.27L135.78 263.22L135.68 263.16L135.58 263.09L135.49 263.02L135.41 262.93L135.33 262.84L135.26 262.73L135.19 262.62L135.13 262.48L135.09 262.34L135.05 262.18L135.02 262.01L135.01 261.83L135 261.62L135.01 261.4L135.03 261.17L135.07 260.92L135.12 260.64L135.19 260.35L135.27 260.04L135.38 259.71L135.5 259.36L135.63 258.99L135.79 258.59L135.96 258.2L136.14 257.81L136.33 257.4L136.54 256.98L136.75 256.55L136.98 256.11L137.22 255.65L137.46 255.19L137.72 254.71L137.98 254.22L138.24 253.73L138.51 253.22L138.79 252.7L139.06 252.17L139.34 251.63L139.61 251.08L139.89 250.52L140.16 249.94L140.43 249.36L140.7 248.77L140.96 248.17L141.22 247.56L141.47 246.94L141.71 246.3L141.94 245.66L142.16 245.01L142.37 244.35L142.57 243.68L142.76 243.01L142.93 242.32L143.08 241.62L143.22 240.92L143.34 240.2L143.44 239.48L143.53 238.75L143.59 238.01L143.63 237.26L143.65 236.5L143.64 235.74L143.61 234.96L143.6 234.75L143.59 234.54L143.58 234.33L143.56 234.13L143.55 233.92L143.53 233.72L143.52 233.52L143.5 233.32L143.49 233.12L143.47 232.93L143.45 232.73L143.44 232.54L143.42 232.35L143.4 232.16L143.38 231.98L143.36 231.79L143.32 231.43L143.3 231.25L143.26 230.89L143.24 230.72L143.22 230.55L143.19 230.38L143.17 230.21L143.15 230.04L143.12 229.87L143.1 229.71L143.07 229.54L143.05 229.38L143.02 229.22L143 229.06L142.97 228.91L142.94 228.75L142.91 228.6L142.89 228.45L142.86 228.29L142.83 228.15L142.8 228L142.77 227.85L142.64 227.86L142.51 227.88L142.25 227.9L142.12 227.91L141.99 227.92L141.86 227.94L141.73 227.95L141.6 227.96L141.47 227.97L141.21 227.99L141.09 227.99L140.83 228.01L140.71 228.02L140.58 228.03L140.45 228.03L140.33 228.04L140.2 228.05L140.08 228.05L139.96 228.06L139.83 228.06L139.71 228.07L139.59 228.07L139.47 228.08L139.34 228.08L139.22 228.09L138.98 228.09L138.86 228.1L138.51 228.1L138.39 228.11L137.34 228.11L137.11 228.1L136.87 228.1L136.62 228.09L136.38 228.08L136.13 228.06L135.88 228.05L135.63 228.03L135.38 228.02L134.86 227.98L134.6 227.95L134.34 227.93L134.08 227.9L133.81 227.87L133.54 227.84L133.27 227.81L132.73 227.73L132.45 227.7L132.18 227.66L131.9 227.61L131.62 227.57L131.06 227.47L130.77 227.42L130.49 227.37L130.2 227.32L129.91 227.26L129.63 227.2L129.34 227.14L128.76 227.02L128.46 226.95L127.88 226.81L127.58 226.74L127.29 226.67L126.99 226.59L126.95 226.76L126.91 226.92L126.88 227.09L126.84 227.26L126.8 227.43L126.76 227.6L126.72 227.78L126.69 227.96L126.65 228.14L126.62 228.32L126.58 228.51L126.52 228.89L126.48 229.08L126.45 229.27L126.39 229.67L126.36 229.87L126.33 230.08L126.3 230.28L126.27 230.49L126.25 230.7L126.22 230.92L126.19 231.14L126.17 231.36L126.14 231.58L126.12 231.8L126.09 232.03L126.05 232.49L126.03 232.73L126.01 232.96L125.99 233.2L125.97 233.45L125.95 233.69L125.93 233.94L125.92 234.19L125.9 234.45L125.88 234.7L125.87 234.96L125.84 235.74L125.83 236.5L125.85 237.26L125.89 238.01L125.96 238.75L126.04 239.48L126.14 240.2L126.26 240.92L126.4 241.62L126.56 242.32L126.73 243.01L126.91 243.68L127.11 244.35L127.32 245.01L127.54 245.66L127.77 246.3L128.01 246.94L128.26 247.56L128.52 248.17L128.78 248.77L129.05 249.36L129.59 250.52L129.87 251.08L130.15 251.63L130.42 252.17L130.7 252.7L130.97 253.22L131.24 253.73L131.51 254.22L131.76 254.71L132.02 255.19L132.26 255.65L132.5 256.11L132.73 256.55L132.95 256.98L133.15 257.4L133.35 257.81L133.52 258.2L133.69 258.59L133.85 258.99L133.99 259.36L134.11 259.71L134.21 260.04L134.29 260.35L134.36 260.64L134.41 260.92L134.45 261.17L134.47 261.4L134.48 261.62L134.48 261.83L134.46 262.01L134.43 262.18L134.4 262.34L134.35 262.48L134.29 262.62L134.23 262.73L134.15 262.84L134.07 262.93L133.99 263.02L133.9 263.09L133.8 263.16L133.7 263.22L133.6 263.27L133.5 263.31L133.39 263.35L133.29 263.38L133.18 263.4L133.08 263.42L132.97 263.44L132.87 263.45L132.77 263.46L132.68 263.47L132.59 263.48L132.5 263.49L132.36 263.51L132.29 263.52L132.24 263.53L132.19 263.55L132.07 263.58L131.89 263.63L131.65 263.67L131.35 263.73L130.99 263.78L130.58 263.84L130.12 263.9L129.61 263.96L129.06 264.02L128.48 264.09L127.85 264.15L127.2 264.22L126.51 264.28L125.8 264.34L125.07 264.4L124.32 264.46L123.55 264.51L122.77 264.56L121.98 264.6L121.18 264.64L120.39 264.68L119.59 264.71L118.8 264.73L118.01 264.74L117.23 264.75L116.47 264.75L115.73 264.74L115.01 264.72L114.31 264.69L113.64 264.65L112.99 264.6L112.39 264.54L111.82 264.46L111.29 264.37L110.8 264.27L110.36 264.16L109.98 264.03L109.64 263.88L109.37 263.72L109.15 263.55L109.09 263.47L109.04 263.39L109.02 263.3L109.02 263.2L109.03 263.1L109.07 262.99L109.11 262.88L109.17 262.77L109.24 262.65L109.33 262.53L109.42 262.4L109.53 262.27L109.64 262.14L109.76 262.01L109.88 261.88L110.01 261.74L110.15 261.61L110.28 261.47L110.42 261.34L110.55 261.2L110.69 261.07L110.82 260.94L110.95 260.81L111.07 260.68L111.19 260.55L111.3 260.43L111.41 260.31L111.5 260.2L111.58 260.09L111.65 259.99L111.71 259.89L111.75 259.79L111.78 259.7L111.79 259.62L111.78 259.55L111.76 259.48L111.71 259.42L111.64 259.37L111.55 259.32L111.44 259.29L110.62 259.05L109.79 258.73L108.95 258.32L108.1 257.83L107.25 257.27L106.4 256.63L105.55 255.91L104.72 255.13L103.89 254.27L103.09 253.35L102.3 252.36L101.53 251.31L100.79 250.19L100.07 249.02L99.39 247.79L98.75 246.51L98.15 245.18L97.59 243.79L97.07 242.36L96.61 240.88L96.2 239.36L95.85 237.8L95.56 236.19L95.33 234.55L95.17 232.88L95.09 231.17L95.08 229.43L95.14 227.67L95.29 225.88L95.53 224.06L95.85 222.22L96.27 220.36L96.78 218.49L97.39 216.59L98.1 214.69L98.93 212.78L99.86 210.85L100.9 208.92L102.07 206.98L103.35 205.05L103.25 203.69L103.21 203.01L103.16 202.32L103.13 201.62L103.09 200.92L103.06 200.21L103.03 199.5L103.01 198.78L103 198.05L102.99 197.32L102.98 196.58L102.98 195.83L102.99 195.07L103.03 193.53L103.06 192.75L103.09 191.95L103.14 191.15L103.19 190.34L103.26 189.52L103.33 188.69L103.41 187.84L103.5 186.99L103.61 186.12L103.72 185.24L103.84 184.35L103.98 183.45L104.13 182.54L104.29 181.61L104.46 180.67L104.64 179.71L104.84 178.75L105.05 177.76L105.27 176.77L105.51 175.76L105.76 174.73L106.03 173.69L106.31 172.63L106.61 171.56L106.23 171.77L105.86 171.98L105.12 172.4L104.75 172.62L104.38 172.84L104.01 173.07L103.65 173.29L103.28 173.52L102.92 173.75L102.56 173.98L102.21 174.22L101.85 174.46L101.5 174.7L101.15 174.95L100.81 175.2L100.46 175.45L100.12 175.71L99.79 175.97L99.45 176.23L98.79 176.77L98.47 177.05L98.15 177.32L97.83 177.61L97.21 178.19L96.9 178.48L96.6 178.79L96.3 179.09L96.01 179.4L95.43 180.04L95.15 180.36L94.87 180.69L94.6 181.03L94.34 181.37L94.07 181.71L93.82 182.06L93.57 182.42L93.42 182.64L93.27 182.86L93.13 183.08L93 183.31L92.87 183.54L92.74 183.77L92.62 184L92.5 184.24L92.39 184.47L92.28 184.71L92.18 184.96L92.08 185.2L91.9 185.7L91.74 186.2L91.67 186.45L91.61 186.71L91.55 186.97L91.49 187.22L91.45 187.49L91.37 188.01L91.34 188.27L91.32 188.54L91.31 188.81L91.3 189.07L91.3 189.61L91.31 189.88L91.33 190.15L91.36 190.42L91.4 190.69L91.44 190.97L91.49 191.24L91.54 191.51L91.61 191.78L91.68 192.06L91.76 192.33L91.85 192.6L91.85 192.61L91.94 193.15L91.96 193.32L91.99 193.48L92.02 193.64L92.05 193.79L92.07 193.94L92.1 194.09L92.14 194.37L92.17 194.51L92.19 194.64L92.21 194.77L92.22 194.9L92.24 195.02L92.25 195.15L92.26 195.27L92.27 195.39L92.28 195.52L92.28 196.01L92.27 196.14L92.26 196.26L92.24 196.39L92.22 196.52L92.2 196.65L92.14 196.93L92.11 197.07L92.07 197.22L92.02 197.37L91.97 197.52L91.92 197.68L91.86 197.85L91.8 198.02L91.73 198.19L91.65 198.37L91.6 198.51L91.54 198.64L91.48 198.76L91.41 198.89L91.35 199.02L91.28 199.14L91.21 199.27L91.14 199.39L90.82 199.87L90.74 199.98L90.65 200.1L90.38 200.43L90.28 200.54L90.19 200.64L90.09 200.74L89.99 200.84L89.89 200.94L89.78 201.04L89.68 201.14L89.57 201.23L89.46 201.32L89.35 201.41L89.24 201.49L89.13 201.58L89.01 201.66L88.89 201.74L88.78 201.81L88.66 201.89L88.54 201.96L88.41 202.03L88.29 202.09L88.16 202.16L88.04 202.22L87.91 202.27L87.78 202.33L84.97 202.84L84.9 202.83L84.83 202.81L84.77 202.8L84.7 202.79L84.63 202.77L84.49 202.75L84.42 202.74L84.34 202.73L84.27 202.71L84.13 202.69L84.06 202.68L83.92 202.66L83.85 202.65L83.78 202.64L83.64 202.62L83.57 202.6L83.5 202.59L83.43 202.58L83.36 202.57L83.29 202.55L83.22 202.54L83.15 202.53L83.08 202.51L83.01 202.5L82.94 202.48L82.88 202.46L82.81 202.44L82.74 202.43L82.67 202.41L82.6 202.39L82.54 202.37L82.47 202.34L82.4 202.32L82.34 202.3L82.27 202.27L82.21 202.24L82.02 202.17L81.85 202.09L81.69 202.01L81.53 201.94L81.38 201.86L81.24 201.78L81.1 201.71L80.97 201.63L80.85 201.55L80.73 201.48L80.62 201.4L80.4 201.24L80.3 201.16L80.21 201.07L80.11 200.99L80.02 200.9L79.85 200.73L79.77 200.64L79.69 200.55L79.61 200.45L79.53 200.35L79.46 200.26L79.38 200.15L79.3 200.05L79.23 199.94L79.07 199.72L79 199.61L78.92 199.49L78.83 199.36L78.75 199.24L78.57 198.98L78.48 198.84L78.38 198.7L78.28 198.55L78.18 198.4L78.07 198.25L78.06 198.23L78.05 198.2L78.04 198.18L78.02 198.15L78.01 198.13L78 198.11L77.98 198.06L77.97 198.03L77.96 198.01L77.94 197.96L77.93 197.94L77.9 197.89L77.89 197.87L77.87 197.82L77.86 197.79L77.85 197.77L77.84 197.74L77.82 197.7L77.8 197.65L77.76 197.55L77.74 197.5L77.73 197.48L77.72 197.45L77.71 197.43L77.69 197.38L77.68 197.36L77.67 197.33L77.66 197.31L77.65 197.28L77.4 196.66L77.17 196.02L76.95 195.39L76.76 194.74L76.58 194.1L76.42 193.45L76.28 192.79L76.16 192.13L76.05 191.47L75.96 190.8L75.89 190.14L75.83 189.47L75.8 188.8L75.78 188.12L75.77 187.45L75.79 186.77L75.81 186.1L75.86 185.42L75.92 184.75L76 184.07L76.1 183.4L76.21 182.72L76.34 182.05L76.48 181.38L76.64 180.71L76.82 180.05L77.01 179.38L77.22 178.72L77.44 178.07L77.68 177.41L77.93 176.76L78.2 176.12L78.48 175.48L78.78 174.85L79.1 174.22L79.43 173.59L79.77 172.98L80.13 172.37L80.5 171.76L80.89 171.17L81.4 170.42L81.92 169.69L82.45 168.97L83 168.26L83.55 167.56L84.13 166.87L84.71 166.19L85.31 165.53L85.91 164.87L86.53 164.22L87.16 163.59L87.8 162.96L88.45 162.34L89.11 161.74L89.78 161.14L90.46 160.55L91.15 159.97L91.84 159.4L92.55 158.84L93.26 158.29L93.98 157.74L95.44 156.68L96.18 156.16L96.93 155.65L97.68 155.14L98.44 154.65L99.21 154.16L99.98 153.68L100.75 153.2L101.53 152.73L102.31 152.27L103.09 151.82L103.88 151.37L104.67 150.93L105.47 150.49L106.27 150.07L107.06 149.64L107.87 149.22L108.67 148.81L108.73 148.78L108.8 148.75L108.86 148.71L108.93 148.68L108.99 148.65L109.06 148.62L109.12 148.58L109.19 148.55L109.25 148.52L109.32 148.48L109.38 148.45L109.45 148.42L109.51 148.39L109.58 148.35L109.64 148.32L109.71 148.29L109.77 148.26L109.84 148.22L109.9 148.19L109.97 148.16L110.03 148.13L110.1 148.09L110.16 148.06L110.23 148.03L110.29 148L110.36 147.97L110.42 147.93L110.49 147.9L110.55 147.87L110.62 147.84L110.68 147.81L110.75 147.77L110.82 147.74L110.88 147.71L110.95 147.68L111.01 147.65L111.08 147.62L111.14 147.58L111.21 147.55L111.27 147.52L109.57 147.13L107.89 146.71L106.23 146.25L104.59 145.76L102.98 145.23L101.39 144.67L99.84 144.06L98.31 143.41L96.82 142.73L95.36 142L93.93 141.23L92.54 140.42L91.19 139.57L89.88 138.67L88.61 137.72L87.38 136.73L86.19 135.69L85.05 134.61L83.96 133.47L82.92 132.29L81.92 131.05L80.98 129.76L80.09 128.42L79.26 127.03L78.48 125.58L77.76 124.08L77.11 122.53L76.51 120.91L75.97 119.24L75.5 117.51L75.1 115.72L74.76 113.87L74.49 111.96L74.29 109.99L74.17 107.95L74.12 105.85L74.14 103.69L74.24 101.46L74.42 99.17L74.68 96.81L74.68 79.13L74.71 78.79L74.75 78.45L74.79 78.11L74.87 77.43L74.92 77.09L74.96 76.75L75.01 76.42L75.06 76.08L75.11 75.75L75.16 75.42L75.26 74.76L75.32 74.43L75.37 74.1L75.43 73.77L75.49 73.45L75.55 73.12L75.61 72.8L75.67 72.48L75.73 72.15L75.8 71.83L75.86 71.52L75.93 71.2L76 70.88L76.07 70.56L76.14 70.25L76.21 69.93L76.29 69.62L76.36 69.31L76.6 68.38L76.68 68.07L76.76 67.77L76.84 67.46L76.92 67.16L77.01 66.85L77.09 66.55L77.18 66.25L77.06 66.17L76.93 66.1L76.81 66.02L76.68 65.94L76.56 65.86L76.44 65.78L76.31 65.7L76.19 65.62L76.07 65.54L75.94 65.45L75.82 65.37L75.7 65.28L75.58 65.2L75.46 65.11L75.34 65.02L75.22 64.94L74.98 64.76L74.86 64.67L74.74 64.58L74.62 64.49L74.5 64.39L74.38 64.3L74.27 64.21L74.15 64.11L74.03 64.02L73.91 63.92L73.8 63.82L73.68 63.73L73.57 63.63L73.45 63.53L73.34 63.43L73.22 63.33L73.11 63.23L73 63.12L72.88 63.02L72.77 62.92L72.66 62.81L72.55 62.71L72.43 62.6L71.71 61.88L71.01 61.14L70.35 60.38L69.72 59.61L69.13 58.81L68.57 58.01L68.04 57.19L67.54 56.35L67.08 55.51L66.66 54.65L66.26 53.79L65.9 52.91L65.58 52.03L65.28 51.14L65.02 50.25L64.8 49.35L64.61 48.45L64.45 47.55L64.33 46.64L64.25 45.74L64.19 44.84L64.17 43.94L64.19 43.04L64.24 42.15L64.33 41.26L64.45 40.38L64.61 39.51L64.8 38.64L65.02 37.79L65.29 36.94L65.58 36.11L65.92 35.29L66.28 34.48L66.69 33.69L67.13 32.92L67.6 32.16L68.11 31.42L68.66 30.71L69.24 30.01L69.86 29.33L70.51 28.68L71.18 28.07L71.88 27.49L72.59 26.95L73.33 26.44L74.08 25.96L74.85 25.53L75.64 25.12L76.44 24.75L77.26 24.42L78.09 24.12L78.94 23.86L79.79 23.63L80.66 23.43L81.53 23.27L82.42 23.14L83.31 23.05L84.2 23L85.1 22.97L86.01 22.99L86.91 23.03L87.82 23.11L88.73 23.23L89.64 23.38L90.54 23.56L91.45 23.78L92.35 24.03L93.24 24.32L94.13 24.64L95.01 25L95.89 25.39L96.75 25.81L97.61 26.27L98.45 26.76L99.28 27.28L100.1 27.84L100.9 28.43L101.69 29.06L102.46 29.72L103.21 30.42L103.27 30.46L103.29 30.49L103.32 30.51L103.34 30.54L103.37 30.56L103.39 30.59L103.42 30.61L103.44 30.64L103.47 30.66L103.54 30.73L103.57 30.76L103.62 30.81L103.64 30.83L103.66 30.86L103.69 30.88L103.71 30.91L103.74 30.93L103.76 30.96L103.79 30.98L103.81 31.01L103.84 31.03L103.86 31.06L103.89 31.08L103.91 31.11L104.03 31.23L104.05 31.26L104.08 31.28L104.1 31.31L104.13 31.33L104.15 31.36L104.17 31.38L104.2 31.41L105.58 30.64L106.98 29.91L108.39 29.21L109.82 28.56L111.27 27.94L112.73 27.36L114.2 26.81L115.69 26.3L117.19 25.83L118.7 25.4L120.21 25L121.74 24.64L123.27 24.32L124.81 24.03L126.36 23.78L127.91 23.57L129.46 23.4L131.02 23.26L132.58 23.15L134.14 23.09L135.7 23.06L137.26 23.06L138.82 23.11L140.37 23.19L141.93 23.3L143.47 23.45L145.02 23.64L146.55 23.86L148.08 24.12L149.6 24.42L151.11 24.75L152.61 25.12L154.1 25.52L155.58 25.96L157.04 26.43L158.49 26.94L159.93 27.49L161.35 28.07L162.75 28.68L164.14 29.33L164.89 28.72L165.65 28.13L166.43 27.58L167.22 27.06L168.03 26.57L168.84 26.11L169.67 25.68L170.5 25.28L171.34 24.92L172.19 24.58L173.04 24.28L173.91 24.01L174.77 23.77L175.64 23.56L176.51 23.38L177.38 23.24L178.25 23.12L179.13 23.04L180 22.99L180.87 22.97L181.73 22.99L182.59 23.03ZM132.13 82.64L130.87 82.66L128.37 82.7L127.12 82.73L125.86 82.76L124.61 82.79L123.35 82.83L122.09 82.87L120.84 82.91L119.58 82.96L117.06 83.06L115.8 83.12L114.54 83.18L113.27 83.25L112.01 83.32L110.74 83.39L109.48 83.46L108.21 83.54L106.95 83.62L103.14 83.89L101.87 83.98L100.6 84.08L99.32 84.19L98.05 84.29L96.78 84.4L95.5 84.51L94.23 84.63L92.95 84.75L91.67 84.87L90.39 85L89.11 85.13L87.83 85.26L83.99 85.68L83.49 85.78L83.04 85.97L82.64 86.27L82.28 86.65L81.97 87.12L81.71 87.66L81.48 88.29L81.3 88.98L81.17 89.74L81.07 90.55L81.01 91.42L80.99 92.34L81.01 93.3L81.06 94.31L81.15 95.34L81.27 96.4L81.42 97.49L81.61 98.6L81.82 99.71L82.07 100.84L82.34 101.97L82.65 103.09L82.97 104.21L83.32 105.31L83.7 106.4L84.1 107.46L84.52 108.5L84.96 109.5L85.42 110.46L85.9 111.37L86.4 112.24L86.91 113.06L87.44 113.81L87.98 114.5L88.54 115.12L89.11 115.66L89.69 116.13L90.27 116.51L90.87 116.8L91.48 116.99L179.57 116.58L180.27 116.64L180.94 116.58L181.6 116.41L182.24 116.13L182.86 115.75L183.45 115.27L184.03 114.7L184.58 114.05L185.11 113.32L185.62 112.53L186.1 111.66L186.55 110.74L186.98 109.77L187.38 108.75L187.75 107.68L188.1 106.59L188.41 105.46L188.69 104.31L188.94 103.15L189.16 101.98L189.34 100.8L189.49 99.62L189.6 98.45L189.68 97.3L189.72 96.16L189.72 95.05L189.68 93.98L189.6 92.94L189.48 91.95L189.32 91L189.12 90.12L188.88 89.29L188.59 88.54L188.25 87.86L187.88 87.26L187.45 86.74L186.98 86.32L186.45 86L185.88 85.79L185.26 85.68L183.98 85.54L182.7 85.4L181.42 85.26L180.14 85.13L178.86 85L177.58 84.87L176.3 84.75L175.02 84.63L173.75 84.51L172.47 84.4L171.2 84.29L169.93 84.19L168.65 84.08L167.38 83.98L166.11 83.89L164.84 83.8L163.57 83.71L162.31 83.62L161.04 83.54L159.77 83.46L158.51 83.39L157.24 83.32L155.98 83.25L154.72 83.18L153.45 83.12L152.19 83.06L149.67 82.96L148.41 82.91L147.16 82.87L145.9 82.83L144.64 82.79L143.39 82.76L142.13 82.73L140.88 82.7L138.38 82.66L137.12 82.64L134.62 82.62L133.38 82.63L132.13 82.64Z" id="bpCCNVtlu"></path><path d="M182.59 23.03L183.45 23.11L184.3 23.22L185.14 23.36L185.98 23.53L186.81 23.74L187.62 23.98L188.43 24.25L189.22 24.55L190 24.88L190.77 25.25L191.52 25.64L192.26 26.07L192.98 26.53L193.68 27.03L194.36 27.56L195.03 28.11L195.67 28.71L196.3 29.33L196.91 30.01L197.5 30.71L198.04 31.42L198.56 32.16L199.03 32.92L199.47 33.69L199.87 34.48L200.24 35.29L200.57 36.11L200.87 36.94L201.13 37.79L201.36 38.64L201.55 39.51L201.71 40.38L201.83 41.26L201.92 42.15L201.97 43.04L201.98 43.94L201.97 44.84L201.91 45.74L201.83 46.64L201.7 47.55L201.55 48.45L201.36 49.35L201.13 50.25L200.88 51.14L200.58 52.03L200.26 52.91L199.9 53.79L199.5 54.65L199.07 55.51L198.61 56.35L198.12 57.19L197.59 58.01L197.03 58.81L196.43 59.61L195.81 60.38L195.15 61.14L194.45 61.88L193.72 62.6L193.7 62.63L193.67 62.65L193.64 62.68L193.61 62.71L193.58 62.73L193.55 62.76L193.53 62.79L193.5 62.81L193.47 62.84L193.44 62.87L193.41 62.89L193.38 62.92L193.36 62.95L193.33 62.97L193.3 63L193.27 63.02L193.24 63.05L193.21 63.08L193.19 63.1L193.16 63.13L193.13 63.15L193.07 63.21L193.04 63.23L193.01 63.26L192.98 63.28L192.96 63.31L192.93 63.33L192.9 63.36L192.87 63.38L192.84 63.41L192.81 63.44L192.78 63.46L192.73 63.51L192.7 63.54L192.67 63.56L192.64 63.59L192.61 63.61L192.58 63.64L192.67 63.99L192.76 64.35L192.85 64.71L192.94 65.08L193.02 65.44L193.11 65.81L193.19 66.17L193.26 66.54L193.34 66.91L193.41 67.28L193.48 67.66L193.55 68.03L193.62 68.41L193.69 68.78L193.81 69.54L193.87 69.93L193.92 70.31L193.98 70.69L194.08 71.47L194.13 71.86L194.21 72.64L194.25 73.04L194.29 73.43L194.33 73.83L194.36 74.23L194.39 74.63L194.42 75.03L194.45 75.43L194.47 75.84L194.49 76.25L194.51 76.65L194.53 77.06L194.54 77.47L194.55 77.89L194.56 78.3L194.57 78.72L194.58 79.13L194.58 96.81L194.83 99.17L195.01 101.47L195.11 103.71L195.14 105.87L195.08 107.98L194.96 110.02L194.76 111.99L194.49 113.91L194.15 115.76L193.74 117.55L193.27 119.28L192.73 120.96L192.13 122.57L191.46 124.13L190.74 125.64L189.96 127.09L189.12 128.48L188.23 129.82L187.28 131.11L186.29 132.34L185.24 133.53L184.14 134.67L183 135.75L181.8 136.79L180.57 137.78L179.29 138.73L177.97 139.63L176.62 140.48L175.22 141.29L173.79 142.06L172.32 142.78L170.82 143.47L169.29 144.11L167.73 144.71L166.14 145.28L164.52 145.81L162.88 146.3L161.21 146.75L159.52 147.17L157.81 147.56L157.9 147.6L157.98 147.64L158.02 147.65L158.14 147.71L158.19 147.73L158.27 147.77L158.35 147.81L158.47 147.87L158.56 147.91L158.64 147.95L158.68 147.96L158.76 148L158.81 148.02L158.85 148.04L158.89 148.06L158.93 148.08L158.97 148.1L159.05 148.14L159.1 148.16L159.14 148.18L159.18 148.19L159.22 148.21L159.26 148.23L159.3 148.25L159.34 148.27L159.39 148.29L159.47 148.33L159.6 148.38L159.72 148.44L159.85 148.5L159.97 148.55L160.23 148.67L160.35 148.72L160.48 148.78L160.61 148.83L160.73 148.89L160.86 148.94L160.99 148.99L161.11 149.05L161.24 149.1L161.37 149.16L161.5 149.21L161.62 149.26L161.75 149.31L161.88 149.37L162.01 149.42L162.14 149.47L162.26 149.52L162.52 149.62L162.65 149.67L163.04 149.82L163.17 149.87L163.3 149.92L163.56 150.02L163.69 150.06L163.82 150.11L163.95 150.16L164.08 150.2L164.21 150.25L164.34 150.29L164.47 150.34L164.6 150.38L164.9 150.48L165.2 150.58L165.49 150.68L165.8 150.78L166.1 150.87L166.7 151.05L167.01 151.13L167.31 151.22L167.62 151.3L167.93 151.37L168.23 151.45L168.54 151.52L168.85 151.58L169.16 151.65L169.47 151.71L170.09 151.81L170.4 151.85L170.71 151.89L171.03 151.93L171.34 151.95L171.65 151.98L171.96 151.99L172.28 152.01L172.91 152.01L173.53 151.99L173.85 151.96L174.16 151.94L174.48 151.9L174.79 151.86L175.1 151.8L175.42 151.75L175.73 151.68L176.05 151.6L176.36 151.52L176.67 151.42L176.99 151.32L177.38 151.17L177.77 151L178.16 150.81L178.55 150.6L178.93 150.37L179.31 150.12L179.69 149.85L180.06 149.57L180.43 149.27L180.79 148.96L181.15 148.64L181.51 148.31L181.86 147.96L182.21 147.61L182.55 147.25L182.89 146.88L183.22 146.51L183.54 146.14L183.86 145.76L184.18 145.38L185.08 144.24L185.37 143.87L185.65 143.5L185.92 143.14L186.19 142.78L186.45 142.43L186.7 142.09L186.94 141.76L187.17 141.44L187.4 141.14L187.62 140.85L187.83 140.57L188.03 140.31L188.22 140.06L188.41 139.84L188.58 139.64L188.74 139.45L188.9 139.29L188.95 139.24L189.07 139.12L189.13 139.06L189.2 138.98L189.26 138.91L189.4 138.75L189.47 138.66L189.55 138.57L189.62 138.47L189.7 138.38L189.78 138.28L189.87 138.18L189.96 138.07L190.05 137.97L190.14 137.86L190.24 137.75L190.34 137.64L190.44 137.53L190.66 137.31L190.77 137.2L190.89 137.08L191.13 136.86L191.26 136.76L191.39 136.65L191.53 136.54L191.67 136.44L191.97 136.24L192.12 136.14L192.28 136.05L192.44 135.96L192.78 135.8L192.96 135.72L193.14 135.64L193.32 135.58L193.39 135.55L193.46 135.53L193.52 135.51L193.66 135.47L193.8 135.43L193.87 135.41L193.93 135.39L194.07 135.35L194.14 135.34L194.21 135.32L194.28 135.31L194.35 135.29L194.42 135.28L194.49 135.26L194.7 135.23L194.78 135.22L194.85 135.21L195.13 135.17L195.2 135.17L195.27 135.16L195.34 135.16L195.41 135.15L195.48 135.15L195.55 135.14L196.11 135.14L196.18 135.15L196.25 135.15L196.33 135.16L196.47 135.18L196.55 135.19L196.63 135.2L196.71 135.22L196.78 135.23L196.86 135.25L196.94 135.27L197.02 135.28L197.18 135.32L197.26 135.34L197.34 135.36L197.42 135.39L197.5 135.41L197.58 135.43L197.65 135.45L197.73 135.47L197.8 135.5L197.88 135.52L197.95 135.54L198.09 135.58L198.16 135.6L198.23 135.63L198.29 135.65L198.35 135.67L198.42 135.68L198.47 135.7L198.53 135.72L198.58 135.74L198.63 135.75L198.68 135.77L198.73 135.78L198.77 135.79L198.81 135.8L198.85 135.81L198.88 135.84L198.92 135.86L198.95 135.89L198.99 135.91L199.03 135.94L199.08 135.97L199.12 136.01L199.17 136.04L199.22 136.07L199.28 136.11L199.33 136.15L199.39 136.18L199.45 136.22L199.51 136.26L199.57 136.31L199.63 136.35L199.69 136.39L199.76 136.44L199.82 136.48L199.89 136.53L199.95 136.58L200.02 136.62L200.08 136.67L200.15 136.72L200.21 136.77L200.35 136.87L200.41 136.92L200.47 136.97L200.54 137.02L200.6 137.08L200.72 137.18L200.78 137.23L200.89 137.34L200.94 137.39L200.99 137.44L201.04 137.5L201.09 137.55L201.14 137.6L201.18 137.66L201.23 137.72L201.28 137.79L201.32 137.85L201.37 137.92L201.42 138L201.47 138.07L201.52 138.15L201.56 138.23L201.66 138.39L201.71 138.47L201.75 138.55L201.8 138.63L201.84 138.72L201.89 138.8L201.93 138.88L201.97 138.96L202.02 139.04L202.06 139.12L202.1 139.19L202.13 139.27L202.21 139.41L202.24 139.48L202.27 139.55L202.3 139.61L202.33 139.67L202.35 139.72L202.38 139.77L202.4 139.82L202.42 139.86L202.44 139.9L202.45 139.93L202.47 139.96L202.48 139.99L202.49 140.01L202.52 140.22L202.55 140.43L202.59 140.63L202.62 140.82L202.65 141.01L202.68 141.2L202.71 141.38L202.73 141.55L202.76 141.72L202.78 141.89L202.81 142.05L202.83 142.2L202.85 142.36L202.87 142.51L202.88 142.65L202.9 142.8L202.91 142.94L202.92 143.07L202.92 143.21L202.93 143.34L202.93 143.6L202.92 143.72L202.92 143.85L202.91 143.97L202.89 144.09L202.88 144.21L202.86 144.33L202.83 144.45L202.8 144.57L202.77 144.69L202.74 144.8L202.66 145.04L202.56 145.28L202.5 145.4L202.45 145.52L202.38 145.64L202.31 145.77L202.13 146.09L201.94 146.43L201.74 146.78L201.53 147.16L201.31 147.56L201.08 147.97L200.84 148.4L200.59 148.85L200.34 149.31L200.07 149.78L199.79 150.26L199.51 150.75L199.22 151.26L198.91 151.77L198.6 152.29L198.28 152.81L197.96 153.34L197.62 153.88L197.28 154.41L196.93 154.95L196.57 155.49L196.21 156.03L195.83 156.57L195.45 157.11L195.07 157.65L194.67 158.18L194.27 158.7L193.86 159.22L193.45 159.73L193.03 160.23L192.6 160.72L192.17 161.2L191.73 161.67L191.29 162.13L190.84 162.57L190.38 163L189.92 163.41L189.45 163.81L188.98 164.19L188.5 164.54L188.07 164.85L187.63 165.15L187.19 165.44L186.74 165.72L186.29 165.99L185.84 166.25L185.38 166.51L184.91 166.75L184.44 166.99L183.97 167.21L183.49 167.43L182.53 167.85L181.55 168.23L181.06 168.4L180.56 168.57L180.06 168.73L179.56 168.88L179.05 169.03L178.54 169.16L178.03 169.29L177.51 169.41L177 169.52L176.48 169.62L175.95 169.71L175.43 169.8L174.9 169.88L174.37 169.95L173.84 170.01L173.31 170.06L172.77 170.11L172.24 170.15L171.7 170.18L170.62 170.22L168.99 170.22L168.45 170.2L168.65 171.3L168.85 172.38L169.03 173.45L169.21 174.51L169.37 175.56L169.53 176.6L169.67 177.63L169.81 178.66L170.05 180.68L170.16 181.68L170.25 182.67L170.34 183.66L170.42 184.65L170.49 185.63L170.56 186.61L170.61 187.59L170.65 188.56L170.69 189.54L170.72 190.51L170.74 191.49L170.76 193.45L170.76 194.43L170.75 195.42L170.73 196.41L170.71 197.41L170.67 198.41L170.64 199.42L170.59 200.44L170.54 201.47L170.48 202.5L170.42 203.55L170.34 204.6L170.27 205.67L170.18 206.74L170.09 207.83L170 208.94L169.9 210.05L169.79 211.19L170.64 212.96L171.39 214.72L172.05 216.47L172.62 218.22L173.11 219.95L173.52 221.66L173.84 223.36L174.09 225.04L174.27 226.7L174.37 228.34L174.41 229.96L174.38 231.55L174.29 233.12L174.14 234.66L173.93 236.17L173.66 237.65L173.35 239.09L172.98 240.5L172.57 241.87L172.11 243.21L171.62 244.5L171.08 245.76L170.51 246.97L169.91 248.13L169.28 249.25L168.62 250.32L167.93 251.34L167.22 252.31L166.5 253.23L165.76 254.09L165 254.89L164.23 255.63L163.46 256.32L162.68 256.94L161.9 257.5L161.11 258L160.33 258.42L159.56 258.78L158.8 259.07L158.04 259.29L157.93 259.32L157.84 259.37L157.77 259.42L157.72 259.48L157.7 259.55L157.69 259.62L157.7 259.7L157.73 259.79L157.77 259.89L157.83 259.99L157.9 260.09L157.98 260.2L158.08 260.31L158.18 260.43L158.29 260.55L158.41 260.68L158.53 260.81L158.79 261.07L158.93 261.2L159.06 261.34L159.2 261.47L159.33 261.61L159.47 261.74L159.6 261.88L159.84 262.14L159.95 262.27L160.06 262.4L160.15 262.53L160.24 262.65L160.31 262.77L160.37 262.88L160.42 262.99L160.45 263.1L160.46 263.2L160.46 263.3L160.44 263.39L160.39 263.47L160.33 263.55L160.12 263.72L159.84 263.88L159.5 264.03L159.12 264.16L158.68 264.27L158.19 264.37L157.66 264.46L157.09 264.54L156.49 264.6L155.85 264.65L155.17 264.69L154.47 264.72L153.75 264.74L153.01 264.75L152.25 264.75L151.47 264.74L150.69 264.73L149.89 264.71L149.1 264.68L147.5 264.6L146.71 264.56L145.93 264.51L145.16 264.46L144.41 264.4L143.68 264.34L142.97 264.28L142.28 264.22L141.63 264.15L141.01 264.09L140.42 264.02L139.87 263.96L139.37 263.9L138.9 263.84L138.49 263.78L138.14 263.73L137.83 263.67L137.59 263.63L137.41 263.58L137.29 263.55L137.24 263.53L137.19 263.52L137.13 263.51L137.05 263.5L136.98 263.49L136.89 263.48L136.8 263.47L136.71 263.46L136.51 263.44L136.41 263.42L136.19 263.38L136.09 263.35L135.98 263.31L135.88 263.27L135.78 263.22L135.68 263.16L135.58 263.09L135.49 263.02L135.41 262.93L135.33 262.84L135.26 262.73L135.19 262.62L135.13 262.48L135.09 262.34L135.05 262.18L135.02 262.01L135.01 261.83L135 261.62L135.01 261.4L135.03 261.17L135.07 260.92L135.12 260.64L135.19 260.35L135.27 260.04L135.38 259.71L135.5 259.36L135.63 258.99L135.79 258.59L135.96 258.2L136.14 257.81L136.33 257.4L136.54 256.98L136.75 256.55L136.98 256.11L137.22 255.65L137.46 255.19L137.72 254.71L137.98 254.22L138.24 253.73L138.51 253.22L138.79 252.7L139.06 252.17L139.34 251.63L139.61 251.08L139.89 250.52L140.16 249.94L140.43 249.36L140.7 248.77L140.96 248.17L141.22 247.56L141.47 246.94L141.71 246.3L141.94 245.66L142.16 245.01L142.37 244.35L142.57 243.68L142.76 243.01L142.93 242.32L143.08 241.62L143.22 240.92L143.34 240.2L143.44 239.48L143.53 238.75L143.59 238.01L143.63 237.26L143.65 236.5L143.64 235.74L143.61 234.96L143.6 234.75L143.59 234.54L143.58 234.33L143.56 234.13L143.55 233.92L143.53 233.72L143.52 233.52L143.5 233.32L143.49 233.12L143.47 232.93L143.45 232.73L143.44 232.54L143.42 232.35L143.4 232.16L143.38 231.98L143.36 231.79L143.32 231.43L143.3 231.25L143.26 230.89L143.24 230.72L143.22 230.55L143.19 230.38L143.17 230.21L143.15 230.04L143.12 229.87L143.1 229.71L143.07 229.54L143.05 229.38L143.02 229.22L143 229.06L142.97 228.91L142.94 228.75L142.91 228.6L142.89 228.45L142.86 228.29L142.83 228.15L142.8 228L142.77 227.85L142.64 227.86L142.51 227.88L142.25 227.9L142.12 227.91L141.99 227.92L141.86 227.94L141.73 227.95L141.6 227.96L141.47 227.97L141.21 227.99L141.09 227.99L140.83 228.01L140.71 228.02L140.58 228.03L140.45 228.03L140.33 228.04L140.2 228.05L140.08 228.05L139.96 228.06L139.83 228.06L139.71 228.07L139.59 228.07L139.47 228.08L139.34 228.08L139.22 228.09L138.98 228.09L138.86 228.1L138.51 228.1L138.39 228.11L137.34 228.11L137.11 228.1L136.87 228.1L136.62 228.09L136.38 228.08L136.13 228.06L135.88 228.05L135.63 228.03L135.38 228.02L134.86 227.98L134.6 227.95L134.34 227.93L134.08 227.9L133.81 227.87L133.54 227.84L133.27 227.81L132.73 227.73L132.45 227.7L132.18 227.66L131.9 227.61L131.62 227.57L131.06 227.47L130.77 227.42L130.49 227.37L130.2 227.32L129.91 227.26L129.63 227.2L129.34 227.14L128.76 227.02L128.46 226.95L127.88 226.81L127.58 226.74L127.29 226.67L126.99 226.59L126.95 226.76L126.91 226.92L126.88 227.09L126.84 227.26L126.8 227.43L126.76 227.6L126.72 227.78L126.69 227.96L126.65 228.14L126.62 228.32L126.58 228.51L126.52 228.89L126.48 229.08L126.45 229.27L126.39 229.67L126.36 229.87L126.33 230.08L126.3 230.28L126.27 230.49L126.25 230.7L126.22 230.92L126.19 231.14L126.17 231.36L126.14 231.58L126.12 231.8L126.09 232.03L126.05 232.49L126.03 232.73L126.01 232.96L125.99 233.2L125.97 233.45L125.95 233.69L125.93 233.94L125.92 234.19L125.9 234.45L125.88 234.7L125.87 234.96L125.84 235.74L125.83 236.5L125.85 237.26L125.89 238.01L125.96 238.75L126.04 239.48L126.14 240.2L126.26 240.92L126.4 241.62L126.56 242.32L126.73 243.01L126.91 243.68L127.11 244.35L127.32 245.01L127.54 245.66L127.77 246.3L128.01 246.94L128.26 247.56L128.52 248.17L128.78 248.77L129.05 249.36L129.59 250.52L129.87 251.08L130.15 251.63L130.42 252.17L130.7 252.7L130.97 253.22L131.24 253.73L131.51 254.22L131.76 254.71L132.02 255.19L132.26 255.65L132.5 256.11L132.73 256.55L132.95 256.98L133.15 257.4L133.35 257.81L133.52 258.2L133.69 258.59L133.85 258.99L133.99 259.36L134.11 259.71L134.21 260.04L134.29 260.35L134.36 260.64L134.41 260.92L134.45 261.17L134.47 261.4L134.48 261.62L134.48 261.83L134.46 262.01L134.43 262.18L134.4 262.34L134.35 262.48L134.29 262.62L134.23 262.73L134.15 262.84L134.07 262.93L133.99 263.02L133.9 263.09L133.8 263.16L133.7 263.22L133.6 263.27L133.5 263.31L133.39 263.35L133.29 263.38L133.18 263.4L133.08 263.42L132.97 263.44L132.87 263.45L132.77 263.46L132.68 263.47L132.59 263.48L132.5 263.49L132.36 263.51L132.29 263.52L132.24 263.53L132.19 263.55L132.07 263.58L131.89 263.63L131.65 263.67L131.35 263.73L130.99 263.78L130.58 263.84L130.12 263.9L129.61 263.96L129.06 264.02L128.48 264.09L127.85 264.15L127.2 264.22L126.51 264.28L125.8 264.34L125.07 264.4L124.32 264.46L123.55 264.51L122.77 264.56L121.98 264.6L121.18 264.64L120.39 264.68L119.59 264.71L118.8 264.73L118.01 264.74L117.23 264.75L116.47 264.75L115.73 264.74L115.01 264.72L114.31 264.69L113.64 264.65L112.99 264.6L112.39 264.54L111.82 264.46L111.29 264.37L110.8 264.27L110.36 264.16L109.98 264.03L109.64 263.88L109.37 263.72L109.15 263.55L109.09 263.47L109.04 263.39L109.02 263.3L109.02 263.2L109.03 263.1L109.07 262.99L109.11 262.88L109.17 262.77L109.24 262.65L109.33 262.53L109.42 262.4L109.53 262.27L109.64 262.14L109.76 262.01L109.88 261.88L110.01 261.74L110.15 261.61L110.28 261.47L110.42 261.34L110.55 261.2L110.69 261.07L110.82 260.94L110.95 260.81L111.07 260.68L111.19 260.55L111.3 260.43L111.41 260.31L111.5 260.2L111.58 260.09L111.65 259.99L111.71 259.89L111.75 259.79L111.78 259.7L111.79 259.62L111.78 259.55L111.76 259.48L111.71 259.42L111.64 259.37L111.55 259.32L111.44 259.29L110.62 259.05L109.79 258.73L108.95 258.32L108.1 257.83L107.25 257.27L106.4 256.63L105.55 255.91L104.72 255.13L103.89 254.27L103.09 253.35L102.3 252.36L101.53 251.31L100.79 250.19L100.07 249.02L99.39 247.79L98.75 246.51L98.15 245.18L97.59 243.79L97.07 242.36L96.61 240.88L96.2 239.36L95.85 237.8L95.56 236.19L95.33 234.55L95.17 232.88L95.09 231.17L95.08 229.43L95.14 227.67L95.29 225.88L95.53 224.06L95.85 222.22L96.27 220.36L96.78 218.49L97.39 216.59L98.1 214.69L98.93 212.78L99.86 210.85L100.9 208.92L102.07 206.98L103.35 205.05L103.25 203.69L103.21 203.01L103.16 202.32L103.13 201.62L103.09 200.92L103.06 200.21L103.03 199.5L103.01 198.78L103 198.05L102.99 197.32L102.98 196.58L102.98 195.83L102.99 195.07L103.03 193.53L103.06 192.75L103.09 191.95L103.14 191.15L103.19 190.34L103.26 189.52L103.33 188.69L103.41 187.84L103.5 186.99L103.61 186.12L103.72 185.24L103.84 184.35L103.98 183.45L104.13 182.54L104.29 181.61L104.46 180.67L104.64 179.71L104.84 178.75L105.05 177.76L105.27 176.77L105.51 175.76L105.76 174.73L106.03 173.69L106.31 172.63L106.61 171.56L106.23 171.77L105.86 171.98L105.12 172.4L104.75 172.62L104.38 172.84L104.01 173.07L103.65 173.29L103.28 173.52L102.92 173.75L102.56 173.98L102.21 174.22L101.85 174.46L101.5 174.7L101.15 174.95L100.81 175.2L100.46 175.45L100.12 175.71L99.79 175.97L99.45 176.23L98.79 176.77L98.47 177.05L98.15 177.32L97.83 177.61L97.21 178.19L96.9 178.48L96.6 178.79L96.3 179.09L96.01 179.4L95.43 180.04L95.15 180.36L94.87 180.69L94.6 181.03L94.34 181.37L94.07 181.71L93.82 182.06L93.57 182.42L93.42 182.64L93.27 182.86L93.13 183.08L93 183.31L92.87 183.54L92.74 183.77L92.62 184L92.5 184.24L92.39 184.47L92.28 184.71L92.18 184.96L92.08 185.2L91.9 185.7L91.74 186.2L91.67 186.45L91.61 186.71L91.55 186.97L91.49 187.22L91.45 187.49L91.37 188.01L91.34 188.27L91.32 188.54L91.31 188.81L91.3 189.07L91.3 189.61L91.31 189.88L91.33 190.15L91.36 190.42L91.4 190.69L91.44 190.97L91.49 191.24L91.54 191.51L91.61 191.78L91.68 192.06L91.76 192.33L91.85 192.6L91.85 192.61L91.94 193.15L91.96 193.32L91.99 193.48L92.02 193.64L92.05 193.79L92.07 193.94L92.1 194.09L92.14 194.37L92.17 194.51L92.19 194.64L92.21 194.77L92.22 194.9L92.24 195.02L92.25 195.15L92.26 195.27L92.27 195.39L92.28 195.52L92.28 196.01L92.27 196.14L92.26 196.26L92.24 196.39L92.22 196.52L92.2 196.65L92.14 196.93L92.11 197.07L92.07 197.22L92.02 197.37L91.97 197.52L91.92 197.68L91.86 197.85L91.8 198.02L91.73 198.19L91.65 198.37L91.6 198.51L91.54 198.64L91.48 198.76L91.41 198.89L91.35 199.02L91.28 199.14L91.21 199.27L91.14 199.39L90.82 199.87L90.74 199.98L90.65 200.1L90.38 200.43L90.28 200.54L90.19 200.64L90.09 200.74L89.99 200.84L89.89 200.94L89.78 201.04L89.68 201.14L89.57 201.23L89.46 201.32L89.35 201.41L89.24 201.49L89.13 201.58L89.01 201.66L88.89 201.74L88.78 201.81L88.66 201.89L88.54 201.96L88.41 202.03L88.29 202.09L88.16 202.16L88.04 202.22L87.91 202.27L87.78 202.33L84.97 202.84L84.9 202.83L84.83 202.81L84.77 202.8L84.7 202.79L84.63 202.77L84.49 202.75L84.42 202.74L84.34 202.73L84.27 202.71L84.13 202.69L84.06 202.68L83.92 202.66L83.85 202.65L83.78 202.64L83.64 202.62L83.57 202.6L83.5 202.59L83.43 202.58L83.36 202.57L83.29 202.55L83.22 202.54L83.15 202.53L83.08 202.51L83.01 202.5L82.94 202.48L82.88 202.46L82.81 202.44L82.74 202.43L82.67 202.41L82.6 202.39L82.54 202.37L82.47 202.34L82.4 202.32L82.34 202.3L82.27 202.27L82.21 202.24L82.02 202.17L81.85 202.09L81.69 202.01L81.53 201.94L81.38 201.86L81.24 201.78L81.1 201.71L80.97 201.63L80.85 201.55L80.73 201.48L80.62 201.4L80.4 201.24L80.3 201.16L80.21 201.07L80.11 200.99L80.02 200.9L79.85 200.73L79.77 200.64L79.69 200.55L79.61 200.45L79.53 200.35L79.46 200.26L79.38 200.15L79.3 200.05L79.23 199.94L79.07 199.72L79 199.61L78.92 199.49L78.83 199.36L78.75 199.24L78.57 198.98L78.48 198.84L78.38 198.7L78.28 198.55L78.18 198.4L78.07 198.25L78.06 198.23L78.05 198.2L78.04 198.18L78.02 198.15L78.01 198.13L78 198.11L77.98 198.06L77.97 198.03L77.96 198.01L77.94 197.96L77.93 197.94L77.9 197.89L77.89 197.87L77.87 197.82L77.86 197.79L77.85 197.77L77.84 197.74L77.82 197.7L77.8 197.65L77.76 197.55L77.74 197.5L77.73 197.48L77.72 197.45L77.71 197.43L77.69 197.38L77.68 197.36L77.67 197.33L77.66 197.31L77.65 197.28L77.4 196.66L77.17 196.02L76.95 195.39L76.76 194.74L76.58 194.1L76.42 193.45L76.28 192.79L76.16 192.13L76.05 191.47L75.96 190.8L75.89 190.14L75.83 189.47L75.8 188.8L75.78 188.12L75.77 187.45L75.79 186.77L75.81 186.1L75.86 185.42L75.92 184.75L76 184.07L76.1 183.4L76.21 182.72L76.34 182.05L76.48 181.38L76.64 180.71L76.82 180.05L77.01 179.38L77.22 178.72L77.44 178.07L77.68 177.41L77.93 176.76L78.2 176.12L78.48 175.48L78.78 174.85L79.1 174.22L79.43 173.59L79.77 172.98L80.13 172.37L80.5 171.76L80.89 171.17L81.4 170.42L81.92 169.69L82.45 168.97L83 168.26L83.55 167.56L84.13 166.87L84.71 166.19L85.31 165.53L85.91 164.87L86.53 164.22L87.16 163.59L87.8 162.96L88.45 162.34L89.11 161.74L89.78 161.14L90.46 160.55L91.15 159.97L91.84 159.4L92.55 158.84L93.26 158.29L93.98 157.74L95.44 156.68L96.18 156.16L96.93 155.65L97.68 155.14L98.44 154.65L99.21 154.16L99.98 153.68L100.75 153.2L101.53 152.73L102.31 152.27L103.09 151.82L103.88 151.37L104.67 150.93L105.47 150.49L106.27 150.07L107.06 149.64L107.87 149.22L108.67 148.81L108.73 148.78L108.8 148.75L108.86 148.71L108.93 148.68L108.99 148.65L109.06 148.62L109.12 148.58L109.19 148.55L109.25 148.52L109.32 148.48L109.38 148.45L109.45 148.42L109.51 148.39L109.58 148.35L109.64 148.32L109.71 148.29L109.77 148.26L109.84 148.22L109.9 148.19L109.97 148.16L110.03 148.13L110.1 148.09L110.16 148.06L110.23 148.03L110.29 148L110.36 147.97L110.42 147.93L110.49 147.9L110.55 147.87L110.62 147.84L110.68 147.81L110.75 147.77L110.82 147.74L110.88 147.71L110.95 147.68L111.01 147.65L111.08 147.62L111.14 147.58L111.21 147.55L111.27 147.52L109.57 147.13L107.89 146.71L106.23 146.25L104.59 145.76L102.98 145.23L101.39 144.67L99.84 144.06L98.31 143.41L96.82 142.73L95.36 142L93.93 141.23L92.54 140.42L91.19 139.57L89.88 138.67L88.61 137.72L87.38 136.73L86.19 135.69L85.05 134.61L83.96 133.47L82.92 132.29L81.92 131.05L80.98 129.76L80.09 128.42L79.26 127.03L78.48 125.58L77.76 124.08L77.11 122.53L76.51 120.91L75.97 119.24L75.5 117.51L75.1 115.72L74.76 113.87L74.49 111.96L74.29 109.99L74.17 107.95L74.12 105.85L74.14 103.69L74.24 101.46L74.42 99.17L74.68 96.81L74.68 79.13L74.71 78.79L74.75 78.45L74.79 78.11L74.87 77.43L74.92 77.09L74.96 76.75L75.01 76.42L75.06 76.08L75.11 75.75L75.16 75.42L75.26 74.76L75.32 74.43L75.37 74.1L75.43 73.77L75.49 73.45L75.55 73.12L75.61 72.8L75.67 72.48L75.73 72.15L75.8 71.83L75.86 71.52L75.93 71.2L76 70.88L76.07 70.56L76.14 70.25L76.21 69.93L76.29 69.62L76.36 69.31L76.6 68.38L76.68 68.07L76.76 67.77L76.84 67.46L76.92 67.16L77.01 66.85L77.09 66.55L77.18 66.25L77.06 66.17L76.93 66.1L76.81 66.02L76.68 65.94L76.56 65.86L76.44 65.78L76.31 65.7L76.19 65.62L76.07 65.54L75.94 65.45L75.82 65.37L75.7 65.28L75.58 65.2L75.46 65.11L75.34 65.02L75.22 64.94L74.98 64.76L74.86 64.67L74.74 64.58L74.62 64.49L74.5 64.39L74.38 64.3L74.27 64.21L74.15 64.11L74.03 64.02L73.91 63.92L73.8 63.82L73.68 63.73L73.57 63.63L73.45 63.53L73.34 63.43L73.22 63.33L73.11 63.23L73 63.12L72.88 63.02L72.77 62.92L72.66 62.81L72.55 62.71L72.43 62.6L71.71 61.88L71.01 61.14L70.35 60.38L69.72 59.61L69.13 58.81L68.57 58.01L68.04 57.19L67.54 56.35L67.08 55.51L66.66 54.65L66.26 53.79L65.9 52.91L65.58 52.03L65.28 51.14L65.02 50.25L64.8 49.35L64.61 48.45L64.45 47.55L64.33 46.64L64.25 45.74L64.19 44.84L64.17 43.94L64.19 43.04L64.24 42.15L64.33 41.26L64.45 40.38L64.61 39.51L64.8 38.64L65.02 37.79L65.29 36.94L65.58 36.11L65.92 35.29L66.28 34.48L66.69 33.69L67.13 32.92L67.6 32.16L68.11 31.42L68.66 30.71L69.24 30.01L69.86 29.33L70.51 28.68L71.18 28.07L71.88 27.49L72.59 26.95L73.33 26.44L74.08 25.96L74.85 25.53L75.64 25.12L76.44 24.75L77.26 24.42L78.09 24.12L78.94 23.86L79.79 23.63L80.66 23.43L81.53 23.27L82.42 23.14L83.31 23.05L84.2 23L85.1 22.97L86.01 22.99L86.91 23.03L87.82 23.11L88.73 23.23L89.64 23.38L90.54 23.56L91.45 23.78L92.35 24.03L93.24 24.32L94.13 24.64L95.01 25L95.89 25.39L96.75 25.81L97.61 26.27L98.45 26.76L99.28 27.28L100.1 27.84L100.9 28.43L101.69 29.06L102.46 29.72L103.21 30.42L103.27 30.46L103.29 30.49L103.32 30.51L103.34 30.54L103.37 30.56L103.39 30.59L103.42 30.61L103.44 30.64L103.47 30.66L103.54 30.73L103.57 30.76L103.62 30.81L103.64 30.83L103.66 30.86L103.69 30.88L103.71 30.91L103.74 30.93L103.76 30.96L103.79 30.98L103.81 31.01L103.84 31.03L103.86 31.06L103.89 31.08L103.91 31.11L104.03 31.23L104.05 31.26L104.08 31.28L104.1 31.31L104.13 31.33L104.15 31.36L104.17 31.38L104.2 31.41L105.58 30.64L106.98 29.91L108.39 29.21L109.82 28.56L111.27 27.94L112.73 27.36L114.2 26.81L115.69 26.3L117.19 25.83L118.7 25.4L120.21 25L121.74 24.64L123.27 24.32L124.81 24.03L126.36 23.78L127.91 23.57L129.46 23.4L131.02 23.26L132.58 23.15L134.14 23.09L135.7 23.06L137.26 23.06L138.82 23.11L140.37 23.19L141.93 23.3L143.47 23.45L145.02 23.64L146.55 23.86L148.08 24.12L149.6 24.42L151.11 24.75L152.61 25.12L154.1 25.52L155.58 25.96L157.04 26.43L158.49 26.94L159.93 27.49L161.35 28.07L162.75 28.68L164.14 29.33L164.89 28.72L165.65 28.13L166.43 27.58L167.22 27.06L168.03 26.57L168.84 26.11L169.67 25.68L170.5 25.28L171.34 24.92L172.19 24.58L173.04 24.28L173.91 24.01L174.77 23.77L175.64 23.56L176.51 23.38L177.38 23.24L178.25 23.12L179.13 23.04L180 22.99L180.87 22.97L181.73 22.99L182.59 23.03ZM132.13 82.64L130.87 82.66L128.37 82.7L127.12 82.73L125.86 82.76L124.61 82.79L123.35 82.83L122.09 82.87L120.84 82.91L119.58 82.96L117.06 83.06L115.8 83.12L114.54 83.18L113.27 83.25L112.01 83.32L110.74 83.39L109.48 83.46L108.21 83.54L106.95 83.62L103.14 83.89L101.87 83.98L100.6 84.08L99.32 84.19L98.05 84.29L96.78 84.4L95.5 84.51L94.23 84.63L92.95 84.75L91.67 84.87L90.39 85L89.11 85.13L87.83 85.26L83.99 85.68L83.49 85.78L83.04 85.97L82.64 86.27L82.28 86.65L81.97 87.12L81.71 87.66L81.48 88.29L81.3 88.98L81.17 89.74L81.07 90.55L81.01 91.42L80.99 92.34L81.01 93.3L81.06 94.31L81.15 95.34L81.27 96.4L81.42 97.49L81.61 98.6L81.82 99.71L82.07 100.84L82.34 101.97L82.65 103.09L82.97 104.21L83.32 105.31L83.7 106.4L84.1 107.46L84.52 108.5L84.96 109.5L85.42 110.46L85.9 111.37L86.4 112.24L86.91 113.06L87.44 113.81L87.98 114.5L88.54 115.12L89.11 115.66L89.69 116.13L90.27 116.51L90.87 116.8L91.48 116.99L179.57 116.58L180.27 116.64L180.94 116.58L181.6 116.41L182.24 116.13L182.86 115.75L183.45 115.27L184.03 114.7L184.58 114.05L185.11 113.32L185.62 112.53L186.1 111.66L186.55 110.74L186.98 109.77L187.38 108.75L187.75 107.68L188.1 106.59L188.41 105.46L188.69 104.31L188.94 103.15L189.16 101.98L189.34 100.8L189.49 99.62L189.6 98.45L189.68 97.3L189.72 96.16L189.72 95.05L189.68 93.98L189.6 92.94L189.48 91.95L189.32 91L189.12 90.12L188.88 89.29L188.59 88.54L188.25 87.86L187.88 87.26L187.45 86.74L186.98 86.32L186.45 86L185.88 85.79L185.26 85.68L183.98 85.54L182.7 85.4L181.42 85.26L180.14 85.13L178.86 85L177.58 84.87L176.3 84.75L175.02 84.63L173.75 84.51L172.47 84.4L171.2 84.29L169.93 84.19L168.65 84.08L167.38 83.98L166.11 83.89L164.84 83.8L163.57 83.71L162.31 83.62L161.04 83.54L159.77 83.46L158.51 83.39L157.24 83.32L155.98 83.25L154.72 83.18L153.45 83.12L152.19 83.06L149.67 82.96L148.41 82.91L147.16 82.87L145.9 82.83L144.64 82.79L143.39 82.76L142.13 82.73L140.88 82.7L138.38 82.66L137.12 82.64L134.62 82.62L133.38 82.63L132.13 82.64Z" id="a7EzewlGUc"></path><path d="M221.34 134.73L208.09 141.82L201 155.07L193.92 141.82L180.66 134.73L193.92 127.64L201 114.39L208.09 127.64L221.34 134.73ZM198.31 128.36L197.14 129L196.12 129.85L195.28 130.87L194.64 132.04L194.24 133.34L194.1 134.73L194.24 136.12L194.64 137.42L195.28 138.59L196.12 139.61L197.14 140.46L198.31 141.09L199.61 141.5L201 141.64L202.39 141.5L203.69 141.09L204.86 140.46L205.89 139.61L206.73 138.59L207.37 137.42L207.77 136.12L207.91 134.73L207.77 133.34L207.37 132.04L206.73 130.87L205.89 129.85L204.86 129L203.69 128.36L202.39 127.96L201 127.82L199.61 127.96L198.31 128.36Z" id="bqlxTVoHU"></path><path d="M221.34 134.73L208.09 141.82L201 155.07L193.92 141.82L180.66 134.73L193.92 127.64L201 114.39L208.09 127.64L221.34 134.73ZM198.31 128.36L197.14 129L196.12 129.85L195.28 130.87L194.64 132.04L194.24 133.34L194.1 134.73L194.24 136.12L194.64 137.42L195.28 138.59L196.12 139.61L197.14 140.46L198.31 141.09L199.61 141.5L201 141.64L202.39 141.5L203.69 141.09L204.86 140.46L205.89 139.61L206.73 138.59L207.37 137.42L207.77 136.12L207.91 134.73L207.77 133.34L207.37 132.04L206.73 130.87L205.89 129.85L204.86 129L203.69 128.36L202.39 127.96L201 127.82L199.61 127.96L198.31 128.36Z" id="h7iviIQ2Tj"></path><path d="M193.14 138.17C195.24 138.17 196.95 139.88 196.95 141.98C196.95 144.09 195.24 145.8 193.14 145.8C191.03 145.8 189.32 144.09 189.32 141.98C189.32 139.88 191.03 138.17 193.14 138.17" id="a2nYFeUY3i"></path><path d="M193.14 138.17C195.24 138.17 196.95 139.88 196.95 141.98C196.95 144.09 195.24 145.8 193.14 145.8C191.03 145.8 189.32 144.09 189.32 141.98C189.32 139.88 191.03 138.17 193.14 138.17" id="b2j0fqeC6L"></path><path d="M194.11 68.47C194.46 70.55 194.72 72.69 194.89 74.86C194.89 75.94 194.89 84.61 194.89 85.7C156.59 79.34 116.24 79.63 74.12 85.7C74.12 84.62 74.12 75.94 74.12 74.86C74.38 72.69 74.72 70.57 75.12 68.49C115.7 60.42 155.38 60.59 194.11 68.47" id="d1JQ4MZFAG"></path><path d="M194.11 68.47C194.46 70.55 194.72 72.69 194.89 74.86C194.89 75.94 194.89 84.61 194.89 85.7C156.59 79.34 116.24 79.63 74.12 85.7C74.12 84.62 74.12 75.94 74.12 74.86C74.38 72.69 74.72 70.57 75.12 68.49C115.7 60.42 155.38 60.59 194.11 68.47" id="bpYwSd3To"></path><path d="M161.58 147.44C163.05 147.59 164.13 149.11 163.62 150.51C163.33 151.29 162.65 152.53 162.07 153.65C152.39 172.16 136.88 187.72 119.28 198.52C114.48 201.46 109.47 204.04 104.19 206.02C103.09 206.44 100.96 205.88 100.84 204.11C100.72 202.12 103.54 201.4 106.01 200.32C124.81 192.1 140.98 177.6 152.43 160.78C155.04 156.94 157.4 152.9 159.38 148.74C159.38 148.74 160.04 147.71 160.91 147.5C161.33 147.4 161.44 147.44 161.58 147.44" id="ddmV07AIZ"></path><path d="M161.58 147.44C163.05 147.59 164.13 149.11 163.62 150.51C163.33 151.29 162.65 152.53 162.07 153.65C152.39 172.16 136.88 187.72 119.28 198.52C114.48 201.46 109.47 204.04 104.19 206.02C103.09 206.44 100.96 205.88 100.84 204.11C100.72 202.12 103.54 201.4 106.01 200.32C124.81 192.1 140.98 177.6 152.43 160.78C155.04 156.94 157.4 152.9 159.38 148.74C159.38 148.74 160.04 147.71 160.91 147.5C161.33 147.4 161.44 147.44 161.58 147.44" id="b2y66CFyh6"></path><path d="M170.48 208.03C153.44 212.38 135.48 213.23 118.2 211.67C113.03 211.2 107.74 210.76 102.99 208.67C102.02 208.24 101.08 207.71 100.31 206.98C100.28 206.96 100.1 206.77 100.07 206.74C99.88 206.52 99.83 206.46 99.67 206.21C98.23 204 99.59 200.5 102.26 199.92C103.52 199.65 104.73 200.14 105.89 200.89C107.52 201.9 109.86 202.19 112.19 202.58C123.82 204.55 135.78 204.38 147.6 203.36C155.22 202.71 162.81 201.56 170.19 199.55C170.26 199.54 170.45 199.49 170.52 199.48C171.92 200.37 171.74 206.9 170.48 208.03Z" id="cfayPaido"></path><path d="M170.48 208.03C153.44 212.38 135.48 213.23 118.2 211.67C113.03 211.2 107.74 210.76 102.99 208.67C102.02 208.24 101.08 207.71 100.31 206.98C100.28 206.96 100.1 206.77 100.07 206.74C99.88 206.52 99.83 206.46 99.67 206.21C98.23 204 99.59 200.5 102.26 199.92C103.52 199.65 104.73 200.14 105.89 200.89C107.52 201.9 109.86 202.19 112.19 202.58C123.82 204.55 135.78 204.38 147.6 203.36C155.22 202.71 162.81 201.56 170.19 199.55C170.26 199.54 170.45 199.49 170.52 199.48C171.92 200.37 171.74 206.9 170.48 208.03Z" id="dbjvWLLYS"></path><path d="M109.9 201.04L96.65 208.13L89.56 221.38L82.48 208.13L69.23 201.04L82.48 193.95L89.56 180.7L96.65 193.95L109.9 201.04ZM86.88 194.67L85.7 195.31L84.68 196.16L83.84 197.18L83.2 198.35L82.8 199.65L82.66 201.04L82.8 202.43L83.2 203.73L83.84 204.9L84.68 205.92L85.7 206.77L86.88 207.4L88.17 207.81L89.56 207.95L90.95 207.81L92.25 207.4L93.42 206.77L94.45 205.92L95.29 204.9L95.93 203.73L96.33 202.43L96.47 201.04L96.33 199.65L95.93 198.35L95.29 197.18L94.45 196.16L93.42 195.31L92.25 194.67L90.95 194.27L89.56 194.13L88.17 194.27L86.88 194.67Z" id="a45IKCK20G"></path><path d="M109.9 201.04L96.65 208.13L89.56 221.38L82.48 208.13L69.23 201.04L82.48 193.95L89.56 180.7L96.65 193.95L109.9 201.04ZM86.88 194.67L85.7 195.31L84.68 196.16L83.84 197.18L83.2 198.35L82.8 199.65L82.66 201.04L82.8 202.43L83.2 203.73L83.84 204.9L84.68 205.92L85.7 206.77L86.88 207.4L88.17 207.81L89.56 207.95L90.95 207.81L92.25 207.4L93.42 206.77L94.45 205.92L95.29 204.9L95.93 203.73L96.33 202.43L96.47 201.04L96.33 199.65L95.93 198.35L95.29 197.18L94.45 196.16L93.42 195.31L92.25 194.67L90.95 194.27L89.56 194.13L88.17 194.27L86.88 194.67Z" id="d7isXlAYqu"></path><path d="M83.46 187.8C85.56 187.8 87.27 189.51 87.27 191.61C87.27 193.72 85.56 195.42 83.46 195.42C81.35 195.42 79.64 193.72 79.64 191.61C79.64 189.51 81.35 187.8 83.46 187.8" id="izXRQz1XN"></path><path d="M83.46 187.8C85.56 187.8 87.27 189.51 87.27 191.61C87.27 193.72 85.56 195.42 83.46 195.42C81.35 195.42 79.64 193.72 79.64 191.61C79.64 189.51 81.35 187.8 83.46 187.8" id="b2ApOkrnDv"></path></defs><g><g><g><use xlink:href="#b1Sp4TuOpY" opacity="1" fill="#a9a9a9" fill-opacity="1"></use><g><use xlink:href="#b1Sp4TuOpY" opacity="1" fill-opacity="0" stroke="#000000" stroke-width="1" stroke-opacity="0"></use></g></g><g><use xlink:href="#a4GKOJ2mtu" opacity="1" fill="#000000" fill-opacity="0"></use><g><use xlink:href="#a4GKOJ2mtu" opacity="1" fill-opacity="0" stroke="#000000" stroke-width="1" stroke-opacity="0"></use></g></g><g><use xlink:href="#b25RjLbHAK" opacity="1" fill="#797979" fill-opacity="1"></use><g><use xlink:href="#b25RjLbHAK" opacity="1" fill-opacity="0" stroke="#000000" stroke-width="1" stroke-opacity="0"></use></g></g><g><use xlink:href="#c50bLsmU63" opacity="1" fill="#000000" fill-opacity="0"></use><g><use xlink:href="#c50bLsmU63" opacity="1" fill-opacity="0" stroke="#000000" stroke-width="1" stroke-opacity="0"></use></g></g><g><use xlink:href="#a1QzZNlPyD" opacity="1" fill="#797979" fill-opacity="1"></use><g><use xlink:href="#a1QzZNlPyD" opacity="1" fill-opacity="0" stroke="#000000" stroke-width="1" stroke-opacity="0"></use></g></g><g><use xlink:href="#d6BlUG06a2" opacity="1" fill="#000000" fill-opacity="0"></use><g><use xlink:href="#d6BlUG06a2" opacity="1" fill-opacity="0" stroke="#000000" stroke-width="1" stroke-opacity="0"></use></g></g><g><use xlink:href="#b2Lb52zdVY" opacity="1" fill="#d7d5d3" fill-opacity="1"></use><g><use xlink:href="#b2Lb52zdVY" opacity="1" fill-opacity="0" stroke="#000000" stroke-width="1" stroke-opacity="0"></use></g></g><g><use xlink:href="#a3zjoJV1Vn" opacity="1" fill="#000000" fill-opacity="0"></use><g><use xlink:href="#a3zjoJV1Vn" opacity="1" fill-opacity="0" stroke="#000000" stroke-width="1" stroke-opacity="0"></use></g></g><g><use xlink:href="#g5F8kpV6oO" opacity="1" fill="#1f2633" fill-opacity="1"></use><g><use xlink:href="#g5F8kpV6oO" opacity="1" fill-opacity="0" stroke="#000000" stroke-width="1" stroke-opacity="0"></use></g></g><g><use xlink:href="#o5KbfCkhMD" opacity="1" fill="#000000" fill-opacity="0"></use><g><use xlink:href="#o5KbfCkhMD" opacity="1" fill-opacity="0" stroke="#000000" stroke-width="1" stroke-opacity="0"></use></g></g><g><use xlink:href="#j9IdQG4Tcs" opacity="1" fill="#1f2633" fill-opacity="1"></use><g><use xlink:href="#j9IdQG4Tcs" opacity="1" fill-opacity="0" stroke="#000000" stroke-width="1" stroke-opacity="0"></use></g></g><g><use xlink:href="#a2Grl5Va8s" opacity="1" fill="#000000" fill-opacity="0"></use><g><use xlink:href="#a2Grl5Va8s" opacity="1" fill-opacity="0" stroke="#000000" stroke-width="1" stroke-opacity="0"></use></g></g><g><use xlink:href="#aHNKgVFO3" opacity="1" fill="#1f2633" fill-opacity="1"></use><g><use xlink:href="#aHNKgVFO3" opacity="1" fill-opacity="0" stroke="#000000" stroke-width="1" stroke-opacity="0"></use></g></g><g><use xlink:href="#bIeooKqdm" opacity="1" fill="#000000" fill-opacity="0"></use><g><use xlink:href="#bIeooKqdm" opacity="1" fill-opacity="0" stroke="#000000" stroke-width="1" stroke-opacity="0"></use></g></g><g><use xlink:href="#a1noHgnjnT" opacity="1" fill="#636363" fill-opacity="1"></use><g><use xlink:href="#a1noHgnjnT" opacity="1" fill-opacity="0" stroke="#000000" stroke-width="1" stroke-opacity="0"></use></g></g><g><use xlink:href="#bxoeK1SY2" opacity="1" fill="#000000" fill-opacity="0"></use><g><use xlink:href="#bxoeK1SY2" opacity="1" fill-opacity="0" stroke="#000000" stroke-width="1" stroke-opacity="0"></use></g></g><g><use xlink:href="#eX3Kibgcg" opacity="1" fill="#636363" fill-opacity="1"></use><g><use xlink:href="#eX3Kibgcg" opacity="1" fill-opacity="0" stroke="#000000" stroke-width="1" stroke-opacity="0"></use></g></g><g><use xlink:href="#b1i9kjOXgk" opacity="1" fill="#000000" fill-opacity="0"></use><g><use xlink:href="#b1i9kjOXgk" opacity="1" fill-opacity="0" stroke="#000000" stroke-width="1" stroke-opacity="0"></use></g></g><g><use xlink:href="#b2HAUCQNjs" opacity="1" fill="#ffffff" fill-opacity="1"></use><g><use xlink:href="#b2HAUCQNjs" opacity="1" fill-opacity="0" stroke="#000000" stroke-width="1" stroke-opacity="0"></use></g></g><g><use xlink:href="#a9Z1eUsbE" opacity="1" fill="#000000" fill-opacity="0"></use><g><use xlink:href="#a9Z1eUsbE" opacity="1" fill-opacity="0" stroke="#000000" stroke-width="1" stroke-opacity="0"></use></g></g><g><use xlink:href="#c4I3l0y9Y" opacity="1" fill="#ffffff" fill-opacity="1"></use><g><use xlink:href="#c4I3l0y9Y" opacity="1" fill-opacity="0" stroke="#000000" stroke-width="1" stroke-opacity="0"></use></g></g><g><use xlink:href="#b1HiNTdmCf" opacity="1" fill="#000000" fill-opacity="0"></use><g><use xlink:href="#b1HiNTdmCf" opacity="1" fill-opacity="0" stroke="#000000" stroke-width="1" stroke-opacity="0"></use></g></g><g><use xlink:href="#bpCCNVtlu" opacity="1" fill="#323940" fill-opacity="1"></use><g><use xlink:href="#bpCCNVtlu" opacity="1" fill-opacity="0" stroke="#000000" stroke-width="1" stroke-opacity="0"></use></g></g><g><use xlink:href="#a7EzewlGUc" opacity="1" fill="#000000" fill-opacity="0"></use><g><use xlink:href="#a7EzewlGUc" opacity="1" fill-opacity="0" stroke="#000000" stroke-width="1" stroke-opacity="0"></use></g></g><g><use xlink:href="#bqlxTVoHU" opacity="1" fill="#9d9d9d" fill-opacity="1"></use><g><use xlink:href="#bqlxTVoHU" opacity="1" fill-opacity="0" stroke="#000000" stroke-width="1" stroke-opacity="0"></use></g></g><g><use xlink:href="#h7iviIQ2Tj" opacity="1" fill="#000000" fill-opacity="0"></use><g><use xlink:href="#h7iviIQ2Tj" opacity="1" fill-opacity="0" stroke="#000000" stroke-width="1" stroke-opacity="0"></use></g></g><g><use xlink:href="#a2nYFeUY3i" opacity="1" fill="#323940" fill-opacity="1"></use><g><use xlink:href="#a2nYFeUY3i" opacity="1" fill-opacity="0" stroke="#000000" stroke-width="1" stroke-opacity="0"></use></g></g><g><use xlink:href="#b2j0fqeC6L" opacity="1" fill="#000000" fill-opacity="0"></use><g><use xlink:href="#b2j0fqeC6L" opacity="1" fill-opacity="0" stroke="#000000" stroke-width="1" stroke-opacity="0"></use></g></g><g><use xlink:href="#d1JQ4MZFAG" opacity="1" fill="#797979" fill-opacity="1"></use><g><use xlink:href="#d1JQ4MZFAG" opacity="1" fill-opacity="0" stroke="#000000" stroke-width="1" stroke-opacity="0"></use></g></g><g><use xlink:href="#bpYwSd3To" opacity="1" fill="#000000" fill-opacity="0"></use><g><use xlink:href="#bpYwSd3To" opacity="1" fill-opacity="0" stroke="#000000" stroke-width="1" stroke-opacity="0"></use></g></g><g><use xlink:href="#ddmV07AIZ" opacity="1" fill="#dba425" fill-opacity="1"></use><g><use xlink:href="#ddmV07AIZ" opacity="1" fill-opacity="0" stroke="#000000" stroke-width="1" stroke-opacity="0"></use></g></g><g><use xlink:href="#b2y66CFyh6" opacity="1" fill="#000000" fill-opacity="0"></use><g><use xlink:href="#b2y66CFyh6" opacity="1" fill-opacity="0" stroke="#000000" stroke-width="1" stroke-opacity="0"></use></g></g><g><use xlink:href="#cfayPaido" opacity="1" fill="#a9a9a9" fill-opacity="1"></use><g><use xlink:href="#cfayPaido" opacity="1" fill-opacity="0" stroke="#000000" stroke-width="1" stroke-opacity="0"></use></g></g><g><use xlink:href="#dbjvWLLYS" opacity="1" fill="#000000" fill-opacity="0"></use><g><use xlink:href="#dbjvWLLYS" opacity="1" fill-opacity="0" stroke="#000000" stroke-width="1" stroke-opacity="0"></use></g></g><g><use xlink:href="#a45IKCK20G" opacity="1" fill="#9d9d9d" fill-opacity="1"></use><g><use xlink:href="#a45IKCK20G" opacity="1" fill-opacity="0" stroke="#000000" stroke-width="1" stroke-opacity="0"></use></g></g><g><use xlink:href="#d7isXlAYqu" opacity="1" fill="#000000" fill-opacity="0"></use><g><use xlink:href="#d7isXlAYqu" opacity="1" fill-opacity="0" stroke="#000000" stroke-width="1" stroke-opacity="0"></use></g></g><g><use xlink:href="#izXRQz1XN" opacity="1" fill="#323940" fill-opacity="1"></use><g><use xlink:href="#izXRQz1XN" opacity="1" fill-opacity="0" stroke="#000000" stroke-width="1" stroke-opacity="0"></use></g></g><g><use xlink:href="#b2ApOkrnDv" opacity="1" fill="#000000" fill-opacity="0"></use><g><use xlink:href="#b2ApOkrnDv" opacity="1" fill-opacity="0" stroke="#000000" stroke-width="1" stroke-opacity="0"></use></g></g></g></g></svg>